<svg xmlns="http://www.w3.org/2000/svg" version="1.1" xmlns:xlink="http://www.w3.org/1999/xlink" width="662" height="500"><svg width="662" height="500" viewBox="0 0 662 500" fill="none" xmlns="http://www.w3.org/2000/svg">
<path d="M331.648 0C555.121 0 649.693 87.013 662 229.221H403.548C397.718 207.792 378.933 188.312 331 188.312C279.828 188.312 255.861 212.987 255.861 247.403V252.597C255.861 287.013 279.828 311.688 331 311.688C378.933 311.688 397.718 292.208 403.548 270.779H662C649.693 412.987 555.121 500 331.648 500C102.992 500 0 396.753 0 262.338V250C49.3025 250 90.0451 213.332 96.4679 165.766C108.417 171.877 121.953 175.325 136.294 175.325C184.684 175.325 223.912 136.077 223.912 87.6623C223.912 82.1917 223.411 76.8381 222.448 71.6478C231.86 75.686 242.228 77.9221 253.118 77.9221C295.701 77.9221 330.302 43.7294 330.99 1.28858L331 0.00324675L331.648 0Z" fill="#C2242E"></path>
</svg><style>@media (prefers-color-scheme: light) { :root { filter: none; } }
@media (prefers-color-scheme: dark) { :root { filter: none; } }
</style></svg>