<svg xmlns="http://www.w3.org/2000/svg" version="1.1" xmlns:xlink="http://www.w3.org/1999/xlink" width="662" height="662"><svg width="662" height="662" viewBox="0 0 662 662" fill="none" xmlns="http://www.w3.org/2000/svg">
<path d="M331.648 81C555.121 81 649.693 168.013 662 310.221H403.548C397.718 288.792 378.933 269.312 331 269.312C279.828 269.312 255.861 293.987 255.861 328.403V333.597C255.861 368.013 279.828 392.688 331 392.688C378.933 392.688 397.718 373.208 403.548 351.779H662C649.693 493.987 555.121 581 331.648 581C102.992 581 0 477.753 0 343.338V331C49.3025 331 90.0451 294.332 96.4679 246.766C108.417 252.877 121.953 256.325 136.294 256.325C184.684 256.325 223.912 217.077 223.912 168.662C223.912 163.192 223.411 157.838 222.448 152.648C231.86 156.686 242.228 158.922 253.118 158.922C295.701 158.922 330.302 124.729 330.99 82.2886L331 81.0032L331.648 81Z" fill="#C2242E"></path>
</svg><style>@media (prefers-color-scheme: light) { :root { filter: none; } }
@media (prefers-color-scheme: dark) { :root { filter: none; } }
</style></svg>