<svg xmlns="http://www.w3.org/2000/svg" viewBox="0 0 211.13 209.76"><g id="Layer_2" data-name="Layer 2"><g id="レイヤー_1" data-name="レイヤー 1"><path d="M165.28,59.06a62.62,62.62,0,0,1-.53,7.32c-.23,2.4-.53,4.81-.85,7.2l-.72,5.18c0,.26-.14.52-.19.79-.08.49,0,.54.45.55.66,0,1.31.09,2,.16a13.33,13.33,0,0,1,5.86,2.37,17.09,17.09,0,0,1,6.11,7.59,21,21,0,0,1,1.68,9.28,42.43,42.43,0,0,1-.52,6,21.49,21.49,0,0,1-5.32,11.29A20.79,20.79,0,0,1,162.3,123c-1.19.26-2.4.39-3.61.53a1.44,1.44,0,0,0-1.24.91,67.56,67.56,0,0,1-4.57,8.61,73.67,73.67,0,0,1-5,6.7,55.65,55.65,0,0,1-7.75,7.75,56.64,56.64,0,0,1-8.52,6.05c-.13.07-.26.16-.4.23a1.05,1.05,0,0,0-.56,1c0,1.58-.06,3.17-.08,4.76,0,.55,0,.6.54.72a94.75,94.75,0,0,1,13.45,4.19c2,.85,4,1.73,5.92,2.68a9.83,9.83,0,0,1,4,3.74,2.55,2.55,0,0,1,.36,2.06,12.68,12.68,0,0,1-.4,1.33,32.08,32.08,0,0,0-1.6,5.93,3.19,3.19,0,0,0,.35,2,2.09,2.09,0,0,0,3.53.38c.71-.87,1.27-1.85,1.9-2.78.33-.5.67-1,1-1.49a3.08,3.08,0,0,1,.37-.44,1.47,1.47,0,0,1,2.3-.12,5.57,5.57,0,0,1,.51.46,19.32,19.32,0,0,0,6.2,4.14,24.46,24.46,0,0,0,6.48,1.94c1.21.19,2.41.42,3.61.6s1.34.48,1.32,1.59a28.51,28.51,0,0,1-.4,3.69c-.09.58-.17,1.15-.26,1.72a3.65,3.65,0,0,0,0,1,1.9,1.9,0,0,0,2.29,1.82,3.25,3.25,0,0,0,2.17-1.12,8.66,8.66,0,0,0,1.55-2.37,21,21,0,0,0,1.14-3c.21-.65.41-1.29.61-1.94s.44-.88,1.22-.93l2-.11c1.31-.08,2.62-.24,3.92-.45a4.32,4.32,0,0,1,1.39-.07,1.58,1.58,0,0,1,1.38,2,3.08,3.08,0,0,1-1,1.77,4.94,4.94,0,0,1-1.53.94,13.08,13.08,0,0,1-3.52.93,1,1,0,0,0-.94.71,21.55,21.55,0,0,1-1.14,2.55.69.69,0,0,0,0,.84c.75,1.11,1.49,2.22,2.22,3.34a48.49,48.49,0,0,1,3.06,5.27,12.61,12.61,0,0,1,1.26,3.48,5,5,0,0,1,0,1.44,1.91,1.91,0,0,1-1.91,1.76,3.24,3.24,0,0,1-2.61-1,5.45,5.45,0,0,1-.84-1.19,75.69,75.69,0,0,0-5.07-8.25l-.21-.29c-.35-.44-.39-.47-.92-.25a6.59,6.59,0,0,1-7.32-2.11,6.3,6.3,0,0,1-1.23-3.39,27.64,27.64,0,0,1,0-3c0-.41-.05-.49-.45-.52a31.86,31.86,0,0,1-5.71-1.28,21.9,21.9,0,0,1-6.51-3.14,10.73,10.73,0,0,1-1.63-1.38c-.35-.36-.42-.36-.7.07a7.67,7.67,0,0,1-1.48,1.78,6.69,6.69,0,0,1-8.66.31,5.28,5.28,0,0,1-1.95-3.27,15.56,15.56,0,0,1,0-6.34c.17-.92.44-1.81.69-2.7.2-.69.17-.72-.45-1.11a26.36,26.36,0,0,0-5-2.27c-2.76-1-5.53-2-8.32-2.94a33.09,33.09,0,0,0-5.56-1.42c-.45-.07-.5-.05-.64.37s-.22.74-.34,1.11a17.74,17.74,0,0,1-4.51,7.15,26.38,26.38,0,0,1-12.51,7.13,58.92,58.92,0,0,1-11.22,1.76,56.65,56.65,0,0,1-8.24,0A38.22,38.22,0,0,1,79,180.13a27.14,27.14,0,0,1-9.22-7.2,16.82,16.82,0,0,1-3.23-6.13c0-.11,0-.22-.09-.33-.15-.46-.21-.5-.67-.38A109.92,109.92,0,0,0,53.52,170a107.54,107.54,0,0,0-23.78,13,150,150,0,0,0-11.88,9.59c-1.21,1.07-2.46,2.07-3.56,3.25a65.66,65.66,0,0,0-6.15,7.27c-.94,1.35-1.73,2.8-2.58,4.2A7,7,0,0,1,4.25,209a2.86,2.86,0,0,1-2.53.71,1.86,1.86,0,0,1-1.46-1.19,4,4,0,0,1-.18-2.28A11.53,11.53,0,0,1,1.18,203,41.85,41.85,0,0,1,7,194.62a109.28,109.28,0,0,1,25.7-21.21,126.31,126.31,0,0,1,26.69-11.69c1.76-.54,3.55-1,5.35-1.34l.28-.07a.48.48,0,0,0,.46-.55q0-2.67,0-5.34a.7.7,0,0,0-.38-.66c-.75-.45-1.48-.93-2.23-1.36a57.53,57.53,0,0,1-13.21-10.65,59.47,59.47,0,0,1-8.74-11.91c-1-1.78-1.88-3.61-2.82-5.4a1.55,1.55,0,0,0-1.35-.93c-.94-.09-1.88-.22-2.82-.4A19.24,19.24,0,0,1,26,119.56a20.63,20.63,0,0,1-3.27-2.86,18.48,18.48,0,0,1-2.48-3.43A25.79,25.79,0,0,1,17,102.76c-.12-1.56-.23-3.12-.2-4.69a20,20,0,0,1,4.56-12.42A14.75,14.75,0,0,1,29,80.51a16.54,16.54,0,0,1,3.2-.51l.41,0c.21,0,.3-.13.27-.35-.07-.47-.13-1-.21-1.43-.39-2.6-.78-5.21-1.09-7.82-.16-1.46-.3-2.93-.44-4.39-.17-1.89-.41-3.78-.45-5.68A51,51,0,0,1,32.09,46.6a60,60,0,0,1,6-15.3,55.61,55.61,0,0,1,15.15-17A68.4,68.4,0,0,1,75.77,3.15,88.67,88.67,0,0,1,84.56,1c1.55-.27,3.1-.45,4.67-.58C91.14.27,93,0,95,0c2.13,0,4.26,0,6.39,0a49.35,49.35,0,0,1,6,.6,89.53,89.53,0,0,1,19.78,5.19A64.36,64.36,0,0,1,149.6,20.38a52.63,52.63,0,0,1,12.54,20.08,54.85,54.85,0,0,1,2.77,11.66A65.94,65.94,0,0,1,165.28,59.06Zm-67.46,97h1.57c2.87-.06,5.72-.34,8.56-.68a54.66,54.66,0,0,0,9-1.83,50.2,50.2,0,0,0,14.22-6.84,49.69,49.69,0,0,0,7.74-6.21c1.28-1.32,2.54-2.65,3.76-4a47.29,47.29,0,0,0,5.19-6.77c.74-1.23,1.41-2.49,2.11-3.74,1-1.85,2.06-3.69,3-5.6a6.29,6.29,0,0,1,.72-1.19,2.85,2.85,0,0,1,1.95-1.14c.46,0,.93-.08,1.39-.12,1-.09,2.05,0,3.07-.2a12.91,12.91,0,0,0,5.27-1.86,27.74,27.74,0,0,0,3.84-3,9.69,9.69,0,0,0,2.36-3.2,24.94,24.94,0,0,0,1.61-5.14,22.25,22.25,0,0,0-.15-8.83,14,14,0,0,0-3.53-6.95,10,10,0,0,0-3.69-2.67c-2.81-1.07-5.6-.66-7.53,2a2.51,2.51,0,0,1-.25.32,6.8,6.8,0,0,1-.61.7,2,2,0,0,1-3.14-.43,7.06,7.06,0,0,1-.35-.67c-.35-.79-.68-1.6-1-2.42-.93-2.75-1.68-5.56-2.49-8.34-1-3.57-2.16-7.11-3-10.73a29.39,29.39,0,0,0-1.62-5,3.22,3.22,0,0,0-1.71-1.73,22.32,22.32,0,0,0-4.45-1.47c-4-.84-8.08-1.44-12.15-1.94-3.81-.47-7.63-.76-11.46-.92s-7.93-.29-11.91-.27l-12.83,0c-.84,0-1.67-.08-2.5-.06-2.46.07-4.92.19-7.37.26-4.17.11-8.31.42-12.45.92-3.94.48-7.87,1-11.77,1.77a23.72,23.72,0,0,0-5.57,1.75A3,3,0,0,0,50.2,61.3a20.41,20.41,0,0,0-1,2.59c-.59,1.79-.94,3.64-1.45,5.44Q45.82,76,43.89,82.6a38.42,38.42,0,0,1-2,5.68,2.08,2.08,0,0,1-3.78.44c-.26-.32-.5-.65-.75-1a5.47,5.47,0,0,0-3.15-2.06,7.08,7.08,0,0,0-5.19.94,12.68,12.68,0,0,0-5.45,6.93,21,21,0,0,0-1,9.16,21.4,21.4,0,0,0,1.29,5.64,12,12,0,0,0,3.41,5c.69.58,1.41,1.16,2.14,1.69a14.79,14.79,0,0,0,7.65,2.77c.81.06,1.63.08,2.44.11a3.3,3.3,0,0,1,3.22,2.14c.33.78.72,1.54,1.09,2.3,1.05,2.13,2.32,4.12,3.53,6.15a52.39,52.39,0,0,0,12.91,14.79A59.17,59.17,0,0,0,77.72,153,62.08,62.08,0,0,0,97.82,156.09Zm-1,22.18a45.79,45.79,0,0,0,8.9-.68,38.61,38.61,0,0,0,9.68-3,17.09,17.09,0,0,0,7.15-6.11,8.44,8.44,0,0,0,1.25-3,19.43,19.43,0,0,0,.38-3c.06-1.53.13-3.06.19-4.59,0-.58-.06-.62-.58-.4s-1.24.56-1.87.81a68,68,0,0,1-16.35,3.8,72.55,72.55,0,0,1-9.09.48,52.92,52.92,0,0,1-12-1.38,60.77,60.77,0,0,1-12.06-3.94c-.54-.25-.6-.21-.6.42,0,2.29.11,4.57.22,6.85a8.67,8.67,0,0,0,2.17,5.33,17.45,17.45,0,0,0,5.69,4.51c1.48.72,3,1.38,4.53,2a28.33,28.33,0,0,0,7.43,1.75C93.5,178.23,95.17,178.21,96.83,178.27Z"/><path d="M164,151.68a12.57,12.57,0,0,1,.46-2.52,15.91,15.91,0,0,1,2-4.61,6.58,6.58,0,0,1,1.22-1.46,3.3,3.3,0,0,1,4.09-.27,4.49,4.49,0,0,1,.89.74,12.67,12.67,0,0,1,3.47,7.25,3.16,3.16,0,0,1-.14,1.43,1,1,0,0,1-1.66.57,2.13,2.13,0,0,1-.69-.77c-.42-.74-.74-1.53-1.09-2.31a17.39,17.39,0,0,0-1.43-2.78,3.42,3.42,0,0,0-.69-.78.84.84,0,0,0-1.29.09,3.59,3.59,0,0,0-.69,1.06,39.2,39.2,0,0,0-1.55,3.88,7.24,7.24,0,0,1-.61,1.44,1.88,1.88,0,0,1-.78.75.91.91,0,0,1-1.38-.58A3.24,3.24,0,0,1,164,151.68Z"/><path d="M195.87,154a18.4,18.4,0,0,1-2.2,7.71,1.55,1.55,0,0,1-1,.8,1,1,0,0,1-1.31-.84,3.48,3.48,0,0,1,0-1.16c.18-1.17.54-2.3.81-3.44.15-.66.33-1.32.49-2a2,2,0,0,0,.06-.92.5.5,0,0,0-.62-.46,3.25,3.25,0,0,0-.61.17,22.45,22.45,0,0,0-3.1,1.46c-.62.32-1.23.64-1.86.95a2.38,2.38,0,0,1-1.17.28,1,1,0,0,1-1-1.24,3.08,3.08,0,0,1,.81-1.58,11.5,11.5,0,0,1,7-3.45,4,4,0,0,1,2.15.38,2.5,2.5,0,0,1,1.52,2.17C195.9,153.22,195.87,153.57,195.87,154Z"/><path d="M178.93,142.47l.75,0a.87.87,0,0,0,.87-.46c.32-.54.63-1.07,1-1.59.54-.82.87-.8,1.34.07a10.08,10.08,0,0,1,.52,1.1c.41,1,.6,1.17,1.72,1.18a3.88,3.88,0,0,1,1.31.22c.48.19.56.4.31.85a5.29,5.29,0,0,1-1,1.21,1.74,1.74,0,0,0-.52,1.89,16.17,16.17,0,0,1,.28,1.6,1.33,1.33,0,0,1,0,.28c0,.53-.18.68-.67.52a3,3,0,0,1-.87-.45c-.49-.34-1-.68-1.46-1.06a1,1,0,0,0-1.28-.09c-.52.29-1.07.54-1.6.81a2.51,2.51,0,0,1-.83.26c-.46.07-.66-.11-.64-.57a2.72,2.72,0,0,1,.1-.57,8.61,8.61,0,0,1,.57-1.64,1.21,1.21,0,0,0-.14-1.36c-.31-.42-.6-.86-.88-1.29a1.86,1.86,0,0,1-.23-.47c-.1-.29,0-.46.3-.49s.7,0,1.05,0Z"/><path d="M182.19,135a.82.82,0,0,1-.54.61c-.36.15-.73.26-1.1.38l-.5.16a1,1,0,0,0-.69.84c-.08.46-.17.91-.26,1.37a2.66,2.66,0,0,1-.16.55c-.18.41-.51.46-.83.14a2.57,2.57,0,0,1-.28-.37c-.39-.53-.76-1.07-1.15-1.61s-.54-.64-1.26-.48a13.62,13.62,0,0,1-2,.31c-.32,0-.72.08-.9-.24s.14-.62.33-.85a14.64,14.64,0,0,1,1.08-1.14.82.82,0,0,0,.21-1,7.32,7.32,0,0,1-.4-1.14,5.51,5.51,0,0,1-.18-1c-.06-.66.16-.83.77-.62.27.1.54.22.8.34l.37.17a.9.9,0,0,0,1.07-.15c.52-.46,1.05-.91,1.58-1.36a2.65,2.65,0,0,1,.62-.43c.49-.23.73-.11.82.42a7,7,0,0,1,.09.92c0,.44,0,.89,0,1.33a1.5,1.5,0,0,0,.78,1.39,8.45,8.45,0,0,1,1.41,1A.85.85,0,0,1,182.19,135Z"/><path d="M197.16,148.55a1,1,0,0,0-.49-1c-.4-.3-.81-.59-1.21-.9-.23-.17-.5-.35-.43-.69s.4-.44.71-.49c.52-.07,1-.17,1.55-.21a1.4,1.4,0,0,0,1.28-.92c.21-.48.44-1,.66-1.42a1.73,1.73,0,0,1,.25-.39c.2-.24.36-.24.59,0a2.58,2.58,0,0,1,.35.45c.3.46.6.91.87,1.37a1.22,1.22,0,0,0,1.2.66c.42,0,.85,0,1.27,0,.58,0,.77.36.46.85a15.06,15.06,0,0,1-1.19,1.57,1.16,1.16,0,0,0-.25,1.32c.18.45.3.92.45,1.38a4.7,4.7,0,0,1,.12.51c.05.44-.17.62-.58.49a2.68,2.68,0,0,1-.42-.19c-.55-.29-1.1-.58-1.64-.88a1.22,1.22,0,0,0-1.46.08c-.36.28-.76.53-1.14.79a4.59,4.59,0,0,1-.62.33c-.56.23-.84,0-.75-.56s.22-1.17.34-1.76C197.11,148.78,197.15,148.61,197.16,148.55Z"/><path d="M208.22,160.07c-.27,0-.54,0-.81,0-.47,0-.58.06-.69.52s-.27,1.12-.4,1.69a6.9,6.9,0,0,1-.21.78c-.09.26-.21.52-.52.56s-.46-.18-.61-.38a6,6,0,0,1-1-1.88,1.48,1.48,0,0,0-1.5-1.19,16,16,0,0,1-1.67-.23,2.89,2.89,0,0,1-.51-.11.38.38,0,0,1-.17-.68,3.54,3.54,0,0,1,.79-.59l1.38-.84c.64-.4.65-.42.48-1.18-.07-.34-.15-.67-.23-1a3.69,3.69,0,0,1-.1-.87c0-.46.16-.56.59-.35s.85.46,1.26.72a1.69,1.69,0,0,0,1.91,0,12,12,0,0,1,1.24-.62c.46-.2.67,0,.61.46s-.17,1.07-.28,1.6a1.34,1.34,0,0,0,.42,1.32c.37.36.74.73,1.1,1.1a2.6,2.6,0,0,1,.37.45.48.48,0,0,1-.4.79c-.34,0-.69,0-1,0Z"/><path d="M194.48,135.06c0,.11,0,.35-.09.57a1.55,1.55,0,0,0,.56,1.66c.21.17.41.36.63.52a3.58,3.58,0,0,1,.61.62c.28.34.2.59-.22.75a3.18,3.18,0,0,1-.86.16h-.58c-.73,0-.9.16-1.09.87s-.33,1.32-.51,2c-.09.31-.17.68-.58.71s-.62-.27-.78-.59c-.3-.61-.61-1.21-.88-1.83a1.69,1.69,0,0,0-1.25-1c-.66-.14-1.32-.31-2-.49-.3-.08-.65-.14-.72-.51s.29-.5.55-.66.7-.41,1.06-.6a1,1,0,0,0,.51-1c-.06-.5-.12-1-.17-1.5a3.59,3.59,0,0,1,0-.46c0-.46.15-.58.56-.38s1,.54,1.53.84a1.63,1.63,0,0,0,1.76,0,6.44,6.44,0,0,1,1-.46C194.25,134,194.49,134.13,194.48,135.06Z"/><path d="M156.94,138.07a9.43,9.43,0,0,1-.32,1.65,1.62,1.62,0,0,0,.7,2,11.87,11.87,0,0,1,1,.76c.21.17.46.34.4.65s-.39.34-.64.44a7,7,0,0,1-1.37.2l-.46,0a.89.89,0,0,0-.86.66l-.39,1.15a2.46,2.46,0,0,1-.14.38c-.24.51-.46.55-.87.17a4,4,0,0,1-1-1.73,1.39,1.39,0,0,0-1.41-1.07c-.46,0-.92-.1-1.38-.14a1.48,1.48,0,0,1-.51-.13.39.39,0,0,1-.15-.66,1.79,1.79,0,0,1,.39-.33l1.13-.81a1.34,1.34,0,0,0,.59-1.14c0-.46,0-.93,0-1.39a2.73,2.73,0,0,1,.06-.64c.07-.33.21-.41.54-.29a6.57,6.57,0,0,1,1.31.63,1.15,1.15,0,0,0,1.53-.1,7.15,7.15,0,0,1,1.1-.76c.17-.11.37-.26.59-.13S156.94,137.83,156.94,138.07Z"/><path d="M161,140c0-.1.06-.25.11-.4.17-.51.33-1,.53-1.54a1.07,1.07,0,0,0-.26-1.27,10.06,10.06,0,0,1-.93-1c-.57-.75-.45-1,.47-1.13.46,0,.92-.09,1.39-.12a.89.89,0,0,0,.85-.67,10.52,10.52,0,0,1,.61-1.44,5,5,0,0,1,.27-.51c.31-.47.64-.46.91.06a6.36,6.36,0,0,1,.33.86c.09.3.17.6.26.89a1.12,1.12,0,0,0,1.13.9c.43,0,.86.06,1.28.12.57.09.69.38.33.84a7,7,0,0,1-.95,1,1.32,1.32,0,0,0-.47,1.39c.12.53.18,1.07.26,1.6,0,.12,0,.23,0,.35,0,.52-.28.73-.74.49a11,11,0,0,1-1.4-.83,1.34,1.34,0,0,0-1.71,0,8.3,8.3,0,0,1-1.7.88C161.24,140.61,161,140.44,161,140Z"/><path d="M200.15,170a1.86,1.86,0,0,1-.76-.26L198,169a1,1,0,0,0-1.19.11c-.31.24-.63.45-.95.66a4.29,4.29,0,0,1-.5.29c-.21.11-.44.22-.66.06s-.18-.42-.12-.64c.17-.6.34-1.19.55-1.77a1,1,0,0,0-.36-1.22c-.35-.27-.68-.57-1-.87s-.32-.69.21-.83a9.64,9.64,0,0,1,1.42-.28,1,1,0,0,0,1-.77c.11-.33.25-.65.38-1a1.55,1.55,0,0,1,.19-.36c.24-.33.49-.35.75,0a3.17,3.17,0,0,1,.37.58c.14.23.25.48.39.71a1,1,0,0,0,1,.6c.36,0,.73,0,1.1,0s.54,0,.69.2-.07.52-.21.74a11.5,11.5,0,0,1-.82,1.12,1.34,1.34,0,0,0-.23,1.51c.2.52.39,1,.55,1.59C200.68,169.77,200.53,170,200.15,170Z"/><path d="M209.67,172.09c-1.34,0-1.27-.14-2.08,1.15a4.42,4.42,0,0,1-.65.89c-.33.32-.62.27-.82-.14a3.36,3.36,0,0,1-.25-1.25c-.14-1.37-.14-1.37-1.45-1.8l-1-.32c-.22-.08-.46-.17-.49-.44s.16-.39.34-.5c.45-.27.89-.55,1.36-.78a1.07,1.07,0,0,0,.65-1.06c0-.43.06-.85.09-1.28a2,2,0,0,1,.05-.34c.12-.47.32-.55.69-.26a6.76,6.76,0,0,1,.55.52,4,4,0,0,1,.28.3c.5.54.71.58,1.38.32.37-.15.75-.29,1.14-.41s.51-.14.7.1a.67.67,0,0,1,0,.72c-.15.33-.32.66-.48,1-.34.67-.32.85.15,1.41.31.37.62.74.92,1.12a1.83,1.83,0,0,1,.28.44c.14.35,0,.57-.35.61A9.2,9.2,0,0,1,209.67,172.09Z"/><path d="M144.85,152.87c.07-.46.11-1,.21-1.42a1.2,1.2,0,0,0-.49-1.32,8.05,8.05,0,0,1-.68-.63,2,2,0,0,1-.29-.36c-.19-.33-.13-.54.21-.71a4.34,4.34,0,0,1,1.16-.36,1.52,1.52,0,0,0,1.24-1,9.65,9.65,0,0,1,.75-1.51c.25-.38.44-.39.71,0s.6.9.89,1.35.41.56,1,.44a7.87,7.87,0,0,1,1-.17c.43,0,.57.14.46.56a8.93,8.93,0,0,1-.39,1c-.74,1.57-.71,1.15,0,2.6a2.29,2.29,0,0,1,.24.58c.07.48-.1.67-.57.58a5.77,5.77,0,0,1-.84-.23c-.37-.12-.74-.24-1.1-.39a1.2,1.2,0,0,0-1.42.32c-.26.26-.52.52-.8.77a4.34,4.34,0,0,1-.54.42c-.16.1-.34.23-.54.12S144.86,153.1,144.85,152.87Z"/><path d="M196.4,181a1.94,1.94,0,0,1-.78-.31c-.3-.21-.62-.4-.91-.63a.77.77,0,0,0-1,0,7.26,7.26,0,0,1-1.52.84c-.27.1-.55.28-.81,0s-.09-.51,0-.76c.17-.52.32-1,.53-1.53a1.1,1.1,0,0,0-.27-1.37c-.25-.24-.47-.51-.7-.78s-.31-.32-.22-.56.37-.25.6-.26.74,0,1.1,0a.83.83,0,0,0,.91-.64c.12-.39.27-.77.42-1.15a2.86,2.86,0,0,1,.2-.48c.27-.48.59-.49.84,0a9.31,9.31,0,0,1,.6,1.51,1.21,1.21,0,0,0,1.34,1,2.67,2.67,0,0,1,.69.09c.48.12.59.39.32.82a2.82,2.82,0,0,1-.71.75,1.13,1.13,0,0,0-.42,1.48,7.12,7.12,0,0,1,.29,1,2.32,2.32,0,0,1,.07.52C196.92,180.89,196.72,181.05,196.4,181Z"/><path d="M151.92,165.27a12.1,12.1,0,0,1,.35-1.24,1.63,1.63,0,0,0-.34-1.87c-.27-.3-.55-.59-.81-.91s-.2-.56.24-.64a10.57,10.57,0,0,1,1.26-.15,1.25,1.25,0,0,0,1.15-.84c.2-.48.39-1,.59-1.45.09-.2.19-.41.44-.42s.39.21.48.43c.17.41.34.82.49,1.24.29.75.55.92,1.35.89a5.45,5.45,0,0,1,.7,0c.54.06.65.27.38.73a7.08,7.08,0,0,1-.51.71c-1.16,1.49-.95,1.11-.68,2.66.05.31.1.61.14.92a.54.54,0,0,1-.2.57c-.2.13-.37,0-.54-.1a8.12,8.12,0,0,1-1.22-1c-.56-.47-.68-.47-1.24,0a6.72,6.72,0,0,1-1.4.91C152.17,165.93,151.94,165.78,151.92,165.27Z"/><path d="M160.8,155a2.29,2.29,0,0,1-.71-.2c-.38-.19-.77-.36-1.14-.57a.78.78,0,0,0-1,.09,7.77,7.77,0,0,1-1.41.92c-.27.13-.55.37-.86.13s-.15-.56-.09-.86c.1-.47.19-1,.33-1.41a1,1,0,0,0-.42-1.27,9.55,9.55,0,0,1-.84-.71c-.16-.14-.35-.29-.27-.53s.29-.24.48-.27c.44-.06.88-.13,1.32-.17a.75.75,0,0,0,.73-.63c.1-.42.2-.83.31-1.24a2.5,2.5,0,0,1,.11-.39c.21-.53.56-.6.88-.13a9.31,9.31,0,0,1,.8,1.41,1.26,1.26,0,0,0,1.42.84,3.14,3.14,0,0,1,.81,0q.74.1.39.78a3.76,3.76,0,0,1-.61.77c-.57.6-.58.71-.24,1.48.18.43.38.85.52,1.29S161.22,155.05,160.8,155Z"/><path d="M202,183c.07-.47.13-.95.21-1.43a.67.67,0,0,0-.37-.77,5.36,5.36,0,0,1-1.29-1c-.21-.21-.47-.45-.36-.79s.44-.33.72-.37c.48-.06,1-.14,1.44-.17a1,1,0,0,0,1-.77c.13-.37.28-.72.44-1.08.08-.19.17-.41.43-.41s.32.2.42.36c.18.32.34.65.52,1,.33.62.43.68,1.16.6l1.15-.14.29,0c.23,0,.48,0,.62.23s0,.45-.17.62a16.88,16.88,0,0,1-1.15,1.24,1.1,1.1,0,0,0-.26,1.41,4.07,4.07,0,0,1,.28.76c.12.5-.11.75-.62.67a3.23,3.23,0,0,1-1.05-.34,1,1,0,0,0-1.36.26c-.29.3-.62.57-.95.85s-.43.36-.73.24-.29-.43-.34-.69C202,183.13,202,183.06,202,183Z"/><path d="M143.43,160.88c0-1.62,0-1.38-1.25-2.11a2.36,2.36,0,0,1-.4-.24c-.29-.22-.28-.45.06-.62s.71-.31,1.07-.45a.8.8,0,0,0,.61-.87c0-.4,0-.81,0-1.22a2.38,2.38,0,0,1,0-.46c.09-.35.31-.44.59-.21a3.78,3.78,0,0,1,.48.5c.25.29.51.59.74.9a.85.85,0,0,0,1,.32,7.93,7.93,0,0,1,.84-.21c.47-.07.65.14.54.61a3.36,3.36,0,0,1-.42,1,1,1,0,0,0,.06,1.18,11.89,11.89,0,0,1,.74,1.11c.31.52.13.81-.47.81a4.14,4.14,0,0,1-1.3-.28.82.82,0,0,0-1.09.35,5.68,5.68,0,0,1-.9,1.06,1.94,1.94,0,0,1-.31.26c-.32.21-.57.11-.61-.28A10.07,10.07,0,0,1,143.43,160.88Z"/><path d="M172.58,166.12a4,4,0,0,1,.14-1.09,1.18,1.18,0,0,1,1.11-.95,5.29,5.29,0,0,1,4.13,1.46,1.64,1.64,0,0,1,.44.6,1.1,1.1,0,0,1-.06,1.11,5.16,5.16,0,0,1-3.15,2.29,1.59,1.59,0,0,1-1.94-.87A5.7,5.7,0,0,1,172.58,166.12Z"/><path d="M171.69,160.17a3.92,3.92,0,0,1-1.71,3.08,2.23,2.23,0,0,1-2.38.1,2,2,0,0,1-1-1.89,3.79,3.79,0,0,1,1.87-3.34,2.33,2.33,0,0,1,1-.34,1.91,1.91,0,0,1,2.05,1.35A3.06,3.06,0,0,1,171.69,160.17Z"/><path d="M181.9,165.82a3.73,3.73,0,0,1,.86-2.52,2.45,2.45,0,0,1,1.24-.81,2,2,0,0,1,2.53,1.54,4.17,4.17,0,0,1-.71,3.58,2,2,0,0,1-2.08.87,2.13,2.13,0,0,1-1.7-1.57A3.33,3.33,0,0,1,181.9,165.82Z"/><path d="M174.52,176.06a7,7,0,0,1-4.48-1.75,3.51,3.51,0,0,1-.91-1.33,1.58,1.58,0,0,1-.13-.56,1.07,1.07,0,0,1,1.64-1.07,4.82,4.82,0,0,1,1,.66,5.19,5.19,0,0,0,2.92,1.16l1.15.11a2.08,2.08,0,0,1,.88.29,1.08,1.08,0,0,1,0,1.91A3.84,3.84,0,0,1,174.52,176.06Z"/><path d="M123.3,76.41a.86.86,0,0,0-.62-.15,43.34,43.34,0,0,0-6,.29,5.68,5.68,0,0,1-2.25,0l-.38-.13a1.66,1.66,0,0,1-.85-2.6,4,4,0,0,1,2-1.59,13,13,0,0,1,3.88-.92,33,33,0,0,1,7,0,17.68,17.68,0,0,1,5.75,1.52,5.27,5.27,0,0,1,1.79,1.27,2.07,2.07,0,0,1,.57,1.48,1.76,1.76,0,0,1-1.36,1.8,4.13,4.13,0,0,1-2.18,0l-3.56-.8a6.81,6.81,0,0,0-1.41-.11c-.11.22,0,.29.13.38a59.91,59.91,0,0,1,6.58,7.81,1.51,1.51,0,0,0,1.32.68,56.62,56.62,0,0,1,8,.82,8.57,8.57,0,0,1,1.23.33c.57.21.7.52.52,1.1a3.44,3.44,0,0,1-.54,1c-1.87,2.38-3.62,4.84-5.59,7.14a2.34,2.34,0,0,0-.48,2.07c.41,2.25,1,4.45,1.64,6.64.46,1.62.89,3.25,1.26,4.89a4.5,4.5,0,0,1,.12,1.09,1,1,0,0,1-1.11,1.13,7.22,7.22,0,0,1-1.61-.18,68.06,68.06,0,0,1-12.21-3.48,3.65,3.65,0,0,0-2.7,0,108.44,108.44,0,0,1-10.75,3.15,5.49,5.49,0,0,1-1.67.17,1,1,0,0,1-1.13-1.12,12.64,12.64,0,0,1,.26-2.37c.45-3.14,1-6.26,1.69-9.36a1.73,1.73,0,0,0-.26-1.38c-1.69-2.66-3.37-5.34-5-8a6.84,6.84,0,0,1-.59-1.06c-.27-.7-.11-1,.61-1.28a7.23,7.23,0,0,1,1.31-.26c2.53-.37,5-.74,7.61-.87.39,0,.77-.08,1.15-.13a2,2,0,0,0,1.45-.87c1.57-2.09,3.14-4.18,4.83-6.17A19.13,19.13,0,0,1,123.3,76.41Zm8.4,18.4a9.58,9.58,0,0,0-.47-3.5,6.23,6.23,0,0,0-1.92-3,8.55,8.55,0,0,0-7.39-1.89,7.32,7.32,0,0,0-5.2,3.47,9.74,9.74,0,0,0-.1,10.12,6.7,6.7,0,0,0,4.21,3.25,9.69,9.69,0,0,0,4.54.22,7.09,7.09,0,0,0,5.9-5.25A10.47,10.47,0,0,0,131.7,94.81Z"/><path d="M79.46,95.12a10.28,10.28,0,0,1-1.34,5.28,6.45,6.45,0,0,1-4,3.21,7.8,7.8,0,0,1-3.33.18,6,6,0,0,1-3.21-1.63,9.16,9.16,0,0,1-2.63-7.91,9.55,9.55,0,0,1,1.25-3.84,7.19,7.19,0,0,1,9.74-2.55,6.14,6.14,0,0,1,2.59,2.81A9.93,9.93,0,0,1,79.46,95.12Z"/><path d="M72,70.73a28.58,28.58,0,0,1,5.62.52,9.78,9.78,0,0,1,2.72,1A3,3,0,0,1,81.77,74a1.51,1.51,0,0,1-.59,1.74,3,3,0,0,1-1.74.53,18,18,0,0,1-2.55-.1,37.66,37.66,0,0,0-11.26.57l-2,.38A3.5,3.5,0,0,1,62,77.07a1.73,1.73,0,0,1-1.12-2.53,3.91,3.91,0,0,1,1.66-1.73,11.6,11.6,0,0,1,2.88-1.22A27.8,27.8,0,0,1,72,70.73Z"/><path d="M97.26,133.52l5.14-.12a13.87,13.87,0,0,1,3.52.26,4.17,4.17,0,0,1,.89.28,1.84,1.84,0,0,1,.47,3.18,4.42,4.42,0,0,1-1.83,1,19.93,19.93,0,0,1-4.14.56c-2.51.11-5,.13-7.54,0a18,18,0,0,1-4.13-.56,5.54,5.54,0,0,1-1.73-.79,2,2,0,0,1,.43-3.63,2.49,2.49,0,0,1,.84-.22,21.92,21.92,0,0,1,3.24-.07C94.06,133.46,95.71,133.47,97.26,133.52Z"/><path d="M98.4,122.15a17.75,17.75,0,0,1-6.49-1.06,4.5,4.5,0,0,1-1.81-1.23,2.54,2.54,0,0,1-.29-.36,1.66,1.66,0,0,1,1.08-2.69,5,5,0,0,1,2.18.06c.86.16,1.71.37,2.56.51a14.34,14.34,0,0,0,5.65-.27,9.83,9.83,0,0,1,2.64-.31,2.4,2.4,0,0,1,1.5.57,1.43,1.43,0,0,1,.45,1.67,2.55,2.55,0,0,1-.75,1.08,5.26,5.26,0,0,1-1.64,1A12.87,12.87,0,0,1,98.4,122.15Z"/><path d="M166,101.61a13.87,13.87,0,0,1-.81,4.56,4.58,4.58,0,0,1-.7,1.33,2,2,0,0,1-1.09.72,1.31,1.31,0,0,1-1.76-1.15,5.46,5.46,0,0,1,.22-2,13.77,13.77,0,0,0,.49-3.78,26.22,26.22,0,0,0-.39-3,3.09,3.09,0,0,1,.07-1.32,1.44,1.44,0,0,1,2.28-.87,2.89,2.89,0,0,1,1.15,1.7A12.16,12.16,0,0,1,166,101.61Z"/><path d="M29.89,101.5a11.06,11.06,0,0,1,.39-3.11A4.92,4.92,0,0,1,31,96.71a2.07,2.07,0,0,1,1.07-.86,1.21,1.21,0,0,1,1.47.5A2.42,2.42,0,0,1,34,97.73a8.33,8.33,0,0,1-.14,1.33,12.44,12.44,0,0,0,.19,6c.12.44.2.9.28,1.36a2,2,0,0,1-.12,1.14,1.2,1.2,0,0,1-1.53.7,3,3,0,0,1-1.9-2A12.66,12.66,0,0,1,29.89,101.5Z"/><path d="M129.17,94.9a8.36,8.36,0,0,1-.82,3.75,4.44,4.44,0,0,1-3.28,2.61,6.5,6.5,0,0,1-3.16,0,5.08,5.08,0,0,1-3.64-3.73,8.13,8.13,0,0,1,.89-6.82A4.71,4.71,0,0,1,123,88.44a6.12,6.12,0,0,1,2.68.35,4.73,4.73,0,0,1,2.82,2.75A8.4,8.4,0,0,1,129.17,94.9Z"/></g></g></svg>