<svg xmlns="http://www.w3.org/2000/svg" xmlns:xlink="http://www.w3.org/1999/xlink" viewBox="0 0 212.94 213.26" xmlns:v="https://vecta.io/nano"><g fill="none" stroke="#fff" stroke-width="10"><use xlink:href="#B"/><use xlink:href="#C"/><use xlink:href="#D"/><use xlink:href="#E"/><use xlink:href="#F"/><use xlink:href="#B"/><use xlink:href="#C"/><use xlink:href="#D"/><use xlink:href="#E"/><use xlink:href="#F"/><path d="M138.85 114.54a7.6 7.6 0 0 1 2.3.35 5.94 5.94 0 0 1 4 3.78 11 11 0 0 1-.24 8.44 6 6 0 0 1-1 1.61 5.38 5.38 0 0 1-2.58 1.65 10.34 10.34 0 0 1-2.53.45h-.19a6.35 6.35 0 0 1-6.12-4.13 9 9 0 0 1-.65-2.75c0-.38 0-.75-.05-1a9.46 9.46 0 0 1 1.17-4.78 9 9 0 0 1 1-1.55 5.55 5.55 0 0 1 2.88-1.78 8.61 8.61 0 0 1 2.06-.26m0-1a9.73 9.73 0 0 0-2.3.29 6.6 6.6 0 0 0-3.39 2.09 9.42 9.42 0 0 0-1.14 1.73 10.5 10.5 0 0 0-1.29 5.28v.13a7.4 7.4 0 0 0 .05 1 10.18 10.18 0 0 0 .73 3.07 7.33 7.33 0 0 0 7 4.73h.21a11.16 11.16 0 0 0 2.79-.49 6.36 6.36 0 0 0 3-2 6.55 6.55 0 0 0 1.18-1.87 12 12 0 0 0 .27-9.18 7 7 0 0 0-4.6-4.39 8.46 8.46 0 0 0-2.6-.4zm-31.6-40.03l8.52.08q3.41.07 6.8.24l5.87.43 5.46.47 5.71.62 4.07.53 4.81.84 6.46 1.38a76.53 76.53 0 0 1 8.62 2.52l.75.25a3.06 3.06 0 0 1 1.78 1.49 24.24 24.24 0 0 1 1.23 2.61 63.21 63.21 0 0 1 2.49 7.45l3.3 11.83a79 79 0 0 0 2.49 7.53l.43 1a3.18 3.18 0 0 0 .7 1 1.87 1.87 0 0 0 2.48.17 3.49 3.49 0 0 0 .49-.45l1.44-1.54a7.19 7.19 0 0 1 3-2 6 6 0 0 1 1.68-.32h1.11a12.68 12.68 0 0 1 1.85.12 7.57 7.57 0 0 1 1.16.29 14.39 14.39 0 0 1 8.56 7 21.24 21.24 0 0 1 1.9 5.54 29.21 29.21 0 0 1 .56 6.17 20.22 20.22 0 0 1-.23 3.63 29 29 0 0 1-2.62 8.14 38.19 38.19 0 0 1-1.14 2.09 15.16 15.16 0 0 1-7.93 6.67 22.11 22.11 0 0 1-5.2 1.22 26.47 26.47 0 0 1-3.09.28c-.53 0-1 .06-1.58.12a4.68 4.68 0 0 0-3.53 2.06 27.64 27.64 0 0 0-1.54 2.7l-3.84 7.23a63.74 63.74 0 0 1-3.65 5.82l-3.89 5.42a67.06 67.06 0 0 1-5.39 6.26 41.94 41.94 0 0 1-3.47 3.06l-4.85 3.66a63.21 63.21 0 0 1-9.2 5.05q-2.2 1-4.41 1.95c-2.17.94-4.41 1.66-6.66 2.38l-5.47 1.53a72.95 72.95 0 0 1-4.61.82l-4.58.65-4.74.37-2.91.06h-1.65c-1.12 0-2.24-.09-3.36-.16l-5.19-.59a67.11 67.11 0 0 1-9.83-2l-7.45-2.49-5.4-2.34A68.65 68.65 0 0 1 65 188c-1.33-.83-2.57-1.78-3.82-2.72A56.6 56.6 0 0 1 56.1 181a54.6 54.6 0 0 1-4.76-5.32 109.73 109.73 0 0 1-7.62-10.87l-2.91-5.26-1.85-3.35a14.67 14.67 0 0 0-.68-1.06 6.59 6.59 0 0 0-3.92-2.74 14.92 14.92 0 0 0-2.73-.43 29.25 29.25 0 0 1-6.7-1.12 15.61 15.61 0 0 1-4.86-2.47 14.48 14.48 0 0 1-4-4.5 29.91 29.91 0 0 1-3.59-9.25 19.37 19.37 0 0 1-.38-5.78v-1a23.39 23.39 0 0 1 1.79-8.29 14.26 14.26 0 0 1 8.48-8.11 9.78 9.78 0 0 1 3.68-.67 14.51 14.51 0 0 1 1.85.13 6 6 0 0 1 3.42 1.75c.46.44.87.93 1.31 1.39l.82.86a2 2 0 0 0 3.14-.42 8.13 8.13 0 0 0 .52-1.07 63 63 0 0 0 2.11-6.11l4.2-14.88a56.38 56.38 0 0 1 3.38-9.09 10.59 10.59 0 0 1 .43-.82A3.43 3.43 0 0 1 49.12 81a78.85 78.85 0 0 1 8-2.46c3.25-.81 6.53-1.49 9.81-2.12 1.8-.35 3.61-.59 5.42-.83 1.66-.22 3.33-.37 5-.54l5.26-.54c1.6-.16 3.2-.28 4.81-.37l3.43-.23 5.08-.2c2.77-.1 5.55-.09 8.33-.1h3M63 100.64a10.47 10.47 0 0 0 2.15-.28 60 60 0 0 1 7.32-1.07c1.19-.08 2.37-.13 3.56-.13h1.78c1.46.08 2.9.21 4.35.38a9.61 9.61 0 0 0 1.07.07h.64a4 4 0 0 0 1.77-.61 1.93 1.93 0 0 0 .89-2.22 4.24 4.24 0 0 0-.18-.5 3.69 3.69 0 0 0-1.74-1.83 11.19 11.19 0 0 0-3.21-1.19 34.64 34.64 0 0 0-7-.67h-.66a32.27 32.27 0 0 0-7.19.92 20.21 20.21 0 0 0-4.25 1.61 5 5 0 0 0-1.81 1.51 3 3 0 0 0-.47 1 2.23 2.23 0 0 0 1.59 2.79 4.63 4.63 0 0 0 1.23.18H63m65.8-.67h.36l2.31-.21a49.59 49.59 0 0 1 5.45-.26h1.21a.13.13 0 0 1 .13.07.11.11 0 0 1 0 .11l-.05.06a15 15 0 0 0-1.43 1.55c-.35.43-.68.87-1 1.29-1.54 1.85-3 3.74-4.47 5.66l-1.31 1.67a1.63 1.63 0 0 1-1.23.67h-.4a50.98 50.98 0 0 0-3.69.31l-3.14.39c-1.71.23-3.41.45-5.1.77a3.87 3.87 0 0 0-.88.26.87.87 0 0 0-.59 1.16 2.05 2.05 0 0 0 .18.49 7.69 7.69 0 0 0 .39.69l2.6 4.14 4 6.3a2.09 2.09 0 0 1 .31 1.69l-.06.26a194.17 194.17 0 0 0-1.55 8c-.32 1.94-.57 3.88-.84 5.82a2.61 2.61 0 0 0 0 .79 1.28 1.28 0 0 0 1.09 1.09 2.72 2.72 0 0 0 .63.08 3 3 0 0 0 .42 0c.67-.12 1.34-.24 2-.4 2.87-.69 5.71-1.51 8.53-2.36q2.51-.76 5-1.64a3.11 3.11 0 0 1 1-.17 3.21 3.21 0 0 1 1.08.2 100.38 100.38 0 0 0 10.87 3.49 47.46 47.46 0 0 0 5.77 1.14 9.45 9.45 0 0 0 1.06.08h.32a1.08 1.08 0 0 0 1.08-1 4.46 4.46 0 0 0 0-.73 10.17 10.17 0 0 0-.22-1.83 38.42 38.42 0 0 0-1.05-4.23c-.71-2.48-1.46-4.94-2-7.47-.16-.75-.29-1.51-.43-2.27a2.06 2.06 0 0 1 .54-1.89c.24-.26.46-.53.68-.81l6.43-8.24a5 5 0 0 0 .67-1.13 2.23 2.23 0 0 0 .13-.44.75.75 0 0 0-.47-.92 4.53 4.53 0 0 0-.81-.27 33.5 33.5 0 0 0-4.76-.78c-2.15-.21-4.3-.4-6.46-.43a1.59 1.59 0 0 1-1.38-.75c-.52-.74-1.07-1.46-1.61-2.18a56.58 56.58 0 0 0-4.29-5.11c-.87-.91-1.68-1.87-2.6-2.73 0 0 0-.07-.09-.16a1 1 0 0 1 .29-.05 1.86 1.86 0 0 1 .34 0c.72.1 1.44.18 2.16.32l3.55.77a6.13 6.13 0 0 0 1.34.16 5.09 5.09 0 0 0 1-.09 3 3 0 0 0 1.22-.49 1.91 1.91 0 0 0 .84-1.29 2.63 2.63 0 0 0-.71-2.43 6 6 0 0 0-1.46-1.13 15.42 15.42 0 0 0-3.52-1.5 22.66 22.66 0 0 0-3.48-.74 52.02 52.02 0 0 0-5.14-.37h-.52c-1.19 0-2.38.06-3.57.17a22.35 22.35 0 0 0-3.26.52 12.28 12.28 0 0 0-2.83 1.09 3.79 3.79 0 0 0-1.89 2.12 2 2 0 0 0 .87 2.51 3.22 3.22 0 0 0 1.23.46 7.34 7.34 0 0 0 1.15.11m-54.69 33.47a9.84 9.84 0 0 0 2.67-.38 7.36 7.36 0 0 0 3.22-1.86 8.8 8.8 0 0 0 1.86-2.63 13.28 13.28 0 0 0 1.11-3.58 13.12 13.12 0 0 0-.6-6.83 8.59 8.59 0 0 0-2.74-3.89 8.32 8.32 0 0 0-4.32-1.84h-.94a8.92 8.92 0 0 0-4.85 1.46 8.77 8.77 0 0 0-3.52 4.42 11.51 11.51 0 0 0-.83 4.4 14 14 0 0 0 .17 2.49 11.64 11.64 0 0 0 2.49 5.47 7.4 7.4 0 0 0 4.23 2.53 9.4 9.4 0 0 0 2.1.24m113.29 4.89a2.18 2.18 0 0 0 1-.23 3.86 3.86 0 0 0 1.9-1.94 11.65 11.65 0 0 0 .81-2.44 19.51 19.51 0 0 0 .38-4 14.54 14.54 0 0 0-.15-2.59 9.77 9.77 0 0 0-.79-2.79 3.54 3.54 0 0 0-.9-1.2 2.17 2.17 0 0 0-1.42-.52H188a1.34 1.34 0 0 0-1.25.93 3.31 3.31 0 0 0-.15 1.62 92.57 92.57 0 0 1 .4 3.14 13.82 13.82 0 0 1-.15 3.69 13.65 13.65 0 0 1-.53 2 7.69 7.69 0 0 0-.45 2.65 3.06 3.06 0 0 0 .17.91 1.19 1.19 0 0 0 1.08.83h.23m-161.77 1.03a2.19 2.19 0 0 0 .36 0 1.43 1.43 0 0 0 1-.73 2.61 2.61 0 0 0 .32-1.19 4 4 0 0 0-.18-1.24l-.59-2.1a15.5 15.5 0 0 1-.2-6c.08-.57.19-1.13.28-1.69a2.92 2.92 0 0 0-.17-1.75 1.77 1.77 0 0 0-1.6-1 1.83 1.83 0 0 0-.84.21 2.84 2.84 0 0 0-.88.7 5.31 5.31 0 0 0-1 1.78 13.69 13.69 0 0 0-.54 4.5v1.05a14.43 14.43 0 0 0 .83 4.6 5.79 5.79 0 0 0 1.1 1.93 3.15 3.15 0 0 0 1.29.9 1.87 1.87 0 0 0 .74.14m80.69 17.26h.26l1.91-.11a14.75 14.75 0 0 0 1.77-.21 22.59 22.59 0 0 0 4.1-1.26 4.32 4.32 0 0 0 1.66-1.18c1.32-1.5.68-2.87-.67-3.6a2.13 2.13 0 0 0-.82-.26l-.85-.06h-.08a12.56 12.56 0 0 0-2.86.4 18.09 18.09 0 0 1-4.25.51 19.2 19.2 0 0 1-3.68-.36c-.93-.18-1.84-.42-2.79-.53a7.14 7.14 0 0 0-.8 0 6.41 6.41 0 0 0-1.23.12 2.46 2.46 0 0 0-1.16.61 1.85 1.85 0 0 0-.62 1.66 2.81 2.81 0 0 0 1 1.82 6.44 6.44 0 0 0 3.07 1.59 31.53 31.53 0 0 0 5.54.9h.53m-1.42 20.53h.51c1.91 0 3.83 0 5.74-.11 1.43-.09 2.86-.22 4.27-.43a7.16 7.16 0 0 0 3-1.1 2.64 2.64 0 0 0 1-1.11 2 2 0 0 0-.58-2.48 3.08 3.08 0 0 0-1.18-.57 13.35 13.35 0 0 0-3.33-.44H114c-1.34 0-2.67.06-4 .1-1 0-2.12.07-3.17.07h-.47c-1.47 0-2.95-.08-4.42-.14-.77 0-1.54-.06-2.31-.11H98.4a19.33 19.33 0 0 0-2.4.15 4.26 4.26 0 0 0-1.84.69 2.06 2.06 0 0 0-.33 3.29 4.5 4.5 0 0 0 1.23.89 8.63 8.63 0 0 0 1.42.53 19 19 0 0 0 4.5.66c1.28.06 2.56.16 3.85.16m2.47-104.79H103c-2.32 0-4.72 0-7.08.1l-5.09.2c-.59 0-1.17.08-1.76.12l-1.67.11a109.53 109.53 0 0 0-4.86.38l-3.58.36-1.71.19-1.14.11-3.88.43c-1.8.24-3.65.48-5.48.84-3.9.75-7 1.42-9.86 2.13A81.82 81.82 0 0 0 48.77 80a4.46 4.46 0 0 0-2.4 2 11.17 11.17 0 0 0-.47.89 57.85 57.85 0 0 0-3.44 9.25L38.27 107a62.68 62.68 0 0 1-2.08 6 6.73 6.73 0 0 1-.45.93 1 1 0 0 1-.88.49 1 1 0 0 1-.7-.29c-.27-.27-.53-.55-.79-.83l-.48-.52c-.27-.3-.56-.61-.87-.91a7.06 7.06 0 0 0-4-2 15.24 15.24 0 0 0-2-.14 11 11 0 0 0-4 .74 15.34 15.34 0 0 0-9 8.67 24.23 24.23 0 0 0-1.86 8.64v.92a20 20 0 0 0 .4 6.07 31.06 31.06 0 0 0 3.71 9.56 15.66 15.66 0 0 0 4.3 4.8 16.4 16.4 0 0 0 5.17 2.62 30.16 30.16 0 0 0 6.84 1.25 13.53 13.53 0 0 1 2.54.4 5.56 5.56 0 0 1 3.34 2.34c.22.32.43.65.64 1l1.83 3.26c.27.48.53 1 .79 1.46.68 1.27 1.38 2.58 2.14 3.84a111.4 111.4 0 0 0 7.69 11 55.2 55.2 0 0 0 4.85 5.42 58.1 58.1 0 0 0 5.21 4.36l.33.24c1.14.86 2.32 1.75 3.57 2.53a70.6 70.6 0 0 0 8.65 4.58l1 .46c1.43.65 2.91 1.31 4.41 1.89 2.51 1 5.05 1.76 7.52 2.52a67.27 67.27 0 0 0 9.78 2h.19c1.93.29 3.65.49 5.27.6l3.4.16h1.68c.85 0 1.76 0 2.94-.06 1.54-.06 3.11-.18 4.82-.38 1.47-.17 2.91-.38 4.62-.65s3.3-.54 4.67-.83c2.07-.46 4.06-1.07 5.57-1.56 2.21-.71 4.5-1.44 6.75-2.41l4.42-2a63.4 63.4 0 0 0 9.35-5.13c1.71-1.15 3.3-2.41 4.92-3.71a41.86 41.86 0 0 0 3.55-3.14 65.46 65.46 0 0 0 5.47-6.35c1.09-1.41 2.12-2.89 3.12-4.31l.8-1.14a66.92 66.92 0 0 0 3.7-5.91c1.09-1.95 2.14-4 3.15-5.9l.71-1.36a25.9 25.9 0 0 1 1.48-2.6 3.69 3.69 0 0 1 2.82-1.63c.51 0 1-.09 1.5-.11a26.45 26.45 0 0 0 3.18-.29 22.37 22.37 0 0 0 5.43-1.28 16.14 16.14 0 0 0 8.43-7.1c.4-.67.79-1.39 1.17-2.14a30.33 30.33 0 0 0 2.72-8.43 21.37 21.37 0 0 0 .24-3.81 30.58 30.58 0 0 0-.58-6.36 22 22 0 0 0-2-5.8 15.44 15.44 0 0 0-9.13-7.51 8.24 8.24 0 0 0-1.3-.32 12.31 12.31 0 0 0-2-.14h-1.14a6.82 6.82 0 0 0-2 .37 8.26 8.26 0 0 0-3.36 2.22l-.58.63-.85.91a2.7 2.7 0 0 1-.36.33.94.94 0 0 1-.56.2.92.92 0 0 1-.64-.29 2 2 0 0 1-.47-.71c-.12-.26-.22-.52-.33-.78l-.1-.23c-1-2.58-1.81-5.2-2.45-7.42l-2.16-7.72-1.14-4.11a64 64 0 0 0-2.53-7.57A26 26 0 0 0 167 81.9a4 4 0 0 0-2.34-2l-.36-.12-.4-.13a75.34 75.34 0 0 0-8.7-2.54l-5.26-1.13-1.22-.26c-1.55-.32-3.22-.64-4.89-.85l-4-.53c-1.74-.25-3.52-.42-5.24-.58h-.52l-4.38-.39-1.09-.09-1.5-.11-4.4-.32-6.83-.24-6.83-.07h-1.74zM63 99.64h-.07a3.39 3.39 0 0 1-1-.14 1.23 1.23 0 0 1-.93-1.6 2.08 2.08 0 0 1 .31-.66 4 4 0 0 1 1.45-1.19 19 19 0 0 1 4-1.54 31.34 31.34 0 0 1 7-.89h.64a33.07 33.07 0 0 1 6.76.65 10.12 10.12 0 0 1 2.92 1.09 2.66 2.66 0 0 1 1.31 1.34c0 .13.1.25.14.39a.93.93 0 0 1-.47 1.1 3 3 0 0 1-1.36.44 5.15 5.15 0 0 1-.55 0 8.63 8.63 0 0 1-1-.06c-1.55-.18-3-.31-4.42-.39H75.9c-1.09 0-2.28 0-3.63.13a61.71 61.71 0 0 0-7.45 1.09 9.62 9.62 0 0 1-1.95.26zm65.8-.67a5.51 5.51 0 0 1-1-.1 2.27 2.27 0 0 1-.86-.31 1 1 0 0 1-.46-1.34 2.78 2.78 0 0 1 1.43-1.57 11.32 11.32 0 0 1 2.59-1 20.69 20.69 0 0 1 3.12-.49 34.14 34.14 0 0 1 3.47-.17h.5c1.7 0 3.4.16 5 .36a23.07 23.07 0 0 1 3.33.71 15 15 0 0 1 3.3 1.41 5.08 5.08 0 0 1 1.21.94 1.62 1.62 0 0 1 .47 1.56.92.92 0 0 1-.42.65 2 2 0 0 1-.84.34 4.9 4.9 0 0 1-.77.07 5.59 5.59 0 0 1-1.12-.13c-1.28-.3-2.45-.55-3.57-.78-.58-.11-1.14-.19-1.69-.26l-.53-.07a3 3 0 0 0-.48-.05 2.11 2.11 0 0 0-.61.1l-1.14.38.58 1.06a1.29 1.29 0 0 0 .31.42c.57.53 1.09 1.1 1.64 1.71q.43.48.9 1a57.57 57.57 0 0 1 4.21 5l.3.39 1.29 1.76a2.55 2.55 0 0 0 2.18 1.17c2.18 0 4.35.23 6.38.43a33.06 33.06 0 0 1 4.62.75 3.1 3.1 0 0 1 .51.16v.16a3.93 3.93 0 0 1-.52.86l-3.21 4.12q-1.62 2.05-3.22 4.12c-.18.22-.39.49-.63.74a3.11 3.11 0 0 0-.79 2.75l.1.54.34 1.76c.45 2.16 1.07 4.29 1.67 6.35l.34 1.19.08.27a34.77 34.77 0 0 1 .94 3.85 8.77 8.77 0 0 1 .21 1.66v.13a3 3 0 0 1 0 .44.39.39 0 0 1 0 .11.46.46 0 0 1-.13 0h-.25c-.25 0-.53 0-.83-.06h-.12a47.2 47.2 0 0 1-5.64-1.12 98 98 0 0 1-10.76-3.45 4.06 4.06 0 0 0-1.43-.27 3.81 3.81 0 0 0-1.31.23c-1.74.61-3.35 1.14-4.92 1.62-2.49.76-5.45 1.62-8.47 2.35-.64.15-1.27.27-2 .39h-.24a2.17 2.17 0 0 1-.41-.05c-.26-.06-.29-.12-.33-.31a2.11 2.11 0 0 1 0-.49l.18-1.27.66-4.5c.48-2.84 1-5.45 1.54-8v-.25a3.11 3.11 0 0 0-.45-2.45l-3-4.7-1-1.6-1.5-2.39-1.1-1.74c-.12-.2-.23-.4-.34-.61a1.25 1.25 0 0 1-.1-.27 3 3 0 0 1 .69-.2c1.52-.29 3.1-.5 4.63-.7l.4-.06 2-.25 1.13-.14c1.16-.14 2.37-.24 3.62-.3h.43a2.63 2.63 0 0 0 2-1.07L132 109l.1-.12c1.58-2.1 3-3.94 4.44-5.63a21.25 21.25 0 0 0 .59-.74c.19-.25.3-.37.44-.56a15.44 15.44 0 0 1 1.34-1.45 1.49 1.49 0 0 0 .23-.28 1.12 1.12 0 0 0-1-1.69h-1.25a48.56 48.56 0 0 0-5.56.27 44.81 44.81 0 0 1-2.28.2h-.28zm-54.75 33.39a9.18 9.18 0 0 1-1.88-.21 6.35 6.35 0 0 1-3.63-2.25 10.55 10.55 0 0 1-2.28-5 13 13 0 0 1-.15-2.31 10.57 10.57 0 0 1 .76-4 7.69 7.69 0 0 1 3.13-3.98 8 8 0 0 1 4.32-1.31 7.86 7.86 0 0 1 .83 0A7.23 7.23 0 0 1 79 115a7.56 7.56 0 0 1 2.42 3.45 12.81 12.81 0 0 1-.47 9.63 8 8 0 0 1-1.65 2.34 6.37 6.37 0 0 1-2.8 1.62 9.09 9.09 0 0 1-2.4.34zm113.29 4.89h-.14c-.14 0-.18 0-.24-.19a2.15 2.15 0 0 1-.1-.62 6.65 6.65 0 0 1 .4-2.29 13.62 13.62 0 0 0 .72-6.06l-.4-3.18a2.29 2.29 0 0 1 .1-1.14c.07-.19.13-.25.39-.27h.09a1.16 1.16 0 0 1 .77.28 2.68 2.68 0 0 1 .65.87 9 9 0 0 1 .7 2.52 13.09 13.09 0 0 1 .14 2.39 18.62 18.62 0 0 1-.36 3.86 10.24 10.24 0 0 1-.73 2.23 2.85 2.85 0 0 1-1.42 1.46 1.23 1.23 0 0 1-.57.14zm-161.76 1.09a.87.87 0 0 1-.37-.07 2.06 2.06 0 0 1-.91-.63 4.72 4.72 0 0 1-.9-1.59 13.56 13.56 0 0 1-.78-4.29v-1a12.86 12.86 0 0 1 .49-4.18 4.27 4.27 0 0 1 .78-1.45 1.72 1.72 0 0 1 .57-.45.72.72 0 0 1 .39-.11.8.8 0 0 1 .7.48 2 2 0 0 1 .08 1.17c0 .2-.07.42-.11.63s-.12.71-.17 1.07a16.32 16.32 0 0 0 .22 6.42l.35 1.26c.12.42.17.57.24.85a3.06 3.06 0 0 1 .15.93 1.7 1.7 0 0 1-.2.77.44.44 0 0 1-.34.22zm80.69 17.26h-.53a27.23 27.23 0 0 1-4.91-.79l-.42-.09a5.45 5.45 0 0 1-2.6-1.34 1.85 1.85 0 0 1-.66-1.18.89.89 0 0 1 .3-.83 1.52 1.52 0 0 1 .71-.37 4.61 4.61 0 0 1 1-.1 5.69 5.69 0 0 1 .7 0 15.62 15.62 0 0 1 1.8.33l.9.18a20.62 20.62 0 0 0 3.87.38 18.89 18.89 0 0 0 4.49-.54 11.65 11.65 0 0 1 2.62-.37h.86a1.1 1.1 0 0 1 .4.13 1.54 1.54 0 0 1 .87 1 1.49 1.49 0 0 1-.46 1.11 3.36 3.36 0 0 1-1.27.91 22.9 22.9 0 0 1-3.91 1.21 12.67 12.67 0 0 1-1.65.19l-1 .06-1 .05zm-1.42 20.53c-.94 0-1.9-.06-2.83-.11l-1-.05a17.69 17.69 0 0 1-4.27-.62 7.71 7.71 0 0 1-1.25-.46 3.45 3.45 0 0 1-1-.7 1.15 1.15 0 0 1-.39-.93 1.16 1.16 0 0 1 .55-.82 3.18 3.18 0 0 1 1.41-.54 19.65 19.65 0 0 1 2.28-.14h1.16c.88.06 1.65.09 2.35.11l4.44.14h.48c1 0 2 0 3.21-.07h1.16c.93 0 1.88-.06 2.81-.06h.27a12.51 12.51 0 0 1 3.09.41 2.05 2.05 0 0 1 .8.38 1 1 0 0 1 .3 1.27 1.59 1.59 0 0 1-.65.7 6.06 6.06 0 0 1-2.62 1c-1.23.19-2.6.32-4.18.42-1.39.1-2.81.1-4.19.1h-2z"/><path d="M138.25 99.68l2.95.11c.05.09.06.14.09.16.92.86 1.73 1.82 2.6 2.73a56.58 56.58 0 0 1 4.29 5.11l1.61 2.18a1.59 1.59 0 0 0 1.38.75c2.16 0 4.31.22 6.46.43a33.5 33.5 0 0 1 4.76.78 4.53 4.53 0 0 1 .81.27.75.75 0 0 1 .47.92 2.23 2.23 0 0 1-.13.44 5 5 0 0 1-.67 1.13l-6.43 8.24-.68.81a2.06 2.06 0 0 0-.54 1.89l.43 2.27c.53 2.53 1.28 5 2 7.47a38.42 38.42 0 0 1 1.05 4.23 10.17 10.17 0 0 1 .22 1.83 4.46 4.46 0 0 1 0 .73 1.08 1.08 0 0 1-1.08 1h-.32a9.45 9.45 0 0 1-1.06-.08 47.46 47.46 0 0 1-5.77-1.14 100.38 100.38 0 0 1-10.87-3.49 3.17 3.17 0 0 0-1.08-.2 3.11 3.11 0 0 0-1 .17q-2.46.87-5 1.64l-8.53 2.36-2 .4a3 3 0 0 1-.42 0 2.72 2.72 0 0 1-.63-.08 1.28 1.28 0 0 1-1.09-1.09 2.61 2.61 0 0 1 0-.79l.84-5.82 1.55-8 .06-.26a2.09 2.09 0 0 0-.31-1.69l-4-6.3-2.6-4.14a7.69 7.69 0 0 1-.39-.69 2.05 2.05 0 0 1-.18-.49.87.87 0 0 1 .59-1.16 3.87 3.87 0 0 1 .88-.26l5.1-.77 3.14-.39 3.69-.31h.4a1.63 1.63 0 0 0 1.23-.67l1.24-1.63 4.47-5.66 1-1.29a15 15 0 0 1 1.43-1.55l.05-.06m.58 33.69h.83a9.77 9.77 0 0 0 5.21-1.68 7.67 7.67 0 0 0 2.89-3.19 13.33 13.33 0 0 0 1.27-5.74l-.07-1.54a11.51 11.51 0 0 0-.94-4 7.38 7.38 0 0 0-2.37-3.12 10.85 10.85 0 0 0-9.82-1.85 9.44 9.44 0 0 0-6.58 6.08 12.8 12.8 0 0 0-.44 7.4 9.79 9.79 0 0 0 2.05 4.25 8.91 8.91 0 0 0 5.51 3.25 14.56 14.56 0 0 0 2.46.19m-1.19-34.71l-.22.44a15.32 15.32 0 0 0-1.43 1.57l-.46.57-.56.7-4.5 5.7-.08.1-1.16 1.52a.59.59 0 0 1-.51.28h-.4l-3.73.32-1.12.14-2 .25h-.41l-4.75.73a4.82 4.82 0 0 0-1.11.33 1.85 1.85 0 0 0-1.15 2.28 3 3 0 0 0 .28.75 7.31 7.31 0 0 0 .43.76l1.08 1.73 1.51 2.41 1 1.59 3 4.72a1.09 1.09 0 0 1 .17.92v.26l-1.56 8.09-.66 4.56-.18 1.29a3.52 3.52 0 0 0 0 1.12 2.28 2.28 0 0 0 1.86 1.88 4.09 4.09 0 0 0 .84.1 3.81 3.81 0 0 0 .59-.05l2.06-.42 8.59-2.37 5-1.66a2.16 2.16 0 0 1 .65-.11 1.93 1.93 0 0 1 .73.14 99.18 99.18 0 0 0 11 3.52 48.35 48.35 0 0 0 5.89 1.16h.13a9 9 0 0 0 1 .07h.41a2 2 0 0 0 2-1.8 4.47 4.47 0 0 0 0-.79v-.11a11.18 11.18 0 0 0-.24-2 37.41 37.41 0 0 0-1-4l-.08-.27-.34-1.2-1.63-6.2-.33-1.7-.1-.55a1.08 1.08 0 0 1 .29-1l.74-.88 3.21-4.12 3.22-4.12a5.88 5.88 0 0 0 .8-1.37v-.09a3 3 0 0 0 .16-.6 1.73 1.73 0 0 0-1-2 6.35 6.35 0 0 0-1-.33 34.1 34.1 0 0 0-4.9-.8l-6.55-.44a.58.58 0 0 1-.56-.31l-1.34-1.82-.3-.4a58 58 0 0 0-4.37-5.2l-.87-.94-1.65-1.72-.27-.5h-.56l-3-.11h-.65zm1.19 33.71a13.59 13.59 0 0 1-2.3-.18 7.82 7.82 0 0 1-4.9-2.9 8.8 8.8 0 0 1-1.85-3.83 11.91 11.91 0 0 1 .41-6.83 8.41 8.41 0 0 1 5.91-5.47 10.77 10.77 0 0 1 2.87-.42 10.33 10.33 0 0 1 6.09 2.12 6.33 6.33 0 0 1 2 2.71 10.51 10.51 0 0 1 .86 3.69v1.53a12.24 12.24 0 0 1-1.18 5.27 6.64 6.64 0 0 1-2.54 2.78 8.8 8.8 0 0 1-4.69 1.51h-.79zm-39.67 17.43a7.14 7.14 0 0 1 .8 0c1 .11 1.86.35 2.79.53a19.2 19.2 0 0 0 3.68.36 18.09 18.09 0 0 0 4.25-.51 12.56 12.56 0 0 1 2.86-.4h.08l.85.06a2.13 2.13 0 0 1 .82.26c1.35.73 2 2.1.67 3.6a4.32 4.32 0 0 1-1.66 1.18 22.59 22.59 0 0 1-4.1 1.26 14.75 14.75 0 0 1-1.77.21l-1.91.11h-.79a31.53 31.53 0 0 1-5.54-.9 6.44 6.44 0 0 1-3.07-1.59 2.81 2.81 0 0 1-1-1.82 1.85 1.85 0 0 1 .62-1.66 2.46 2.46 0 0 1 1.16-.61 6.41 6.41 0 0 1 1.23-.12m0-1a7.48 7.48 0 0 0-1.44.14 3.6 3.6 0 0 0-1.64.86 2.87 2.87 0 0 0-.93 2.5 3.8 3.8 0 0 0 1.29 2.45 7.48 7.48 0 0 0 3.53 1.83l.42.09a30.51 30.51 0 0 0 5.3.83h.87l1-.06.92-.05a16.7 16.7 0 0 0 1.89-.22 24.21 24.21 0 0 0 4.28-1.31 5.37 5.37 0 0 0 2.06-1.46 3.25 3.25 0 0 0 .93-2.78 3.43 3.43 0 0 0-1.88-2.36 3 3 0 0 0-1.19-.37h-1.03a13.39 13.39 0 0 0-3.09.43 17.06 17.06 0 0 1-4 .48 19.09 19.09 0 0 1-3.49-.34l-.86-.18a20 20 0 0 0-2-.36 7.23 7.23 0 0 0-.91-.05zm89.02-26.35a2.17 2.17 0 0 1 1.42.52 3.54 3.54 0 0 1 .9 1.2 9.77 9.77 0 0 1 .79 2.79 14.54 14.54 0 0 1 .15 2.59 19.51 19.51 0 0 1-.38 4 11.65 11.65 0 0 1-.81 2.44 3.86 3.86 0 0 1-1.9 1.94 2.18 2.18 0 0 1-1 .23h-.23a1.19 1.19 0 0 1-1.08-.83 3.06 3.06 0 0 1-.17-.91 7.69 7.69 0 0 1 .45-2.65 13.65 13.65 0 0 0 .53-2 13.82 13.82 0 0 0 .15-3.69l-.4-3.14a3.31 3.31 0 0 1 .15-1.62 1.34 1.34 0 0 1 1.25-.93h.17m0-1h-.24a2.37 2.37 0 0 0-2.12 1.58 4.33 4.33 0 0 0-.2 2.12l.4 3.1a13 13 0 0 1-.15 3.42 13.75 13.75 0 0 1-.49 1.82 8.55 8.55 0 0 0-.5 3 4.38 4.38 0 0 0 .23 1.23 2.22 2.22 0 0 0 1.93 1.47h.32a3.29 3.29 0 0 0 1.43-.33 4.82 4.82 0 0 0 2.36-2.41 12.29 12.29 0 0 0 .88-2.65 20.25 20.25 0 0 0 .41-4.25 15.34 15.34 0 0 0-.16-2.74 10.81 10.81 0 0 0-.88-3.08 4.47 4.47 0 0 0-1.15-1.53 3.17 3.17 0 0 0-2.07-.76zM74.44 92.62a34.64 34.64 0 0 1 7 .67 11.19 11.19 0 0 1 3.21 1.19 3.69 3.69 0 0 1 1.74 1.83 4.24 4.24 0 0 1 .18.5 1.93 1.93 0 0 1-.93 2.19 4 4 0 0 1-1.81.59h-.64a9.77 9.77 0 0 1-1.07-.07l-4.35-.38h-1.78l-3.56.13a60 60 0 0 0-7.32 1.07 10.47 10.47 0 0 1-2.15.28h-.08a4.63 4.63 0 0 1-1.23-.18 2.23 2.23 0 0 1-1.59-2.79 3 3 0 0 1 .47-1 5 5 0 0 1 1.81-1.51 20.21 20.21 0 0 1 4.25-1.61 32.27 32.27 0 0 1 7.19-.92h.66m0-1h-.68a33.46 33.46 0 0 0-7.42.95 21.32 21.32 0 0 0-4.45 1.69 6 6 0 0 0-2.17 1.81 4.1 4.1 0 0 0-.63 1.36 3.24 3.24 0 0 0 2.27 4 5.77 5.77 0 0 0 1.5.22H63a11.21 11.21 0 0 0 2.35-.3 59.22 59.22 0 0 1 7.19-1l3.49-.13h1.73l4.28.37a8.49 8.49 0 0 0 1.19.08h.74a5 5 0 0 0 2.25-.75 2.93 2.93 0 0 0 1.32-3.3 4.92 4.92 0 0 0-.24-.66 4.64 4.64 0 0 0-2.18-2.31 12.18 12.18 0 0 0-3.48-1.29 34.8 34.8 0 0 0-7.16-.69z"/><path d="M108.85 6l7.9.29a66 66 0 0 1 8.62 1.22l6.77 1.53a89.86 89.86 0 0 1 11.17 3.86l6 2.82a95.05 95.05 0 0 1 8.41 4.6 46.76 46.76 0 0 1 4.82 3.48l3.24 2.82a33.88 33.88 0 0 1 4 4.16l4.49 5.46A70.38 70.38 0 0 1 181.51 48a73.22 73.22 0 0 1 3.41 8.67 75.86 75.86 0 0 1 2.48 9.24l.43 2.88.48 4.86.2 4.09-.09 4.5-.23 4.15-.51 4.66-.61 4.65-.62 3.92-.44 3.21c-.11.69.13.93.57.93a1.5 1.5 0 0 0 .35 0 5.39 5.39 0 0 1 1-.09 13.37 13.37 0 0 1 2.18.26 15.94 15.94 0 0 1 7.14 3.09 21.44 21.44 0 0 1 2.51 2.25 22.84 22.84 0 0 1 4 5.45 25.08 25.08 0 0 1 2.42 6.48c.26 1.3.42 2.61.57 3.92a32.42 32.42 0 0 1 .19 4.29 33.15 33.15 0 0 1-3.31 14 35.91 35.91 0 0 1-3.92 6.26 17.94 17.94 0 0 1-6 5 22.42 22.42 0 0 1-6.59 2.28l-3.14.45-1.63.22a2.15 2.15 0 0 0-1.62 1 12.05 12.05 0 0 0-.9 1.61l-2.3 4.76a76.19 76.19 0 0 1-7.67 12.17q-2.61 3.38-5.55 6.48a54.47 54.47 0 0 1-4.43 4.16l-6.25 4.87a61.51 61.51 0 0 1-7.79 4.6l-4.49 2.26-6.39 2.51a79.2 79.2 0 0 1-10.58 3.11l-5.59 1-8.27.89-3.87.17h-1.55l-4.61-.32-4-.41-4.83-.72a73.16 73.16 0 0 1-12.07-3.16l-5.75-2.14a42.89 42.89 0 0 1-4.92-2.27l-3.75-2a57.19 57.19 0 0 1-8-5.2 81.73 81.73 0 0 1-6.76-5.72c-1.53-1.46-3-3-4.33-4.63a77.16 77.16 0 0 1-8.36-11.63l-2.82-5.31-1.83-3.81a1.4 1.4 0 0 0-1.14-.88l-1.64-.2a36.84 36.84 0 0 1-7.7-1.52 17.87 17.87 0 0 1-3.86-1.87 21.13 21.13 0 0 1-6.33-5.91A34.91 34.91 0 0 1 8.67 143a33.71 33.71 0 0 1-1.9-6c-.21-1-.32-2-.46-2.94a34.47 34.47 0 0 1-.3-5.47 30.94 30.94 0 0 1 .45-4.8 29.86 29.86 0 0 1 3.11-8.73 22.75 22.75 0 0 1 4-5.24 17.27 17.27 0 0 1 7.36-4.5 15.25 15.25 0 0 1 2.85-.54 16 16 0 0 1 1.7-.09h.79c.62 0 .8-.22.72-.9l-.48-3.53-.65-4.71-.61-4.26-.31-2.75c-.26-2.22-.31-4.44-.39-6.66l-.09-2.25v-1.72l.4-5.4.39-3.54a50 50 0 0 1 1.25-6.08A96.7 96.7 0 0 1 30.17 52a65.89 65.89 0 0 1 3.44-7.07c.85-1.55 1.87-3 2.86-4.45a81.21 81.21 0 0 1 7.12-9l1.6-1.85c.83-.93 1.81-1.68 2.7-2.53a51.23 51.23 0 0 1 7.72-6 87 87 0 0 1 10.63-6l4.76-2 7.33-2.64a77.36 77.36 0 0 1 7.92-2C89 7.82 91.79 7.35 94.59 7l2.89-.31 5.4-.45 2.9-.12 3.07-.12m-74 109.5a2 2 0 0 1-1.4-.58l-.82-.86c-.44-.46-.85-1-1.31-1.39a6 6 0 0 0-3.42-1.75 14.51 14.51 0 0 0-1.85-.13 9.78 9.78 0 0 0-3.68.67 14.26 14.26 0 0 0-8.48 8.11 23.39 23.39 0 0 0-1.79 8.29v1a19.37 19.37 0 0 0 .38 5.78 29.91 29.91 0 0 0 3.52 9.24 14.48 14.48 0 0 0 4 4.5 15.61 15.61 0 0 0 4.86 2.47 29.25 29.25 0 0 0 6.7 1.12 14.92 14.92 0 0 1 2.73.43 6.59 6.59 0 0 1 3.92 2.74l.68 1.06 1.85 3.35 2.91 5.26a109.73 109.73 0 0 0 7.62 10.87A54.6 54.6 0 0 0 56.1 181a56.6 56.6 0 0 0 5.12 4.28l3.82 2.72a68.65 68.65 0 0 0 8.52 4.51l5.4 2.34c2.44 1 4.94 1.72 7.45 2.49a67.11 67.11 0 0 0 9.83 2l5.19.59 3.36.16h1.65l2.91-.06 4.74-.37 4.58-.65 4.61-.82c1.86-.41 3.67-.95 5.47-1.53l6.66-2.38q2.21-1 4.41-1.95a63.21 63.21 0 0 0 9.2-5.05c1.68-1.13 3.27-2.39 4.85-3.66a41.94 41.94 0 0 0 3.47-3.06 67.06 67.06 0 0 0 5.39-6.26l3.89-5.42a63.74 63.74 0 0 0 3.65-5.82l3.84-7.23a27.64 27.64 0 0 1 1.54-2.7 4.68 4.68 0 0 1 3.53-2.06l1.58-.12a26.47 26.47 0 0 0 3.09-.28 22.11 22.11 0 0 0 5.2-1.22 15.16 15.16 0 0 0 7.93-6.67l1.14-2.09a29 29 0 0 0 2.62-8.14 20.22 20.22 0 0 0 .23-3.63 29.21 29.21 0 0 0-.56-6.17 21.24 21.24 0 0 0-1.9-5.54 14.39 14.39 0 0 0-8.56-7 7.57 7.57 0 0 0-1.16-.29 12.68 12.68 0 0 0-1.85-.12h-1.11a6 6 0 0 0-1.68.32 7.19 7.19 0 0 0-3 2l-1.44 1.54a3.49 3.49 0 0 1-.49.45 1.87 1.87 0 0 1-2.48-.17 3.18 3.18 0 0 1-.7-1l-.43-1a79 79 0 0 1-2.49-7.53l-3.3-11.83a63.21 63.21 0 0 0-2.44-7.58 24.24 24.24 0 0 0-1.23-2.63 3.06 3.06 0 0 0-1.78-1.49l-.75-.25a76.53 76.53 0 0 0-8.62-2.5l-6.46-1.38-4.81-.84-4.07-.53-5.71-.62-5.46-.47-5.87-.43q-3.39-.17-6.8-.24l-8.52-.08h-3l-8.33.1-5.08.2-3.43.23-4.81.37-5.3.56-5 .54-5.42.83c-3.28.63-6.56 1.31-9.81 2.12a78.85 78.85 0 0 0-8 2.46 3.43 3.43 0 0 0-1.88 1.59 10.59 10.59 0 0 0-.43.82 56.38 56.38 0 0 0-3.38 9.09l-4.2 14.88a63 63 0 0 1-2.11 6.11 8.13 8.13 0 0 1-.52 1.07 2 2 0 0 1-1.74 1M108.84 5l-3.08.09h-.47c-.81 0-1.64 0-2.46.1l-5.42.45c-.91.09-1.93.18-2.94.32-2.91.4-5.66.87-8.41 1.44A76.72 76.72 0 0 0 78 9.5c-2.19.71-4.47 1.53-7.38 2.66-1.64.63-3.24 1.26-4.82 2a85.8 85.8 0 0 0-10.75 6.09 52.05 52.05 0 0 0-7.87 6.1c-.32.3-.64.59-1 .87A20.53 20.53 0 0 0 44.44 29a29.68 29.68 0 0 0-.73.85l-.86 1a82.79 82.79 0 0 0-7.21 9.12l-.45.66c-.84 1.23-1.71 2.51-2.46 3.87a69 69 0 0 0-3.49 7.18 99.36 99.36 0 0 0-3.67 11 51.61 51.61 0 0 0-1.27 6.21c-.17 1.17-.28 2.37-.39 3.53-.18 2-.31 3.72-.4 5.44 0 .49-.05 1.13 0 1.79q0 .76.06 1.53v1.57c.06 1.93.13 3.92.37 5.91l.07.66.24 2.1.36 2.57a189.229 189.229 0 0 1 .57 4.05l.33 2.36.17 1.23.28 2.05h-.49a15 15 0 0 0-1.81.1 15.71 15.71 0 0 0-3 .57 18.27 18.27 0 0 0-7.78 4.76 23.52 23.52 0 0 0-4.17 5.47 29.51 29.51 0 0 0-3.68 14 35.63 35.63 0 0 0 .31 5.63l.09.68c.11.76.21 1.55.38 2.33a35.54 35.54 0 0 0 2 6.15 36.29 36.29 0 0 0 3.81 6.81 22.36 22.36 0 0 0 6.62 6.19 19.58 19.58 0 0 0 4.08 2 37.84 37.84 0 0 0 7.92 1.56 11 11 0 0 1 1.1.13l.49.06c.15 0 .25.06.36.31l1.47 3.08.37.75c1 1.95 1.89 3.71 2.85 5.37a79.71 79.71 0 0 0 8.47 11.79c1.15 1.32 2.68 3.06 4.4 4.69a79.74 79.74 0 0 0 6.84 5.79 57.63 57.63 0 0 0 8.18 5.29l2 1.05 1.74.91a44.8 44.8 0 0 0 5 2.32l5.78 2.14a74.1 74.1 0 0 0 12.23 3.21l.68.11c1.37.23 2.79.48 4.22.62l3.94.4c1.58.18 3.18.26 4.67.33h1.6c1.23 0 2.52 0 4-.17 2.76-.23 5.58-.47 8.34-.9 1.82-.29 3.75-.61 5.65-1a80.94 80.94 0 0 0 10.64-3.21l.34-.12c2-.75 4.11-1.51 6.12-2.42 1-.43 1.91-.92 2.82-1.4l1.7-.87a63 63 0 0 0 7.92-4.68c2.4-1.67 4.64-3.51 6.32-4.92a56.92 56.92 0 0 0 4.52-4.24c2-2.09 3.86-4.29 5.61-6.56a76.88 76.88 0 0 0 7.77-12.33c.72-1.41 1.48-3 2.32-4.79a10.93 10.93 0 0 1 .82-1.47 1.19 1.19 0 0 1 .9-.6h.19l1.48-.2.49-.07 2.67-.38a23.51 23.51 0 0 0 6.88-2.38 19.08 19.08 0 0 0 6.37-5.32 36.9 36.9 0 0 0 4-6.43 34.25 34.25 0 0 0 3.41-14.46 33.35 33.35 0 0 0-.2-4.43c-.15-1.28-.31-2.65-.58-4a26 26 0 0 0-2.51-6.73 23.78 23.78 0 0 0-4.2-5.69 23.41 23.41 0 0 0-2.63-2.36 17 17 0 0 0-7.57-3.27h-.14a13.11 13.11 0 0 0-2.21-.25 6 6 0 0 0-.86.06l.18-1.33.22-1.59.27-1.68.35-2.25.61-4.67.51-4.68a60.35 60.35 0 0 0 .24-4.23v-1.23c0-1.08.08-2.2 0-3.32 0-1.48-.09-2.84-.2-4.15l-.16-1.63-.33-3.25c-.12-1.08-.27-2.05-.44-3a76.1 76.1 0 0 0-2.51-9.36 75.05 75.05 0 0 0-3.46-8.79 71.11 71.11 0 0 0-7.34-11.9c-1.17-1.55-2.43-3-3.65-4.47l-.88-1a33.13 33.13 0 0 0-4.08-4.28l-1.38-1.22c-.6-.54-1.22-1.1-1.88-1.62a48.4 48.4 0 0 0-4.93-3.56 95.9 95.9 0 0 0-8.49-4.64l-2-.93-4.11-1.91a90.7 90.7 0 0 0-11.3-3.9c-2-.55-4-1-5.9-1.36l-.94-.19a67.69 67.69 0 0 0-8.75-1.24c-2.5-.17-5-.26-8-.29zm-74 111.5a3 3 0 0 0 2.6-1.46 11.38 11.38 0 0 0 .59-1.21 67.7 67.7 0 0 0 2.14-6.21l4.2-14.89a56.13 56.13 0 0 1 3.32-8.93 9.5 9.5 0 0 1 .4-.75 2.42 2.42 0 0 1 1.35-1.15 80.27 80.27 0 0 1 7.91-2.43c2.8-.7 5.9-1.37 9.76-2.11 1.77-.34 3.6-.58 5.36-.82 1.27-.17 2.56-.29 3.82-.42l1.16-.12 1.7-.18 3.56-.36c1.53-.16 3.09-.28 4.76-.37.57 0 1.15-.07 1.72-.12l1.71-.11 5.06-.2c2.33-.08 4.71-.09 7-.1H109l6.8.07 6.77.24c1.44.08 2.92.2 4.34.31l1.5.12 1.09.09 4.35.38h.52c1.7.16 3.45.33 5.15.57l4.08.53c1.6.2 3.22.52 4.74.83l1.21.25 5.23 1.13a76.38 76.38 0 0 1 8.51 2.48l.38.13.39.13a2 2 0 0 1 1.21 1 24.42 24.42 0 0 1 1.18 2.53 64.55 64.55 0 0 1 2.46 7.34l1.14 4.1q1.06 3.87 2.16 7.73c.65 2.28 1.46 5 2.52 7.63l.1.24c.11.28.22.55.34.82a4.29 4.29 0 0 0 .92 1.36 3 3 0 0 0 2 .84 2.9 2.9 0 0 0 1.73-.58 4.09 4.09 0 0 0 .64-.57l.87-.94.57-.6a6.13 6.13 0 0 1 2.54-1.7 4.87 4.87 0 0 1 1.39-.27h1.08a10.53 10.53 0 0 1 1.7.11 5.73 5.73 0 0 1 1 .25 13.33 13.33 0 0 1 8 6.55 20 20 0 0 1 1.8 5.28 27.93 27.93 0 0 1 .54 6 19.41 19.41 0 0 1-.22 3.47 28.32 28.32 0 0 1-2.53 7.86c-.35.7-.73 1.39-1.1 2a14.25 14.25 0 0 1-7.43 6.25 20.59 20.59 0 0 1-5 1.16 25.77 25.77 0 0 1-3 .27c-.57 0-1.11.06-1.67.13a5.7 5.7 0 0 0-4.25 2.49 30.4 30.4 0 0 0-1.6 2.8l-.71 1.36c-1 1.93-2 3.92-3.11 5.84a62.88 62.88 0 0 1-3.6 5.73l-.8 1.15c-1 1.41-2 2.87-3.06 4.24a65.6 65.6 0 0 1-5.31 6.17 40.18 40.18 0 0 1-3.39 3c-1.58 1.27-3.13 2.5-4.78 3.61a61.69 61.69 0 0 1-9.05 5l-4.4 1.94c-2.15.94-4.4 1.65-6.57 2.35-1.46.47-3.39 1.07-5.38 1.5-1.32.29-2.77.55-4.54.81l-4.55.65c-1.65.19-3.18.31-4.66.36-1.15 0-2 .06-2.87.06h-1.62c-1 0-2-.07-3.33-.16-1.56-.1-3.23-.29-5.1-.58h-.19a65.77 65.77 0 0 1-9.5-1.91c-2.43-.75-4.94-1.52-7.38-2.47-1.45-.56-2.9-1.22-4.31-1.85l-1-.47a67.92 67.92 0 0 1-8.4-4.45c-1.18-.73-2.32-1.59-3.43-2.43l-.32-.24a54.39 54.39 0 0 1-5-4.2 53.56 53.56 0 0 1-4.67-5.22 107.38 107.38 0 0 1-7.55-10.77c-.73-1.21-1.42-2.5-2.09-3.75l-.79-1.47-1.86-3.36a17.55 17.55 0 0 0-.73-1.15 7.63 7.63 0 0 0-4.5-3.13 15.82 15.82 0 0 0-2.92-.46 28.33 28.33 0 0 1-6.47-1.08 14.44 14.44 0 0 1-4.55-2.32 13.46 13.46 0 0 1-3.76-4.19 29.23 29.23 0 0 1-3.47-8.95 18.05 18.05 0 0 1-.37-5.48 7.63 7.63 0 0 0 0-.82v-.24a21.92 21.92 0 0 1 1.77-7.99 13.18 13.18 0 0 1 7.92-7.56 8.7 8.7 0 0 1 3.31-.6 12.84 12.84 0 0 1 1.71.12 5 5 0 0 1 2.86 1.48c.27.25.52.53.78.82l.51.54c.27.29.54.59.83.88a3 3 0 0 0 2.11.87z"/><path d="M139 111.74a11.29 11.29 0 0 1 6.68 2.31 7.38 7.38 0 0 1 2.37 3.12 11.51 11.51 0 0 1 .94 4l.07 1.54a13.33 13.33 0 0 1-1.27 5.74 7.67 7.67 0 0 1-2.89 3.19 9.77 9.77 0 0 1-5.21 1.68h-.83a14.56 14.56 0 0 1-2.46-.19 8.91 8.91 0 0 1-5.51-3.25 9.79 9.79 0 0 1-2.05-4.25 12.8 12.8 0 0 1 .44-7.4 9.44 9.44 0 0 1 6.58-6.08 11.26 11.26 0 0 1 3.14-.46m-.42 19.08h.19a10.34 10.34 0 0 0 2.53-.45 5.38 5.38 0 0 0 2.58-1.65 6 6 0 0 0 1-1.61 11 11 0 0 0 .24-8.44 5.94 5.94 0 0 0-4-3.78 7.6 7.6 0 0 0-2.3-.35 8.61 8.61 0 0 0-2.06.26 5.55 5.55 0 0 0-2.88 1.78 9 9 0 0 0-1 1.55 9.46 9.46 0 0 0-1.17 4.78c0 .28 0 .65.05 1a9 9 0 0 0 .65 2.75 6.35 6.35 0 0 0 6.12 4.13m.42-20.08a12.42 12.42 0 0 0-3.42.5 10.44 10.44 0 0 0-7.24 6.69 13.85 13.85 0 0 0-.48 8 10.63 10.63 0 0 0 2.27 4.68 9.89 9.89 0 0 0 6.11 3.59 16.41 16.41 0 0 0 2.62.2h.87a10.83 10.83 0 0 0 5.73-1.85 8.57 8.57 0 0 0 3.24-3.61 14.38 14.38 0 0 0 1.36-6.17v-.66-.93a12.5 12.5 0 0 0-1-4.36 8.31 8.31 0 0 0-2.69-3.53 12.28 12.28 0 0 0-7.27-2.5zm-.42 19.08a5.38 5.38 0 0 1-5.2-3.52 8.09 8.09 0 0 1-.58-2.45v-.97a8.43 8.43 0 0 1 1.05-4.28 8.55 8.55 0 0 1 .89-1.37 4.59 4.59 0 0 1 2.36-1.46 7.76 7.76 0 0 1 1.82-.23 6.48 6.48 0 0 1 2 .31 4.94 4.94 0 0 1 3.32 3.17 10 10 0 0 1-.22 7.69 5 5 0 0 1-.85 1.34 4.35 4.35 0 0 1-2.11 1.36 9.11 9.11 0 0 1-2.29.41zM137.06 93h.52c1.72 0 3.43.16 5.14.37a22.66 22.66 0 0 1 3.48.74 15.42 15.42 0 0 1 3.52 1.5 6 6 0 0 1 1.46 1.13 2.63 2.63 0 0 1 .71 2.43 1.91 1.91 0 0 1-.84 1.29 3 3 0 0 1-1.22.49 5.09 5.09 0 0 1-1 .09 6.13 6.13 0 0 1-1.34-.16l-3.55-.77-2.16-.32a1.86 1.86 0 0 0-.34 0 1 1 0 0 0-.29.05l-2.95-.11a.11.11 0 0 0 0-.11.13.13 0 0 0-.13-.07h-1.21a49.59 49.59 0 0 0-5.45.26l-2.31.21h-.36a7.34 7.34 0 0 1-1.15-.11 3.22 3.22 0 0 1-1.23-.46 2 2 0 0 1-.87-2.51 3.79 3.79 0 0 1 1.89-2.12 12.28 12.28 0 0 1 2.83-1.09 22.35 22.35 0 0 1 3.26-.52l3.57-.17m0-1l-3.67.18a23.23 23.23 0 0 0-3.41.54 13.58 13.58 0 0 0-3.06 1.18 4.84 4.84 0 0 0-2.36 2.68 3 3 0 0 0 1.29 3.68 4.24 4.24 0 0 0 1.6.6 8.16 8.16 0 0 0 1.31.12h.44l2.35-.22a48.09 48.09 0 0 1 5-.25l-.09.13 1.79.07 2.95.11h.18l.18-.06h.17l.55.07 1.56.24 3.52.77a7.12 7.12 0 0 0 1.56.18 6.1 6.1 0 0 0 1.13-.11 3.85 3.85 0 0 0 1.61-.65 2.87 2.87 0 0 0 1.25-1.93 3.61 3.61 0 0 0-1-3.29 7.09 7.09 0 0 0-1.69-1.32 16.07 16.07 0 0 0-3.76-1.59 23.17 23.17 0 0 0-3.62-.77 52.5 52.5 0 0 0-5.22-.4zM74.31 112.3h.94a8.32 8.32 0 0 1 4.32 1.84 8.59 8.59 0 0 1 2.74 3.89 13.12 13.12 0 0 1 .6 6.83 13.28 13.28 0 0 1-1.11 3.58 8.8 8.8 0 0 1-1.86 2.63 7.36 7.36 0 0 1-3.22 1.93 9.84 9.84 0 0 1-2.67.38 9.4 9.4 0 0 1-2.1-.24 7.4 7.4 0 0 1-4.18-2.58 11.64 11.64 0 0 1-2.49-5.47 14 14 0 0 1-.17-2.49 11.51 11.51 0 0 1 .83-4.4 8.77 8.77 0 0 1 3.52-4.42 8.92 8.92 0 0 1 4.85-1.46m0-1a9.87 9.87 0 0 0-5.39 1.62 9.73 9.73 0 0 0-3.91 4.9 12.52 12.52 0 0 0-.9 4.8 14.77 14.77 0 0 0 .18 2.62 12.77 12.77 0 0 0 2.71 5.92 8.44 8.44 0 0 0 4.73 2.92 10.49 10.49 0 0 0 5.26-.16 8.33 8.33 0 0 0 3.64-2.1 9.78 9.78 0 0 0 2.07-2.92 14.72 14.72 0 0 0 .55-11.19 9.69 9.69 0 0 0-3.06-4.33 9.3 9.3 0 0 0-4.84-2 9.2 9.2 0 0 0-1-.06zm24.11 59.44h1.23l2.31.11 4.42.14h.47l3.17-.07 4-.1h.28a13.35 13.35 0 0 1 3.33.44 3.08 3.08 0 0 1 1.18.57 2 2 0 0 1 .58 2.48 2.64 2.64 0 0 1-1 1.11 7.16 7.16 0 0 1-3 1.1l-4.27.43-5.74.11h-.51c-1.29 0-2.57-.1-3.85-.16a19 19 0 0 1-4.5-.66 8.63 8.63 0 0 1-1.42-.53 4.5 4.5 0 0 1-1.23-.89 2.06 2.06 0 0 1 .33-3.29 4.26 4.26 0 0 1 1.84-.69 19.33 19.33 0 0 1 2.4-.15m0-1a19.49 19.49 0 0 0-2.52.16 5.2 5.2 0 0 0-2.27.85 3.12 3.12 0 0 0-1.44 2.28 3.21 3.21 0 0 0 1 2.55 5.48 5.48 0 0 0 1.49 1.08 9.74 9.74 0 0 0 1.58.59 19.65 19.65 0 0 0 4.74.7l1 .05 2.94.11h2l4.31-.1 4.35-.44a8.13 8.13 0 0 0 3.43-1.26 3.59 3.59 0 0 0 1.36-1.52 3 3 0 0 0-.87-3.68 4.09 4.09 0 0 0-1.55-.76 14.56 14.56 0 0 0-3.58-.47H114l-2.87.06-1.13.09-3.14.07h-.46c-1.47 0-3-.08-4.39-.14-.69 0-1.43 0-2.29-.11h-1.29zm-73.59-46.18a1.77 1.77 0 0 1 1.6 1 2.92 2.92 0 0 1 .17 1.75l-.28 1.69a15.5 15.5 0 0 0 .2 6l.59 2.1a4 4 0 0 1 .18 1.24 2.61 2.61 0 0 1-.32 1.19 1.43 1.43 0 0 1-1 .73 2.19 2.19 0 0 1-.36 0 1.87 1.87 0 0 1-.74-.14 3.15 3.15 0 0 1-1.29-.9 5.79 5.79 0 0 1-1.1-1.93 14.43 14.43 0 0 1-.83-4.6v-1.05a13.69 13.69 0 0 1 .54-4.5 5.31 5.31 0 0 1 1-1.78 2.84 2.84 0 0 1 .88-.7 1.83 1.83 0 0 1 .84-.21m0-1a2.84 2.84 0 0 0-1.3.32 3.86 3.86 0 0 0-1.18.94 6.34 6.34 0 0 0-1.16 2.11 14.4 14.4 0 0 0-.59 4.82v1.05a15.67 15.67 0 0 0 .88 4.93 6.83 6.83 0 0 0 1.21 2.41 4.15 4.15 0 0 0 1.7 1.19 3 3 0 0 0 1.09.2 2.92 2.92 0 0 0 .51 0 2.45 2.45 0 0 0 1.76-1.21 3.57 3.57 0 0 0 .46-1.68 5.11 5.11 0 0 0-.22-1.52l-.25-.89-.33-1.19a14.35 14.35 0 0 1-.18-5.65l.16-1 .12-.66a4 4 0 0 0-.26-2.34 2.76 2.76 0 0 0-2.5-1.62z"/></g><use xlink:href="#B"/><use xlink:href="#C" fill="#fff"/><use xlink:href="#D"/><use xlink:href="#E"/><path d="M141.15 114.89a8 8 0 00-4.36-.09 5.55 5.55 0 00-2.88 1.78 9 9 0 00-1 1.55 9.46 9.46 0 00-1.17 4.78c0 .28 0 .65.05 1a9 9 0 00.65 2.75 6.36 6.36 0 006.31 4.13 10.34 10.34 0 002.53-.45 5.38 5.38 0 002.58-1.65 6 6 0 001-1.61 11 11 0 00.24-8.44 5.94 5.94 0 00-3.95-3.75zm-1.49 18.46a16.47 16.47 0 01-3.29-.17 8.91 8.91 0 01-5.51-3.25 9.79 9.79 0 01-2.05-4.25 12.8 12.8 0 01.44-7.4 9.44 9.44 0 016.58-6.08 10.93 10.93 0 019.82 1.85 7.38 7.38 0 012.37 3.12 11.51 11.51 0 01.94 4c0 .44 0 .88.07 1.54a13.33 13.33 0 01-1.27 5.74 7.67 7.67 0 01-2.89 3.19 9.77 9.77 0 01-5.21 1.71z" fill="#fff"/><path d="M151.18 96.73a2.63 2.63 0 0 1 .71 2.43 1.91 1.91 0 0 1-.84 1.29 3 3 0 0 1-1.22.49 5.7 5.7 0 0 1-2.29-.07l-3.55-.77-2.16-.32a1.23 1.23 0 0 0-.63 0l-2.95-.11a.11.11 0 0 0 0-.11c0-.08-.11-.07-.17-.07h-.39a52.43 52.43 0 0 0-6.27.26l-2.31.21a6.39 6.39 0 0 1-1.51-.09 3.22 3.22 0 0 1-1.23-.46 2 2 0 0 1-.87-2.51 3.79 3.79 0 0 1 1.89-2.12 12.28 12.28 0 0 1 2.83-1.09 22.35 22.35 0 0 1 3.26-.52 37.2 37.2 0 0 1 4.09-.17c1.72 0 3.43.16 5.14.37a22.66 22.66 0 0 1 3.48.74 15.42 15.42 0 0 1 3.52 1.5 6 6 0 0 1 1.47 1.12zm-68.87 21.35a13.12 13.12 0 0 1 .6 6.83 13.28 13.28 0 0 1-1.11 3.58 8.8 8.8 0 0 1-1.86 2.63 7.36 7.36 0 0 1-3.22 1.88 9.63 9.63 0 0 1-4.77.14 7.4 7.4 0 0 1-4.18-2.58 11.64 11.64 0 0 1-2.49-5.47 14 14 0 0 1-.17-2.49 11.51 11.51 0 0 1 .83-4.4 9 9 0 0 1 9.31-5.83 8.32 8.32 0 0 1 4.32 1.84 8.59 8.59 0 0 1 2.74 3.87zm36.51 53.81a2 2 0 0 1 .58 2.48 2.64 2.64 0 0 1-1 1.11 7.16 7.16 0 0 1-3 1.1l-4.27.43-5.74.11c-1.46 0-2.91-.08-4.36-.15a19 19 0 0 1-4.5-.66 8.63 8.63 0 0 1-1.42-.53 4.5 4.5 0 0 1-1.23-.89 2.06 2.06 0 0 1 .33-3.29 4.26 4.26 0 0 1 1.84-.69 19.17 19.17 0 0 1 3.63-.11l2.31.11 4.42.14 3.64-.07 4.29-.1a13.35 13.35 0 0 1 3.33.44 3.08 3.08 0 0 1 1.15.57zm-91.69-35.74a4 4 0 0 1 .18 1.24 2.61 2.61 0 0 1-.32 1.19 1.43 1.43 0 0 1-1 .73 2.05 2.05 0 0 1-1.1-.11 3.15 3.15 0 0 1-1.29-.9 5.79 5.79 0 0 1-1.1-1.93 14.43 14.43 0 0 1-.83-4.6v-1.05a13.69 13.69 0 0 1 .54-4.5 5.31 5.31 0 0 1 1-1.78 2.84 2.84 0 0 1 .88-.7 1.75 1.75 0 0 1 2.44.84 2.92 2.92 0 0 1 .17 1.75l-.28 1.69a15.5 15.5 0 0 0 .2 6c.1.74.32 1.43.51 2.13z"/><defs ><path id="B" d="M145.11 118.67a11 11 0 01-.24 8.44 6 6 0 01-1 1.61 5.38 5.38 0 01-2.58 1.65 10.34 10.34 0 01-2.53.45 6.36 6.36 0 01-6.31-4.13 9 9 0 01-.65-2.75c0-.38 0-.75-.05-1a9.46 9.46 0 011.17-4.78 9 9 0 011-1.55 5.55 5.55 0 012.88-1.78 8 8 0 014.36.09 5.94 5.94 0 013.95 3.75z"/><path id="C" d="M186.59 125.05l.4 3.14a13.82 13.82 0 0 1-.15 3.69 13.65 13.65 0 0 1-.53 2 7.69 7.69 0 0 0-.45 2.65 3.06 3.06 0 0 0 .17.91 1.19 1.19 0 0 0 1.08.83 2.24 2.24 0 0 0 1.22-.22 3.86 3.86 0 0 0 1.9-1.94 11.65 11.65 0 0 0 .81-2.44 19.51 19.51 0 0 0 .38-4 14.54 14.54 0 0 0-.15-2.59 9.77 9.77 0 0 0-.79-2.79 3.54 3.54 0 0 0-.9-1.2 2.16 2.16 0 0 0-1.59-.52 1.34 1.34 0 0 0-1.25.93 3.31 3.31 0 0 0-.15 1.55zm3.41-14.86a14.39 14.39 0 0 1 8.56 7 21.24 21.24 0 0 1 1.9 5.54 29.21 29.21 0 0 1 .56 6.17 20.22 20.22 0 0 1-.23 3.63 29 29 0 0 1-2.62 8.14l-1.14 2.09a15.16 15.16 0 0 1-7.93 6.67 22.11 22.11 0 0 1-5.2 1.22 26.47 26.47 0 0 1-3.09.28c-.53 0-1 .06-1.58.12a4.68 4.68 0 0 0-3.53 2.06 27.64 27.64 0 0 0-1.54 2.7l-3.84 7.23a63.74 63.74 0 0 1-3.65 5.82l-3.89 5.42a67.06 67.06 0 0 1-5.39 6.26 41.94 41.94 0 0 1-3.47 3.06l-4.85 3.66a63.21 63.21 0 0 1-9.2 5.05q-2.2 1-4.41 1.95c-2.17.94-4.41 1.66-6.66 2.38l-5.47 1.53-4.61.82-4.58.65-4.74.37h-4.56c-1.12 0-2.24-.09-3.36-.16l-5.19-.59a67.11 67.11 0 0 1-9.83-2l-7.45-2.49-5.4-2.34A68.65 68.65 0 0 1 65 188c-1.33-.83-2.57-1.78-3.82-2.72A56.6 56.6 0 0 1 56.1 181a54.6 54.6 0 0 1-4.76-5.32 109.73 109.73 0 0 1-7.62-10.87l-2.91-5.26-1.85-3.35-.68-1.06a6.59 6.59 0 0 0-3.92-2.74 14.92 14.92 0 0 0-2.73-.43 29.25 29.25 0 0 1-6.7-1.12 15.61 15.61 0 0 1-4.86-2.47 14.48 14.48 0 0 1-4-4.5 29.91 29.91 0 0 1-3.59-9.25 19.37 19.37 0 0 1-.38-5.78v-1a23.39 23.39 0 0 1 1.79-8.29 14.26 14.26 0 0 1 8.48-8.11 10.75 10.75 0 0 1 5.53-.54 6 6 0 0 1 3.42 1.75c.46.44.87.93 1.31 1.39l.82.86a2 2 0 0 0 3.14-.4 8.13 8.13 0 0 0 .52-1.07 63 63 0 0 0 2.11-6.11l4.2-14.88a56.38 56.38 0 0 1 3.38-9.09 10.59 10.59 0 0 1 .43-.82A3.43 3.43 0 0 1 49.12 81a78.85 78.85 0 0 1 8-2.46c3.25-.81 6.53-1.49 9.81-2.12 1.8-.35 3.61-.59 5.42-.83 1.66-.22 3.33-.37 5-.54l5.26-.54c1.6-.16 3.2-.28 4.81-.37l3.43-.23 5.08-.2c2.77-.1 5.55-.09 8.33-.1h3l8.52.08q3.41.07 6.8.24c2 .11 3.91.28 5.87.43l5.46.47c1.82.18 3.82.35 5.71.62l4.07.53c1.61.2 3.21.51 4.81.84l6.46 1.38a76.53 76.53 0 0 1 8.62 2.52l.75.25a3.06 3.06 0 0 1 1.78 1.49 24.24 24.24 0 0 1 1.27 2.54 63.21 63.21 0 0 1 2.49 7.45l3.3 11.83a79 79 0 0 0 2.49 7.53c.14.34.28.69.43 1a3.18 3.18 0 0 0 .7 1 1.89 1.89 0 0 0 2.48.17 3.49 3.49 0 0 0 .49-.45c.49-.51 1-1 1.44-1.54a7.19 7.19 0 0 1 3-2 6 6 0 0 1 1.68-.32 16.26 16.26 0 0 1 3 .1 7.57 7.57 0 0 1 1.12.42zm-53.18-8.9c-.35.43-.68.87-1 1.29-1.54 1.85-3 3.74-4.47 5.66l-1.35 1.63a1.63 1.63 0 0 1-1.23.67h-.4a50.98 50.98 0 0 0-3.69.31l-3.14.39c-1.71.23-3.41.45-5.1.77a3.87 3.87 0 0 0-.88.26.87.87 0 0 0-.59 1.16 2.05 2.05 0 0 0 .18.49 7.69 7.69 0 0 0 .39.69l2.6 4.14 4 6.3a2.09 2.09 0 0 1 .31 1.69l-.06.26a194.17 194.17 0 0 0-1.55 8c-.32 1.94-.57 3.88-.84 5.82a2.61 2.61 0 0 0 0 .79 1.28 1.28 0 0 0 1.09 1.09 2.66 2.66 0 0 0 1 0c.67-.12 1.34-.24 2-.4 2.87-.69 5.71-1.51 8.53-2.36q2.51-.76 5-1.64a2.92 2.92 0 0 1 2.06 0 100.38 100.38 0 0 0 10.87 3.49 47.46 47.46 0 0 0 5.77 1.14 7.1 7.1 0 0 0 1.38.07 1.08 1.08 0 0 0 1.08-1 4.46 4.46 0 0 0 0-.73 10.17 10.17 0 0 0-.22-1.83 38.42 38.42 0 0 0-1.05-4.23c-.71-2.48-1.46-4.94-2-7.47-.16-.75-.29-1.51-.43-2.27a2.06 2.06 0 0 1 .54-1.89c.24-.26.46-.53.68-.81l6.43-8.24a5 5 0 0 0 .67-1.13 2.23 2.23 0 0 0 .13-.44.75.75 0 0 0-.47-.92 4.53 4.53 0 0 0-.81-.27 33.5 33.5 0 0 0-4.76-.78c-2.15-.21-4.3-.4-6.46-.43a1.59 1.59 0 0 1-1.38-.75c-.52-.74-1.07-1.46-1.61-2.18a56.58 56.58 0 0 0-4.29-5.11c-.87-.91-1.68-1.87-2.6-2.73 0 0 0-.07-.09-.16a1.23 1.23 0 0 1 .63 0c.72.1 1.44.18 2.16.32l3.55.77a5.7 5.7 0 0 0 2.29.07 3 3 0 0 0 1.22-.49 1.91 1.91 0 0 0 .84-1.29 2.63 2.63 0 0 0-.71-2.43 6 6 0 0 0-1.46-1.13 15.42 15.42 0 0 0-3.52-1.5 22.66 22.66 0 0 0-3.48-.74 52.02 52.02 0 0 0-5.14-.37 37.2 37.2 0 0 0-4.09.17 22.35 22.35 0 0 0-3.26.52 12.28 12.28 0 0 0-2.83 1.09 3.79 3.79 0 0 0-1.89 2.12 2 2 0 0 0 .87 2.51 3.22 3.22 0 0 0 1.23.46 6.39 6.39 0 0 0 1.51.09l2.31-.21a52.43 52.43 0 0 1 6.27-.26h.39c.06 0 .14 0 .17.07a.11.11 0 0 1 0 .11l-.05.06a15 15 0 0 0-1.3 1.72zm-17.42 73.08a2 2 0 0 0-.58-2.48 3.08 3.08 0 0 0-1.18-.57 13.35 13.35 0 0 0-3.33-.44c-1.43 0-2.86.06-4.29.1a73.66 73.66 0 0 1-3.64.07c-1.47 0-2.95-.08-4.42-.14-.77 0-1.54-.06-2.31-.11a19.17 19.17 0 0 0-3.63.11 4.26 4.26 0 0 0-1.84.69 2.06 2.06 0 0 0-.33 3.29 4.5 4.5 0 0 0 1.23.89 8.63 8.63 0 0 0 1.42.53 19 19 0 0 0 4.5.66c1.45.07 2.9.18 4.36.15 1.91 0 3.83 0 5.74-.11 1.43-.09 2.86-.22 4.27-.43a7.16 7.16 0 0 0 3-1.1 2.64 2.64 0 0 0 1.03-1.11zm-3.4-20.54c1.32-1.5.68-2.87-.67-3.6a2.13 2.13 0 0 0-.82-.26l-.85-.06a12.18 12.18 0 0 0-2.94.4 18.44 18.44 0 0 1-7.93.15c-.93-.18-1.84-.42-2.79-.53a6.58 6.58 0 0 0-2 .08 2.46 2.46 0 0 0-1.16.61 1.85 1.85 0 0 0-.62 1.66 2.81 2.81 0 0 0 1 1.82 6.44 6.44 0 0 0 3.07 1.59 31.53 31.53 0 0 0 5.54.9h.79l1.91-.11a14.75 14.75 0 0 0 1.77-.21 22.59 22.59 0 0 0 4.1-1.26 4.32 4.32 0 0 0 1.6-1.18zM85.64 99a1.93 1.93 0 0 0 .89-2.22 4.24 4.24 0 0 0-.18-.5 3.69 3.69 0 0 0-1.74-1.83 11.19 11.19 0 0 0-3.21-1.19 34.74 34.74 0 0 0-7.62-.67 32.27 32.27 0 0 0-7.19.92 20.21 20.21 0 0 0-4.25 1.61 5 5 0 0 0-1.81 1.51 3 3 0 0 0-.47 1 2.23 2.23 0 0 0 1.59 2.79 4.63 4.63 0 0 0 1.23.18 10.47 10.47 0 0 0 2.23-.28 60 60 0 0 1 7.32-1.07 45.32 45.32 0 0 1 5.34-.09c1.46.08 2.9.21 4.35.38a7.53 7.53 0 0 0 1.71 0 4 4 0 0 0 1.81-.54zm-2.73 25.88a13.12 13.12 0 0 0-.6-6.83 8.59 8.59 0 0 0-2.74-3.89 8.32 8.32 0 0 0-4.32-1.84 9 9 0 0 0-9.31 5.83 11.51 11.51 0 0 0-.83 4.4 14 14 0 0 0 .17 2.49 11.64 11.64 0 0 0 2.49 5.47 7.4 7.4 0 0 0 4.23 2.61 9.63 9.63 0 0 0 4.77-.14 7.36 7.36 0 0 0 3.22-1.86 8.8 8.8 0 0 0 1.86-2.63 13.28 13.28 0 0 0 1.06-3.58zm-55.6 12.48a4 4 0 0 0-.18-1.24l-.59-2.1a15.5 15.5 0 0 1-.2-6c.08-.57.19-1.13.28-1.69a2.92 2.92 0 0 0-.17-1.75 1.75 1.75 0 0 0-2.44-.84 2.84 2.84 0 0 0-.88.7 5.31 5.31 0 0 0-1 1.78 13.69 13.69 0 0 0-.54 4.5v1.05a14.43 14.43 0 0 0 .83 4.6 5.79 5.79 0 0 0 1.1 1.93 3.15 3.15 0 0 0 1.29.9 2.05 2.05 0 0 0 1.1.11 1.43 1.43 0 0 0 1-.73 2.61 2.61 0 0 0 .4-1.19z"/><path id="D" d="M163.2 112.2a.75.75 0 0 1 .47.92 2.23 2.23 0 0 1-.13.44 5 5 0 0 1-.67 1.13l-6.43 8.24-.68.81a2.06 2.06 0 0 0-.54 1.89l.43 2.27c.53 2.53 1.28 5 2 7.47a38.42 38.42 0 0 1 1.05 4.23 10.17 10.17 0 0 1 .22 1.83 4.46 4.46 0 0 1 0 .73 1.08 1.08 0 0 1-1.08 1 7.1 7.1 0 0 1-1.38-.07 47.46 47.46 0 0 1-5.77-1.14 100.38 100.38 0 0 1-10.87-3.49 2.92 2.92 0 0 0-2.06 0q-2.46.87-5 1.64l-8.53 2.36-2 .4a2.66 2.66 0 0 1-1 0 1.28 1.28 0 0 1-1.09-1.09 2.61 2.61 0 0 1 0-.79l.84-5.82 1.55-8 .06-.26a2.09 2.09 0 0 0-.31-1.69l-4-6.3-2.6-4.14a7.69 7.69 0 0 1-.39-.69 2.05 2.05 0 0 1-.18-.49.87.87 0 0 1 .59-1.16 3.87 3.87 0 0 1 .88-.26l5.1-.77 3.14-.39 3.69-.31h.4a1.63 1.63 0 0 0 1.23-.67l1.24-1.63 4.47-5.66 1-1.29a15 15 0 0 1 1.43-1.55l.05-.06 2.95.11c.05.09.06.14.09.16.92.86 1.73 1.82 2.6 2.73a56.58 56.58 0 0 1 4.29 5.11l1.61 2.18a1.59 1.59 0 0 0 1.38.75c2.16 0 4.31.22 6.46.43a33.5 33.5 0 0 1 4.76.78 4.53 4.53 0 0 1 .73.11zm-15.44 16.28a13.33 13.33 0 0 0 1.27-5.74l-.07-1.54a11.51 11.51 0 0 0-.94-4 7.38 7.38 0 0 0-2.37-3.12 10.93 10.93 0 0 0-9.82-1.85 9.44 9.44 0 0 0-6.58 6.08 12.8 12.8 0 0 0-.44 7.4 9.79 9.79 0 0 0 2.05 4.25 8.91 8.91 0 0 0 5.51 3.25 16.47 16.47 0 0 0 3.29.17 9.77 9.77 0 0 0 5.21-1.68 7.67 7.67 0 0 0 2.89-3.22zm-32.46 21.75c1.35.73 2 2.1.67 3.6a4.32 4.32 0 0 1-1.66 1.18 22.59 22.59 0 0 1-4.1 1.26 14.75 14.75 0 0 1-1.77.21l-1.91.11h-.79a31.53 31.53 0 0 1-5.54-.9 6.44 6.44 0 0 1-3.07-1.59 2.81 2.81 0 0 1-1-1.82 1.85 1.85 0 0 1 .62-1.66 2.46 2.46 0 0 1 1.16-.61 6.58 6.58 0 0 1 2-.08c1 .11 1.86.35 2.79.53a18.44 18.44 0 0 0 7.93-.15 12.18 12.18 0 0 1 2.94-.4l.85.06a2.13 2.13 0 0 1 .88.26zM188 122.5a2.16 2.16 0 0 1 1.59.52 3.54 3.54 0 0 1 .9 1.2 9.77 9.77 0 0 1 .79 2.79 14.54 14.54 0 0 1 .15 2.59 19.51 19.51 0 0 1-.38 4 11.65 11.65 0 0 1-.81 2.44 3.86 3.86 0 0 1-1.9 1.94 2.24 2.24 0 0 1-1.22.22 1.19 1.19 0 0 1-1.08-.83 3.06 3.06 0 0 1-.17-.91 7.69 7.69 0 0 1 .45-2.65 13.65 13.65 0 0 0 .53-2 13.82 13.82 0 0 0 .15-3.69l-.4-3.14a3.31 3.31 0 0 1 .15-1.62 1.34 1.34 0 0 1 1.25-.86zM86.53 96.81a1.93 1.93 0 0 1-.89 2.19 4 4 0 0 1-1.81.59 7.53 7.53 0 0 1-1.71 0l-4.35-.38a45.32 45.32 0 0 0-5.34.09 60 60 0 0 0-7.32 1.07 10.47 10.47 0 0 1-2.23.28 4.63 4.63 0 0 1-1.23-.18 2.23 2.23 0 0 1-1.59-2.79 3 3 0 0 1 .47-1 5 5 0 0 1 1.81-1.51 20.21 20.21 0 0 1 4.25-1.61 32.27 32.27 0 0 1 7.19-.92 34.74 34.74 0 0 1 7.62.67 11.19 11.19 0 0 1 3.21 1.19 3.69 3.69 0 0 1 1.74 1.83 4.24 4.24 0 0 1 .18.48z"/><path id="E" d="M169.78 30.78l4.49 5.46A70.38 70.38 0 0 1 181.51 48a73.22 73.22 0 0 1 3.41 8.67 75.86 75.86 0 0 1 2.48 9.24l.43 2.88.48 4.86.2 4.09-.09 4.5-.23 4.15-.51 4.66-.61 4.65-.62 3.92-.44 3.21c-.13.85.27 1 .92.89a8.56 8.56 0 0 1 3.15.17 15.94 15.94 0 0 1 7.14 3.09 21.44 21.44 0 0 1 2.51 2.25 22.84 22.84 0 0 1 4 5.45 25.08 25.08 0 0 1 2.42 6.48c.26 1.3.42 2.61.57 3.92a32.42 32.42 0 0 1 .19 4.29 33.15 33.15 0 0 1-3.31 14 35.91 35.91 0 0 1-3.92 6.26 17.94 17.94 0 0 1-6 5 22.42 22.42 0 0 1-6.59 2.28l-3.14.45-1.63.22a2.15 2.15 0 0 0-1.62 1 12.05 12.05 0 0 0-.9 1.61l-2.3 4.76a76.19 76.19 0 0 1-7.67 12.17q-2.61 3.38-5.55 6.48a54.47 54.47 0 0 1-4.43 4.16l-6.25 4.87a61.51 61.51 0 0 1-7.79 4.6l-4.49 2.26-6.39 2.51a79.2 79.2 0 0 1-10.58 3.11l-5.59 1-8.27.89a42.61 42.61 0 0 1-5.42.14l-4.61-.32-4-.41-4.83-.72a73.16 73.16 0 0 1-12.07-3.16l-5.75-2.14a42.89 42.89 0 0 1-4.92-2.27l-3.75-2a57.19 57.19 0 0 1-8-5.2 81.73 81.73 0 0 1-6.76-5.72c-1.53-1.46-3-3-4.33-4.63a77.16 77.16 0 0 1-8.36-11.63l-2.82-5.31-1.83-3.81a1.4 1.4 0 0 0-1.14-.88l-1.64-.2a36.84 36.84 0 0 1-7.7-1.52 17.87 17.87 0 0 1-3.86-1.87 21.13 21.13 0 0 1-6.33-5.91 34.91 34.91 0 0 1-3.7-6.44 33.71 33.71 0 0 1-1.9-6c-.21-1-.32-2-.46-2.94a34.47 34.47 0 0 1-.3-5.47 30.94 30.94 0 0 1 .45-4.8 29.86 29.86 0 0 1 3.11-8.73 22.75 22.75 0 0 1 4-5.24 17.27 17.27 0 0 1 7.36-4.5 15.25 15.25 0 0 1 2.85-.54 15.65 15.65 0 0 1 2.37-.08c.72 0 .93-.18.84-.9l-.48-3.53-.65-4.71-.61-4.26-.31-2.75c-.26-2.22-.31-4.44-.39-6.66l-.09-2.25v-1.72l.4-5.4.39-3.54a50 50 0 0 1 1.25-6.08A96.7 96.7 0 0 1 30.17 52a65.89 65.89 0 0 1 3.44-7.07c.85-1.55 1.87-3 2.86-4.45a81.21 81.21 0 0 1 7.12-9l1.6-1.85c.83-.93 1.81-1.68 2.7-2.53a51.23 51.23 0 0 1 7.72-6 87 87 0 0 1 10.63-6l4.76-2 7.33-2.64a77.36 77.36 0 0 1 7.92-2C89 7.82 91.79 7.35 94.59 7l2.89-.31 5.4-.45 2.9-.12 3.07-.12 7.9.29a66 66 0 0 1 8.62 1.22l6.77 1.53a89.86 89.86 0 0 1 11.17 3.86l6 2.82a95.05 95.05 0 0 1 8.41 4.6 46.76 46.76 0 0 1 4.82 3.48l3.24 2.82a33.88 33.88 0 0 1 4 4.16zM12.07 128.85a19.37 19.37 0 0 0 .38 5.78 29.91 29.91 0 0 0 3.55 9.25 14.48 14.48 0 0 0 4 4.5 15.61 15.61 0 0 0 4.86 2.47 29.25 29.25 0 0 0 6.7 1.12 14.92 14.92 0 0 1 2.73.43 6.59 6.59 0 0 1 3.92 2.74l.68 1.06 1.85 3.35 2.91 5.26a109.73 109.73 0 0 0 7.62 10.87A54.6 54.6 0 0 0 56.1 181a56.6 56.6 0 0 0 5.12 4.28l3.82 2.72a68.65 68.65 0 0 0 8.52 4.51l5.4 2.34c2.44 1 4.94 1.72 7.45 2.49a67.11 67.11 0 0 0 9.83 2l5.19.59 3.36.16h4.56c1.56 0 3.16-.19 4.74-.37l4.58-.65 4.61-.82c1.86-.41 3.67-.95 5.47-1.53l6.66-2.38q2.21-1 4.41-1.95a63.21 63.21 0 0 0 9.2-5.05c1.68-1.13 3.27-2.39 4.85-3.66a41.94 41.94 0 0 0 3.47-3.06 67.06 67.06 0 0 0 5.39-6.26l3.89-5.42a63.74 63.74 0 0 0 3.65-5.82l3.84-7.23a27.64 27.64 0 0 1 1.54-2.7 4.68 4.68 0 0 1 3.53-2.06l1.58-.12a26.47 26.47 0 0 0 3.09-.28 22.11 22.11 0 0 0 5.2-1.22 15.16 15.16 0 0 0 7.93-6.67l1.14-2.09a29 29 0 0 0 2.62-8.14 20.22 20.22 0 0 0 .23-3.63 29.21 29.21 0 0 0-.56-6.17 21.24 21.24 0 0 0-1.9-5.54 14.39 14.39 0 0 0-8.56-7 7.57 7.57 0 0 0-1.16-.29 16.26 16.26 0 0 0-3-.1 6 6 0 0 0-1.68.32 7.19 7.19 0 0 0-3 2l-1.44 1.54a3.49 3.49 0 0 1-.49.45 1.89 1.89 0 0 1-2.48-.17 3.18 3.18 0 0 1-.7-1l-.43-1a79 79 0 0 1-2.49-7.53l-3.3-11.83a63.21 63.21 0 0 0-2.4-7.66 24.24 24.24 0 0 0-1.23-2.63 3.06 3.06 0 0 0-1.78-1.49l-.75-.25a76.53 76.53 0 0 0-8.62-2.5l-6.46-1.38-4.81-.84-4.07-.53-5.71-.62-5.46-.47-5.87-.43q-3.39-.17-6.8-.24l-8.52-.08h-3l-8.33.1-5.08.2-3.43.23-4.81.37-5.3.56-5 .54-5.42.83c-3.28.63-6.56 1.31-9.81 2.12a78.85 78.85 0 0 0-8 2.46 3.43 3.43 0 0 0-1.88 1.59 10.59 10.59 0 0 0-.43.82 56.38 56.38 0 0 0-3.38 9.09l-4.2 14.88a63 63 0 0 1-2.11 6.11 8.13 8.13 0 0 1-.52 1.07 2 2 0 0 1-3.14.4c-.28-.28-.55-.57-.82-.86-.44-.46-.85-1-1.31-1.39a6 6 0 0 0-3.42-1.75 10.75 10.75 0 0 0-5.53.54 14.26 14.26 0 0 0-8.48 8.11 23.39 23.39 0 0 0-1.79 8.29c-.01.34-.01.67-.04 1z"/><path id="F" d="M141.15 114.89a8 8 0 0 0-4.36-.09 5.55 5.55 0 0 0-2.88 1.78 9 9 0 0 0-1 1.55 9.46 9.46 0 0 0-1.17 4.78c0 .28 0 .65.05 1a9 9 0 0 0 .65 2.75 6.36 6.36 0 0 0 6.31 4.13 10.34 10.34 0 0 0 2.53-.45 5.38 5.38 0 0 0 2.58-1.65 6 6 0 0 0 1-1.61 11 11 0 0 0 .24-8.44 5.94 5.94 0 0 0-3.95-3.75zm-1.49 18.46a16.47 16.47 0 0 1-3.29-.17 8.91 8.91 0 0 1-5.51-3.25 9.79 9.79 0 0 1-2.05-4.25 12.8 12.8 0 0 1 .44-7.4 9.44 9.44 0 0 1 6.58-6.08 10.93 10.93 0 0 1 9.82 1.85 7.38 7.38 0 0 1 2.37 3.12 11.51 11.51 0 0 1 .94 4l.07 1.54a13.33 13.33 0 0 1-1.27 5.74 7.67 7.67 0 0 1-2.89 3.19 9.77 9.77 0 0 1-5.21 1.71zm11.52-36.62a2.63 2.63 0 0 1 .71 2.43 1.91 1.91 0 0 1-.84 1.29 3 3 0 0 1-1.22.49 5.7 5.7 0 0 1-2.29-.07l-3.55-.77-2.16-.32a1.23 1.23 0 0 0-.63 0l-2.95-.11a.11.11 0 0 0 0-.11c0-.08-.11-.07-.17-.07h-.39a52.43 52.43 0 0 0-6.27.26l-2.31.21a6.39 6.39 0 0 1-1.51-.09 3.22 3.22 0 0 1-1.23-.46 2 2 0 0 1-.87-2.51 3.79 3.79 0 0 1 1.89-2.12 12.28 12.28 0 0 1 2.83-1.09 22.35 22.35 0 0 1 3.26-.52 37.2 37.2 0 0 1 4.09-.17c1.72 0 3.43.16 5.14.37a22.66 22.66 0 0 1 3.48.74 15.42 15.42 0 0 1 3.52 1.5 6 6 0 0 1 1.47 1.12zm-68.87 21.35a13.12 13.12 0 0 1 .6 6.83 13.28 13.28 0 0 1-1.11 3.58 8.8 8.8 0 0 1-1.86 2.63 7.36 7.36 0 0 1-3.22 1.88 9.63 9.63 0 0 1-4.77.14 7.4 7.4 0 0 1-4.18-2.58 11.64 11.64 0 0 1-2.49-5.47 14 14 0 0 1-.17-2.49 11.51 11.51 0 0 1 .83-4.4 9 9 0 0 1 9.31-5.83 8.32 8.32 0 0 1 4.32 1.84 8.59 8.59 0 0 1 2.74 3.87zm36.51 53.81a2 2 0 0 1 .58 2.48 2.64 2.64 0 0 1-1 1.11 7.16 7.16 0 0 1-3 1.1l-4.27.43-5.74.11c-1.46 0-2.91-.08-4.36-.15a19 19 0 0 1-4.5-.66 8.63 8.63 0 0 1-1.42-.53 4.5 4.5 0 0 1-1.23-.89 2.06 2.06 0 0 1 .33-3.29 4.26 4.26 0 0 1 1.84-.69 19.17 19.17 0 0 1 3.63-.11l2.31.11 4.42.14 3.64-.07 4.29-.1a13.35 13.35 0 0 1 3.33.44 3.08 3.08 0 0 1 1.15.57zm-91.69-35.74a4 4 0 0 1 .18 1.24 2.61 2.61 0 0 1-.32 1.19 1.43 1.43 0 0 1-1 .73 2.05 2.05 0 0 1-1.1-.11 3.15 3.15 0 0 1-1.29-.9 5.79 5.79 0 0 1-1.1-1.93 14.43 14.43 0 0 1-.83-4.6v-1.05a13.69 13.69 0 0 1 .54-4.5 5.31 5.31 0 0 1 1-1.78 2.84 2.84 0 0 1 .88-.7 1.75 1.75 0 0 1 2.44.84 2.92 2.92 0 0 1 .17 1.75l-.28 1.69a15.5 15.5 0 0 0 .2 6c.1.74.32 1.43.51 2.13z"/></defs></svg>