<svg width="513" height="49" viewBox="0 0 513 49" fill="none" xmlns="http://www.w3.org/2000/svg">
<path d="M51.5254 35.0917H44.8021V5.54704C44.8523 4.87984 44.7577 4.20967 44.5248 3.58243C44.2919 2.9552 43.9261 2.38574 43.4525 1.91305C42.979 1.44037 42.4089 1.07564 41.7812 0.843847C41.1536 0.612059 40.4832 0.518691 39.8161 0.570142H36.9295C36.2639 0.521435 35.5955 0.616842 34.9701 0.849856C34.3447 1.08287 33.7768 1.44801 33.3053 1.92039C32.8338 2.39276 32.4697 2.96126 32.2378 3.58712C32.0059 4.21297 31.9118 4.88147 31.9617 5.54704V42.9642C31.909 43.6312 32.0012 44.3017 32.2318 44.9298C32.4624 45.5579 32.8261 46.1287 33.298 46.6031C33.7698 47.0775 34.3386 47.4443 34.9654 47.6784C35.5922 47.9124 36.2622 48.0082 36.9295 47.9592H51.5254C55.0454 47.9592 57.2262 45.0636 57.2262 41.5345C57.2262 38.0054 55.0454 35.0917 51.5254 35.0917Z" fill="black"/>
<path d="M197.81 22.2965C193.367 18.5864 189.394 16.5957 189.023 14.8492C188.982 14.6584 188.98 14.4612 189.016 14.2695C189.053 14.0777 189.127 13.8951 189.235 13.7324C189.343 13.5698 189.482 13.4303 189.645 13.3221C189.807 13.214 189.99 13.1395 190.181 13.1028C190.391 13.0436 190.611 13.0309 190.826 13.0658C191.041 13.1007 191.246 13.1822 191.426 13.3047C191.607 13.4271 191.758 13.5875 191.87 13.7746C191.981 13.9617 192.051 14.171 192.073 14.3877C192.607 17.1839 195.086 17.5639 198.407 17.5639C201.891 17.5639 204.153 16.7948 204.153 12.6142C204.153 6.74143 198.488 0 189.946 0C180.725 0 175.739 6.75953 175.739 12.6685C175.739 21.0025 180.906 24.7216 185.983 28.685C189.874 31.7073 191.086 32.1688 191.313 33.68C191.376 34.0241 191.309 34.3794 191.125 34.677C190.941 34.9746 190.653 35.1933 190.317 35.2907C189.548 35.535 188.408 35.2907 188.028 33.7071C187.313 30.7753 184.96 30.0333 181.44 30.0333C177.92 30.0333 174.916 30.9382 174.916 35.0916C174.916 41.9869 181.096 48.4749 189.982 48.4749C199.203 48.4749 204.66 41.9869 204.66 35.3631C204.66 28.7393 201.303 25.2102 197.81 22.2965Z" fill="black"/>
<path d="M238.295 6.99478C238.295 3.47476 236.105 0.570068 232.585 0.570068H210.841C207.321 0.570068 205.131 3.47476 205.131 6.99478C205.131 10.5148 207.321 13.4105 210.841 13.4105H215.365V42.9641C215.311 43.6323 215.402 44.3044 215.633 44.9338C215.863 45.5633 216.228 46.1352 216.701 46.6101C217.174 47.085 217.745 47.4516 218.373 47.6845C219.002 47.9174 219.674 48.0111 220.342 47.9591H223.247C223.912 48.0077 224.579 47.9125 225.204 47.68C225.829 47.4475 226.396 47.0832 226.867 46.6118C227.339 46.1405 227.703 45.5731 227.935 44.9484C228.168 44.3236 228.263 43.6561 228.215 42.9913V13.4105H232.558C236.105 13.4105 238.295 10.5148 238.295 6.99478Z" fill="black"/>
<path d="M506.35 0.570068C501.536 0.570068 499.862 2.20792 498.134 5.99941L495.519 11.6821L492.904 5.99941C491.175 2.24411 489.501 0.570068 484.687 0.570068C479.394 0.570068 476.643 2.85039 478.742 6.71427C480.841 10.5781 489.103 25.9522 489.103 25.9522V42.8918C489.055 43.5664 489.152 44.2435 489.388 44.8775C489.623 45.5116 489.991 46.0879 490.468 46.5679C490.944 47.0479 491.518 47.4203 492.151 47.6603C492.783 47.9002 493.459 48.0021 494.134 47.9591H496.903C497.576 48.0016 498.25 47.9003 498.881 47.662C499.512 47.4237 500.085 47.0539 500.561 46.5771C501.038 46.1003 501.408 45.5275 501.646 44.8968C501.885 44.2661 501.986 43.5918 501.943 42.9189V25.9522C501.943 25.9522 510.205 10.5691 512.295 6.71427C514.386 2.85944 511.644 0.570068 506.35 0.570068Z" fill="black"/>
<path d="M441.244 0.570068H419.526C416.006 0.570068 413.816 3.47476 413.816 6.99478C413.816 10.5148 416.006 13.4105 419.526 13.4105H424.051V42.9641C423.998 43.6295 424.09 44.2984 424.32 44.9251C424.549 45.5518 424.911 46.1216 425.381 46.5957C425.851 47.0698 426.417 47.437 427.042 47.6723C427.667 47.9076 428.335 48.0054 429 47.9591H431.905C432.57 48.0077 433.237 47.9125 433.862 47.68C434.487 47.4475 435.054 47.0832 435.526 46.6118C435.997 46.1405 436.361 45.5731 436.594 44.9484C436.826 44.3236 436.922 43.6561 436.873 42.9913V13.4105H441.244C444.773 13.4105 446.953 10.5148 446.953 6.99478C446.953 3.47476 444.773 0.570068 441.244 0.570068Z" fill="black"/>
<path d="M149.471 23.2194L156.809 7.41096C158.357 4.07192 158.239 0.569995 151.715 0.569995C146.086 0.569995 145.426 1.58347 143.824 4.92251L139.245 15.6817V5.54689C139.295 4.88133 139.201 4.21283 138.969 3.58697C138.737 2.96111 138.373 2.39261 137.902 1.92024C137.43 1.44787 136.862 1.08272 136.237 0.849709C135.612 0.616695 134.943 0.521288 134.278 0.569995H131.373C130.707 0.521288 130.039 0.616695 129.413 0.849709C128.788 1.08272 128.22 1.44787 127.749 1.92024C127.277 2.39261 126.913 2.96111 126.681 3.58697C126.449 4.21283 126.355 4.88133 126.405 5.54689V42.9641C126.352 43.6311 126.445 44.3016 126.675 44.9297C126.906 45.5578 127.269 46.1285 127.741 46.603C128.213 47.0774 128.782 47.4442 129.409 47.6782C130.036 47.9123 130.706 48.0081 131.373 47.9591H134.278C134.942 48.0076 135.61 47.9124 136.235 47.6799C136.859 47.4474 137.427 47.0831 137.898 46.6118C138.369 46.1404 138.734 45.573 138.966 44.9483C139.199 44.3235 139.294 43.6561 139.245 42.9912V31.5082L143.878 42.5297C145.534 46.4569 146.901 47.9591 151.724 47.9591C157.017 47.9591 159.551 45.3801 157.977 41.8239C156.601 38.7473 149.471 23.2194 149.471 23.2194Z" fill="black"/>
<path d="M22.2339 22.6674C23.7738 21.5226 25.0249 20.0338 25.8874 18.3198C26.7499 16.6057 27.2 14.7139 27.2017 12.7951C27.2017 6.2346 21.881 0.569995 14.2256 0.569995H4.96858C4.30292 0.521288 3.6346 0.616695 3.00916 0.849709C2.38373 1.08272 1.81589 1.44787 1.34438 1.92024C0.872864 2.39261 0.508755 2.96111 0.276879 3.58697C0.0450033 4.21283 -0.0491867 4.88133 0.000731128 5.54689V42.9641C-0.051934 43.6311 0.040214 44.3016 0.270862 44.9297C0.50151 45.5578 0.865206 46.1285 1.33703 46.603C1.80886 47.0774 2.37766 47.4442 3.00447 47.6782C3.63128 47.9123 4.30129 48.0081 4.96858 47.9591H16.7774C23.8898 47.9591 29.5454 41.7425 29.5454 34.5667C29.5485 32.1007 28.8666 29.6822 27.5756 27.5811C26.2845 25.48 24.4352 23.7789 22.2339 22.6674ZM13.5198 35.0915H11.9181V30.8657H13.5198C14.0452 30.9117 14.5309 31.1643 14.8702 31.5681C15.2095 31.9719 15.3747 32.4939 15.3296 33.0193C15.346 33.5296 15.1684 34.0271 14.8326 34.4117C14.4967 34.7962 14.0276 35.0391 13.5198 35.0915ZM13.5198 17.2924H11.9181V13.0665H13.5198C14.0452 13.1125 14.5309 13.3652 14.8702 13.7689C15.2095 14.1727 15.3747 14.6947 15.3296 15.2202C15.346 15.7304 15.1684 16.228 14.8326 16.6125C14.4967 16.997 14.0276 17.24 13.5198 17.2924Z" fill="black"/>
<path d="M335.841 0.570182H327.697C327.031 0.520105 326.361 0.614493 325.735 0.846895C325.108 1.0793 324.539 1.44424 324.067 1.91676C323.594 2.38929 323.229 2.95827 322.997 3.58482C322.764 4.21136 322.67 4.8807 322.72 5.54707V42.9643C322.671 43.6299 322.767 44.2982 323 44.9237C323.233 45.5491 323.598 46.1169 324.07 46.5885C324.543 47.06 325.111 47.4241 325.737 47.656C326.363 47.8878 327.031 47.982 327.697 47.9321H330.593C331.258 47.9822 331.926 47.8881 332.551 47.6561C333.177 47.4242 333.745 47.0599 334.217 46.5882C334.688 46.1165 335.053 45.5485 335.284 44.9231C335.516 44.2976 335.611 43.6295 335.56 42.9643V29.3909H337.081C345.641 29.3909 350.41 22.5499 350.41 14.9127C350.353 11.0874 348.792 7.4383 346.066 4.75437C343.34 2.07044 339.667 0.567378 335.841 0.570182ZM336.882 18.8761H335.289V14.6503H336.882C337.407 14.6963 337.893 14.9489 338.232 15.3527C338.571 15.7565 338.737 16.2784 338.691 16.8039C338.694 17.3104 338.511 17.8002 338.178 18.1817C337.845 18.5632 337.384 18.81 336.882 18.8761Z" fill="black"/>
<path d="M296.923 26.7848C299.172 24.8495 300.797 22.2902 301.591 19.431C302.385 16.5718 302.313 13.5412 301.384 10.723C300.449 7.73484 298.571 5.13021 296.03 3.29971C293.49 1.46922 290.425 0.5115 287.295 0.57017H277.802C274.074 0.57017 272.373 2.23517 272.373 5.99951V43.0095C272.373 46.1133 273.966 47.9773 277.069 47.9773H280.517C283.621 47.9773 285.204 46.1133 285.204 43.0095V30.5673L289.494 42.5299C290.923 46.4571 292.208 47.9592 297.068 47.9592C302.361 47.9592 304.587 45.6427 303.067 41.8241L296.923 26.7848ZM286.589 18.8761H285.042V14.6503H286.634C287.16 14.6963 287.645 14.9489 287.985 15.3527C288.324 15.7565 288.489 16.2784 288.444 16.8039C288.445 17.3173 288.256 17.8128 287.913 18.1953C287.571 18.5778 287.099 18.8203 286.589 18.8761Z" fill="black"/>
<path d="M84.9059 5.05838C84.1458 2.027 82.4899 0.533936 79.4766 0.533936H73.9025C70.8711 0.533936 69.2152 1.99081 68.4731 5.05838L59.3428 41.625C58.4379 45.3531 60.311 47.9049 63.5505 47.9049H66.591C67.7265 47.9498 68.8401 47.5839 69.7277 46.8742C70.6152 46.1645 71.2172 45.1586 71.4231 44.041L72.328 40.3762H81.0421L81.9469 44.041C82.1392 45.1678 82.7344 46.1864 83.6216 46.9072C84.5088 47.6279 85.6277 48.0018 86.77 47.9592H89.8014C93.0499 47.9592 94.914 45.4074 94.0182 41.6793L84.9059 5.05838ZM74.6354 30.0243C75.2508 27.1015 75.7123 24.043 76.038 22.5047C76.1104 22.1246 76.3004 21.7988 76.6805 21.7988C77.0605 21.7988 77.2415 22.1246 77.323 22.5047C77.6397 24.043 78.1102 27.1015 78.7255 30.0243H74.6354Z" fill="black"/>
<path d="M260.193 5.05838C259.433 2.027 257.777 0.533936 254.764 0.533936H249.217C246.185 0.533936 244.52 1.99081 243.787 5.05838L234.63 41.625C233.725 45.3531 235.598 47.9049 238.847 47.9049H241.887C243.023 47.9498 244.136 47.5839 245.024 46.8742C245.911 46.1645 246.513 45.1586 246.719 44.041L247.624 40.3762H256.338L257.243 44.041C257.437 45.1654 258.031 46.1816 258.916 46.9018C259.801 47.6221 260.917 47.9977 262.057 47.9592H265.134C268.373 47.9592 270.237 45.4074 269.341 41.6793L260.193 5.05838ZM249.932 30.0243C250.538 27.1015 251.008 24.043 251.325 22.5047C251.407 22.1246 251.588 21.7988 251.968 21.7988C252.348 21.7988 252.538 22.1246 252.61 22.5047C252.936 24.043 253.397 27.1015 254.013 30.0243H249.932Z" fill="black"/>
<path d="M372.761 5.05838C372.001 2.027 370.345 0.533936 367.332 0.533936H361.794C358.754 0.533936 357.098 1.99081 356.365 5.05838L347.198 41.625C346.293 45.3531 348.166 47.9049 351.415 47.9049H354.446C355.572 47.9421 356.674 47.5759 357.553 46.8724C358.432 46.1689 359.031 45.1744 359.242 44.0682L360.147 40.4034H368.87L369.775 44.0682C369.976 45.194 370.578 46.2088 371.47 46.9243C372.362 47.6399 373.483 48.0076 374.625 47.9592H377.666C380.905 47.9592 382.769 45.3803 381.865 41.625L372.761 5.05838ZM362.491 30.0243C363.106 27.1015 363.577 24.043 363.893 22.5047C363.966 22.1246 364.156 21.7988 364.536 21.7988C364.916 21.7988 365.106 22.1246 365.178 22.5047C365.495 24.043 365.966 27.1015 366.581 30.0243H362.491Z" fill="black"/>
<path d="M405.952 22.2965C401.518 18.5864 397.537 16.5957 397.166 14.8492C397.125 14.6577 397.123 14.46 397.16 14.2677C397.197 14.0754 397.272 13.8925 397.381 13.7297C397.49 13.5669 397.63 13.4276 397.794 13.3199C397.957 13.2122 398.141 13.1384 398.333 13.1028C398.542 13.0451 398.761 13.0337 398.975 13.0693C399.189 13.1049 399.393 13.1867 399.572 13.309C399.751 13.4313 399.902 13.5911 400.013 13.7774C400.124 13.9637 400.193 14.172 400.215 14.3877C400.758 17.1839 403.238 17.5639 406.549 17.5639C410.024 17.5639 412.296 16.7948 412.296 12.6142C412.268 6.74143 406.595 0 398.053 0C388.832 0 383.846 6.75953 383.846 12.6685C383.846 21.0025 389.022 24.7216 394.098 28.685C397.98 31.7073 399.193 32.1688 399.428 33.68C399.495 34.0207 399.432 34.374 399.254 34.6715C399.075 34.969 398.792 35.1896 398.46 35.2907C397.691 35.535 396.56 35.2907 396.17 33.7071C395.456 30.7753 393.112 30.0333 389.592 30.0333C386.072 30.0333 383.059 30.9382 383.059 35.0916C383.059 41.9869 389.248 48.4749 398.125 48.4749C407.346 48.4749 412.811 41.9869 412.811 35.3631C412.811 28.7393 409.445 25.2102 405.952 22.2965Z" fill="black"/>
<path d="M473.484 26.7847C475.731 24.8475 477.353 22.2878 478.146 19.4289C478.938 16.57 478.865 13.5403 477.936 10.7229C477.002 7.73618 475.125 5.13265 472.586 3.30229C470.048 1.47194 466.985 0.513308 463.856 0.570005H454.327C450.599 0.570005 448.943 2.235 448.943 5.99934V43.0093C448.943 46.1131 450.527 47.9772 453.64 47.9772H457.087C460.191 47.9772 461.784 46.1131 461.784 43.0093V30.5671L466.019 42.5297C467.457 46.457 468.733 47.9591 473.593 47.9591C478.886 47.9591 481.112 45.6426 479.601 41.8239L473.484 26.7847ZM463.15 18.8759H461.548V14.6501H463.15C463.676 14.6961 464.161 14.9487 464.501 15.3525C464.84 15.7563 465.005 16.2782 464.96 16.8037C464.962 17.3102 464.779 17.8 464.446 18.1815C464.113 18.563 463.652 18.8099 463.15 18.8759Z" fill="black"/>
<path d="M117.229 27.8254C113.772 27.8254 110.895 28.9836 110.895 32.4493V33.6076C110.911 33.8214 110.883 34.0362 110.813 34.2386C110.742 34.4411 110.63 34.6267 110.485 34.784C110.339 34.9412 110.162 35.0667 109.966 35.1525C109.769 35.2383 109.557 35.2826 109.343 35.2826C109.129 35.2826 108.916 35.2383 108.72 35.1525C108.524 35.0667 108.347 34.9412 108.201 34.784C108.056 34.6267 107.944 34.4411 107.873 34.2386C107.803 34.0362 107.775 33.8214 107.791 33.6076V14.6502C107.768 14.4464 107.789 14.2402 107.851 14.0449C107.913 13.8496 108.016 13.6697 108.153 13.5169C108.29 13.3641 108.457 13.2418 108.644 13.1581C108.831 13.0744 109.034 13.0312 109.239 13.0312C109.444 13.0312 109.647 13.0744 109.834 13.1581C110.021 13.2418 110.188 13.3641 110.325 13.5169C110.461 13.6697 110.564 13.8496 110.627 14.0449C110.689 14.2402 110.71 14.4464 110.687 14.6502V16.1342C110.687 19.5366 113.492 20.6586 116.903 20.6586C120.315 20.6586 123.111 19.2651 123.111 15.7541V13.8177C123.129 4.84116 116.089 0 109.393 0C102.072 0 95.2402 5.72795 95.2402 13.8086V34.4853C95.2402 43.5885 102.38 48.493 109.176 48.493C116.605 48.493 123.545 42.6836 123.545 34.4853V32.8203C123.545 29.246 120.695 27.8254 117.229 27.8254Z" fill="black"/>
</svg>
