<svg width="200" height="185" viewBox="0 0 200 185" fill="none" xmlns="http://www.w3.org/2000/svg">
<g clip-path="url(#clip0)">
<path d="M50.3342 45.1164C50.3342 48.3046 52.3668 50.3516 55.5729 50.3516H70.9068C74.6106 50.3516 76.9051 47.3047 76.9051 43.6087C76.9051 39.9127 74.6106 36.8658 70.9068 36.8658H63.8292V5.81084C63.8292 2.62263 61.7966 0.575684 58.5904 0.575684H55.5415C52.3511 0.575684 50.3027 2.60692 50.3027 5.81084L50.3342 45.1164Z" fill="black"/>
<path d="M182.776 43.8914C181.351 40.6822 175.488 27.9399 173.87 24.3799C175.405 21.0766 180.224 10.7005 181.581 7.76879C183.195 4.2717 183.085 0.591389 176.227 0.591389C170.307 0.591389 169.611 1.63842 167.929 5.16168L163.12 16.4644V5.81084C163.12 2.62263 161.087 0.575684 157.881 0.575684H154.832C151.642 0.575684 149.593 2.60692 149.593 5.81084V45.1164C149.593 48.3046 151.626 50.3516 154.832 50.3516H157.881C161.071 50.3516 163.12 48.3203 163.12 45.1164V37.426L163.073 33.086L167.987 44.6714C169.721 48.7967 171.161 50.3359 176.227 50.3359C181.791 50.3359 184.457 47.624 182.796 43.8914" fill="black"/>
<path d="M133.327 34.0756C133.327 30.411 136.323 29.2174 139.959 29.2174C143.595 29.2174 146.597 30.7147 146.597 34.4526V36.2011C146.597 44.8077 139.304 50.9171 131.499 50.9171C124.358 50.9171 116.83 45.7657 116.83 36.2011V14.5014C116.825 6.02043 124.033 0 131.724 0C138.76 0 146.162 5.0781 146.162 14.5014V16.5536C146.162 20.2443 143.212 21.7102 139.634 21.7102C136.056 21.7102 133.102 20.5113 133.102 16.9357V15.6165C133.119 15.4058 133.093 15.1938 133.024 14.9938C132.955 14.7939 132.846 14.6103 132.703 14.4548C132.559 14.2992 132.385 14.1751 132.192 14.0902C131.998 14.0052 131.789 13.9614 131.577 13.9614C131.366 13.9614 131.156 14.0052 130.963 14.0902C130.769 14.1751 130.595 14.2992 130.452 14.4548C130.308 14.6103 130.199 14.7939 130.13 14.9938C130.062 15.1938 130.035 15.4058 130.053 15.6165V35.2378C130.04 35.4598 130.073 35.6819 130.149 35.8907C130.226 36.0995 130.344 36.2905 130.497 36.4521C130.649 36.6136 130.833 36.7423 131.038 36.8303C131.242 36.9183 131.462 36.9636 131.685 36.9636C131.907 36.9636 132.127 36.9183 132.331 36.8303C132.536 36.7423 132.72 36.6136 132.873 36.4521C133.025 36.2905 133.144 36.0995 133.22 35.8907C133.296 35.6819 133.329 35.4598 133.316 35.2378V33.9971" fill="black"/>
<path d="M45.3263 13.4284C45.3263 6.53894 39.7418 0.591797 31.7055 0.591797H21.9614C18.771 0.591797 16.7227 2.62304 16.7227 5.82696V45.1168C16.7227 48.305 18.7553 50.352 21.9614 50.352H34.372C41.8425 50.352 47.7937 43.8237 47.7937 36.2851C47.7943 33.6958 47.0757 31.157 45.7179 28.9517C44.3601 26.7463 42.4164 24.9608 40.1032 23.794C41.725 22.5943 43.0434 21.0321 43.9531 19.2322C44.8627 17.4324 45.3384 15.4448 45.342 13.4284H45.3263ZM32.8737 15.3968C32.8737 16.4857 31.9517 17.5747 30.9459 17.5747H29.2695V13.1352H30.9459C32.0355 13.1352 32.8737 14.1404 32.8737 15.3968ZM32.8737 34.5418C32.8737 35.6307 31.9517 36.7196 30.9459 36.7196H29.2695V32.2802H30.9459C32.0355 32.2802 32.8737 33.2854 32.8737 34.5418" fill="black"/>
<path d="M115.535 43.7347L105.886 5.30344C105.089 2.11523 103.418 0.591797 100.228 0.591797H94.4232C91.2275 0.591797 89.4883 2.11523 88.6606 5.30344L79.1051 43.7347C78.1621 47.6506 80.1214 50.3363 83.5318 50.3363H86.7222C87.9169 50.3847 89.089 50.0004 90.0227 49.254C90.9564 48.5075 91.5889 47.4492 91.8038 46.2738L92.7468 42.4312H101.962L102.905 46.2738C103.486 48.7395 105.666 50.3363 108.348 50.3363H111.061C114.477 50.3363 116.578 47.6506 115.562 43.7347H115.535ZM97.404 22.8307C97.8022 22.8307 97.9593 23.2286 98.0432 23.6317C98.3732 25.2442 98.829 28.4585 99.4524 31.5263H95.2928C95.9372 28.4585 96.4296 25.2442 96.7649 23.6317C96.8435 23.2286 97.0059 22.8307 97.404 22.8307Z" fill="black"/>
<path d="M131.628 110.776L121.979 72.3447C121.177 69.1513 119.511 67.6331 116.315 67.6331H110.537C107.347 67.6331 105.602 69.1565 104.806 72.3447L95.2032 110.776C94.2602 114.692 96.2195 117.372 99.63 117.372H102.82C104.015 117.421 105.187 117.036 106.121 116.29C107.055 115.544 107.687 114.485 107.902 113.31L108.845 109.467H118.06L119.003 113.31C119.584 115.776 121.758 117.372 124.446 117.372H127.128C130.539 117.372 132.645 114.692 131.628 110.776V110.776ZM113.492 89.8668C113.895 89.8668 114.052 90.2699 114.131 90.6677C114.466 92.2854 114.917 95.4946 115.54 98.5624H111.381C112.03 95.4946 112.523 92.2802 112.858 90.6677C112.936 90.2699 113.094 89.8668 113.492 89.8668Z" fill="black"/>
<path d="M63.1636 80.2758C63.1636 84.6681 60.78 85.4744 57.1286 85.4744C53.671 85.4744 51.0987 85.0712 50.5015 82.1396C50.4684 81.9178 50.3889 81.7055 50.2682 81.5164C50.1475 81.3274 49.9883 81.1659 49.801 81.0424C49.6137 80.919 49.4025 80.8363 49.1811 80.7998C48.9597 80.7634 48.7331 80.7739 48.516 80.8308C48.312 80.8546 48.1155 80.922 47.9398 81.0285C47.7642 81.135 47.6136 81.2781 47.4983 81.448C47.383 81.6179 47.3056 81.8106 47.2715 82.0131C47.2374 82.2155 47.2473 82.4229 47.3006 82.6212C47.6883 84.4587 51.8636 86.5528 56.5313 90.4425C60.1985 93.5051 63.7399 97.2168 63.7399 104.19C63.7399 111.163 57.9772 117.964 48.3012 117.964C38.971 117.964 32.4697 111.158 32.4697 103.902C32.4697 99.1905 35.5082 98.2063 39.3325 98.2063C43.0311 98.2063 45.4933 99.0229 46.2529 102.452C46.7087 104.023 47.9607 104.316 48.7675 104.054C49.5743 103.792 49.8153 103.164 49.6686 102.363C49.4276 100.792 48.1493 100.295 44.0683 97.1278C38.73 92.9659 33.2975 89.0552 33.2975 80.3073C33.2975 74.1402 38.5362 67.0361 48.2331 67.0361C57.2071 67.0361 63.1636 74.1141 63.1636 80.2863" fill="black"/>
<path d="M93.0875 67.6279H70.2518C66.548 67.6279 64.2534 70.6748 64.2534 74.3708C64.2534 78.0668 66.5323 81.1451 70.2518 81.1451H74.9929V112.179C74.9929 115.367 77.0255 117.414 80.2316 117.414H83.2753C86.471 117.414 88.5141 115.383 88.5141 112.179V81.1451H93.1085C96.8123 81.1451 99.1121 78.0982 99.1121 74.397C99.1121 70.6957 96.8123 67.6541 93.1085 67.6541" fill="black"/>
<path d="M167.175 110.928L160.716 95.1596C165.174 91.3118 167.474 85.061 165.399 78.2867C163.513 71.837 157.347 67.6279 150.594 67.6279H140.583C136.665 67.6279 134.925 69.3712 134.925 73.2871V112.153C134.925 115.414 136.591 117.388 139.855 117.388H143.485C146.749 117.388 148.42 115.43 148.42 112.153V99.1383L152.905 111.703C154.408 115.833 155.796 117.367 160.862 117.367C166.426 117.367 168.427 115.048 167.175 110.923V110.928ZM151.784 84.6684C151.784 85.7625 150.862 86.8462 149.856 86.8462H148.179V82.4068H149.856C150.945 82.4068 151.784 83.4119 151.784 84.6684Z" fill="black"/>
<path d="M193.016 134.669C187.951 134.669 186.206 136.381 184.372 140.328C183.435 142.365 182.403 144.606 181.627 146.296L178.877 140.328C177.059 136.381 175.299 134.669 170.238 134.669C164.669 134.669 161.788 137.056 163.988 141.114C166.189 145.171 174.875 161.327 174.875 161.327V179.126C174.875 182.32 176.97 184.419 180.176 184.419H183.078C186.269 184.419 188.375 182.325 188.375 179.126V161.327C188.375 161.327 197.061 145.166 199.261 141.114C201.461 137.062 198.58 134.669 193.016 134.669Z" fill="black"/>
<path d="M124.584 134.669H101.743C98.0387 134.669 95.7441 137.711 95.7441 141.412C95.7441 145.113 98.0387 148.155 101.743 148.155H106.457V179.189C106.457 182.382 108.49 184.424 111.696 184.424H114.74C117.936 184.424 119.979 182.398 119.979 179.189V148.155H124.578C128.277 148.155 130.577 145.108 130.577 141.412C130.577 137.716 128.277 134.669 124.578 134.669" fill="black"/>
<path d="M29.0961 149.678C29.0232 145.671 27.3781 141.852 24.5149 139.044C21.6517 136.237 17.7996 134.666 13.7884 134.669H5.23876C2.04835 134.669 0 136.695 0 139.904V179.205C0 182.398 2.03264 184.44 5.23876 184.44H8.28771C11.4834 184.44 13.5265 182.414 13.5265 179.205V164.907H15.0981C24.093 164.907 29.1013 157.73 29.1013 149.684L29.0961 149.678ZM16.8112 151.715C16.8112 152.804 15.8891 153.893 14.8833 153.893H13.2069V149.453H14.8833C15.973 149.453 16.8112 150.458 16.8112 151.715Z" fill="black"/>
<path d="M164.984 177.964L158.53 162.196C162.983 158.353 165.288 152.102 163.208 145.328C161.322 138.873 155.156 134.669 148.409 134.669H138.392C134.474 134.669 132.734 136.407 132.734 140.323V179.189C132.734 182.45 134.4 184.424 137.669 184.424H141.294C144.563 184.424 146.229 182.466 146.229 179.189V166.174L150.714 178.739C152.217 182.864 153.606 184.398 158.671 184.398C164.235 184.398 166.236 182.079 164.984 177.953V177.964ZM149.593 151.715C149.593 152.804 148.671 153.893 147.665 153.893H145.988V149.453H147.665C148.754 149.453 149.593 150.458 149.593 151.715Z" fill="black"/>
<path d="M62.116 177.812L52.461 139.381C51.6647 136.187 49.9936 134.669 46.8032 134.669H40.9986C37.803 134.669 36.0637 136.187 35.2674 139.381L25.67 177.812C24.727 181.728 26.6863 184.408 30.0968 184.408H33.2924C34.4858 184.457 35.6565 184.073 36.5892 183.328C37.5219 182.582 38.1539 181.525 38.3688 180.351L39.3117 176.509H48.5424L49.4854 180.351C50.0669 182.817 52.2462 184.408 54.9285 184.408H57.6264C61.0369 184.408 63.1428 181.728 62.1265 177.812H62.116ZM44.0057 156.908C44.4038 156.908 44.5662 157.306 44.6448 157.704C44.9801 159.322 45.4306 162.531 46.054 165.599H41.8682C42.5179 162.531 43.0051 159.316 43.3403 157.704C43.4189 157.306 43.5813 156.908 43.9795 156.908" fill="black"/>
<path d="M94.1143 147.312C94.1143 151.704 91.7307 152.511 88.0792 152.511C84.6217 152.511 82.0494 152.108 81.4522 149.176C81.4231 148.952 81.3461 148.737 81.2265 148.546C81.1069 148.355 80.9475 148.192 80.7591 148.067C80.5707 147.943 80.3578 147.861 80.1348 147.827C79.9118 147.792 79.6839 147.806 79.4667 147.867C79.2627 147.891 79.0661 147.958 78.8905 148.065C78.7149 148.171 78.5643 148.314 78.449 148.484C78.3336 148.654 78.2563 148.847 78.2222 149.049C78.1881 149.252 78.198 149.459 78.2513 149.657C78.639 151.495 82.8143 153.589 87.482 157.479C91.1492 160.541 94.6906 164.253 94.6906 171.226C94.6906 178.2 88.9279 185 79.2519 185C69.9217 185 63.4204 178.194 63.4204 170.938C63.4204 166.227 66.4589 165.248 70.2832 165.248C73.9817 165.248 76.4492 166.059 77.2036 169.488C77.6594 171.059 78.9114 171.352 79.7182 171.09C80.525 170.828 80.7659 170.2 80.6245 169.404C80.3783 167.834 79.1 167.337 75.019 164.169C69.6807 160.013 64.2481 156.102 64.2481 147.354C64.2481 141.182 69.4869 134.078 79.1838 134.078C88.1578 134.078 94.1143 141.161 94.1143 147.328" fill="black"/>
</g>
<defs>
<clipPath id="clip0">
<rect width="200" height="185" fill="white"/>
</clipPath>
</defs>
</svg>
