<?xml version="1.0" standalone="no"?>
<!DOCTYPE svg PUBLIC "-//W3C//DTD SVG 1.1//EN" "http://www.w3.org/Graphics/SVG/1.1/DTD/svg11.dtd" >
<svg xmlns="http://www.w3.org/2000/svg" xmlns:xlink="http://www.w3.org/1999/xlink" version="1.1">
<metadata>
Created by FontForge 20170731 at Wed May  1 14:04:14 2013
 By Aleksey,,,
Copyright (c) 2006, 2013 by Lars Tornqvist. All rights reserved.
</metadata>
<defs>
<font id="SimpliciterSans" horiz-adv-x="530" >
  <font-face 
    font-family="Simpliciter Sans"
    font-weight="400"
    font-stretch="normal"
    units-per-em="1000"
    panose-1="2 11 6 0 2 2 0 0 0 3"
    ascent="800"
    descent="-200"
    x-height="470"
    cap-height="710"
    bbox="-423 -241 1154 1100"
    underline-thickness="70"
    underline-position="-275"
    unicode-range="U+000D-FB04"
  />
<missing-glyph horiz-adv-x="1050" 
d="M469 223q0 31 23 54t54 23q28 0 48 20t20 48q0 37 -26 63.5t-63 26.5q-23 0 -41.5 -10.5t-32.5 -29.5q-7 -8 -13.5 -13t-17.5 -5q-14 0 -24 10.5t-10 26.5q0 5 1 9.5t7 14.5q22 31 55.5 49t75.5 18q34 0 63 -12.5t50.5 -34t33.5 -51t12 -62.5q0 -29 -10.5 -53.5
t-29 -43.5t-44 -29.5t-54.5 -10.5q-7 0 -7 -8v-43q0 -15 -10 -25t-25 -10q-14 0 -24.5 10t-10.5 25v43zM462 45q0 17 12.5 29.5t29.5 12.5q18 0 30 -12.5t12 -29.5q0 -19 -12 -31t-30 -12q-17 0 -29.5 12t-12.5 31zM50 235q0 99 37 185.5t101.5 151t151 102t185.5 37.5
t185.5 -37.5t151 -102t102 -151t37.5 -185.5t-37.5 -185.5t-102 -151t-151 -101.5t-185.5 -37t-185.5 37t-151 101.5t-101.5 151t-37 185.5zM120 235q0 -84 32 -158t86.5 -128.5t128.5 -86.5t158 -32t158 32t128.5 86.5t86.5 128.5t32 158t-32 158t-86.5 128.5t-128.5 86.5
t-158 32t-158 -32t-128.5 -86.5t-86.5 -128.5t-32 -158z" />
    <glyph glyph-name="Ldot" unicode="L&#xb7;" 
d="M90 675q0 14 10.5 24.5t24.5 10.5t24.5 -10.5t10.5 -24.5v-605h295q14 0 24.5 -10.5t10.5 -24.5t-10.5 -24.5t-24.5 -10.5h-330q-14 0 -24.5 10.5t-10.5 24.5v640zM410 375q0 19 13 32t32 13t32 -13t13 -32t-13 -32t-32 -13t-32 13t-13 32z" />
    <glyph glyph-name="ldot" unicode="l&#xb7;" horiz-adv-x="320" 
d="M80 675q0 14 10.5 24.5t24.5 10.5t24.5 -10.5t10.5 -24.5v-650q0 -14 -10.5 -24.5t-24.5 -10.5t-24.5 10.5t-10.5 24.5v650zM230 355q0 19 13 32t32 13t32 -13t13 -32t-13 -32t-32 -13t-32 13t-13 32z" />
    <glyph glyph-name="f_j" unicode="fj" horiz-adv-x="520" 
d="M260 470q14 0 24.5 -10.5t10.5 -24.5t-10.5 -24.5t-24.5 -10.5h-90v-375q0 -14 -10.5 -24.5t-24.5 -10.5t-24.5 10.5t-10.5 24.5v375h-55q-14 0 -24.5 10.5t-10.5 24.5t10.5 24.5t24.5 10.5h55v60q0 37 14 70t38 57.5t56.5 38.5t70.5 14q49 0 89 -14t66 -52q6 -9 6 -19
q0 -14 -10.5 -24.5t-24.5 -10.5q-11 0 -20 8t-22 19q-9 9 -20 13.5t-22.5 6.5t-22.5 2.5t-19 0.5q-23 0 -43 -8.5t-34.5 -23.5t-23 -35t-8.5 -43v-60h90zM241 -232q-11 3 -18.5 12.5t-7.5 21.5q0 14 10.5 24.5t24.5 10.5q9 0 19.5 -3.5t20.5 -3.5q32 0 56 22.5t24 54.5v538
q0 14 10.5 24.5t24.5 10.5t24.5 -10.5t10.5 -24.5v-535q0 -31 -12 -58.5t-32 -47.5t-47.5 -32t-58.5 -12q-23 0 -49 8z" />
    <glyph glyph-name="f_f" unicode="ff" horiz-adv-x="570" 
d="M370 470v90q0 31 12 58.5t32 47.5t47.5 32t58.5 12q18 0 38.5 -2.5t38.5 -16.5q9 -7 16.5 -16t7.5 -21q0 -14 -10 -24t-26 -10q-10 0 -16 3t-12 7t-14 7t-23 3q-32 0 -56 -22.5t-24 -54.5v-93h90q14 0 24.5 -10.5t10.5 -24.5q0 -15 -10.5 -25t-24.5 -10h-90v-375
q0 -14 -10 -24.5t-25 -10.5q-14 0 -24.5 10.5t-10.5 24.5v375h-200v-375q0 -14 -10.5 -24.5t-24.5 -10.5q-15 0 -25 10.5t-10 24.5v375h-55q-14 0 -24.5 10t-10.5 25q0 14 10.5 24.5t24.5 10.5h55v90q0 31 12 58.5t32 47.5t47.5 32t58.5 12q18 0 38.5 -2.5t38.5 -16.5
q9 -7 16.5 -16t7.5 -21q0 -14 -10 -24t-26 -10q-10 0 -16 3t-12 7t-14 7t-23 3q-32 0 -56 -22.5t-24 -54.5v-93h200z" />
    <glyph glyph-name="fi" unicode="fi" horiz-adv-x="520" 
d="M170 470h90q14 0 24.5 -10.5t10.5 -24.5t-10.5 -24.5t-24.5 -10.5h-90v-375q0 -14 -10.5 -24.5t-24.5 -10.5t-24.5 10.5t-10.5 24.5v375h-55q-14 0 -24.5 10.5t-10.5 24.5t10.5 24.5t24.5 10.5h55v60q0 37 14 70t38 57.5t56.5 38.5t70.5 14q49 0 89 -14t66 -52
q6 -9 6 -19q0 -14 -10.5 -24.5t-24.5 -10.5q-11 0 -20 8t-22 19q-9 9 -20 13.5t-22.5 6.5t-22.5 2.5t-19 0.5q-23 0 -43 -8.5t-34.5 -23.5t-23 -35t-8.5 -43v-60zM370 445q0 14 10.5 24.5t24.5 10.5t24.5 -10.5t10.5 -24.5v-420q0 -14 -10.5 -24.5t-24.5 -10.5t-24.5 10.5
t-10.5 24.5v420z" />
    <glyph glyph-name="fl" unicode="fl" horiz-adv-x="520" 
d="M370 611l-7 6q-9 9 -20 13.5t-22.5 6.5t-22.5 2.5t-19 0.5q-23 0 -43 -8.5t-34.5 -23.5t-23 -35t-8.5 -43v-60h90q14 0 24.5 -10.5t10.5 -24.5t-10.5 -24.5t-24.5 -10.5h-90v-375q0 -14 -10.5 -24.5t-24.5 -10.5t-24.5 10.5t-10.5 24.5v375h-55q-14 0 -24.5 10.5
t-10.5 24.5t10.5 24.5t24.5 10.5h55v60q0 37 14 70t38 57.5t56.5 38.5t70.5 14q26 0 50.5 -3.5t45.5 -13.5q12 17 30 17q14 0 24.5 -10.5t10.5 -24.5v-650q0 -14 -10.5 -24.5t-24.5 -10.5t-24.5 10.5t-10.5 24.5v586z" />
    <glyph glyph-name="f_f_i" unicode="ffi" horiz-adv-x="790" 
d="M530 470q14 0 24.5 -10.5t10.5 -24.5t-10.5 -24.5t-24.5 -10.5h-90v-375q0 -14 -10.5 -24.5t-24.5 -10.5t-24.5 10.5t-10.5 24.5v375h-200v-375q0 -14 -10.5 -24.5t-24.5 -10.5t-24.5 10.5t-10.5 24.5v375h-55q-14 0 -24.5 10.5t-10.5 24.5t10.5 24.5t24.5 10.5h55v90
q0 31 12 58.5t32 47.5t47.5 32t58.5 12q18 0 38.5 -2.5t38.5 -16.5q9 -7 16.5 -16t7.5 -21q0 -14 -10 -24t-26 -10q-10 0 -16 3t-12 7t-14 7t-23 3q-32 0 -56 -22.5t-24 -54.5v-93h200v60q0 37 14 70t38 57.5t56.5 38.5t70.5 14q49 0 89 -14t66 -52q6 -9 6 -19
q0 -14 -10.5 -24.5t-24.5 -10.5q-11 0 -20 8t-22 19q-9 9 -20 13.5t-22.5 6.5t-22.5 2.5t-19 0.5q-23 0 -43 -8.5t-34.5 -23.5t-23 -35t-8.5 -43v-60h90zM640 445q0 14 10.5 24.5t24.5 10.5t24.5 -10.5t10.5 -24.5v-420q0 -14 -10.5 -24.5t-24.5 -10.5t-24.5 10.5
t-10.5 24.5v420z" />
    <glyph glyph-name="f_f_l" unicode="ffl" horiz-adv-x="790" 
d="M440 470h90q14 0 24.5 -10.5t10.5 -24.5t-10.5 -24.5t-24.5 -10.5h-90v-375q0 -14 -10.5 -24.5t-24.5 -10.5t-24.5 10.5t-10.5 24.5v375h-200v-375q0 -14 -10.5 -24.5t-24.5 -10.5t-24.5 10.5t-10.5 24.5v375h-55q-14 0 -24.5 10.5t-10.5 24.5t10.5 24.5t24.5 10.5h55v90
q0 31 12 58.5t32 47.5t47.5 32t58.5 12q18 0 38.5 -2.5t38.5 -16.5q9 -7 16.5 -16t7.5 -21q0 -14 -10 -24t-26 -10q-10 0 -16 3t-12 7t-14 7t-23 3q-32 0 -56 -22.5t-24 -54.5v-93h200v60q0 37 14 70t38 57.5t56.5 38.5t70.5 14q26 0 50.5 -3.5t45.5 -13.5q12 17 30 17
q14 0 24.5 -10.5t10.5 -24.5v-650q0 -14 -10.5 -24.5t-24.5 -10.5t-24.5 10.5t-10.5 24.5v586l-7 6q-9 9 -20 13.5t-22.5 6.5t-22.5 2.5t-19 0.5q-23 0 -43 -8.5t-34.5 -23.5t-23 -35t-8.5 -43v-60z" />
    <glyph glyph-name=".notdef" horiz-adv-x="1050" 
d="M469 223q0 31 23 54t54 23q28 0 48 20t20 48q0 37 -26 63.5t-63 26.5q-23 0 -41.5 -10.5t-32.5 -29.5q-7 -8 -13.5 -13t-17.5 -5q-14 0 -24 10.5t-10 26.5q0 5 1 9.5t7 14.5q22 31 55.5 49t75.5 18q34 0 63 -12.5t50.5 -34t33.5 -51t12 -62.5q0 -29 -10.5 -53.5
t-29 -43.5t-44 -29.5t-54.5 -10.5q-7 0 -7 -8v-43q0 -15 -10 -25t-25 -10q-14 0 -24.5 10t-10.5 25v43zM462 45q0 17 12.5 29.5t29.5 12.5q18 0 30 -12.5t12 -29.5q0 -19 -12 -31t-30 -12q-17 0 -29.5 12t-12.5 31zM50 235q0 99 37 185.5t101.5 151t151 102t185.5 37.5
t185.5 -37.5t151 -102t102 -151t37.5 -185.5t-37.5 -185.5t-102 -151t-151 -101.5t-185.5 -37t-185.5 37t-151 101.5t-101.5 151t-37 185.5zM120 235q0 -84 32 -158t86.5 -128.5t128.5 -86.5t158 -32t158 32t128.5 86.5t86.5 128.5t32 158t-32 158t-86.5 128.5t-128.5 86.5
t-158 32t-158 -32t-128.5 -86.5t-86.5 -128.5t-32 -158z" />
    <glyph glyph-name=".null" horiz-adv-x="0" 
 />
    <glyph glyph-name=".null" horiz-adv-x="0" 
 />
    <glyph glyph-name="nonmarkingreturn" unicode="&#xd;" horiz-adv-x="300" 
 />
    <glyph glyph-name="space" unicode=" " horiz-adv-x="230" 
 />
    <glyph glyph-name="exclam" unicode="!" horiz-adv-x="270" 
d="M100 675q0 14 10.5 24.5t24.5 10.5t24.5 -10.5t10.5 -24.5v-440q0 -14 -10.5 -24.5t-24.5 -10.5t-24.5 10.5t-10.5 24.5v440zM90 45q0 19 13 32t32 13t32 -13t13 -32t-13 -32t-32 -13t-32 13t-13 32z" />
    <glyph glyph-name="quotedbl" unicode="&#x22;" horiz-adv-x="420" 
d="M260 675q0 14 10.5 24.5t24.5 10.5t24.5 -10.5t10.5 -24.5v-140q0 -14 -10.5 -24.5t-24.5 -10.5t-24.5 10.5t-10.5 24.5v140zM90 675q0 14 10.5 24.5t24.5 10.5t24.5 -10.5t10.5 -24.5v-140q0 -14 -10.5 -24.5t-24.5 -10.5t-24.5 10.5t-10.5 24.5v140z" />
    <glyph glyph-name="numbersign" unicode="#" horiz-adv-x="800" 
d="M335 687q4 11 13 17t20 6q8 0 12 -2q11 -4 17 -13.5t6 -20.5q0 -3 -0.5 -5.5t-1.5 -5.5l-41 -113h215l50 137q4 11 13 17t20 6q8 0 12 -2q11 -4 17 -13.5t6 -20.5q0 -3 -0.5 -5.5t-1.5 -5.5l-41 -113h90q14 0 24.5 -10.5t10.5 -24.5t-10.5 -24.5t-24.5 -10.5h-116
l-95 -260h91q14 0 24.5 -10.5t10.5 -24.5t-10.5 -24.5t-24.5 -10.5h-116l-50 -137q-4 -11 -13.5 -17t-20.5 -6q-3 0 -5.5 0.5t-5.5 1.5q-10 4 -16 13t-6 20q0 8 2 12l41 113h-216l-50 -137q-4 -11 -13.5 -17t-20.5 -6q-3 0 -5.5 0.5t-5.5 1.5q-10 4 -16 13t-6 20q0 8 2 12
l41 113h-88q-14 0 -24.5 10.5t-10.5 24.5t10.5 24.5t24.5 10.5h113l95 260h-89q-14 0 -24.5 10.5t-10.5 24.5t10.5 24.5t24.5 10.5h114zM239 220h216l95 260h-216z" />
    <glyph glyph-name="dollar" unicode="$" horiz-adv-x="570" 
d="M448 624q6 -9 6 -19q0 -14 -10.5 -24.5t-24.5 -10.5q-12 0 -21 7t-17 18q-10 14 -30.5 24.5t-43.5 15.5v-226q39 -11 75 -28.5t63.5 -43t43.5 -59.5t16 -78t-16.5 -80t-44 -62.5t-63 -43t-74.5 -21.5v-58q0 -14 -10.5 -24.5t-24.5 -10.5t-24.5 10.5t-10.5 24.5v58
q-47 6 -91.5 28.5t-67.5 57.5q-6 9 -8 14t-2 12q0 14 10.5 24.5t24.5 10.5q12 0 18.5 -5.5t12.5 -13.5q17 -21 45 -36t58 -21v288q-33 9 -63 23t-53.5 35t-37 50.5t-13.5 69.5q0 36 13.5 66.5t37 53t53.5 37.5t63 20v58q0 14 10.5 24.5t24.5 10.5t24.5 -10.5t10.5 -24.5v-58
q42 -8 81.5 -29.5t59.5 -53.5zM435 200q0 28 -10.5 50t-28.5 38.5t-41 28t-48 18.5v-272q25 5 48 16t41 28.5t28.5 40.5t10.5 52zM140 530q0 -21 8 -38t21.5 -30t31 -22t36.5 -15v211q-19 -5 -36.5 -14t-31 -22.5t-21.5 -31t-8 -38.5z" />
    <glyph glyph-name="percent" unicode="%" horiz-adv-x="840" 
d="M261 7q-5 -8 -14 -12.5t-18 -4.5t-16 4q-8 5 -12.5 14t-4.5 18t4 16l376 651q5 8 14 12.5t18 4.5t16 -4q8 -5 12.5 -14t4.5 -18t-4 -16zM49 525q0 36 13.5 68t37.5 56t56 37.5t68 13.5t68 -13.5t56 -37.5t37.5 -56t13.5 -68t-13.5 -68t-37.5 -56t-56 -37.5t-68 -13.5
t-68 13.5t-56 37.5t-37.5 56t-13.5 68zM119 525q0 -22 8 -41t22.5 -33.5t33.5 -22.5t41 -8t41 8t33 22.5t22.5 33.5t8.5 41t-8.5 41t-22.5 33t-33 22.5t-41 8.5t-41 -8.5t-33.5 -22.5t-22.5 -33t-8 -41zM440 165q0 36 13.5 69.5t37.5 59t56 41t68 15.5t68 -13.5t56 -37.5
t37.5 -56t13.5 -68t-13.5 -68t-37.5 -56t-56 -37.5t-68 -13.5t-68 12t-56 34t-37.5 52.5t-13.5 66.5zM510 175q0 -22 8 -41t22.5 -33.5t33.5 -22.5t41 -8t41 8t33 22.5t22.5 33.5t8.5 41t-8.5 41t-22.5 33t-33 22.5t-41 8.5t-41 -8.5t-33.5 -22.5t-22.5 -33t-8 -41z" />
    <glyph glyph-name="ampersand" unicode="&#x26;" horiz-adv-x="620" 
d="M156 388q-16 14 -27 26.5t-18.5 26.5t-14.5 38.5t-7 50.5q0 37 15 70t38 58t49 39.5t49 14.5q75 0 112.5 -34t37.5 -109q0 -30 -6.5 -54t-21 -46t-38.5 -44.5t-59 -47.5l167 -179l76 135q5 8 13.5 13t17.5 5q15 0 24.5 -8t9.5 -28q0 -10 -4 -17l-86 -154l91 -96
q4 -5 6.5 -10.5t2.5 -12.5q0 -16 -11 -27q-6 -6 -11.5 -7t-11.5 -1q-16 0 -26 10l-78 82q-29 -42 -75 -67t-101 -25q-45 0 -84 17t-68 46t-46 68t-17 84q0 58 27.5 106t74.5 77zM124 205q0 -30 11.5 -56.5t31 -46t46 -31t56.5 -11.5q41 0 74 20.5t52 53.5l-190 202
q-37 -19 -59 -54t-22 -77zM159 530q0 -34 16 -61l41 -43l47 40q26 26 41.5 50.5t15.5 63.5q0 29 -20 44.5t-49 15.5q-12 0 -27.5 -9t-30 -24t-24.5 -35t-10 -42z" />
    <glyph glyph-name="quotesingle" unicode="'" horiz-adv-x="250" 
d="M90 675q0 14 10.5 24.5t24.5 10.5t24.5 -10.5t10.5 -24.5v-140q0 -14 -10.5 -24.5t-24.5 -10.5t-24.5 10.5t-10.5 24.5v140z" />
    <glyph glyph-name="parenleft" unicode="(" horiz-adv-x="290" 
d="M259 -185q6 -9 6 -20q0 -14 -10.5 -24.5t-24.5 -10.5q-20 0 -31 18q-57 103 -88 218.5t-31 243.5q0 124 29.5 237.5t83.5 214.5q10 18 31 18q14 0 24.5 -10.5t10.5 -24.5q0 -10 -4 -17q-51 -94 -78 -199t-27 -219q0 -117 28.5 -223.5t80.5 -201.5z" />
    <glyph glyph-name="parenright" unicode=")" horiz-adv-x="290" 
d="M31 655q-6 9 -6 20q0 14 10.5 24.5t24.5 10.5q20 0 31 -18q57 -103 88 -218.5t31 -243.5q0 -124 -29.5 -237.5t-83.5 -214.5q-10 -18 -31 -18q-14 0 -24.5 10.5t-10.5 24.5q0 10 4 17q51 94 78 199t27 219q0 117 -28.5 223.5t-80.5 201.5z" />
    <glyph glyph-name="asterisk" unicode="*" horiz-adv-x="500" 
d="M302 680q11 18 31 18q9 0 17 -5q17 -9 17 -31q0 -10 -4 -17l-52 -90h104q14 0 24.5 -10.5t10.5 -24.5t-10.5 -24.5t-24.5 -10.5h-104l52 -90q4 -7 4 -17q0 -22 -17 -31q-8 -5 -17 -5q-20 0 -31 18l-52 89l-52 -89q-11 -18 -31 -18q-9 0 -17 5q-18 10 -18 31q0 9 5 17
l52 90h-104q-14 0 -24.5 10.5t-10.5 24.5t10.5 24.5t24.5 10.5h104l-52 90q-4 7 -4 17q0 22 17 31q8 5 17 5q20 0 31 -18l52 -90z" />
    <glyph glyph-name="plus" unicode="+" horiz-adv-x="580" 
d="M500 270q14 0 24.5 -10.5t10.5 -24.5t-10.5 -24.5t-24.5 -10.5h-175v-175q0 -14 -10.5 -24.5t-24.5 -10.5t-24.5 10.5t-10.5 24.5v175h-175q-14 0 -24.5 10.5t-10.5 24.5t10.5 24.5t24.5 10.5h175v175q0 14 10.5 24.5t24.5 10.5t24.5 -10.5t10.5 -24.5v-175h175z" />
    <glyph glyph-name="comma" unicode="," horiz-adv-x="250" 
d="M109 -124q-11 -9 -24 -9q-14 0 -24.5 10.5t-10.5 24.5q0 11 5 17.5t11 12.5q35 32 35 79l-3 23q0 14 10.5 24.5t24.5 10.5t24 -10t12 -24q1 -6 1.5 -12t0.5 -12q0 -40 -16.5 -75t-45.5 -60z" />
    <glyph glyph-name="hyphen" unicode="-" horiz-adv-x="480" 
d="M376 295q14 0 24.5 -10.5t10.5 -24.5t-10.5 -24.5t-24.5 -10.5h-271q-14 0 -24.5 10.5t-10.5 24.5t10.5 24.5t24.5 10.5h271z" />
    <glyph glyph-name="period" unicode="." horiz-adv-x="250" 
d="M80 45q0 19 13 32t32 13t32 -13t13 -32t-13 -32t-32 -13t-32 13t-13 32z" />
    <glyph glyph-name="slash" unicode="/" horiz-adv-x="419" 
d="M336 687q4 11 13 17t20 6q8 0 12 -2q11 -4 17 -13.5t6 -20.5q0 -3 -0.5 -5.5t-1.5 -5.5l-321 -880q-4 -11 -13.5 -17t-20.5 -6q-3 0 -5.5 0.5t-5.5 1.5q-10 4 -16 13t-6 20q0 8 2 12z" />
    <glyph glyph-name="zero" unicode="0" horiz-adv-x="560" 
d="M45 350q0 75 18.5 140.5t50.5 114t74.5 77t91.5 28.5t91.5 -28.5t74.5 -77t50.5 -114t18.5 -140.5t-18.5 -140.5t-50.5 -114t-74.5 -77t-91.5 -28.5t-91.5 28.5t-74.5 77t-50.5 114t-18.5 140.5zM115 350q0 -60 13 -113t35.5 -92t52.5 -62t64 -23t64 23t52.5 62t35.5 92
t13 113t-13 113t-35.5 92t-52.5 62t-64 23t-64 -23t-52.5 -62t-35.5 -92t-13 -113z" />
    <glyph glyph-name="one" unicode="1" horiz-adv-x="560" 
d="M310 700q10 10 25 10q13 0 25 -10q10 -12 10 -25v-650q0 -14 -10.5 -24.5t-24.5 -10.5t-24.5 10.5t-10.5 24.5v565l-110 -110q-10 -10 -25 -10t-25 10t-10 25t10 25z" />
    <glyph glyph-name="two" unicode="2" horiz-adv-x="560" 
d="M70 505q0 43 16.5 80t44.5 65t65 44t79 16t79.5 -16t65.5 -44t44 -65.5t16 -79.5q0 -31 -9 -60t-26 -52q-26 -35 -60.5 -71.5t-72.5 -76t-75 -83t-67 -92.5h275q14 0 24.5 -10.5t10.5 -24.5t-10.5 -24.5t-27.5 -10.5h-332q-14 0 -24.5 10.5t-10.5 24.5q0 7 3 15
q34 70 105 154.5t162 179.5q6 6 17 18t21.5 27.5t18.5 35t8 40.5q0 28 -10.5 52.5t-29 43t-43 29t-52.5 10.5t-52.5 -10.5t-43 -29t-29 -43t-10.5 -52.5q0 -14 -10.5 -24.5t-24.5 -10.5t-24.5 10.5t-10.5 24.5z" />
    <glyph glyph-name="three" unicode="3" horiz-adv-x="560" 
d="M248 350q-14 0 -24.5 10.5t-10.5 24.5t10.5 24.5t24.5 10.5q25 0 47.5 8.5t39 23.5t26 35t9.5 43t-9.5 43t-26.5 35t-39.5 23.5t-47.5 8.5q-39 0 -69 -19t-44 -49q-7 -22 -32 -22q-14 0 -24.5 10.5t-10.5 24.5q0 8 5 16q23 48 69.5 78t106.5 30q40 0 75 -14t61 -38.5
t41 -57.5t15 -70q0 -41 -17.5 -75t-47.5 -59q56 -27 90.5 -77.5t34.5 -112.5q0 -45 -18.5 -84t-50 -68t-74 -46t-90.5 -17q-37 0 -70.5 10t-62 28.5t-50 44t-34.5 56.5q-4 7 -4 16q0 14 10.5 24.5t24.5 10.5q13 0 22.5 -8.5t11.5 -20.5q19 -40 59.5 -65.5t92.5 -25.5
q34 0 63.5 11.5t51.5 31t35 46t13 56.5t-13 56.5t-35 46t-51.5 31t-63.5 11.5h-19z" />
    <glyph glyph-name="four" unicode="4" horiz-adv-x="560" 
d="M128 250h192v185q0 14 10.5 24.5t24.5 10.5t24.5 -10.5t10.5 -24.5v-185h106q14 0 24.5 -10.5t10.5 -24.5t-10.5 -24.5t-24.5 -10.5h-106v-155q0 -14 -10.5 -24.5t-24.5 -10.5t-24.5 10.5t-10.5 24.5v155h-257q-14 0 -23.5 10.5t-9.5 24.5t9 23l282 457q13 16 33 16
q15 0 23.5 -11.5t8.5 -25.5q0 -10 -5 -16z" />
    <glyph glyph-name="five" unicode="5" horiz-adv-x="560" 
d="M180 434l7 5q20 13 39 22t54 9q39 0 74 -15t60.5 -43t40.5 -69t15 -93q0 -53 -16.5 -100t-45 -82.5t-67 -56.5t-81.5 -21q-57 0 -102.5 28t-72.5 74q-3 6 -5.5 10.5t-2.5 12.5q0 14 10.5 24.5t24.5 10.5q11 0 16.5 -4.5t12.5 -12.5q23 -35 53 -54t66 -19q29 0 54.5 15.5
t44.5 42t30 60.5t11 72q0 37 -9.5 65.5t-26 47t-38 28t-46.5 9.5q-29 0 -58 -17t-47 -46q-4 -8 -13 -12.5t-17 -4.5q-14 0 -24.5 10.5t-10.5 27.5v307q0 14 10.5 24.5t24.5 10.5h245q14 0 24.5 -10.5t10.5 -24.5t-10.5 -24.5t-24.5 -10.5h-210v-196z" />
    <glyph glyph-name="six" unicode="6" horiz-adv-x="560" 
d="M388 597q-21 23 -44 33t-49 10q-32 0 -60.5 -20t-50.5 -55t-36 -82.5t-17 -102.5q29 37 69.5 58.5t88.5 21.5q43 0 81.5 -18.5t67 -50.5t45 -74.5t16.5 -91.5t-16.5 -91.5t-45 -74.5t-67 -50.5t-81.5 -18.5q-41 0 -73.5 14t-58 37.5t-42.5 53t-26 60.5q-15 42 -22 91.5
t-7 103.5q0 75 18.5 140.5t50.5 114t74.5 77t91.5 28.5q41 0 78.5 -16t66.5 -51q9 -9 9 -23t-10.5 -24.5t-24.5 -10.5q-16 0 -26 12zM429 225q0 34 -11 64t-30 52.5t-44.5 35.5t-54.5 13t-54.5 -13t-44.5 -35.5t-30 -52.5t-11 -64q0 -17 2.5 -32t7.5 -29q19 -47 48 -75.5
t82 -28.5q28 0 53 13.5t44.5 36t31 52.5t11.5 63z" />
    <glyph glyph-name="seven" unicode="7" horiz-adv-x="560" 
d="M398 630h-293q-14 0 -24.5 10.5t-10.5 24.5t10.5 24.5t24.5 10.5h347q8 0 12 -2q11 -5 16.5 -14.5t5.5 -20.5l-3 -11l-264 -640q-5 -11 -14.5 -16.5t-20.5 -5.5q-5 0 -11 3q-10 4 -15.5 13t-5.5 20q0 3 0.5 6t2.5 6z" />
    <glyph glyph-name="eight" unicode="8" horiz-adv-x="560" 
d="M100 530q0 37 14 70t38.5 57.5t57.5 38.5t70 14t70 -14t57.5 -38.5t38.5 -57.5t14 -70q0 -43 -18.5 -79.5t-50.5 -61.5q47 -29 75.5 -77t28.5 -107q0 -45 -17 -84t-46 -68t-68 -46t-84 -17t-84 17t-68 46t-46 68t-17 84q0 59 28 107t75 77q-31 25 -49.5 61.5t-18.5 79.5z
M135 205q0 -30 11.5 -56.5t31 -46t46 -31t56.5 -11.5t56.5 11.5t46 31t31 46t11.5 56.5t-11.5 56.5t-31 46t-46 31t-56.5 11.5h-6q-29 -1 -54.5 -13t-44 -31.5t-29.5 -45.5t-11 -55zM170 530q0 -23 8.5 -43t23.5 -35t35 -23.5t43 -8.5h4q22 1 41.5 9.5t33.5 23.5t22.5 34.5
t8.5 42.5t-8.5 43t-23.5 35t-35 23.5t-43 8.5t-43 -8.5t-35 -23.5t-23.5 -35t-8.5 -43z" />
    <glyph glyph-name="nine" unicode="9" horiz-adv-x="560" 
d="M171 103q21 -23 44 -33t49 -10q32 0 60.5 20t50.5 55t36 82.5t17 102.5q-29 -37 -69.5 -58.5t-88.5 -21.5q-44 0 -82 18.5t-66.5 50.5t-45 74.5t-16.5 91.5t16.5 91.5t45 74.5t66.5 50.5t82 18.5q40 0 73 -14.5t58.5 -37.5t42.5 -52.5t26 -60.5q15 -42 22 -91.5t7 -103.5
q0 -75 -18.5 -140.5t-50.5 -114t-74.5 -77t-91.5 -28.5q-41 0 -78.5 16t-66.5 51q-9 9 -9 23t10.5 24.5t24.5 10.5q16 0 26 -12zM130 475q0 -34 11 -64t30 -52.5t44.5 -35.5t54.5 -13t54.5 13t44.5 35.5t30 52.5t11 64q0 17 -2.5 32t-7.5 29q-9 23 -20.5 42.5t-27 33
t-35.5 21t-47 7.5q-28 0 -53 -13.5t-44.5 -36t-31 -52.5t-11.5 -63z" />
    <glyph glyph-name="colon" unicode=":" horiz-adv-x="270" 
d="M90 428q0 19 13 32t32 13t32 -13t13 -32t-13 -32t-32 -13t-32 13t-13 32zM90 45q0 19 13 32t32 13t32 -13t13 -32t-13 -32t-32 -13t-32 13t-13 32z" />
    <glyph glyph-name="semicolon" unicode=";" horiz-adv-x="270" 
d="M90 428q0 19 13 32t32 13t32 -13t13 -32t-13 -32t-32 -13t-32 13t-13 32zM111 -123q-11 -9 -24 -9q-14 0 -24.5 10.5t-10.5 24.5q0 11 5 17.5t11 12.5q35 32 35 79l-3 23q0 14 10.5 24.5t24.5 10.5t24 -10t12 -24q1 -6 1.5 -12t0.5 -12q0 -40 -16.5 -75t-45.5 -60z" />
    <glyph glyph-name="less" unicode="&#x3c;" horiz-adv-x="580" 
d="M488 425q4 2 12 2q11 0 20 -6t13 -16q1 -3 1.5 -5.5t0.5 -5.5q0 -11 -6 -20.5t-17 -13.5l-330 -120l330 -120q11 -4 17 -13.5t6 -20.5q0 -3 -0.5 -5.5t-1.5 -5.5q-4 -10 -13 -16t-20 -6q-8 0 -12 2l-420 152q-11 3 -17 12.5t-6 20.5t6.5 20t16.5 13z" />
    <glyph glyph-name="equal" unicode="=" horiz-adv-x="580" 
d="M500 340q14 0 24.5 -10.5t10.5 -24.5t-10.5 -24.5t-24.5 -10.5h-420q-14 0 -24.5 10.5t-10.5 24.5t10.5 24.5t24.5 10.5h420zM500 200q14 0 24.5 -10.5t10.5 -24.5t-10.5 -24.5t-24.5 -10.5h-420q-14 0 -24.5 10.5t-10.5 24.5t10.5 24.5t24.5 10.5h420z" />
    <glyph glyph-name="greater" unicode="&#x3e;" horiz-adv-x="580" 
d="M92 55q-4 -2 -12 -2q-11 0 -20 6t-13 16q-1 3 -1.5 5.5t-0.5 5.5q0 11 6 20.5t17 13.5l330 120l-330 120q-11 4 -17 13.5t-6 20.5q0 3 0.5 5.5t1.5 5.5q4 10 13 16t20 6q8 0 12 -2l420 -152q11 -3 17 -12.5t6 -20.5t-6.5 -20t-16.5 -13z" />
    <glyph glyph-name="question" unicode="?" 
d="M187 295q0 19 7.5 36.5t20.5 30.5t30 20.5t37 7.5q23 0 43 8.5t35 23.5t23.5 35t8.5 43q0 29 -11 54.5t-30 44.5t-44.5 30t-54.5 11q-36 0 -65 -17t-51 -44q-6 -8 -12.5 -13.5t-18.5 -5.5q-14 0 -24.5 10.5t-10.5 24.5q0 7 2 12t8 14q28 42 73 65.5t99 23.5
q43 0 81.5 -16.5t67 -45t45 -67t16.5 -81.5q0 -37 -14 -70t-38.5 -57.5t-57.5 -38.5t-70 -14q-11 0 -18 -7t-7 -18v-60q0 -14 -10.5 -24.5t-24.5 -10.5t-24.5 10.5t-10.5 24.5v60zM177 45q0 19 13 32t32 13t32 -13t13 -32t-13 -32t-32 -13t-32 13t-13 32z" />
    <glyph glyph-name="at" unicode="@" horiz-adv-x="970" 
d="M495 -170q65 0 124 19.5t109 54.5q2 2 10.5 6.5t15.5 4.5q14 0 24.5 -10.5t10.5 -24.5q0 -10 -5 -17.5t-13 -12.5q-59 -43 -128.5 -66.5t-147.5 -23.5q-99 0 -180.5 38t-140.5 103.5t-91.5 152.5t-32.5 186t32.5 184.5t91.5 149.5t140.5 100.5t180.5 36.5t177.5 -36.5
t133.5 -100.5t84.5 -149.5t29.5 -184.5q0 -39 -7.5 -83t-25.5 -81t-49 -61t-78 -24q-51 0 -81 24t-53 65l-24 -35q-25 -25 -56 -39.5t-66 -14.5q-41 0 -76.5 19.5t-61.5 52.5t-41.5 77.5t-15.5 95.5t15.5 95.5t41.5 77.5t61.5 52.5t76.5 19.5q36 0 67.5 -15t57.5 -42v22
q0 14 10.5 24.5t24.5 10.5t24.5 -10.5t10.5 -24.5v-286q0 -41 21 -70t64 -29q29 0 46.5 19.5t27 47t12.5 58.5t3 54q0 84 -24 157t-69 127t-111 85t-150 31t-153 -31t-118.5 -85t-76.5 -127t-27 -157t27 -158.5t76.5 -130.5t118.5 -88.5t153 -32.5zM605 236q0 36 -10 68
t-27 56t-39.5 37.5t-48.5 13.5t-48.5 -13.5t-39.5 -37.5t-27 -56t-10 -68t10 -68t27 -56t39.5 -37.5t48.5 -13.5t48.5 13.5t39.5 37.5t27 56t10 68z" />
    <glyph glyph-name="A" unicode="A" horiz-adv-x="620" 
d="M435 230h-250l-79 -217q-4 -11 -13.5 -17t-20.5 -6q-3 0 -5.5 0.5t-5.5 1.5q-10 4 -16 13t-6 20q0 8 2 12l236 650q3 11 12.5 17t20.5 6t20 -6.5t13 -16.5l236 -650q2 -4 2 -12q0 -11 -6 -20t-16 -13q-3 -1 -5.5 -1.5t-5.5 -0.5q-11 0 -20.5 6t-13.5 17zM210 300h199
l-99 273z" />
    <glyph glyph-name="B" unicode="B" horiz-adv-x="580" 
d="M490 525q0 -42 -17.5 -77.5t-47.5 -59.5q45 -28 72.5 -74.5t27.5 -103.5q0 -44 -16.5 -82t-45 -66.5t-67 -45t-81.5 -16.5h-190q-14 0 -24.5 10.5t-10.5 24.5v630q0 14 10.5 24.5t24.5 10.5h190q36 0 68 -13.5t56 -37.5t37.5 -56t13.5 -68zM160 350v-280h155
q29 0 54.5 11t44.5 30t30 44.5t11 54.5q0 28 -10.5 53t-29 44t-43 30.5t-52.5 12.5h-160zM319 420q21 0 39 8.5t32 22.5t22 33.5t8 40.5q0 22 -8.5 41t-22.5 33t-33 22.5t-41 8.5h-155v-210h159z" />
    <glyph glyph-name="C" unicode="C" horiz-adv-x="600" 
d="M549 161q-35 -77 -95 -124t-134 -47q-56 0 -105 28.5t-86 77t-58 114t-21 140.5t21 140.5t58 114t86 77t105 28.5q59 0 107.5 -29t90.5 -85q6 -9 10.5 -15.5t4.5 -15.5q0 -15 -10.5 -25t-25.5 -10q-21 0 -33 22q-28 41 -65 64.5t-79 23.5q-41 0 -77.5 -22.5t-63.5 -61.5
t-43 -91.5t-16 -112.5t16 -113t43 -92.5t63.5 -63t77.5 -23.5q51 0 94.5 36t70.5 94q10 20 32 20q14 0 24.5 -10.5t10.5 -24.5q0 -8 -3 -14z" />
    <glyph glyph-name="D" unicode="D" horiz-adv-x="660" 
d="M125 0q-14 0 -24.5 10.5t-10.5 24.5v630q0 14 10.5 24.5t24.5 10.5h219q55 0 103.5 -28t84.5 -75.5t57 -111t21 -135.5t-21 -135.5t-57 -111t-84.5 -75.5t-103.5 -28h-219zM540 350q0 57 -15.5 108t-42.5 89.5t-63 60.5t-76 22h-183v-560h183q40 0 76 22t63 60t42.5 89
t15.5 109z" />
    <glyph glyph-name="E" unicode="E" 
d="M126 0q-15 0 -25.5 10.5t-10.5 24.5v630q0 14 10.5 24.5t24.5 10.5h330q14 0 24.5 -10.5t10.5 -24.5t-10.5 -24.5t-24.5 -10.5h-295v-210h175q14 0 24.5 -10.5t10.5 -24.5t-10.5 -24.5t-24.5 -10.5h-175v-280h295q14 0 24.5 -10.5t10.5 -24.5t-10.5 -24.5t-24.5 -10.5
h-329z" />
    <glyph glyph-name="F" unicode="F" horiz-adv-x="490" 
d="M90 665q0 14 10.5 24.5t24.5 10.5h330q14 0 24.5 -10.5t10.5 -24.5t-10.5 -24.5t-24.5 -10.5h-295v-210h175q14 0 24.5 -10.5t10.5 -24.5t-10.5 -24.5t-24.5 -10.5h-175v-325q0 -14 -10.5 -24.5t-24.5 -10.5t-24.5 10.5t-10.5 24.5v640z" />
    <glyph glyph-name="G" unicode="G" horiz-adv-x="640" 
d="M525 350q14 0 24.5 -10.5t10.5 -24.5v-290q0 -14 -10.5 -24.5t-24.5 -10.5t-24.5 10.5t-10.5 24.5v45q-35 -38 -78.5 -59t-91.5 -21q-56 0 -105 28.5t-86 77t-58 114t-21 140.5t21 140.5t58 114t86 77t105 28.5q59 0 107.5 -29t90.5 -85q6 -9 10.5 -15.5t4.5 -15.5
q0 -15 -10.5 -25t-25.5 -10q-21 0 -33 22q-28 41 -65 64.5t-79 23.5q-41 0 -77.5 -22.5t-63.5 -61.5t-43 -91.5t-16 -112.5t16 -113t43 -92.5t63.5 -63t77.5 -23.5q53 0 98 38.5t72 101.5v80h-118q-14 0 -24.5 10.5t-10.5 24.5t10.5 24.5t24.5 10.5h153z" />
    <glyph glyph-name="H" unicode="H" horiz-adv-x="650" 
d="M90 675q0 14 10.5 24.5t24.5 10.5t24.5 -10.5t10.5 -24.5v-255h330v255q0 14 10.5 24.5t24.5 10.5t24.5 -10.5t10.5 -24.5v-650q0 -14 -10.5 -24.5t-24.5 -10.5t-24.5 10.5t-10.5 24.5v325h-330v-325q0 -14 -10.5 -24.5t-24.5 -10.5t-24.5 10.5t-10.5 24.5v650z" />
    <glyph glyph-name="I" unicode="I" horiz-adv-x="250" 
d="M90 675q0 14 10.5 24.5t24.5 10.5t24.5 -10.5t10.5 -24.5v-650q0 -14 -10.5 -24.5t-24.5 -10.5t-24.5 10.5t-10.5 24.5v650z" />
    <glyph glyph-name="J" unicode="J" horiz-adv-x="425" 
d="M265 674q0 14 10.5 24.5t24.5 10.5t24.5 -10.5t10.5 -24.5v-519q0 -34 -13 -64t-35.5 -52.5t-52.5 -35.5t-64 -13q-47 0 -85.5 23.5t-59.5 61.5q-5 7 -5 20q0 14 10.5 24.5t24.5 10.5q11 0 19 -6t13 -15q12 -22 34.5 -35.5t48.5 -13.5q19 0 36.5 7.5t30.5 20.5t20.5 30
t7.5 37v519z" />
    <glyph glyph-name="K" unicode="K" horiz-adv-x="610" 
d="M90 675q0 14 10.5 24.5t24.5 10.5t24.5 -10.5t10.5 -24.5v-367l280 387q5 8 12.5 11.5t16.5 3.5q16 0 25 -9.5t9 -26.5q0 -11 -6 -20l-180 -247l252 -363q6 -10 6 -19q0 -8 -3.5 -16.5t-11.5 -13.5q-7 -5 -18 -5q-8 0 -17 3.5t-14 10.5l-238 342l-113 -156v-165
q0 -14 -10.5 -24.5t-24.5 -10.5t-24.5 10.5t-10.5 24.5v650z" />
    <glyph glyph-name="L" unicode="L" horiz-adv-x="510" 
d="M90 675q0 14 10.5 24.5t24.5 10.5t24.5 -10.5t10.5 -24.5v-605h295q14 0 24.5 -10.5t10.5 -24.5t-10.5 -24.5t-24.5 -10.5h-330q-14 0 -24.5 10.5t-10.5 24.5v640z" />
    <glyph glyph-name="M" unicode="M" horiz-adv-x="790" 
d="M665 -10q-14 0 -24.5 10.5t-10.5 24.5v520l-204 -348q-10 -17 -31 -17q-8 0 -16.5 4.5t-13.5 12.5l-205 348v-520q0 -14 -10.5 -24.5t-24.5 -10.5t-24.5 10.5t-10.5 24.5v652q0 12 6 19.5t13.5 10.5t15.5 3q11 0 19 -6t13 -15l238 -405l240 409q5 8 13 12.5t20 4.5
q10 0 16.5 -3.5t11 -11t4.5 -17.5v-653q0 -14 -10.5 -24.5t-24.5 -10.5z" />
    <glyph glyph-name="N" unicode="N" horiz-adv-x="650" 
d="M525 -10q-9 0 -18 4.5t-14 12.5l-333 546v-528q0 -14 -10.5 -24.5t-24.5 -10.5t-24.5 10.5t-10.5 24.5v650q0 14 10.5 24.5t24.5 10.5q11 0 19 -5.5t13 -11.5l333 -546v528q0 14 10.5 24.5t24.5 10.5t24.5 -10.5t10.5 -24.5v-650q0 -15 -10.5 -24.5t-24.5 -10.5z" />
    <glyph glyph-name="O" unicode="O" horiz-adv-x="640" 
d="M50 350q0 75 21 140.5t58 114t86 77t105 28.5t105 -28.5t86 -77t58 -114t21 -140.5t-21 -140.5t-58 -114t-86 -77t-105 -28.5t-105 28.5t-86 77t-58 114t-21 140.5zM120 352q0 -60 16 -113t43 -92.5t63.5 -63t77.5 -23.5t77.5 23.5t63.5 63t43 92.5t16 113t-16 112.5
t-43 91.5t-63.5 61.5t-77.5 22.5t-77.5 -22.5t-63.5 -61.5t-43 -91.5t-16 -112.5z" />
    <glyph glyph-name="P" unicode="P" horiz-adv-x="575" 
d="M525 490q0 -44 -16.5 -82t-45 -66.5t-67 -45t-81.5 -16.5h-155v-255q0 -14 -10.5 -24.5t-24.5 -10.5t-24.5 10.5t-10.5 24.5v640q0 14 10.5 24.5t24.5 10.5h190q43 0 81.5 -16.5t67 -45t45 -67t16.5 -81.5zM315 350q29 0 54.5 11t44.5 30t30 44.5t11 54.5t-11 54.5
t-30 44.5t-44.5 30t-54.5 11h-155v-280h155z" />
    <glyph glyph-name="Q" unicode="Q" horiz-adv-x="640" 
d="M50 350q0 75 21 140.5t58 114t86 77t105 28.5t105 -28.5t86 -77t58 -114t21 -140.5q0 -70 -18.5 -131.5t-50.5 -109.5l59 -59q10 -12 10 -25t-10 -25q-10 -10 -25 -10t-25 10l-55 55q-33 -31 -72.5 -48t-82.5 -17q-56 0 -105 28.5t-86 77t-58 114t-21 140.5zM469 161
q24 38 37.5 87t13.5 104q0 60 -16 112.5t-43 91.5t-63.5 61.5t-77.5 22.5t-77.5 -22.5t-63.5 -61.5t-43 -91.5t-16 -112.5t16 -112t43 -91t63.5 -61.5t77.5 -22.5q56 0 104 42l-53 53q-10 10 -10 25t10 25q12 10 25 10t25 -10z" />
    <glyph glyph-name="R" unicode="R" horiz-adv-x="600" 
d="M525 508q0 -68 -38 -115t-98 -67l165 -284q4 -7 4 -16t-4.5 -18t-12.5 -14q-7 -4 -16 -4t-18 4.5t-14 12.5l-179 308h-154v-290q0 -14 -10.5 -24.5t-24.5 -10.5t-24.5 10.5t-10.5 24.5v640q0 14 10.5 24.5t24.5 10.5h190q43 0 81.5 -13.5t67 -39t45 -61t16.5 -78.5z
M315 385q29 0 54.5 8.5t44.5 24t30 38.5t11 52t-11 51.5t-30 38.5t-44.5 24t-54.5 8h-155v-245h155z" />
    <glyph glyph-name="S" unicode="S" horiz-adv-x="550" 
d="M438 624q6 -9 6 -19q0 -14 -10.5 -24.5t-24.5 -10.5q-12 0 -21 7t-17 18q-7 10 -19.5 18.5t-28 14.5t-32 9t-29.5 3q-23 0 -46.5 -7.5t-42.5 -21.5t-31 -34.5t-12 -46.5t12 -45.5t30.5 -33t42 -22t47.5 -12.5q45 -8 87 -25t74.5 -43t52 -63t19.5 -86t-20 -88t-53 -66
t-75 -41.5t-85 -14.5q-27 0 -55.5 6t-54.5 17.5t-48 28t-36 37.5q-6 9 -8 14t-2 12q0 14 10.5 24.5t24.5 10.5q12 0 18.5 -5.5t12.5 -13.5q11 -14 27 -25t35 -19t38.5 -12.5t37.5 -4.5q29 0 58 9t52.5 27t38 44t14.5 60t-14.5 58.5t-38 41.5t-52.5 27.5t-58 16.5
q-38 7 -74 20.5t-64.5 35t-46 53.5t-17.5 77q0 41 17.5 74.5t46 57t64.5 36t74 12.5q24 0 50 -6.5t50 -17.5t44 -27t32 -35z" />
    <glyph glyph-name="T" unicode="T" horiz-adv-x="540" 
d="M506 700q14 0 24.5 -10.5t10.5 -24.5t-10.5 -24.5t-24.5 -10.5h-201v-605q0 -14 -10.5 -24.5t-24.5 -10.5t-24.5 10.5t-10.5 24.5v605h-201q-14 0 -24.5 10.5t-10.5 24.5t10.5 24.5t24.5 10.5h472z" />
    <glyph glyph-name="U" unicode="U" horiz-adv-x="650" 
d="M160 225q0 -34 13 -64t35.5 -52.5t52.5 -35.5t64 -13t64 13t52.5 35.5t35.5 52.5t13 64v450q0 14 10.5 24.5t24.5 10.5t24.5 -10.5t10.5 -24.5v-450q0 -49 -18.5 -91.5t-50.5 -74.5t-74.5 -50.5t-91.5 -18.5t-91.5 18.5t-74.5 50.5t-50.5 74.5t-18.5 91.5v450
q0 14 10.5 24.5t24.5 10.5t24.5 -10.5t10.5 -24.5v-450z" />
    <glyph glyph-name="V" unicode="V" horiz-adv-x="620" 
d="M41 663q-2 4 -2 12q0 11 6 20t16 13q3 1 5.5 1.5t5.5 0.5q11 0 20.5 -6t13.5 -17l204 -560l204 560q4 11 13.5 17t20.5 6q3 0 5.5 -0.5t5.5 -1.5q10 -4 16 -13t6 -20q0 -8 -2 -12l-236 -650q-3 -11 -12.5 -17t-20.5 -6t-20 6.5t-13 16.5z" />
    <glyph glyph-name="W" unicode="W" horiz-adv-x="910" 
d="M42 663q-2 4 -2 12q0 11 6 20t16 13q3 1 5.5 1.5t5.5 0.5q11 0 20.5 -6t13.5 -17l183 -560l130 413q2 5 11.5 16.5t25.5 11.5q14 0 22 -10t11 -18l130 -413l183 560q4 11 13.5 17t20.5 6q3 0 5.5 -0.5t5.5 -1.5q10 -4 16 -13t6 -20q0 -8 -2 -12l-215 -650
q-3 -11 -12.5 -17t-20.5 -6t-20 6.5t-13 16.5l-132 419l-132 -419q-3 -11 -12.5 -17t-20.5 -6t-20 6.5t-13 16.5z" />
    <glyph glyph-name="X" unicode="X" horiz-adv-x="545" 
d="M64 658q-4 7 -4 16t4.5 18t12.5 14q7 4 16 4t18 -4.5t14 -12.5l147 -256l148 256q5 8 14 12.5t18 4.5t16 -4q8 -5 12.5 -14t4.5 -18t-4 -16l-168 -291l188 -325q4 -7 4 -16t-4.5 -18t-12.5 -14q-7 -4 -16 -4t-18 4.5t-14 12.5l-168 290l-167 -290q-5 -8 -14 -12.5
t-18 -4.5t-16 4q-8 5 -12.5 14t-4.5 18t4 16l188 325z" />
    <glyph glyph-name="Y" unicode="Y" horiz-adv-x="545" 
d="M308 324v-299q0 -14 -10.5 -24.5t-24.5 -10.5t-24.5 10.5t-10.5 24.5v298l-194 335q-4 7 -4 16t4.5 18t12.5 14q7 4 16 4t18 -4.5t14 -12.5l168 -290l167 290q5 8 14 12.5t18 4.5t16 -4q8 -5 12.5 -14t4.5 -18t-4 -16z" />
    <glyph glyph-name="Z" unicode="Z" 
d="M438 700q14 -1 24 -11t10 -24q0 -11 -6 -20l-333 -575h324q14 0 24.5 -10.5t10.5 -24.5t-10.5 -24.5t-24.5 -10.5h-386q-9 0 -16 4q-13 8 -16 22q-1 2 -1 6v4q0 9 4 16l334 578h-283q-14 0 -24.5 10.5t-10.5 24.5t10.5 24.5t24.5 10.5h345z" />
    <glyph glyph-name="bracketleft" unicode="[" horiz-adv-x="320" 
d="M245 -160q14 0 24.5 -10.5t10.5 -24.5t-10.5 -24.5t-24.5 -10.5h-130q-13 0 -24 10.5t-11 24.5v860q0 13 9.5 24t25.5 11h130q14 0 24.5 -10.5t10.5 -24.5t-10.5 -24.5t-24.5 -10.5h-95v-790h95z" />
    <glyph glyph-name="backslash" unicode="\" horiz-adv-x="419" 
d="M402 -193q2 -4 2 -12q0 -11 -6 -20t-16 -13q-3 -1 -5.5 -1.5t-5.5 -0.5q-11 0 -20.5 6t-13.5 17l-321 880q-1 3 -1.5 5.5t-0.5 5.5q0 11 6 20.5t17 13.5q4 2 12 2q11 0 20 -6t13 -17z" />
    <glyph glyph-name="bracketright" unicode="]" horiz-adv-x="320" 
d="M170 -160v790h-95q-14 0 -24.5 10.5t-10.5 24.5t10.5 24.5t24.5 10.5h130q16 0 25.5 -11t9.5 -24v-860q0 -14 -11 -24.5t-24 -10.5h-130q-14 0 -24.5 10.5t-10.5 24.5t10.5 24.5t24.5 10.5h95z" />
    <glyph glyph-name="asciicircum" unicode="^" horiz-adv-x="580" 
d="M478 537q10 -12 10 -25t-10 -25q-10 -10 -25 -10t-25 10l-138 138l-138 -138q-11 -11 -25 -11t-25 11q-10 9 -10 24t10 25l164 164q10 10 24 10q13 0 25 -10z" />
    <glyph glyph-name="underscore" unicode="_" horiz-adv-x="500" 
d="M445 -100q14 0 24.5 -10.5t10.5 -24.5t-10.5 -24.5t-24.5 -10.5h-390q-14 0 -24.5 10.5t-10.5 24.5t10.5 24.5t24.5 10.5h390z" />
    <glyph glyph-name="grave" unicode="`" horiz-adv-x="220" 
d="M185 600q10 -12 10 -25t-10 -25q-10 -10 -25 -10t-25 10l-100 100q-10 10 -10 25t10 25q12 10 25 10t25 -10z" />
    <glyph glyph-name="a" unicode="a" 
d="M378 61q-3 -7 -11 -17q-25 -25 -56 -39.5t-66 -14.5q-41 0 -76.5 19.5t-61.5 52.5t-41.5 77.5t-15.5 95.5t15.5 95.5t41.5 77.5t61.5 52.5t76.5 19.5q36 0 67.5 -15t57.5 -42v22q0 14 10.5 24.5t24.5 10.5t24.5 -10.5t10.5 -24.5v-338q0 -14 9.5 -29.5t17.5 -22.5
q6 -6 11 -12.5t5 -17.5q0 -14 -10.5 -24.5t-24.5 -10.5t-24 9q-14 12 -25.5 27t-19.5 32zM370 235q0 36 -10 68t-27 56t-39.5 37.5t-48.5 13.5t-48.5 -13.5t-39.5 -37.5t-27 -56t-10 -68t10 -68t27 -56t39.5 -37.5t48.5 -13.5t48.5 13.5t39.5 37.5t27 56t10 68z" />
    <glyph glyph-name="b" unicode="b" horiz-adv-x="520" 
d="M80 675q0 14 10.5 24.5t24.5 10.5t24.5 -10.5t10.5 -24.5v-251q26 26 57.5 41.5t67.5 15.5q40 0 76 -19.5t62 -52.5t41.5 -78t15.5 -96t-15.5 -95.5t-41.5 -78t-62 -52.5t-76 -19q-36 0 -67.5 15t-57.5 41v-21q0 -14 -10.5 -24.5t-24.5 -10.5t-24.5 10.5t-10.5 24.5v650z
M150 235q0 -36 10 -68t27 -56t39.5 -37.5t48.5 -13.5t48.5 13.5t39.5 37.5t27 56t10 68t-10 68t-27 56t-39.5 38t-48.5 14t-48 -13.5t-39 -37t-27 -56t-11 -69.5z" />
    <glyph glyph-name="c" unicode="c" horiz-adv-x="450" 
d="M408 98q-25 -46 -66 -74.5t-97 -33.5q-41 0 -76.5 19t-61.5 52.5t-41.5 78t-15.5 95.5t15.5 95.5t41.5 78t61.5 52.5t76.5 19q45 0 84 -23t66 -64q6 -11 6 -20q0 -14 -10.5 -24.5t-24.5 -10.5q-11 0 -19.5 6t-13.5 15q-17 24 -39.5 37.5t-48.5 13.5t-48.5 -13.5
t-39.5 -37.5t-27 -56t-10 -68q0 -34 9 -65.5t25.5 -56t39.5 -39t51 -14.5q35 0 62.5 23t41.5 53q10 19 31 19q14 0 24.5 -10.5t10.5 -24.5q0 -10 -4 -17z" />
    <glyph glyph-name="d" unicode="d" horiz-adv-x="520" 
d="M440 25q0 -14 -10.5 -24.5t-24.5 -10.5t-24.5 10.5t-10.5 24.5v21q-26 -26 -57.5 -41t-67.5 -15q-41 0 -76.5 19t-61.5 52.5t-41.5 78t-15.5 95.5t15.5 96t41.5 78t61.5 52.5t76.5 19.5q36 0 67.5 -15.5t57.5 -41.5v251q0 14 10.5 24.5t24.5 10.5t24.5 -10.5t10.5 -24.5
v-650zM370 235q-1 37 -11 69.5t-27 56t-39.5 37t-47.5 13.5q-26 0 -48.5 -14t-39.5 -38t-27 -56t-10 -68t10 -68t27 -56t39.5 -37.5t48.5 -13.5t48.5 13.5t39.5 37.5t27 56t10 68z" />
    <glyph glyph-name="e" unicode="e" horiz-adv-x="480" 
d="M408 98q-25 -46 -66 -74.5t-97 -33.5q-41 0 -76.5 19t-61.5 52.5t-41.5 78t-15.5 95.5t15.5 95.5t41.5 78t61.5 52.5t76.5 19q37 0 68.5 -16t55.5 -44.5t39.5 -68t20.5 -86.5q-1 -14 -11.5 -24.5t-25.5 -10.5h-272q1 -36 11 -67t27 -54t39 -36t48 -13q35 0 62.5 23
t41.5 53q10 19 31 19q14 0 24.5 -10.5t10.5 -24.5q0 -10 -4 -17zM245 411q-40 0 -71 -31t-45 -80h223q-14 49 -41 80t-66 31z" />
    <glyph glyph-name="f" unicode="f" horiz-adv-x="300" 
d="M170 470h90q14 0 24.5 -10.5t10.5 -24.5t-10.5 -24.5t-24.5 -10.5h-90v-375q0 -14 -10.5 -24.5t-24.5 -10.5t-24.5 10.5t-10.5 24.5v375h-55q-14 0 -24.5 10.5t-10.5 24.5t10.5 24.5t24.5 10.5h55v90q0 31 12 58.5t32 47.5t47.5 32t58.5 12q18 0 38.5 -2.5t38.5 -16.5
q9 -7 16.5 -16t7.5 -21q0 -14 -10 -24t-26 -10q-10 0 -16 3t-12 7t-14 7t-23 3q-16 0 -30.5 -6t-25.5 -16.5t-17.5 -24.5t-6.5 -30v-93z" />
    <glyph glyph-name="g" unicode="g" horiz-adv-x="520" 
d="M135 -117q18 -24 45.5 -38.5t59.5 -14.5q27 0 50.5 10t41.5 28t28 41.5t10 50.5v87q-26 -26 -57.5 -41.5t-67.5 -15.5q-41 0 -76.5 19.5t-61.5 52.5t-41.5 77.5t-15.5 95.5t15.5 95.5t41.5 77.5t61.5 52.5t76.5 19.5q36 0 67.5 -15t57.5 -42v22q0 14 10.5 24.5t24.5 10.5
t24.5 -10.5t10.5 -24.5v-485q0 -41 -16 -77.5t-43 -63.5t-63.5 -43t-77.5 -16q-48 0 -89.5 21t-68.5 56q-5 5 -7 11.5t-2 12.5q0 14 10.5 24.5t24.5 10.5q17 0 27 -13zM370 235q0 36 -10 68t-27 56t-39.5 37.5t-48.5 13.5t-48.5 -13.5t-39.5 -37.5t-27 -56t-10 -68t10 -68
t27 -56t39.5 -37.5t48.5 -13.5t48.5 13.5t39.5 37.5t27 56t10 68z" />
    <glyph glyph-name="h" unicode="h" horiz-adv-x="515" 
d="M80 675q0 14 10.5 24.5t24.5 10.5t24.5 -10.5t10.5 -24.5v-241q26 21 50 33.5t60 12.5q40 0 72.5 -15t55.5 -41.5t35 -62t12 -75.5v-261q0 -14 -10.5 -24.5t-24.5 -10.5t-24.5 10.5t-10.5 24.5v261q0 52 -26.5 88t-78.5 36q-26 0 -46 -9.5t-34.5 -26t-22 -38.5t-7.5 -47
v-264q0 -14 -10.5 -24.5t-24.5 -10.5t-24.5 10.5t-10.5 24.5v650z" />
    <glyph glyph-name="i" unicode="i" horiz-adv-x="230" 
d="M80 445q0 14 10.5 24.5t24.5 10.5t24.5 -10.5t10.5 -24.5v-420q0 -14 -10.5 -24.5t-24.5 -10.5t-24.5 10.5t-10.5 24.5v420zM70 635q0 19 13 32t32 13t32 -13t13 -32t-13 -32t-32 -13t-32 13t-13 32z" />
    <glyph glyph-name="j" unicode="j" horiz-adv-x="230" 
d="M-49 -232q-11 3 -18.5 12.5t-7.5 21.5q0 14 10.5 24.5t24.5 10.5q9 0 19.5 -3.5t20.5 -3.5q16 0 30.5 6t25.5 16.5t17.5 24.5t6.5 30v538q0 14 10.5 24.5t24.5 10.5t24.5 -10.5t10.5 -24.5v-535q0 -31 -12 -58.5t-32 -47.5t-47.5 -32t-58.5 -12q-25 0 -49 8zM70 635
q0 19 13 32t32 13t32 -13t13 -32t-13 -32t-32 -13t-32 13t-13 32z" />
    <glyph glyph-name="k" unicode="k" horiz-adv-x="465" 
d="M80 675q0 14 10.5 24.5t24.5 10.5t24.5 -10.5t10.5 -24.5v-421l201 215q11 11 25 11q16 0 26 -9t10 -25q0 -15 -9 -25l-121 -130l151 -248q5 -9 5 -18q0 -18 -9 -26.5t-25 -8.5q-9 0 -17 4.5t-13 12.5l-142 231l-82 -88v-125q0 -14 -10.5 -24.5t-24.5 -10.5t-24.5 10.5
t-10.5 24.5v650z" />
    <glyph glyph-name="l" unicode="l" horiz-adv-x="230" 
d="M80 675q0 14 10.5 24.5t24.5 10.5t24.5 -10.5t10.5 -24.5v-650q0 -14 -10.5 -24.5t-24.5 -10.5t-24.5 10.5t-10.5 24.5v650z" />
    <glyph glyph-name="m" unicode="m" horiz-adv-x="800" 
d="M365 286q0 52 -26.5 88t-78.5 36q-26 0 -46.5 -10t-34.5 -27t-21.5 -40t-7.5 -49v-259q0 -14 -10.5 -24.5t-24.5 -10.5t-24.5 10.5t-10.5 24.5v419q0 14 10.5 24.5t24.5 10.5t24.5 -10.5t10.5 -24.5v-10q26 21 50 33.5t60 12.5q48 0 83.5 -20t58.5 -55q24 34 60.5 54.5
t79.5 20.5q37 0 69.5 -15.5t56.5 -41.5t38 -61.5t14 -75.5v-261q0 -14 -10.5 -24.5t-24.5 -10.5t-24.5 10.5t-10.5 24.5v261q0 25 -8.5 48t-23 39.5t-34.5 26.5t-42 10q-23 0 -42.5 -10t-33.5 -26.5t-22.5 -39.5t-8.5 -48v-261q0 -14 -10.5 -24.5t-24.5 -10.5t-24.5 10.5
t-10.5 24.5v261z" />
    <glyph glyph-name="n" unicode="n" horiz-adv-x="515" 
d="M365 286q0 52 -26.5 88t-78.5 36q-26 0 -46.5 -10t-34.5 -27t-21.5 -40t-7.5 -49v-259q0 -14 -10.5 -24.5t-24.5 -10.5t-24.5 10.5t-10.5 24.5v419q0 14 10.5 24.5t24.5 10.5t24.5 -10.5t10.5 -24.5v-10q26 21 50 33.5t60 12.5q40 0 72.5 -15t55.5 -41.5t35 -62t12 -75.5
v-261q0 -14 -10.5 -24.5t-24.5 -10.5t-24.5 10.5t-10.5 24.5v261z" />
    <glyph glyph-name="o" unicode="o" horiz-adv-x="490" 
d="M50 234q0 51 15.5 96t41.5 78t61.5 52.5t76.5 19.5q40 0 76 -19.5t62 -52.5t41.5 -78t15.5 -96t-15.5 -95.5t-41.5 -77.5t-62 -52t-76 -19q-41 0 -76.5 19t-61.5 52t-41.5 77.5t-15.5 95.5zM120 234q0 -36 10 -68t27 -55.5t39.5 -37t48.5 -13.5t48.5 13.5t39.5 37
t27 55.5t10 68t-10 68t-27 56t-39.5 38t-48.5 14t-48.5 -14t-39.5 -38t-27 -56t-10 -68z" />
    <glyph glyph-name="p" unicode="p" horiz-adv-x="520" 
d="M80 445q0 14 10.5 24.5t24.5 10.5t24.5 -10.5t10.5 -24.5v-22q26 27 57.5 42t67.5 15q40 0 76 -19.5t62 -52.5t41.5 -77.5t15.5 -95.5t-15.5 -95.5t-41.5 -77.5t-62 -52.5t-76 -19.5q-36 0 -67.5 15.5t-57.5 41.5v-252q0 -14 -10.5 -24.5t-24.5 -10.5t-24.5 10.5
t-10.5 24.5v650zM150 235q0 -36 10 -68t27 -56t39.5 -37.5t48.5 -13.5t48.5 13.5t39.5 37.5t27 56t10 68t-10 68t-27 56t-39.5 37.5t-48.5 13.5t-48.5 -13.5t-39.5 -37.5t-27 -56t-10 -68z" />
    <glyph glyph-name="q" unicode="q" horiz-adv-x="520" 
d="M440 -205q0 -14 -10.5 -24.5t-24.5 -10.5t-24.5 10.5t-10.5 24.5v252q-26 -26 -57.5 -41.5t-67.5 -15.5q-41 0 -76.5 19.5t-61.5 52.5t-41.5 77.5t-15.5 95.5t15.5 95.5t41.5 77.5t61.5 52.5t76.5 19.5q36 0 67.5 -15t57.5 -42v22q0 14 10.5 24.5t24.5 10.5t24.5 -10.5
t10.5 -24.5v-650zM370 235q0 36 -10 68t-27 56t-39.5 37.5t-48.5 13.5t-48.5 -13.5t-39.5 -37.5t-27 -56t-10 -68t10 -68t27 -56t39.5 -37.5t48.5 -13.5t48.5 13.5t39.5 37.5t27 56t10 68z" />
    <glyph glyph-name="r" unicode="r" horiz-adv-x="360" 
d="M150 435q26 21 50 33.5t60 12.5q10 0 23.5 -1.5t24.5 -5.5t19 -12.5t8 -21.5q0 -14 -10.5 -24.5t-24.5 -10.5q-11 0 -20 3t-20 3q-26 0 -46.5 -10t-34.5 -27t-21.5 -40t-7.5 -49v-260q0 -14 -10.5 -24.5t-24.5 -10.5t-24.5 10.5t-10.5 24.5v420q0 14 10.5 24.5t24.5 10.5
t24.5 -10.5t10.5 -24.5v-10z" />
    <glyph glyph-name="s" unicode="s" horiz-adv-x="422" 
d="M344 410q4 -7 4 -15q0 -14 -9.5 -24.5t-23.5 -10.5q-11 0 -18 6t-17 16q-23 21 -42.5 24.5t-39.5 3.5q-31 0 -53 -17.5t-22 -42.5t15 -42.5t60 -17.5h7q37 0 68 -12t53.5 -32.5t35.5 -47.5t13 -58t-13 -58.5t-35.5 -47.5t-54 -32t-67.5 -12q-30 0 -56.5 8t-48 21.5
t-37.5 32.5t-23 42q-2 5 -2 7.5v3.5q0 14 10.5 24.5t24.5 10.5q11 0 20 -6.5t13 -17.5q9 -24 36 -40t63 -16q44 0 72 23.5t28 56.5q0 32 -28.5 56t-71.5 24h-7q-75 0 -110 38t-35 92q0 27 11.5 50.5t31 41.5t46 28t56.5 10q20 0 41 -4.5t40.5 -13t35.5 -20t26 -26.5z" />
    <glyph glyph-name="t" unicode="t" horiz-adv-x="280" 
d="M159 105q0 -19 13 -32t32 -13h20q14 0 24.5 -10.5t10.5 -24.5t-9.5 -24.5t-26.5 -10.5h-19q-24 0 -45 9t-36.5 25t-24.5 37.5t-9 45.5v293h-44q-14 0 -24.5 10.5t-10.5 24.5t10.5 24.5t24.5 10.5h44v95q0 14 10.5 24.5t24.5 10.5t24.5 -10.5t10.5 -24.5v-95h65
q14 0 24.5 -10.5t10.5 -24.5t-10.5 -24.5t-24.5 -10.5h-65v-295z" />
    <glyph glyph-name="u" unicode="u" horiz-adv-x="505" 
d="M140 184q0 -52 26.5 -88t78.5 -36q26 0 46.5 10t34.5 27t21.5 40t7.5 49v259q0 14 10.5 24.5t24.5 10.5t24.5 -10.5t10.5 -24.5v-419q0 -14 -10.5 -24.5t-24.5 -10.5t-24.5 10.5t-10.5 24.5v10q-26 -21 -50 -33.5t-60 -12.5q-41 0 -73 15t-55 41.5t-35 61.5t-12 76v261
q0 14 10.5 24.5t24.5 10.5t24.5 -10.5t10.5 -24.5v-261z" />
    <glyph glyph-name="v" unicode="v" horiz-adv-x="440" 
d="M35 433q-2 4 -2 12q0 11 6 20t16 13q3 1 5.5 1.5t5.5 0.5q11 0 20.5 -6t13.5 -17l120 -330l120 330q4 11 13.5 17t20.5 6q3 0 5.5 -0.5t5.5 -1.5q10 -4 16 -13t6 -20q0 -8 -2 -12l-152 -420q-3 -11 -12.5 -17t-20.5 -6t-20 6.5t-13 16.5z" />
    <glyph glyph-name="w" unicode="w" horiz-adv-x="674" 
d="M337 244l-84 -231q-3 -11 -12.5 -17t-20.5 -6t-20 6.5t-13 16.5l-152 420q-2 4 -2 12q0 11 6 20t16 13q3 1 5.5 1.5t5.5 0.5q11 0 20.5 -6t13.5 -17l120 -330l82 230q12 33 35 33q24 0 34 -30l83 -233l120 330q4 11 13.5 17t20.5 6q3 0 5.5 -0.5t5.5 -1.5q10 -4 16 -13
t6 -20q0 -8 -2 -12l-152 -420q-3 -11 -12.5 -17t-20.5 -6t-20 6.5t-13 16.5z" />
    <glyph glyph-name="x" unicode="x" horiz-adv-x="420" 
d="M210 296l117 170q11 14 33 14q5 -1 8.5 -2t7.5 -3q14 -11 14 -34q0 -8 -5 -15l-133 -192l132 -190q3 -3 4 -6.5t2 -8.5q0 -23 -14 -34q-4 -2 -7.5 -3t-8.5 -2q-11 0 -19.5 3.5t-13.5 10.5l-117 169l-117 -169q-5 -7 -13.5 -10.5t-19.5 -3.5q-5 1 -8.5 2t-7.5 3
q-14 11 -14 34q2 11 6 15l131 190l-132 192q-5 7 -5 15q0 23 14 34q4 2 7.5 3t8.5 2q11 0 19.5 -3.5t13.5 -10.5z" />
    <glyph glyph-name="y" unicode="y" horiz-adv-x="440" 
d="M36 -240q-17 0 -26.5 10.5t-9.5 24.5q0 13 8.5 22.5t20.5 11.5l8 1q39 5 67 32t42 63l37 99l-148 409q-2 4 -2 12q0 11 6 20t16 13q3 1 5.5 1.5t5.5 0.5q11 0 20.5 -6t13.5 -17l120 -330l120 330q4 11 13.5 17t20.5 6q3 0 5.5 -0.5t5.5 -1.5q10 -4 16 -13t6 -20
q0 -8 -2 -12l-186 -508q-7 -31 -23.5 -60.5t-39 -53t-50.5 -37.5t-58 -14h-12z" />
    <glyph glyph-name="z" unicode="z" horiz-adv-x="420" 
d="M346 470q14 -1 24 -11t10 -24q0 -11 -6 -20l-245 -345h226q14 0 24.5 -10.5t10.5 -24.5t-10.5 -24.5t-24.5 -10.5h-292q-9 0 -16 4q-13 8 -16 22q-1 2 -1 6v4q0 9 4 16l246 348h-206q-14 0 -24.5 10.5t-10.5 24.5t10.5 24.5t24.5 10.5h272z" />
    <glyph glyph-name="braceleft" unicode="{" horiz-adv-x="420" 
d="M35 235q0 14 10.5 24.5t27.5 10.5q22 0 41.5 9t34 24t23 34.5t8.5 42.5v140q0 37 14 70t38.5 57.5t57.5 38.5t70 14q14 0 24.5 -10.5t10.5 -24.5t-10.5 -24.5t-24.5 -10.5q-23 0 -43 -8.5t-35 -23.5t-23.5 -35t-8.5 -43v-140q0 -45 -20.5 -82.5t-53.5 -62.5
q33 -25 53.5 -62.5t20.5 -82.5v-140q0 -23 8.5 -43t23.5 -35t35 -23.5t43 -8.5q14 0 24.5 -10.5t10.5 -24.5t-10.5 -24.5t-24.5 -10.5q-37 0 -70 14t-57.5 38.5t-38.5 57.5t-14 70v140q0 23 -8.5 43t-23.5 35t-35 23.5t-43 8.5q-14 0 -24.5 10.5t-10.5 24.5z" />
    <glyph glyph-name="bar" unicode="|" horiz-adv-x="270" 
d="M100 675q0 14 10.5 24.5t24.5 10.5t24.5 -10.5t10.5 -24.5v-880q0 -14 -10.5 -24.5t-24.5 -10.5t-24.5 10.5t-10.5 24.5v880z" />
    <glyph glyph-name="braceright" unicode="}" horiz-adv-x="420" 
d="M395 235q0 -14 -10.5 -24.5t-27.5 -10.5q-22 0 -41.5 -9t-34 -24t-23 -35t-8.5 -42v-140q0 -37 -14 -70t-38.5 -57.5t-57.5 -38.5t-70 -14q-14 0 -24.5 10.5t-10.5 24.5t10.5 24.5t24.5 10.5q23 0 43 8.5t35 23.5t23.5 35t8.5 43v140q0 45 20.5 82.5t53.5 62.5
q-33 25 -53.5 62.5t-20.5 82.5v140q0 23 -8.5 43t-23.5 35t-35 23.5t-43 8.5q-14 0 -24.5 10.5t-10.5 24.5t10.5 24.5t24.5 10.5q37 0 70 -14t57.5 -38.5t38.5 -57.5t14 -70v-140q0 -23 8.5 -43t23.5 -35t35 -23.5t43 -8.5q14 0 24.5 -10.5t10.5 -24.5z" />
    <glyph glyph-name="asciitilde" unicode="~" horiz-adv-x="580" 
d="M323 357q20 -13 43 -16q4 -1 8 -1h8q28 0 52.5 13t40.5 37q12 15 35 15q8 0 13 -5q16 -9 16 -34q-1 -4 -2 -7t-3 -7q-26 -40 -66.5 -61t-85.5 -21q-6 0 -12 0.5t-14 1.5q-19 2 -40.5 11t-59.5 35q-20 13 -44 16q-4 1 -8 1h-8q-27 0 -51.5 -12.5t-39.5 -37.5
q-11 -15 -36 -15q-9 2 -13 5q-16 11 -16 35l2 6t3 7q26 40 66 61t85 21q7 0 13.5 -0.5t13.5 -1.5q36 -4 71 -26z" />
    <glyph glyph-name="uni007F" horiz-adv-x="300" 
 />
    <glyph glyph-name="nonbreakingspace" unicode="&#xa0;" horiz-adv-x="230" 
 />
    <glyph glyph-name="exclamdown" unicode="&#xa1;" horiz-adv-x="270" 
d="M170 -205q0 -14 -10.5 -24.5t-24.5 -10.5t-24.5 10.5t-10.5 24.5v440q0 14 10.5 24.5t24.5 10.5t24.5 -10.5t10.5 -24.5v-440zM180 425q0 -19 -13 -32t-32 -13t-32 13t-13 32t13 32t32 13t32 -13t13 -32z" />
    <glyph glyph-name="cent" unicode="&#xa2;" horiz-adv-x="460" 
d="M210 545q0 14 10.5 24.5t24.5 10.5t24.5 -10.5t10.5 -24.5v-69q35 -8 64 -29.5t51 -53.5q6 -11 6 -20q0 -14 -10.5 -24.5t-24.5 -10.5q-11 0 -19.5 6t-13.5 15q-11 15 -24.5 26.5t-28.5 17.5v-336q26 11 45.5 33.5t28.5 48.5q4 11 13 17.5t20 6.5q14 0 24.5 -10.5
t10.5 -24.5q0 -5 -1.5 -11t-4.5 -9q-21 -48 -56 -81t-80 -43v-69q0 -14 -10.5 -24.5t-24.5 -10.5t-24.5 10.5t-10.5 24.5v69q-34 7 -63.5 29t-51 54t-33.5 72.5t-12 85.5t12 85.5t33.5 72.5t51 53.5t63.5 29.5v69zM120 235q0 -60 25.5 -106t64.5 -62v336q-39 -16 -64.5 -62
t-25.5 -106z" />
    <glyph glyph-name="sterling" unicode="&#xa3;" horiz-adv-x="580" 
d="M463 624q6 -9 6 -19q0 -14 -10.5 -24.5t-24.5 -10.5q-12 0 -21.5 7t-16.5 18q-15 20 -37 32.5t-49 12.5q-23 0 -43 -8.5t-35 -23.5t-23.5 -35t-8.5 -43v-110h65q14 0 24.5 -10.5t10.5 -24.5t-10.5 -24.5t-24.5 -10.5h-65v-189q0 -10 -1 -19t-3 -17q7 0 13.5 -0.5
t13.5 -1.5q36 -4 71 -26l29 -20q20 -13 43 -16q4 -1 8 -1h8q28 0 52.5 13t40.5 37q12 15 35 15q8 0 13 -5q16 -9 16 -34q-1 -4 -2 -7t-3 -7q-26 -40 -66.5 -61t-85.5 -21q-6 0 -12 0.5t-14 1.5q-19 2 -40.5 11t-59.5 35q-20 13 -44 16q-4 1 -8 1h-8q-27 0 -51.5 -12.5
t-39.5 -37.5q-11 -15 -36 -15q-9 2 -13 5q-16 11 -16 35l2 6t3 7q19 30 50 52q2 2 3 2q14 11 23 26.5t9 34.5v192h-55q-14 0 -24.5 10.5t-10.5 24.5t10.5 24.5t24.5 10.5h55v110q0 37 14 70t38.5 57.5t57.5 38.5t70 14q49 0 89 -24t64 -62z" />
    <glyph glyph-name="currency" unicode="&#xa4;" horiz-adv-x="580" 
d="M529 50q10 -10 10 -25t-10 -24q-11 -11 -25 -11q-15 0 -24 11l-68 68q-53 -39 -122 -39t-122 39l-67 -68q-11 -11 -25 -11q-15 0 -24 11q-11 9 -11 24q0 14 11 25l67 68q-39 53 -39 122q0 34 10 65t29 57l-59 59q-11 9 -11 24q0 14 11 25q9 10 24 10t25 -10l59 -59
q26 18 56.5 28.5t65.5 10.5q34 0 65 -10.5t57 -28.5l60 59q9 10 24 10t25 -10t10 -25t-10 -24l-60 -59q18 -26 28.5 -57t10.5 -65t-10 -65t-29 -57zM150 240q0 -29 11 -54.5t30 -44.5t44.5 -30t54.5 -11t54.5 11t44.5 30t30 44.5t11 54.5t-11 54.5t-30 44.5t-44.5 30
t-54.5 11t-54.5 -11t-44.5 -30t-30 -44.5t-11 -54.5z" />
    <glyph glyph-name="yen" unicode="&#xa5;" horiz-adv-x="580" 
d="M500 200q14 0 24.5 -10.5t10.5 -24.5t-10.5 -24.5t-24.5 -10.5h-167v-105q0 -14 -10.5 -24.5t-24.5 -10.5t-24.5 10.5t-10.5 24.5v105h-183q-14 0 -24.5 10.5t-10.5 24.5t10.5 24.5t24.5 10.5h183v70h-183q-14 0 -24.5 10.5t-10.5 24.5t10.5 24.5t24.5 10.5h173l-184 318
q-4 7 -4 16t4.5 18t12.5 14q7 4 16 4t18 -4.5t14 -12.5l168 -290l167 290q5 8 14 12.5t18 4.5t16 -4q8 -5 12.5 -14t4.5 -18t-4 -16l-184 -318h158q14 0 24.5 -10.5t10.5 -24.5t-10.5 -24.5t-24.5 -10.5h-167v-70h167z" />
    <glyph glyph-name="brokenbar" unicode="&#xa6;" horiz-adv-x="270" 
d="M100 675q0 14 10.5 24.5t24.5 10.5t24.5 -10.5t10.5 -24.5v-350q0 -14 -10.5 -24.5t-24.5 -10.5t-24.5 10.5t-10.5 24.5v350zM100 145q0 14 10.5 24.5t24.5 10.5t24.5 -10.5t10.5 -24.5v-350q0 -14 -10.5 -24.5t-24.5 -10.5t-24.5 10.5t-10.5 24.5v350z" />
    <glyph glyph-name="section" unicode="&#xa7;" horiz-adv-x="490" 
d="M253 449q43 -2 81 -19t66 -46.5t44 -68t16 -81.5q0 -59 -28 -107t-75 -77q24 -20 38.5 -53.5t14.5 -66.5q0 -31 -13 -61.5t-35.5 -54.5t-52.5 -39t-64 -15q-16 0 -38 5t-43.5 12.5t-40.5 17t-30 18.5q-13 10 -13 27q0 14 10.5 24.5t24.5 10.5q11 0 22 -7q9 -6 21.5 -12.5
t28.5 -12t32 -9.5t26 -4q19 0 36.5 9.5t30.5 24t20.5 32t7.5 34.5q0 15 -6 29.5t-16 26.5t-24 21t-30 12h-19q-45 0 -84 17t-68 46t-46 68t-17 84q0 59 28 107.5t75 76.5q-25 22 -39 55t-14 67q0 31 13 61.5t35.5 54.5t52.5 39t64 15q16 0 37.5 -3t43.5 -9t41 -14t30 -17
q13 -10 13 -27q0 -14 -10.5 -24.5t-24.5 -10.5q-12 0 -22 7q-8 5 -21 10.5t-29 9t-32 6t-26 2.5q-20 0 -37 -9.5t-30 -24t-20.5 -32.5t-7.5 -34q0 -17 7.5 -33t20.5 -29t30 -21t37 -8h8zM100 234q0 -30 11.5 -56.5t31 -46t46 -31t56.5 -11.5t56.5 11.5t46 31t31 46
t11.5 56.5q0 29 -11 55t-29.5 45.5t-44 31.5t-54.5 13h-12q-29 -1 -54.5 -13t-44 -31.5t-29.5 -45.5t-11 -55z" />
    <glyph glyph-name="dieresis" unicode="&#xa8;" horiz-adv-x="490" 
d="M100 615q0 19 13 32t32 13t32 -13t13 -32t-13 -32t-32 -13t-32 13t-13 32zM300 615q0 19 13 32t32 13t32 -13t13 -32t-13 -32t-32 -13t-32 13t-13 32z" />
    <glyph glyph-name="copyright" unicode="&#xa9;" horiz-adv-x="1050" 
d="M50 235q0 99 37 185.5t101.5 151t151 102t185.5 37.5t185.5 -37.5t151 -102t102 -151t37.5 -185.5t-37.5 -185.5t-102 -151t-151 -101.5t-185.5 -37t-185.5 37t-151 101.5t-101.5 151t-37 185.5zM120 235q0 -84 32 -158t86.5 -128.5t128.5 -86.5t158 -32t158 32
t128.5 86.5t86.5 128.5t32 158t-32 158t-86.5 128.5t-128.5 86.5t-158 32t-158 -32t-128.5 -86.5t-86.5 -128.5t-32 -158zM675 393q6 -11 6 -20q0 -14 -10.5 -24.5t-24.5 -10.5q-11 0 -19.5 6t-13.5 15q-17 24 -39.5 37.5t-48.5 13.5t-48.5 -13.5t-39.5 -37.5t-27 -56
t-10 -68t10 -68t27 -56t39.5 -37.5t48.5 -13.5q19 0 36 7.5t31.5 20t25 28.5t16.5 33q4 11 13 17.5t20 6.5q14 0 24.5 -10.5t10.5 -24.5q0 -5 -1.5 -11t-4.5 -9q-25 -57 -70 -92.5t-101 -35.5q-41 0 -76.5 19t-61.5 52.5t-41.5 78t-15.5 95.5t15.5 95.5t41.5 78t61.5 52.5
t76.5 19q45 0 84 -23t66 -64z" />
    <glyph glyph-name="ordfeminine" unicode="&#xaa;" horiz-adv-x="364" 
d="M308 454l13 -14q11 -9 11 -23q0 -13 -9 -22q-6 -7 -13 -9.5t-12 -2.5q-14 0 -24 10l-24 22q-17 -15 -37.5 -23.5t-44.5 -8.5q-29 0 -55 13t-45 35.5t-30 52t-11 63.5t11 63.5t30 51.5t45 35t55 13q41 0 73 -24q4 11 13 17.5t20 6.5q14 0 24 -9.5t10 -23.5v-223zM241 547
q0 40 -21.5 68t-51.5 28q-31 0 -52 -28t-21 -68t21 -68.5t52 -28.5q30 0 51.5 28.5t21.5 68.5z" />
    <glyph glyph-name="guillemotleft" unicode="&#xab;" horiz-adv-x="550" 
d="M432 428q12 10 25 10t25 -10q10 -12 10 -25t-10 -25l-138 -138l138 -138q10 -10 10 -25t-10 -25t-25 -10t-24 10l-164 164q-10 9 -10 24t10 25zM230 428q12 10 25 10t25 -10q10 -12 10 -25t-10 -25l-138 -138l138 -138q10 -10 10 -25t-10 -25t-25 -10t-24 10l-164 164
q-10 9 -10 24t10 25z" />
    <glyph glyph-name="logicalnot" unicode="&#xac;" horiz-adv-x="580" 
d="M500 80q-14 0 -24.5 10.5t-10.5 24.5v85h-385q-14 0 -24.5 10.5t-10.5 24.5t10.5 24.5t24.5 10.5h420q14 0 24.5 -10.5t10.5 -25.5v-119q0 -14 -10.5 -24.5t-24.5 -10.5z" />
    <glyph glyph-name="uni00AD" unicode="&#xad;" horiz-adv-x="460" 
d="M366 295q14 0 24.5 -10.5t10.5 -24.5t-10.5 -24.5t-24.5 -10.5h-271q-14 0 -24.5 10.5t-10.5 24.5t10.5 24.5t24.5 10.5h271z" />
    <glyph glyph-name="registered" unicode="&#xae;" horiz-adv-x="1050" 
d="M50 235q0 99 37 185.5t101.5 151t151 102t185.5 37.5t185.5 -37.5t151 -102t102 -151t37.5 -185.5t-37.5 -185.5t-102 -151t-151 -101.5t-185.5 -37t-185.5 37t-151 101.5t-101.5 151t-37 185.5zM120 235q0 -84 32 -158t86.5 -128.5t128.5 -86.5t158 -32t158 32
t128.5 86.5t86.5 128.5t32 158t-32 158t-86.5 128.5t-128.5 86.5t-158 32t-158 -32t-128.5 -86.5t-86.5 -128.5t-32 -158zM689 336q0 -45 -22.5 -76t-60.5 -47l100 -172q5 -7 5 -17q0 -19 -17 -30q-7 -5 -17 -5q-8 0 -16.5 4.5t-13.5 13.5l-112 193h-82v-176
q0 -14 -10.5 -24.5t-24.5 -10.5t-24 10.5t-10 24.5v415q0 13 10 23.5t24 10.5h124q30 0 57 -9.5t47 -27.5t31.5 -43.5t11.5 -56.5zM542 269q32 0 55.5 17.5t23.5 49.5t-23.5 50t-55.5 18h-89v-135h89z" />
    <glyph glyph-name="macron" unicode="&#xaf;" horiz-adv-x="460" 
d="M365 640q14 0 24.5 -10.5t10.5 -24.5t-10.5 -24.5t-24.5 -10.5h-270q-14 0 -24.5 10.5t-10.5 24.5t10.5 24.5t24.5 10.5h270z" />
    <glyph glyph-name="degree" unicode="&#xb0;" horiz-adv-x="410" 
d="M30 525q0 36 13.5 68t37.5 56t56 37.5t68 13.5t68 -13.5t56 -37.5t37.5 -56t13.5 -68t-13.5 -68t-37.5 -56t-56 -37.5t-68 -13.5t-68 13.5t-56 37.5t-37.5 56t-13.5 68zM100 525q0 -22 8 -41t22.5 -33.5t33.5 -22.5t41 -8t41 8t33 22.5t22.5 33.5t8.5 41t-8.5 41
t-22.5 33t-33 22.5t-41 8.5t-41 -8.5t-33.5 -22.5t-22.5 -33t-8 -41z" />
    <glyph glyph-name="plusminus" unicode="&#xb1;" horiz-adv-x="580" 
d="M500 420q14 0 24.5 -10.5t10.5 -24.5t-10.5 -24.5t-24.5 -10.5h-175v-175q0 -14 -10.5 -24.5t-24.5 -10.5t-24.5 10.5t-10.5 24.5v175h-175q-14 0 -24.5 10.5t-10.5 24.5t10.5 24.5t24.5 10.5h175v175q0 14 10.5 24.5t24.5 10.5t24.5 -10.5t10.5 -24.5v-175h175zM500 70
q14 0 24.5 -10.5t10.5 -24.5t-10.5 -24.5t-24.5 -10.5h-420q-14 0 -24.5 10.5t-10.5 24.5t10.5 24.5t24.5 10.5h420z" />
    <glyph glyph-name="twosuperior" unicode="&#xb2;" horiz-adv-x="406" 
d="M48 564q0 29 12 54t31.5 44t46.5 29.5t57 10.5t57 -10.5t47 -29.5t31.5 -44t11.5 -54q0 -21 -7 -41t-18 -35q-14 -19 -33 -38l-36 -36q-24 -23 -53 -52.5t-49 -55.5h162q14 0 24 -9.5t10 -23.5t-9.5 -23.5t-26.5 -9.5h-221q-14 0 -24 9.5t-10 23.5q0 4 0.5 7.5t3.5 8.5
q24 45 72 98.5t111 113.5q9 9 22.5 26t13.5 37q0 30 -23 51t-56 21q-34 0 -57 -21t-23 -51q0 -13 -9.5 -23.5t-23.5 -10.5t-24 10.5t-10 23.5z" />
    <glyph glyph-name="threesuperior" unicode="&#xb3;" horiz-adv-x="406" 
d="M177 456q-14 0 -24 10t-10 23q0 14 10 24t24 10q29 0 50 16.5t21 39.5t-21 40t-51 17q-23 0 -40.5 -9.5t-25.5 -24.5q-3 -11 -11.5 -16.5t-19.5 -5.5q-14 0 -23.5 10t-9.5 23q0 9 3 15q17 32 51 53t77 21q28 0 53.5 -9.5t44 -26.5t29.5 -39.5t11 -47.5q0 -23 -9.5 -44
t-23.5 -36q32 -20 52.5 -51.5t20.5 -69.5q0 -30 -13 -56.5t-35.5 -46t-53 -31t-64.5 -11.5q-51 0 -92.5 26.5t-61.5 67.5q-4 5 -4 14q0 14 10.5 23.5t24.5 9.5q11 0 19.5 -8t13.5 -18q11 -21 35.5 -34.5t54.5 -13.5q41 0 69.5 23t28.5 55t-28.5 55t-69.5 23h-12z" />
    <glyph glyph-name="acute" unicode="&#xb4;" horiz-adv-x="220" 
d="M135 700q12 10 25 10t25 -10q10 -10 10 -25t-10 -25l-100 -100q-10 -10 -25 -10t-25 10q-10 12 -10 25t10 25z" />
    <glyph glyph-name="mu" unicode="&#xb5;" horiz-adv-x="515" 
d="M150 184q0 -52 26.5 -88t78.5 -36q26 0 46.5 10t34.5 27t21.5 40t7.5 49v259q0 14 10.5 24.5t24.5 10.5t24.5 -10.5t10.5 -24.5v-419q0 -14 -10.5 -24.5t-24.5 -10.5t-24.5 10.5t-10.5 24.5v10q-26 -21 -50 -33.5t-60 -12.5q-62 0 -105 34v-229q0 -14 -10.5 -24.5
t-24.5 -10.5t-24.5 10.5t-10.5 24.5v650q0 14 10.5 24.5t24.5 10.5t24.5 -10.5t10.5 -24.5v-261z" />
    <glyph glyph-name="paragraph" unicode="&#xb6;" horiz-adv-x="655" 
d="M50 490q0 43 16.5 81.5t45 67t66.5 45t82 16.5h260q14 0 24.5 -10.5t10.5 -24.5v-870q0 -14 -10.5 -24.5t-24.5 -10.5t-24.5 10.5t-10.5 24.5v835h-70v-835q0 -14 -10.5 -24.5t-24.5 -10.5t-24.5 10.5t-10.5 24.5v485h-85q-44 0 -82 16.5t-66.5 45t-45 66.5t-16.5 82z
M345 350v280h-85q-29 0 -54.5 -11t-44.5 -30t-30 -44.5t-11 -54.5t11 -54.5t30 -44.5t44.5 -30t54.5 -11h85z" />
    <glyph glyph-name="periodcentered" unicode="&#xb7;" horiz-adv-x="270" 
d="M90 260q0 19 13 32t32 13t32 -13t13 -32t-13 -32t-32 -13t-32 13t-13 32z" />
    <glyph glyph-name="cedilla" unicode="&#xb8;" horiz-adv-x="270" 
d="M136 -222q-11 -9 -24 -9q-14 0 -24.5 10.5t-10.5 24.5q0 11 5 17.5t11 12.5q17 15 26 35.5t9 43.5l-3 23q0 14 10.5 24.5t24.5 10.5t24 -10t12 -24q1 -6 1.5 -12t0.5 -12q0 -40 -16.5 -75t-45.5 -60z" />
    <glyph glyph-name="onesuperior" unicode="&#xb9;" horiz-adv-x="406" 
d="M210 693q10 9 25 9q11 0 24 -10q9 -11 9 -23v-402q0 -13 -9.5 -23.5t-23.5 -10.5t-24.5 10.5t-10.5 23.5v325q-14 -12 -27.5 -25t-28.5 -27q-10 -10 -23 -10q-14 0 -24 11q-10 9 -10 23q0 16 10 23q28 27 56.5 53.5t56.5 52.5z" />
    <glyph glyph-name="ordmasculine" unicode="&#xba;" horiz-adv-x="343" 
d="M27 546q0 34 11 64t30 52t45 35t55 13t54.5 -13t44.5 -35t30 -52t11 -64t-11 -63.5t-30 -51.5t-44.5 -35t-54.5 -13t-55 13t-45 35t-30 51.5t-11 63.5zM95 546q0 -40 21 -68t52 -28q30 0 51 28t21 68t-21 68.5t-51 28.5q-31 0 -52 -28.5t-21 -68.5z" />
    <glyph glyph-name="guillemotright" unicode="&#xbb;" horiz-adv-x="550" 
d="M118 52q-12 -10 -25 -10t-25 10q-10 12 -10 25t10 25l138 138l-138 138q-10 10 -10 25t10 25t25 10t24 -10l164 -164q10 -9 10 -24t-10 -25zM319 52q-12 -10 -25 -10t-25 10q-10 12 -10 25t10 25l138 138l-138 138q-10 10 -10 25t10 25t25 10t24 -10l164 -164
q10 -9 10 -24t-10 -25z" />
    <glyph glyph-name="onequarter" unicode="&#xbc;" horiz-adv-x="912" 
d="M210 693q10 9 25 9q11 0 24 -10q9 -11 9 -23v-402q0 -13 -9.5 -23.5t-23.5 -10.5t-24.5 10.5t-10.5 23.5v325q-14 -12 -27.5 -25t-28.5 -27q-10 -10 -23 -10q-14 0 -24 11q-10 9 -10 23q0 16 10 23q28 27 56.5 53.5t56.5 52.5zM679 693q11 17 31 17q9 0 17 -5t12.5 -13.5
t4.5 -17.5t-4 -16l-507 -881q-11 -17 -31 -17q-9 0 -17 5t-12.5 13.5t-4.5 17.5t4 16zM624 -53h96v104q0 14 10.5 23t24.5 9t23.5 -9t9.5 -23v-104h60q14 0 24 -9t10 -23t-10 -24t-24 -10h-60v-84q0 -13 -9.5 -23.5t-23.5 -10.5t-24.5 10.5t-10.5 23.5v84h-161q-14 0 -23 10
t-9 24q0 11 8 21l187 281q13 16 32 16q15 0 23 -10.5t8 -24.5q0 -9 -5 -16z" />
    <glyph glyph-name="onehalf" unicode="&#xbd;" horiz-adv-x="912" 
d="M210 693q10 9 25 9q11 0 24 -10q9 -11 9 -23v-402q0 -13 -9.5 -23.5t-23.5 -10.5t-24.5 10.5t-10.5 23.5v325q-14 -12 -27.5 -25t-28.5 -27q-10 -10 -23 -10q-14 0 -24 11q-10 9 -10 23q0 16 10 23q28 27 56.5 53.5t56.5 52.5zM679 693q11 17 31 17q9 0 17 -5t12.5 -13.5
t4.5 -17.5t-4 -16l-507 -881q-11 -17 -31 -17q-9 0 -17 5t-12.5 13.5t-4.5 17.5t4 16zM554 94q0 29 12 54t31.5 44t46.5 29.5t57 10.5t57 -10.5t47 -29.5t31.5 -44t11.5 -54q0 -21 -7 -41t-18 -35q-14 -19 -33 -38l-36 -36q-24 -23 -53 -52.5t-49 -55.5h162q14 0 24 -9.5
t10 -23.5t-9.5 -23.5t-26.5 -9.5h-221q-14 0 -24 9.5t-10 23.5q0 4 0.5 7.5t3.5 8.5q24 45 72 98.5t111 113.5q9 9 22.5 26t13.5 37q0 30 -23 51t-56 21q-34 0 -57 -21t-23 -51q0 -13 -9.5 -23.5t-23.5 -10.5t-24 10.5t-10 23.5z" />
    <glyph glyph-name="threequarters" unicode="&#xbe;" horiz-adv-x="912" 
d="M177 456q-14 0 -24 10t-10 23q0 14 10 24t24 10q29 0 50 16.5t21 39.5t-21 40t-51 17q-23 0 -40.5 -9.5t-25.5 -24.5q-3 -11 -11.5 -16.5t-19.5 -5.5q-14 0 -23.5 10t-9.5 23q0 9 3 15q17 32 51 53t77 21q28 0 53.5 -9.5t44 -26.5t29.5 -39.5t11 -47.5q0 -23 -9.5 -44
t-23.5 -36q32 -20 52.5 -51.5t20.5 -69.5q0 -30 -13 -56.5t-35.5 -46t-53 -31t-64.5 -11.5q-51 0 -92.5 26.5t-61.5 67.5q-4 5 -4 14q0 14 10.5 23.5t24.5 9.5q11 0 19.5 -8t13.5 -18q11 -21 35.5 -34.5t54.5 -13.5q41 0 69.5 23t28.5 55t-28.5 55t-69.5 23h-12zM679 693
q11 17 31 17q9 0 17 -5t12.5 -13.5t4.5 -17.5t-4 -16l-507 -881q-11 -17 -31 -17q-9 0 -17 5t-12.5 13.5t-4.5 17.5t4 16zM624 -53h96v104q0 14 10.5 23t24.5 9t23.5 -9t9.5 -23v-104h60q14 0 24 -9t10 -23t-10 -24t-24 -10h-60v-84q0 -13 -9.5 -23.5t-23.5 -10.5
t-24.5 10.5t-10.5 23.5v84h-161q-14 0 -23 10t-9 24q0 11 8 21l187 281q13 16 32 16q15 0 23 -10.5t8 -24.5q0 -9 -5 -16z" />
    <glyph glyph-name="questiondown" unicode="&#xbf;" 
d="M345 175q0 -20 -7.5 -37t-20.5 -30t-30.5 -20.5t-36.5 -7.5q-23 0 -43 -8.5t-35 -23.5t-23.5 -35t-8.5 -43q0 -29 11 -54.5t30 -44.5t44.5 -30t54.5 -11q36 0 65 17t51 44q6 8 12.5 13.5t18.5 5.5q14 0 24.5 -10.5t10.5 -24.5q0 -7 -2 -12t-8 -14q-28 -42 -73 -65.5
t-99 -23.5q-44 0 -82 16.5t-66.5 45t-45 66.5t-16.5 82q0 37 14 70t38.5 57.5t57.5 38.5t70 14q11 0 18 7t7 18v60q0 14 10.5 24.5t24.5 10.5t24.5 -10.5t10.5 -24.5v-60zM355 425q0 -19 -13 -32t-32 -13t-32 13t-13 32t13 32t32 13t32 -13t13 -32z" />
    <glyph glyph-name="Agrave" unicode="&#xc0;" horiz-adv-x="620" 
d="M435 230h-250l-79 -217q-4 -11 -13.5 -17t-20.5 -6q-3 0 -5.5 0.5t-5.5 1.5q-10 4 -16 13t-6 20q0 8 2 12l236 650q3 11 12.5 17t20.5 6t20 -6.5t13 -16.5l236 -650q2 -4 2 -12q0 -11 -6 -20t-16 -13q-3 -1 -5.5 -1.5t-5.5 -0.5q-11 0 -20.5 6t-13.5 17zM210 300h199
l-99 273zM355 800q10 -12 10 -25t-10 -25q-10 -10 -25 -10t-25 10l-100 100q-10 10 -10 25t10 25q12 10 25 10t25 -10z" />
    <glyph glyph-name="Aacute" unicode="&#xc1;" horiz-adv-x="620" 
d="M435 230h-250l-79 -217q-4 -11 -13.5 -17t-20.5 -6q-3 0 -5.5 0.5t-5.5 1.5q-10 4 -16 13t-6 20q0 8 2 12l236 650q3 11 12.5 17t20.5 6t20 -6.5t13 -16.5l236 -650q2 -4 2 -12q0 -11 -6 -20t-16 -13q-3 -1 -5.5 -1.5t-5.5 -0.5q-11 0 -20.5 6t-13.5 17zM210 300h199
l-99 273zM365 900q12 10 25 10t25 -10q10 -10 10 -25t-10 -25l-100 -100q-10 -10 -25 -10t-25 10q-10 12 -10 25t10 25z" />
    <glyph glyph-name="Acircumflex" unicode="&#xc2;" horiz-adv-x="620" 
d="M435 230h-250l-79 -217q-4 -11 -13.5 -17t-20.5 -6q-3 0 -5.5 0.5t-5.5 1.5q-10 4 -16 13t-6 20q0 8 2 12l236 650q3 11 12.5 17t20.5 6t20 -6.5t13 -16.5l236 -650q2 -4 2 -12q0 -11 -6 -20t-16 -13q-3 -1 -5.5 -1.5t-5.5 -0.5q-11 0 -20.5 6t-13.5 17zM210 300h199
l-99 273zM235 749q-10 -10 -25 -10t-25 10q-10 12 -10 25q0 15 10 25l100 100q11 11 25 11q16 0 27 -14l98 -97q10 -12 10 -25t-10 -25q-10 -10 -25 -10t-25 10l-75 75z" />
    <glyph glyph-name="Atilde" unicode="&#xc3;" horiz-adv-x="620" 
d="M435 230h-250l-79 -217q-4 -11 -13.5 -17t-20.5 -6q-3 0 -5.5 0.5t-5.5 1.5q-10 4 -16 13t-6 20q0 8 2 12l236 650q3 11 12.5 17t20.5 6t20 -6.5t13 -16.5l236 -650q2 -4 2 -12q0 -11 -6 -20t-16 -13q-3 -1 -5.5 -1.5t-5.5 -0.5q-11 0 -20.5 6t-13.5 17zM210 300h199
l-99 273zM180 810q13 24 36 37.5t49 13.5q23 0 43 -10l35 -18q6 -3 12 -3q13 0 22 14q9 19 31 19q6 0 16 -4q19 -10 19 -32q0 -8 -5 -18q-12 -23 -34 -36t-48 -13q-23 0 -45 11l-35 18q-6 3 -12 3q-14 0 -22 -14q-10 -19 -31 -19q-9 0 -16 4q-19 9 -19 31q0 9 4 16z" />
    <glyph glyph-name="Adieresis" unicode="&#xc4;" horiz-adv-x="620" 
d="M435 230h-250l-79 -217q-4 -11 -13.5 -17t-20.5 -6q-3 0 -5.5 0.5t-5.5 1.5q-10 4 -16 13t-6 20q0 8 2 12l236 650q3 11 12.5 17t20.5 6t20 -6.5t13 -16.5l236 -650q2 -4 2 -12q0 -11 -6 -20t-16 -13q-3 -1 -5.5 -1.5t-5.5 -0.5q-11 0 -20.5 6t-13.5 17zM210 300h199
l-99 273zM165 815q0 19 13 32t32 13t32 -13t13 -32t-13 -32t-32 -13t-32 13t-13 32zM365 815q0 19 13 32t32 13t32 -13t13 -32t-13 -32t-32 -13t-32 13t-13 32z" />
    <glyph glyph-name="Aring" unicode="&#xc5;" horiz-adv-x="620" 
d="M435 230h-250l-79 -217q-4 -11 -13.5 -17t-20.5 -6q-3 0 -5.5 0.5t-5.5 1.5q-10 4 -16 13t-6 20q0 8 2 12l236 650q3 11 12.5 17t20.5 6t20 -6.5t13 -16.5l236 -650q2 -4 2 -12q0 -11 -6 -20t-16 -13q-3 -1 -5.5 -1.5t-5.5 -0.5q-11 0 -20.5 6t-13.5 17zM210 300h199
l-99 273zM215 815q0 19 7.5 36.5t20.5 30.5t30 20.5t37 7.5q19 0 36.5 -7.5t30.5 -20.5t20.5 -30.5t7.5 -36.5q0 -20 -7.5 -37t-20.5 -30t-30.5 -20.5t-36.5 -7.5q-20 0 -37 7.5t-30 20.5t-20.5 30t-7.5 37zM265 815q0 -19 13 -32t32 -13t32 13t13 32t-13 32t-32 13t-32 -13
t-13 -32z" />
    <glyph glyph-name="AE" unicode="&#xc6;" horiz-adv-x="790" 
d="M385 0q-15 0 -25.5 10.5t-10.5 24.5v195h-150l-97 -217q-9 -23 -34 -23q-14 0 -23.5 10.5t-9.5 24.5q0 8 2 12l279 640q3 11 12.5 17t20.5 6h366q14 0 24.5 -10.5t10.5 -24.5t-10.5 -24.5t-24.5 -10.5h-295v-210h175q14 0 24.5 -10.5t10.5 -24.5t-10.5 -24.5t-24.5 -10.5
h-175v-280h295q14 0 24.5 -10.5t10.5 -24.5t-10.5 -24.5t-24.5 -10.5h-330zM231 300h118v263z" />
    <glyph glyph-name="Ccedilla" unicode="&#xc7;" horiz-adv-x="600" 
d="M549 161q-35 -77 -95 -124t-134 -47q-56 0 -105 28.5t-86 77t-58 114t-21 140.5t21 140.5t58 114t86 77t105 28.5q59 0 107.5 -29t90.5 -85q6 -9 10.5 -15.5t4.5 -15.5q0 -15 -10.5 -25t-25.5 -10q-21 0 -33 22q-28 41 -65 64.5t-79 23.5q-41 0 -77.5 -22.5t-63.5 -61.5
t-43 -91.5t-16 -112.5t16 -113t43 -92.5t63.5 -63t77.5 -23.5q51 0 94.5 36t70.5 94q10 20 32 20q14 0 24.5 -10.5t10.5 -24.5q0 -8 -3 -14zM295 -231q-11 -9 -24 -9q-14 0 -24.5 10.5t-10.5 24.5q0 11 5 17.5t11 12.5q17 15 26 35.5t9 43.5l-3 23q0 14 10.5 24.5t24.5 10.5
t24 -10t12 -24q1 -6 1.5 -12t0.5 -12q0 -40 -16.5 -75t-45.5 -60z" />
    <glyph glyph-name="Egrave" unicode="&#xc8;" 
d="M126 0q-15 0 -25.5 10.5t-10.5 24.5v630q0 14 10.5 24.5t24.5 10.5h330q14 0 24.5 -10.5t10.5 -24.5t-10.5 -24.5t-24.5 -10.5h-295v-210h175q14 0 24.5 -10.5t10.5 -24.5t-10.5 -24.5t-24.5 -10.5h-175v-280h295q14 0 24.5 -10.5t10.5 -24.5t-10.5 -24.5t-24.5 -10.5
h-329zM335 800q10 -12 10 -25t-10 -25q-10 -10 -25 -10t-25 10l-100 100q-10 10 -10 25t10 25q12 10 25 10t25 -10z" />
    <glyph glyph-name="Eacute" unicode="&#xc9;" 
d="M126 0q-15 0 -25.5 10.5t-10.5 24.5v630q0 14 10.5 24.5t24.5 10.5h330q14 0 24.5 -10.5t10.5 -24.5t-10.5 -24.5t-24.5 -10.5h-295v-210h175q14 0 24.5 -10.5t10.5 -24.5t-10.5 -24.5t-24.5 -10.5h-175v-280h295q14 0 24.5 -10.5t10.5 -24.5t-10.5 -24.5t-24.5 -10.5
h-329zM345 900q12 10 25 10t25 -10q10 -10 10 -25t-10 -25l-100 -100q-10 -10 -25 -10t-25 10q-10 12 -10 25t10 25z" />
    <glyph glyph-name="Ecircumflex" unicode="&#xca;" 
d="M126 0q-15 0 -25.5 10.5t-10.5 24.5v630q0 14 10.5 24.5t24.5 10.5h330q14 0 24.5 -10.5t10.5 -24.5t-10.5 -24.5t-24.5 -10.5h-295v-210h175q14 0 24.5 -10.5t10.5 -24.5t-10.5 -24.5t-24.5 -10.5h-175v-280h295q14 0 24.5 -10.5t10.5 -24.5t-10.5 -24.5t-24.5 -10.5
h-329zM215 749q-10 -10 -25 -10t-25 10q-10 12 -10 25q0 15 10 25l100 100q11 11 25 11q16 0 27 -14l98 -97q10 -12 10 -25t-10 -25q-10 -10 -25 -10t-25 10l-75 75z" />
    <glyph glyph-name="Edieresis" unicode="&#xcb;" 
d="M126 0q-15 0 -25.5 10.5t-10.5 24.5v630q0 14 10.5 24.5t24.5 10.5h330q14 0 24.5 -10.5t10.5 -24.5t-10.5 -24.5t-24.5 -10.5h-295v-210h175q14 0 24.5 -10.5t10.5 -24.5t-10.5 -24.5t-24.5 -10.5h-175v-280h295q14 0 24.5 -10.5t10.5 -24.5t-10.5 -24.5t-24.5 -10.5
h-329zM145 815q0 19 13 32t32 13t32 -13t13 -32t-13 -32t-32 -13t-32 13t-13 32zM345 815q0 19 13 32t32 13t32 -13t13 -32t-13 -32t-32 -13t-32 13t-13 32z" />
    <glyph glyph-name="Igrave" unicode="&#xcc;" horiz-adv-x="250" 
d="M90 675q0 14 10.5 24.5t24.5 10.5t24.5 -10.5t10.5 -24.5v-650q0 -14 -10.5 -24.5t-24.5 -10.5t-24.5 10.5t-10.5 24.5v650zM171 800q10 -12 10 -25t-10 -25q-10 -10 -25 -10t-25 10l-100 100q-10 10 -10 25t10 25q12 10 25 10t25 -10z" />
    <glyph glyph-name="Iacute" unicode="&#xcd;" horiz-adv-x="250" 
d="M90 675q0 14 10.5 24.5t24.5 10.5t24.5 -10.5t10.5 -24.5v-650q0 -14 -10.5 -24.5t-24.5 -10.5t-24.5 10.5t-10.5 24.5v650zM180 900q12 10 25 10t25 -10q10 -10 10 -25t-10 -25l-100 -100q-10 -10 -25 -10t-25 10q-10 12 -10 25t10 25z" />
    <glyph glyph-name="Icircumflex" unicode="&#xce;" horiz-adv-x="250" 
d="M90 675q0 14 10.5 24.5t24.5 10.5t24.5 -10.5t10.5 -24.5v-650q0 -14 -10.5 -24.5t-24.5 -10.5t-24.5 10.5t-10.5 24.5v650zM51 749q-10 -10 -25 -10t-25 10q-10 12 -10 25q0 15 10 25l100 100q11 11 25 11q16 0 27 -14l98 -97q10 -12 10 -25t-10 -25q-10 -10 -25 -10
t-25 10l-75 75z" />
    <glyph glyph-name="Idieresis" unicode="&#xcf;" horiz-adv-x="250" 
d="M90 675q0 14 10.5 24.5t24.5 10.5t24.5 -10.5t10.5 -24.5v-650q0 -14 -10.5 -24.5t-24.5 -10.5t-24.5 10.5t-10.5 24.5v650zM-19 815q0 19 13 32t32 13t32 -13t13 -32t-13 -32t-32 -13t-32 13t-13 32zM181 815q0 19 13 32t32 13t32 -13t13 -32t-13 -32t-32 -13t-32 13
t-13 32z" />
    <glyph glyph-name="Eth" unicode="&#xd0;" horiz-adv-x="660" 
d="M125 0q-14 0 -24.5 10.5t-10.5 24.5v280h-45q-14 0 -24.5 10.5t-10.5 24.5t10.5 24.5t24.5 10.5h45v280q0 14 10.5 24.5t24.5 10.5h219q55 0 103.5 -28t84.5 -75.5t57 -111t21 -135.5t-21 -135.5t-57 -111t-84.5 -75.5t-103.5 -28h-219zM235 385q14 0 24.5 -10.5
t10.5 -24.5t-10.5 -24.5t-24.5 -10.5h-75v-245h183q40 0 76 22t63 60t42.5 89t15.5 109q0 57 -15.5 108t-42.5 89.5t-63 60.5t-76 22h-183v-245h75z" />
    <glyph glyph-name="Ntilde" unicode="&#xd1;" horiz-adv-x="650" 
d="M525 -10q-9 0 -18 4.5t-14 12.5l-333 546v-528q0 -14 -10.5 -24.5t-24.5 -10.5t-24.5 10.5t-10.5 24.5v650q0 14 10.5 24.5t24.5 10.5q11 0 19 -5.5t13 -11.5l333 -546v528q0 14 10.5 24.5t24.5 10.5t24.5 -10.5t10.5 -24.5v-650q0 -15 -10.5 -24.5t-24.5 -10.5zM200 810
q13 24 36 37.5t49 13.5q23 0 43 -10l35 -18q6 -3 12 -3q13 0 22 14q9 19 31 19q6 0 16 -4q19 -10 19 -32q0 -8 -5 -18q-12 -23 -34 -36t-48 -13q-23 0 -45 11l-35 18q-6 3 -12 3q-14 0 -22 -14q-10 -19 -31 -19q-9 0 -16 4q-19 9 -19 31q0 9 4 16z" />
    <glyph glyph-name="Ograve" unicode="&#xd2;" horiz-adv-x="640" 
d="M50 350q0 75 21 140.5t58 114t86 77t105 28.5t105 -28.5t86 -77t58 -114t21 -140.5t-21 -140.5t-58 -114t-86 -77t-105 -28.5t-105 28.5t-86 77t-58 114t-21 140.5zM120 352q0 -60 16 -113t43 -92.5t63.5 -63t77.5 -23.5t77.5 23.5t63.5 63t43 92.5t16 113t-16 112.5
t-43 91.5t-63.5 61.5t-77.5 22.5t-77.5 -22.5t-63.5 -61.5t-43 -91.5t-16 -112.5zM365 800q10 -12 10 -25t-10 -25q-10 -10 -25 -10t-25 10l-100 100q-10 10 -10 25t10 25q12 10 25 10t25 -10z" />
    <glyph glyph-name="Oacute" unicode="&#xd3;" horiz-adv-x="640" 
d="M50 350q0 75 21 140.5t58 114t86 77t105 28.5t105 -28.5t86 -77t58 -114t21 -140.5t-21 -140.5t-58 -114t-86 -77t-105 -28.5t-105 28.5t-86 77t-58 114t-21 140.5zM120 352q0 -60 16 -113t43 -92.5t63.5 -63t77.5 -23.5t77.5 23.5t63.5 63t43 92.5t16 113t-16 112.5
t-43 91.5t-63.5 61.5t-77.5 22.5t-77.5 -22.5t-63.5 -61.5t-43 -91.5t-16 -112.5zM375 900q12 10 25 10t25 -10q10 -10 10 -25t-10 -25l-100 -100q-10 -10 -25 -10t-25 10q-10 12 -10 25t10 25z" />
    <glyph glyph-name="Ocircumflex" unicode="&#xd4;" horiz-adv-x="640" 
d="M50 350q0 75 21 140.5t58 114t86 77t105 28.5t105 -28.5t86 -77t58 -114t21 -140.5t-21 -140.5t-58 -114t-86 -77t-105 -28.5t-105 28.5t-86 77t-58 114t-21 140.5zM120 352q0 -60 16 -113t43 -92.5t63.5 -63t77.5 -23.5t77.5 23.5t63.5 63t43 92.5t16 113t-16 112.5
t-43 91.5t-63.5 61.5t-77.5 22.5t-77.5 -22.5t-63.5 -61.5t-43 -91.5t-16 -112.5zM245 749q-10 -10 -25 -10t-25 10q-10 12 -10 25q0 15 10 25l100 100q11 11 25 11q16 0 27 -14l98 -97q10 -12 10 -25t-10 -25q-10 -10 -25 -10t-25 10l-75 75z" />
    <glyph glyph-name="Otilde" unicode="&#xd5;" horiz-adv-x="640" 
d="M50 350q0 75 21 140.5t58 114t86 77t105 28.5t105 -28.5t86 -77t58 -114t21 -140.5t-21 -140.5t-58 -114t-86 -77t-105 -28.5t-105 28.5t-86 77t-58 114t-21 140.5zM120 352q0 -60 16 -113t43 -92.5t63.5 -63t77.5 -23.5t77.5 23.5t63.5 63t43 92.5t16 113t-16 112.5
t-43 91.5t-63.5 61.5t-77.5 22.5t-77.5 -22.5t-63.5 -61.5t-43 -91.5t-16 -112.5zM190 810q13 24 36 37.5t49 13.5q23 0 43 -10l35 -18q6 -3 12 -3q13 0 22 14q9 19 31 19q6 0 16 -4q19 -10 19 -32q0 -8 -5 -18q-12 -23 -34 -36t-48 -13q-23 0 -45 11l-35 18q-6 3 -12 3
q-14 0 -22 -14q-10 -19 -31 -19q-9 0 -16 4q-19 9 -19 31q0 9 4 16z" />
    <glyph glyph-name="Odieresis" unicode="&#xd6;" horiz-adv-x="640" 
d="M50 350q0 75 21 140.5t58 114t86 77t105 28.5t105 -28.5t86 -77t58 -114t21 -140.5t-21 -140.5t-58 -114t-86 -77t-105 -28.5t-105 28.5t-86 77t-58 114t-21 140.5zM120 352q0 -60 16 -113t43 -92.5t63.5 -63t77.5 -23.5t77.5 23.5t63.5 63t43 92.5t16 113t-16 112.5
t-43 91.5t-63.5 61.5t-77.5 22.5t-77.5 -22.5t-63.5 -61.5t-43 -91.5t-16 -112.5zM175 815q0 19 13 32t32 13t32 -13t13 -32t-13 -32t-32 -13t-32 13t-13 32zM375 815q0 19 13 32t32 13t32 -13t13 -32t-13 -32t-32 -13t-32 13t-13 32z" />
    <glyph glyph-name="multiply" unicode="&#xd7;" horiz-adv-x="580" 
d="M463 111q10 -10 10 -25t-10 -24q-11 -11 -25 -11q-15 0 -24 11l-124 124l-124 -124q-11 -11 -25 -11q-15 0 -24 11q-11 9 -11 24q0 14 11 25l124 124l-124 124q-11 9 -11 24q0 14 11 25q9 10 24 10t25 -10l124 -124l124 124q9 10 24 10t25 -10t10 -25t-10 -24l-124 -124z
" />
    <glyph glyph-name="Oslash" unicode="&#xd8;" horiz-adv-x="640" 
d="M50 25q0 8 4 13l58 81q-29 48 -45.5 106.5t-16.5 124.5q0 75 21 140.5t58 114t86 77t105 28.5q46 0 87.5 -19.5t76.5 -54.5l41 57q10 17 30 17q14 0 24.5 -10.5t10.5 -24.5q0 -12 -6 -19l-56 -78q29 -47 45.5 -104.5t16.5 -123.5q0 -75 -21 -140.5t-58 -114t-86 -77
t-105 -28.5q-47 0 -88 19.5t-76 54.5l-46 -64q-10 -10 -25 -10q-14 0 -24.5 10.5t-10.5 24.5zM120 352q0 -48 10 -91t27 -79l286 397q-26 29 -57 45t-66 16q-41 0 -77.5 -22.5t-63.5 -61.5t-43 -91.5t-16 -112.5zM520 352q0 46 -9.5 88t-26.5 77l-286 -396q26 -29 56.5 -45
t65.5 -16q41 0 77.5 23.5t63.5 63t43 92.5t16 113z" />
    <glyph glyph-name="Ugrave" unicode="&#xd9;" horiz-adv-x="650" 
d="M160 225q0 -34 13 -64t35.5 -52.5t52.5 -35.5t64 -13t64 13t52.5 35.5t35.5 52.5t13 64v450q0 14 10.5 24.5t24.5 10.5t24.5 -10.5t10.5 -24.5v-450q0 -49 -18.5 -91.5t-50.5 -74.5t-74.5 -50.5t-91.5 -18.5t-91.5 18.5t-74.5 50.5t-50.5 74.5t-18.5 91.5v450
q0 14 10.5 24.5t24.5 10.5t24.5 -10.5t10.5 -24.5v-450zM370 800q10 -12 10 -25t-10 -25q-10 -10 -25 -10t-25 10l-100 100q-10 10 -10 25t10 25q12 10 25 10t25 -10z" />
    <glyph glyph-name="Uacute" unicode="&#xda;" horiz-adv-x="650" 
d="M160 225q0 -34 13 -64t35.5 -52.5t52.5 -35.5t64 -13t64 13t52.5 35.5t35.5 52.5t13 64v450q0 14 10.5 24.5t24.5 10.5t24.5 -10.5t10.5 -24.5v-450q0 -49 -18.5 -91.5t-50.5 -74.5t-74.5 -50.5t-91.5 -18.5t-91.5 18.5t-74.5 50.5t-50.5 74.5t-18.5 91.5v450
q0 14 10.5 24.5t24.5 10.5t24.5 -10.5t10.5 -24.5v-450zM380 900q12 10 25 10t25 -10q10 -10 10 -25t-10 -25l-100 -100q-10 -10 -25 -10t-25 10q-10 12 -10 25t10 25z" />
    <glyph glyph-name="Ucircumflex" unicode="&#xdb;" horiz-adv-x="650" 
d="M160 225q0 -34 13 -64t35.5 -52.5t52.5 -35.5t64 -13t64 13t52.5 35.5t35.5 52.5t13 64v450q0 14 10.5 24.5t24.5 10.5t24.5 -10.5t10.5 -24.5v-450q0 -49 -18.5 -91.5t-50.5 -74.5t-74.5 -50.5t-91.5 -18.5t-91.5 18.5t-74.5 50.5t-50.5 74.5t-18.5 91.5v450
q0 14 10.5 24.5t24.5 10.5t24.5 -10.5t10.5 -24.5v-450zM250 749q-10 -10 -25 -10t-25 10q-10 12 -10 25q0 15 10 25l100 100q11 11 25 11q16 0 27 -14l98 -97q10 -12 10 -25t-10 -25q-10 -10 -25 -10t-25 10l-75 75z" />
    <glyph glyph-name="Udieresis" unicode="&#xdc;" horiz-adv-x="650" 
d="M160 225q0 -34 13 -64t35.5 -52.5t52.5 -35.5t64 -13t64 13t52.5 35.5t35.5 52.5t13 64v450q0 14 10.5 24.5t24.5 10.5t24.5 -10.5t10.5 -24.5v-450q0 -49 -18.5 -91.5t-50.5 -74.5t-74.5 -50.5t-91.5 -18.5t-91.5 18.5t-74.5 50.5t-50.5 74.5t-18.5 91.5v450
q0 14 10.5 24.5t24.5 10.5t24.5 -10.5t10.5 -24.5v-450zM180 815q0 19 13 32t32 13t32 -13t13 -32t-13 -32t-32 -13t-32 13t-13 32zM380 815q0 19 13 32t32 13t32 -13t13 -32t-13 -32t-32 -13t-32 13t-13 32z" />
    <glyph glyph-name="Yacute" unicode="&#xdd;" horiz-adv-x="545" 
d="M308 324v-299q0 -14 -10.5 -24.5t-24.5 -10.5t-24.5 10.5t-10.5 24.5v298l-194 335q-4 7 -4 16t4.5 18t12.5 14q7 4 16 4t18 -4.5t14 -12.5l168 -290l167 290q5 8 14 12.5t18 4.5t16 -4q8 -5 12.5 -14t4.5 -18t-4 -16zM328 900q12 10 25 10t25 -10q10 -10 10 -25t-10 -25
l-100 -100q-10 -10 -25 -10t-25 10q-10 12 -10 25t10 25z" />
    <glyph glyph-name="Thorn" unicode="&#xde;" horiz-adv-x="575" 
d="M90 675q0 14 10.5 24.5t24.5 10.5t24.5 -10.5t10.5 -24.5v-105h155q43 0 81.5 -16.5t67 -45t45 -67t16.5 -81.5q0 -44 -16.5 -82t-45 -66.5t-67 -45t-81.5 -16.5h-155v-125q0 -14 -10.5 -24.5t-24.5 -10.5t-24.5 10.5t-10.5 24.5v650zM315 220q29 0 54.5 11t44.5 30
t30 44.5t11 54.5t-11 54.5t-30 44.5t-44.5 30t-54.5 11h-155v-280h155z" />
    <glyph glyph-name="germandbls" unicode="&#xdf;" horiz-adv-x="520" 
d="M230 395q0 14 10.5 24.5t24.5 10.5q21 0 39 8.5t31.5 23t21.5 33.5t8 40q0 32 -19 59.5t-50 38.5q-14 5 -32 7h-4q-23 0 -42.5 -8.5t-34.5 -23.5t-23.5 -35t-8.5 -43v-505q0 -14 -10.5 -24.5t-24.5 -10.5t-24.5 10.5t-11.5 24.5v505q0 37 14 70t38.5 57.5t57.5 38.5
t70 14h5q36 0 67 -14.5t54 -38.5t36 -55.5t13 -66.5q0 -42 -17.5 -77.5t-47.5 -59.5q45 -28 72.5 -77t27.5 -106q0 -44 -16.5 -84.5t-44.5 -71.5t-66.5 -50t-81.5 -19h-20q-14 0 -24.5 10.5t-10.5 24.5t10.5 24.5t24.5 10.5h20q29 0 54.5 13.5t44 35t29.5 49.5t11 57
q0 28 -10.5 54t-28.5 46.5t-43 32.5t-53 12q-14 0 -24.5 10.5t-10.5 24.5z" />
    <glyph glyph-name="agrave" unicode="&#xe0;" 
d="M378 61q-3 -7 -11 -17q-25 -25 -56 -39.5t-66 -14.5q-41 0 -76.5 19.5t-61.5 52.5t-41.5 77.5t-15.5 95.5t15.5 95.5t41.5 77.5t61.5 52.5t76.5 19.5q36 0 67.5 -15t57.5 -42v22q0 14 10.5 24.5t24.5 10.5t24.5 -10.5t10.5 -24.5v-338q0 -14 9.5 -29.5t17.5 -22.5
q6 -6 11 -12.5t5 -17.5q0 -14 -10.5 -24.5t-24.5 -10.5t-24 9q-14 12 -25.5 27t-19.5 32zM370 235q0 36 -10 68t-27 56t-39.5 37.5t-48.5 13.5t-48.5 -13.5t-39.5 -37.5t-27 -56t-10 -68t10 -68t27 -56t39.5 -37.5t48.5 -13.5t48.5 13.5t39.5 37.5t27 56t10 68zM335 600
q10 -12 10 -25t-10 -25q-10 -10 -25 -10t-25 10l-100 100q-10 10 -10 25t10 25q12 10 25 10t25 -10z" />
    <glyph glyph-name="aacute" unicode="&#xe1;" 
d="M378 61q-3 -7 -11 -17q-25 -25 -56 -39.5t-66 -14.5q-41 0 -76.5 19.5t-61.5 52.5t-41.5 77.5t-15.5 95.5t15.5 95.5t41.5 77.5t61.5 52.5t76.5 19.5q36 0 67.5 -15t57.5 -42v22q0 14 10.5 24.5t24.5 10.5t24.5 -10.5t10.5 -24.5v-338q0 -14 9.5 -29.5t17.5 -22.5
q6 -6 11 -12.5t5 -17.5q0 -14 -10.5 -24.5t-24.5 -10.5t-24 9q-14 12 -25.5 27t-19.5 32zM370 235q0 36 -10 68t-27 56t-39.5 37.5t-48.5 13.5t-48.5 -13.5t-39.5 -37.5t-27 -56t-10 -68t10 -68t27 -56t39.5 -37.5t48.5 -13.5t48.5 13.5t39.5 37.5t27 56t10 68zM285 700
q12 10 25 10t25 -10q10 -10 10 -25t-10 -25l-100 -100q-10 -10 -25 -10t-25 10q-10 12 -10 25t10 25z" />
    <glyph glyph-name="acircumflex" unicode="&#xe2;" 
d="M378 61q-3 -7 -11 -17q-25 -25 -56 -39.5t-66 -14.5q-41 0 -76.5 19.5t-61.5 52.5t-41.5 77.5t-15.5 95.5t15.5 95.5t41.5 77.5t61.5 52.5t76.5 19.5q36 0 67.5 -15t57.5 -42v22q0 14 10.5 24.5t24.5 10.5t24.5 -10.5t10.5 -24.5v-338q0 -14 9.5 -29.5t17.5 -22.5
q6 -6 11 -12.5t5 -17.5q0 -14 -10.5 -24.5t-24.5 -10.5t-24 9q-14 12 -25.5 27t-19.5 32zM370 235q0 36 -10 68t-27 56t-39.5 37.5t-48.5 13.5t-48.5 -13.5t-39.5 -37.5t-27 -56t-10 -68t10 -68t27 -56t39.5 -37.5t48.5 -13.5t48.5 13.5t39.5 37.5t27 56t10 68zM185 549
q-10 -10 -25 -10t-25 10q-10 12 -10 25q0 15 10 25l100 100q11 11 25 11q16 0 27 -14l98 -97q10 -12 10 -25t-10 -25q-10 -10 -25 -10t-25 10l-75 75z" />
    <glyph glyph-name="atilde" unicode="&#xe3;" 
d="M378 61q-3 -7 -11 -17q-25 -25 -56 -39.5t-66 -14.5q-41 0 -76.5 19.5t-61.5 52.5t-41.5 77.5t-15.5 95.5t15.5 95.5t41.5 77.5t61.5 52.5t76.5 19.5q36 0 67.5 -15t57.5 -42v22q0 14 10.5 24.5t24.5 10.5t24.5 -10.5t10.5 -24.5v-338q0 -14 9.5 -29.5t17.5 -22.5
q6 -6 11 -12.5t5 -17.5q0 -14 -10.5 -24.5t-24.5 -10.5t-24 9q-14 12 -25.5 27t-19.5 32zM370 235q0 36 -10 68t-27 56t-39.5 37.5t-48.5 13.5t-48.5 -13.5t-39.5 -37.5t-27 -56t-10 -68t10 -68t27 -56t39.5 -37.5t48.5 -13.5t48.5 13.5t39.5 37.5t27 56t10 68zM130 610
q13 24 36 37.5t49 13.5q23 0 43 -10l35 -18q6 -3 12 -3q13 0 22 14q9 19 31 19q6 0 16 -4q19 -10 19 -32q0 -8 -5 -18q-12 -23 -34 -36t-48 -13q-23 0 -45 11l-35 18q-6 3 -12 3q-14 0 -22 -14q-10 -19 -31 -19q-9 0 -16 4q-19 9 -19 31q0 9 4 16z" />
    <glyph glyph-name="adieresis" unicode="&#xe4;" 
d="M378 61q-3 -7 -11 -17q-25 -25 -56 -39.5t-66 -14.5q-41 0 -76.5 19.5t-61.5 52.5t-41.5 77.5t-15.5 95.5t15.5 95.5t41.5 77.5t61.5 52.5t76.5 19.5q36 0 67.5 -15t57.5 -42v22q0 14 10.5 24.5t24.5 10.5t24.5 -10.5t10.5 -24.5v-338q0 -14 9.5 -29.5t17.5 -22.5
q6 -6 11 -12.5t5 -17.5q0 -14 -10.5 -24.5t-24.5 -10.5t-24 9q-14 12 -25.5 27t-19.5 32zM370 235q0 36 -10 68t-27 56t-39.5 37.5t-48.5 13.5t-48.5 -13.5t-39.5 -37.5t-27 -56t-10 -68t10 -68t27 -56t39.5 -37.5t48.5 -13.5t48.5 13.5t39.5 37.5t27 56t10 68zM115 615
q0 19 13 32t32 13t32 -13t13 -32t-13 -32t-32 -13t-32 13t-13 32zM315 615q0 19 13 32t32 13t32 -13t13 -32t-13 -32t-32 -13t-32 13t-13 32z" />
    <glyph glyph-name="aring" unicode="&#xe5;" 
d="M378 61q-3 -7 -11 -17q-25 -25 -56 -39.5t-66 -14.5q-41 0 -76.5 19.5t-61.5 52.5t-41.5 77.5t-15.5 95.5t15.5 95.5t41.5 77.5t61.5 52.5t76.5 19.5q36 0 67.5 -15t57.5 -42v22q0 14 10.5 24.5t24.5 10.5t24.5 -10.5t10.5 -24.5v-338q0 -14 9.5 -29.5t17.5 -22.5
q6 -6 11 -12.5t5 -17.5q0 -14 -10.5 -24.5t-24.5 -10.5t-24 9q-14 12 -25.5 27t-19.5 32zM370 235q0 36 -10 68t-27 56t-39.5 37.5t-48.5 13.5t-48.5 -13.5t-39.5 -37.5t-27 -56t-10 -68t10 -68t27 -56t39.5 -37.5t48.5 -13.5t48.5 13.5t39.5 37.5t27 56t10 68zM165 615
q0 19 7.5 36.5t20.5 30.5t30 20.5t37 7.5q19 0 36.5 -7.5t30.5 -20.5t20.5 -30.5t7.5 -36.5q0 -20 -7.5 -37t-20.5 -30t-30.5 -20.5t-36.5 -7.5q-20 0 -37 7.5t-30 20.5t-20.5 30t-7.5 37zM215 615q0 -19 13 -32t32 -13t32 13t13 32t-13 32t-32 13t-32 -13t-13 -32z" />
    <glyph glyph-name="ae" unicode="&#xe6;" horiz-adv-x="750" 
d="M679 98q-25 -46 -65.5 -74.5t-97.5 -33.5q-40 0 -74.5 18t-60.5 50q-50 -59 -136 -68q-41 0 -76.5 19t-61.5 52.5t-41.5 78t-15.5 95.5t20.5 95.5t54.5 78t77 52.5t88 19h226q37 0 68.5 -16t55.5 -44.5t39.5 -68t20.5 -86.5q-1 -14 -11.5 -24.5t-25.5 -10.5h-272
q1 -36 11 -67t27 -54t39 -36t48 -13q35 0 62.5 23t41.5 53q10 19 31 19q14 0 24.5 -10.5t10.5 -24.5q0 -10 -4 -17zM321 235q0 52 15.5 96.5t42.5 78.5h-89q-30 0 -60.5 -13.5t-54.5 -37.5t-39.5 -56t-15.5 -68q0 -34 9 -65.5t25.5 -56t39.5 -39t51 -14.5q32 0 56.5 18.5
t40.5 44.5q-21 49 -21 112zM516 411q-2 0 -4 -0.5t-8 -0.5q-36 -5 -63.5 -35t-40.5 -75h223q-14 49 -41 80t-66 31z" />
    <glyph glyph-name="ccedilla" unicode="&#xe7;" horiz-adv-x="450" 
d="M408 98q-25 -46 -66 -74.5t-97 -33.5q-41 0 -76.5 19t-61.5 52.5t-41.5 78t-15.5 95.5t15.5 95.5t41.5 78t61.5 52.5t76.5 19q45 0 84 -23t66 -64q6 -11 6 -20q0 -14 -10.5 -24.5t-24.5 -10.5q-11 0 -19.5 6t-13.5 15q-17 24 -39.5 37.5t-48.5 13.5t-48.5 -13.5
t-39.5 -37.5t-27 -56t-10 -68q0 -34 9 -65.5t25.5 -56t39.5 -39t51 -14.5q35 0 62.5 23t41.5 53q10 19 31 19q14 0 24.5 -10.5t10.5 -24.5q0 -10 -4 -17zM221 -222q-11 -9 -24 -9q-14 0 -24.5 10.5t-10.5 24.5q0 11 5 17.5t11 12.5q17 15 26 35.5t9 43.5l-3 23
q0 14 10.5 24.5t24.5 10.5t24 -10t12 -24q1 -6 1.5 -12t0.5 -12q0 -40 -16.5 -75t-45.5 -60z" />
    <glyph glyph-name="egrave" unicode="&#xe8;" horiz-adv-x="480" 
d="M408 98q-25 -46 -66 -74.5t-97 -33.5q-41 0 -76.5 19t-61.5 52.5t-41.5 78t-15.5 95.5t15.5 95.5t41.5 78t61.5 52.5t76.5 19q37 0 68.5 -16t55.5 -44.5t39.5 -68t20.5 -86.5q-1 -14 -11.5 -24.5t-25.5 -10.5h-272q1 -36 11 -67t27 -54t39 -36t48 -13q35 0 62.5 23
t41.5 53q10 19 31 19q14 0 24.5 -10.5t10.5 -24.5q0 -10 -4 -17zM245 411q-40 0 -71 -31t-45 -80h223q-14 49 -41 80t-66 31zM290 600q10 -12 10 -25t-10 -25q-10 -10 -25 -10t-25 10l-100 100q-10 10 -10 25t10 25q12 10 25 10t25 -10z" />
    <glyph glyph-name="eacute" unicode="&#xe9;" horiz-adv-x="480" 
d="M408 98q-25 -46 -66 -74.5t-97 -33.5q-41 0 -76.5 19t-61.5 52.5t-41.5 78t-15.5 95.5t15.5 95.5t41.5 78t61.5 52.5t76.5 19q37 0 68.5 -16t55.5 -44.5t39.5 -68t20.5 -86.5q-1 -14 -11.5 -24.5t-25.5 -10.5h-272q1 -36 11 -67t27 -54t39 -36t48 -13q35 0 62.5 23
t41.5 53q10 19 31 19q14 0 24.5 -10.5t10.5 -24.5q0 -10 -4 -17zM245 411q-40 0 -71 -31t-45 -80h223q-14 49 -41 80t-66 31zM300 700q12 10 25 10t25 -10q10 -10 10 -25t-10 -25l-100 -100q-10 -10 -25 -10t-25 10q-10 12 -10 25t10 25z" />
    <glyph glyph-name="ecircumflex" unicode="&#xea;" horiz-adv-x="480" 
d="M408 98q-25 -46 -66 -74.5t-97 -33.5q-41 0 -76.5 19t-61.5 52.5t-41.5 78t-15.5 95.5t15.5 95.5t41.5 78t61.5 52.5t76.5 19q37 0 68.5 -16t55.5 -44.5t39.5 -68t20.5 -86.5q-1 -14 -11.5 -24.5t-25.5 -10.5h-272q1 -36 11 -67t27 -54t39 -36t48 -13q35 0 62.5 23
t41.5 53q10 19 31 19q14 0 24.5 -10.5t10.5 -24.5q0 -10 -4 -17zM245 411q-40 0 -71 -31t-45 -80h223q-14 49 -41 80t-66 31zM170 549q-10 -10 -25 -10t-25 10q-10 12 -10 25q0 15 10 25l100 100q11 11 25 11q16 0 27 -14l98 -97q10 -12 10 -25t-10 -25q-10 -10 -25 -10
t-25 10l-75 75z" />
    <glyph glyph-name="edieresis" unicode="&#xeb;" horiz-adv-x="480" 
d="M408 98q-25 -46 -66 -74.5t-97 -33.5q-41 0 -76.5 19t-61.5 52.5t-41.5 78t-15.5 95.5t15.5 95.5t41.5 78t61.5 52.5t76.5 19q37 0 68.5 -16t55.5 -44.5t39.5 -68t20.5 -86.5q-1 -14 -11.5 -24.5t-25.5 -10.5h-272q1 -36 11 -67t27 -54t39 -36t48 -13q35 0 62.5 23
t41.5 53q10 19 31 19q14 0 24.5 -10.5t10.5 -24.5q0 -10 -4 -17zM245 411q-40 0 -71 -31t-45 -80h223q-14 49 -41 80t-66 31zM100 615q0 19 13 32t32 13t32 -13t13 -32t-13 -32t-32 -13t-32 13t-13 32zM300 615q0 19 13 32t32 13t32 -13t13 -32t-13 -32t-32 -13t-32 13
t-13 32z" />
    <glyph glyph-name="igrave" unicode="&#xec;" horiz-adv-x="230" 
d="M80 445q0 14 10.5 24.5t24.5 10.5t24.5 -10.5t10.5 -24.5v-420q0 -14 -10.5 -24.5t-24.5 -10.5t-24.5 10.5t-10.5 24.5v420zM161 600q10 -12 10 -25t-10 -25q-10 -10 -25 -10t-25 10l-100 100q-10 10 -10 25t10 25q12 10 25 10t25 -10z" />
    <glyph glyph-name="iacute" unicode="&#xed;" horiz-adv-x="230" 
d="M80 445q0 14 10.5 24.5t24.5 10.5t24.5 -10.5t10.5 -24.5v-420q0 -14 -10.5 -24.5t-24.5 -10.5t-24.5 10.5t-10.5 24.5v420zM170 700q12 10 25 10t25 -10q10 -10 10 -25t-10 -25l-100 -100q-10 -10 -25 -10t-25 10q-10 12 -10 25t10 25z" />
    <glyph glyph-name="icircumflex" unicode="&#xee;" horiz-adv-x="230" 
d="M80 445q0 14 10.5 24.5t24.5 10.5t24.5 -10.5t10.5 -24.5v-420q0 -14 -10.5 -24.5t-24.5 -10.5t-24.5 10.5t-10.5 24.5v420zM41 549q-10 -10 -25 -10t-25 10q-10 12 -10 25q0 15 10 25l100 100q11 11 25 11q16 0 27 -14l98 -97q10 -12 10 -25t-10 -25q-10 -10 -25 -10
t-25 10l-75 75z" />
    <glyph glyph-name="idieresis" unicode="&#xef;" horiz-adv-x="230" 
d="M80 445q0 14 10.5 24.5t24.5 10.5t24.5 -10.5t10.5 -24.5v-420q0 -14 -10.5 -24.5t-24.5 -10.5t-24.5 10.5t-10.5 24.5v420zM-29 615q0 19 13 32t32 13t32 -13t13 -32t-13 -32t-32 -13t-32 13t-13 32zM171 615q0 19 13 32t32 13t32 -13t13 -32t-13 -32t-32 -13t-32 13
t-13 32z" />
    <glyph glyph-name="eth" unicode="&#xf0;" horiz-adv-x="490" 
d="M327 705q12 5 18 5q14 0 24.5 -10.5t10.5 -24.5q0 -21 -18 -31l-72 -42q27 -39 54 -82t48.5 -89.5t34.5 -95.5t13 -101q0 -51 -15.5 -95.5t-41.5 -78t-62 -52.5t-76 -19q-41 0 -76.5 19t-61.5 52.5t-41.5 78t-15.5 95.5t15.5 96t41.5 78t61.5 52.5t76.5 19.5q21 0 41 -6
q-14 25 -28.5 47t-30.5 45l-54 -31q-12 -5 -18 -5q-14 0 -24.5 10.5t-10.5 24.5q0 20 18 31l45 27l-23 26q-11 10 -11 26q0 14 10 24.5t24 10.5q15 0 26 -11l36 -41zM120 234q0 -36 10 -68t27 -56t39.5 -37.5t48.5 -13.5q25 0 48 13.5t40 37.5t27 56t10 68q0 28 -8.5 59
t-24 57t-39 43t-53.5 17q-26 0 -48.5 -14t-39.5 -38t-27 -56t-10 -68z" />
    <glyph glyph-name="ntilde" unicode="&#xf1;" horiz-adv-x="515" 
d="M365 286q0 52 -26.5 88t-78.5 36q-26 0 -46.5 -10t-34.5 -27t-21.5 -40t-7.5 -49v-259q0 -14 -10.5 -24.5t-24.5 -10.5t-24.5 10.5t-10.5 24.5v419q0 14 10.5 24.5t24.5 10.5t24.5 -10.5t10.5 -24.5v-10q26 21 50 33.5t60 12.5q40 0 72.5 -15t55.5 -41.5t35 -62t12 -75.5
v-261q0 -14 -10.5 -24.5t-24.5 -10.5t-24.5 10.5t-10.5 24.5v261zM130 610q13 24 36 37.5t49 13.5q23 0 43 -10l35 -18q6 -3 12 -3q13 0 22 14q9 19 31 19q6 0 16 -4q19 -10 19 -32q0 -8 -5 -18q-12 -23 -34 -36t-48 -13q-23 0 -45 11l-35 18q-6 3 -12 3q-14 0 -22 -14
q-10 -19 -31 -19q-9 0 -16 4q-19 9 -19 31q0 9 4 16z" />
    <glyph glyph-name="ograve" unicode="&#xf2;" horiz-adv-x="490" 
d="M50 234q0 51 15.5 96t41.5 78t61.5 52.5t76.5 19.5q40 0 76 -19.5t62 -52.5t41.5 -78t15.5 -96t-15.5 -95.5t-41.5 -77.5t-62 -52t-76 -19q-41 0 -76.5 19t-61.5 52t-41.5 77.5t-15.5 95.5zM120 234q0 -36 10 -68t27 -55.5t39.5 -37t48.5 -13.5t48.5 13.5t39.5 37
t27 55.5t10 68t-10 68t-27 56t-39.5 38t-48.5 14t-48.5 -14t-39.5 -38t-27 -56t-10 -68zM290 600q10 -12 10 -25t-10 -25q-10 -10 -25 -10t-25 10l-100 100q-10 10 -10 25t10 25q12 10 25 10t25 -10z" />
    <glyph glyph-name="oacute" unicode="&#xf3;" horiz-adv-x="490" 
d="M50 234q0 51 15.5 96t41.5 78t61.5 52.5t76.5 19.5q40 0 76 -19.5t62 -52.5t41.5 -78t15.5 -96t-15.5 -95.5t-41.5 -77.5t-62 -52t-76 -19q-41 0 -76.5 19t-61.5 52t-41.5 77.5t-15.5 95.5zM120 234q0 -36 10 -68t27 -55.5t39.5 -37t48.5 -13.5t48.5 13.5t39.5 37
t27 55.5t10 68t-10 68t-27 56t-39.5 38t-48.5 14t-48.5 -14t-39.5 -38t-27 -56t-10 -68zM300 700q12 10 25 10t25 -10q10 -10 10 -25t-10 -25l-100 -100q-10 -10 -25 -10t-25 10q-10 12 -10 25t10 25z" />
    <glyph glyph-name="ocircumflex" unicode="&#xf4;" horiz-adv-x="490" 
d="M50 234q0 51 15.5 96t41.5 78t61.5 52.5t76.5 19.5q40 0 76 -19.5t62 -52.5t41.5 -78t15.5 -96t-15.5 -95.5t-41.5 -77.5t-62 -52t-76 -19q-41 0 -76.5 19t-61.5 52t-41.5 77.5t-15.5 95.5zM120 234q0 -36 10 -68t27 -55.5t39.5 -37t48.5 -13.5t48.5 13.5t39.5 37
t27 55.5t10 68t-10 68t-27 56t-39.5 38t-48.5 14t-48.5 -14t-39.5 -38t-27 -56t-10 -68zM170 549q-10 -10 -25 -10t-25 10q-10 12 -10 25q0 15 10 25l100 100q11 11 25 11q16 0 27 -14l98 -97q10 -12 10 -25t-10 -25q-10 -10 -25 -10t-25 10l-75 75z" />
    <glyph glyph-name="otilde" unicode="&#xf5;" horiz-adv-x="490" 
d="M50 234q0 51 15.5 96t41.5 78t61.5 52.5t76.5 19.5q40 0 76 -19.5t62 -52.5t41.5 -78t15.5 -96t-15.5 -95.5t-41.5 -77.5t-62 -52t-76 -19q-41 0 -76.5 19t-61.5 52t-41.5 77.5t-15.5 95.5zM120 234q0 -36 10 -68t27 -55.5t39.5 -37t48.5 -13.5t48.5 13.5t39.5 37
t27 55.5t10 68t-10 68t-27 56t-39.5 38t-48.5 14t-48.5 -14t-39.5 -38t-27 -56t-10 -68zM115 610q13 24 36 37.5t49 13.5q23 0 43 -10l35 -18q6 -3 12 -3q13 0 22 14q9 19 31 19q6 0 16 -4q19 -10 19 -32q0 -8 -5 -18q-12 -23 -34 -36t-48 -13q-23 0 -45 11l-35 18
q-6 3 -12 3q-14 0 -22 -14q-10 -19 -31 -19q-9 0 -16 4q-19 9 -19 31q0 9 4 16z" />
    <glyph glyph-name="odieresis" unicode="&#xf6;" horiz-adv-x="490" 
d="M50 234q0 51 15.5 96t41.5 78t61.5 52.5t76.5 19.5q40 0 76 -19.5t62 -52.5t41.5 -78t15.5 -96t-15.5 -95.5t-41.5 -77.5t-62 -52t-76 -19q-41 0 -76.5 19t-61.5 52t-41.5 77.5t-15.5 95.5zM120 234q0 -36 10 -68t27 -55.5t39.5 -37t48.5 -13.5t48.5 13.5t39.5 37
t27 55.5t10 68t-10 68t-27 56t-39.5 38t-48.5 14t-48.5 -14t-39.5 -38t-27 -56t-10 -68zM100 615q0 19 13 32t32 13t32 -13t13 -32t-13 -32t-32 -13t-32 13t-13 32zM300 615q0 19 13 32t32 13t32 -13t13 -32t-13 -32t-32 -13t-32 13t-13 32z" />
    <glyph glyph-name="divide" unicode="&#xf7;" horiz-adv-x="580" 
d="M500 270q14 0 24.5 -10.5t10.5 -24.5t-10.5 -24.5t-24.5 -10.5h-420q-14 0 -24.5 10.5t-10.5 24.5t10.5 24.5t24.5 10.5h420zM245 428q0 19 13 32t32 13t32 -13t13 -32t-13 -32t-32 -13t-32 13t-13 32zM245 45q0 19 13 32t32 13t32 -13t13 -32t-13 -32t-32 -13t-32 13
t-13 32z" />
    <glyph glyph-name="oslash" unicode="&#xf8;" horiz-adv-x="490" 
d="M50 234q0 51 15.5 96t41.5 78t61.5 52.5t76.5 19.5q30 0 58 -11.5t51 -31.5l23 30q4 5 10 9t17 4q16 0 26 -9t10 -25q0 -12 -6 -22l-33 -43q19 -31 29 -68t10 -79q0 -51 -15.5 -95.5t-41.5 -77.5t-62 -52t-76 -19q-62 0 -110 42l-22 -29q-10 -13 -29 -13q-34 0 -34 34
q0 12 7 22l31 41q-18 31 -28 68t-10 79zM370 234q0 23 -4 44t-12 41l-177 -232q32 -27 68 -27q25 0 48 13.5t40 37t27 55.5t10 68zM120 234q0 -48 15 -85l177 233q-15 13 -32 20.5t-35 7.5q-26 0 -48.5 -14t-39.5 -38t-27 -56t-10 -68z" />
    <glyph glyph-name="ugrave" unicode="&#xf9;" horiz-adv-x="505" 
d="M140 184q0 -52 26.5 -88t78.5 -36q26 0 46.5 10t34.5 27t21.5 40t7.5 49v259q0 14 10.5 24.5t24.5 10.5t24.5 -10.5t10.5 -24.5v-419q0 -14 -10.5 -24.5t-24.5 -10.5t-24.5 10.5t-10.5 24.5v10q-26 -21 -50 -33.5t-60 -12.5q-41 0 -73 15t-55 41.5t-35 61.5t-12 76v261
q0 14 10.5 24.5t24.5 10.5t24.5 -10.5t10.5 -24.5v-261zM295 600q10 -12 10 -25t-10 -25q-10 -10 -25 -10t-25 10l-100 100q-10 10 -10 25t10 25q12 10 25 10t25 -10z" />
    <glyph glyph-name="uacute" unicode="&#xfa;" horiz-adv-x="505" 
d="M140 184q0 -52 26.5 -88t78.5 -36q26 0 46.5 10t34.5 27t21.5 40t7.5 49v259q0 14 10.5 24.5t24.5 10.5t24.5 -10.5t10.5 -24.5v-419q0 -14 -10.5 -24.5t-24.5 -10.5t-24.5 10.5t-10.5 24.5v10q-26 -21 -50 -33.5t-60 -12.5q-41 0 -73 15t-55 41.5t-35 61.5t-12 76v261
q0 14 10.5 24.5t24.5 10.5t24.5 -10.5t10.5 -24.5v-261zM305 700q12 10 25 10t25 -10q10 -10 10 -25t-10 -25l-100 -100q-10 -10 -25 -10t-25 10q-10 12 -10 25t10 25z" />
    <glyph glyph-name="ucircumflex" unicode="&#xfb;" horiz-adv-x="505" 
d="M140 184q0 -52 26.5 -88t78.5 -36q26 0 46.5 10t34.5 27t21.5 40t7.5 49v259q0 14 10.5 24.5t24.5 10.5t24.5 -10.5t10.5 -24.5v-419q0 -14 -10.5 -24.5t-24.5 -10.5t-24.5 10.5t-10.5 24.5v10q-26 -21 -50 -33.5t-60 -12.5q-41 0 -73 15t-55 41.5t-35 61.5t-12 76v261
q0 14 10.5 24.5t24.5 10.5t24.5 -10.5t10.5 -24.5v-261zM175 549q-10 -10 -25 -10t-25 10q-10 12 -10 25q0 15 10 25l100 100q11 11 25 11q16 0 27 -14l98 -97q10 -12 10 -25t-10 -25q-10 -10 -25 -10t-25 10l-75 75z" />
    <glyph glyph-name="udieresis" unicode="&#xfc;" horiz-adv-x="505" 
d="M140 184q0 -52 26.5 -88t78.5 -36q26 0 46.5 10t34.5 27t21.5 40t7.5 49v259q0 14 10.5 24.5t24.5 10.5t24.5 -10.5t10.5 -24.5v-419q0 -14 -10.5 -24.5t-24.5 -10.5t-24.5 10.5t-10.5 24.5v10q-26 -21 -50 -33.5t-60 -12.5q-41 0 -73 15t-55 41.5t-35 61.5t-12 76v261
q0 14 10.5 24.5t24.5 10.5t24.5 -10.5t10.5 -24.5v-261zM105 615q0 19 13 32t32 13t32 -13t13 -32t-13 -32t-32 -13t-32 13t-13 32zM305 615q0 19 13 32t32 13t32 -13t13 -32t-13 -32t-32 -13t-32 13t-13 32z" />
    <glyph glyph-name="yacute" unicode="&#xfd;" horiz-adv-x="440" 
d="M36 -240q-17 0 -26.5 10.5t-9.5 24.5q0 13 8.5 22.5t20.5 11.5l8 1q39 5 67 32t42 63l37 99l-148 409q-2 4 -2 12q0 11 6 20t16 13q3 1 5.5 1.5t5.5 0.5q11 0 20.5 -6t13.5 -17l120 -330l120 330q4 11 13.5 17t20.5 6q3 0 5.5 -0.5t5.5 -1.5q10 -4 16 -13t6 -20
q0 -8 -2 -12l-186 -508q-7 -31 -23.5 -60.5t-39 -53t-50.5 -37.5t-58 -14h-12zM275 700q12 10 25 10t25 -10q10 -10 10 -25t-10 -25l-100 -100q-10 -10 -25 -10t-25 10q-10 12 -10 25t10 25z" />
    <glyph glyph-name="thorn" unicode="&#xfe;" horiz-adv-x="520" 
d="M80 675q0 14 10.5 24.5t24.5 10.5t24.5 -10.5t10.5 -24.5v-252q26 27 57.5 42t67.5 15q40 0 76 -19.5t62 -52.5t41.5 -77.5t15.5 -95.5t-15.5 -95.5t-41.5 -77.5t-62 -52.5t-76 -19.5q-36 0 -67.5 15.5t-57.5 41.5v-252q0 -14 -10.5 -24.5t-24.5 -10.5t-24.5 10.5
t-10.5 24.5v880zM150 235q0 -36 10 -68t27 -56t39.5 -37.5t48.5 -13.5t48.5 13.5t39.5 37.5t27 56t10 68t-10 68t-27 56t-39.5 37.5t-48.5 13.5t-48 -13t-39 -36t-27 -53.5t-11 -65.5v-7z" />
    <glyph glyph-name="ydieresis" unicode="&#xff;" horiz-adv-x="440" 
d="M36 -240q-17 0 -26.5 10.5t-9.5 24.5q0 13 8.5 22.5t20.5 11.5l8 1q39 5 67 32t42 63l37 99l-148 409q-2 4 -2 12q0 11 6 20t16 13q3 1 5.5 1.5t5.5 0.5q11 0 20.5 -6t13.5 -17l120 -330l120 330q4 11 13.5 17t20.5 6q3 0 5.5 -0.5t5.5 -1.5q10 -4 16 -13t6 -20
q0 -8 -2 -12l-186 -508q-7 -31 -23.5 -60.5t-39 -53t-50.5 -37.5t-58 -14h-12zM76 615q0 19 13 32t32 13t32 -13t13 -32t-13 -32t-32 -13t-32 13t-13 32zM276 615q0 19 13 32t32 13t32 -13t13 -32t-13 -32t-32 -13t-32 13t-13 32z" />
    <glyph glyph-name="Amacron" unicode="&#x100;" horiz-adv-x="620" 
d="M435 230h-250l-79 -217q-4 -11 -13.5 -17t-20.5 -6q-3 0 -5.5 0.5t-5.5 1.5q-10 4 -16 13t-6 20q0 8 2 12l236 650q3 11 12.5 17t20.5 6t20 -6.5t13 -16.5l236 -650q2 -4 2 -12q0 -11 -6 -20t-16 -13q-3 -1 -5.5 -1.5t-5.5 -0.5q-11 0 -20.5 6t-13.5 17zM210 300h199
l-99 273zM445 840q14 0 24.5 -10.5t10.5 -24.5t-10.5 -24.5t-24.5 -10.5h-270q-14 0 -24.5 10.5t-10.5 24.5t10.5 24.5t24.5 10.5h270z" />
    <glyph glyph-name="amacron" unicode="&#x101;" 
d="M378 61q-3 -7 -11 -17q-25 -25 -56 -39.5t-66 -14.5q-41 0 -76.5 19.5t-61.5 52.5t-41.5 77.5t-15.5 95.5t15.5 95.5t41.5 77.5t61.5 52.5t76.5 19.5q36 0 67.5 -15t57.5 -42v22q0 14 10.5 24.5t24.5 10.5t24.5 -10.5t10.5 -24.5v-338q0 -14 9.5 -29.5t17.5 -22.5
q6 -6 11 -12.5t5 -17.5q0 -14 -10.5 -24.5t-24.5 -10.5t-24 9q-14 12 -25.5 27t-19.5 32zM370 235q0 36 -10 68t-27 56t-39.5 37.5t-48.5 13.5t-48.5 -13.5t-39.5 -37.5t-27 -56t-10 -68t10 -68t27 -56t39.5 -37.5t48.5 -13.5t48.5 13.5t39.5 37.5t27 56t10 68zM395 640
q14 0 24.5 -10.5t10.5 -24.5t-10.5 -24.5t-24.5 -10.5h-270q-14 0 -24.5 10.5t-10.5 24.5t10.5 24.5t24.5 10.5h270z" />
    <glyph glyph-name="Abreve" unicode="&#x102;" horiz-adv-x="620" 
d="M435 230h-250l-79 -217q-4 -11 -13.5 -17t-20.5 -6q-3 0 -5.5 0.5t-5.5 1.5q-10 4 -16 13t-6 20q0 8 2 12l236 650q3 11 12.5 17t20.5 6t20 -6.5t13 -16.5l236 -650q2 -4 2 -12q0 -11 -6 -20t-16 -13q-3 -1 -5.5 -1.5t-5.5 -0.5q-11 0 -20.5 6t-13.5 17zM210 300h199
l-99 273zM448 910q14 0 24.5 -10.5t10.5 -24.5q0 -3 -1 -6.5t-4 -11.5q-10 -26 -26.5 -47t-38.5 -37t-48.5 -24.5t-54.5 -8.5q-30 0 -57.5 9.5t-50 26t-39 39.5t-25.5 50l-1 10q0 14 10.5 24.5t24.5 10.5q25 0 33 -23q2 -4 2 -7q11 -31 39 -50.5t64 -19.5q35 0 63 19.5
t40 52.5l2 4q4 11 13 17.5t20 6.5z" />
    <glyph glyph-name="abreve" unicode="&#x103;" 
d="M378 61q-3 -7 -11 -17q-25 -25 -56 -39.5t-66 -14.5q-41 0 -76.5 19.5t-61.5 52.5t-41.5 77.5t-15.5 95.5t15.5 95.5t41.5 77.5t61.5 52.5t76.5 19.5q36 0 67.5 -15t57.5 -42v22q0 14 10.5 24.5t24.5 10.5t24.5 -10.5t10.5 -24.5v-338q0 -14 9.5 -29.5t17.5 -22.5
q6 -6 11 -12.5t5 -17.5q0 -14 -10.5 -24.5t-24.5 -10.5t-24 9q-14 12 -25.5 27t-19.5 32zM370 235q0 36 -10 68t-27 56t-39.5 37.5t-48.5 13.5t-48.5 -13.5t-39.5 -37.5t-27 -56t-10 -68t10 -68t27 -56t39.5 -37.5t48.5 -13.5t48.5 13.5t39.5 37.5t27 56t10 68zM398 710
q14 0 24.5 -10.5t10.5 -24.5q0 -3 -1 -6.5t-4 -11.5q-10 -26 -26.5 -47t-38.5 -37t-48.5 -24.5t-54.5 -8.5q-30 0 -57.5 9.5t-50 26t-39 39.5t-25.5 50l-1 10q0 14 10.5 24.5t24.5 10.5q25 0 33 -23q2 -4 2 -7q11 -31 39 -50.5t64 -19.5q35 0 63 19.5t40 52.5l2 4
q4 11 13 17.5t20 6.5z" />
    <glyph glyph-name="Aogonek" unicode="&#x104;" horiz-adv-x="620" 
d="M518 -240q-25 0 -46.5 9.5t-38 26t-26 38t-9.5 46.5q0 13 3.5 26t15 30t32.5 41t56 59l-70 194h-250l-79 -217q-4 -11 -13.5 -17t-20.5 -6q-3 0 -5.5 0.5t-5.5 1.5q-10 4 -16 13t-6 20q0 8 2 12l236 650q3 11 12.5 17t20.5 6t20 -6.5t13 -16.5l236 -650q2 -8 2 -12
q0 -17 -16 -30l-75 -75q-10 -7 -16 -17t-6 -23q0 -20 13.5 -34t33.5 -16h31q14 0 24.5 -10.5t10.5 -24.5t-10.5 -24.5t-27.5 -10.5h-25zM210 300h199l-99 273z" />
    <glyph glyph-name="aogonek" unicode="&#x105;" 
d="M420 -240q-25 0 -46.5 9.5t-38 26t-26 38t-9.5 46.5q0 26 9.5 47.5t26.5 38.5l62 59q-11 16 -19 33l-1 3q-3 -7 -11 -17q-25 -25 -56 -39.5t-66 -14.5q-41 0 -76.5 19.5t-61.5 52.5t-41.5 77.5t-15.5 95.5t15.5 95.5t41.5 77.5t61.5 52.5t76.5 19.5q36 0 67.5 -15
t57.5 -42v22q0 14 10.5 24.5t24.5 10.5t24.5 -10.5t10.5 -24.5v-338q0 -14 9.5 -29.5t17.5 -22.5q6 -6 11 -12.5t5 -17.5q0 -14 -11 -25l-80 -79q-10 -9 -16 -18.5t-6 -22.5q0 -20 13.5 -34t33.5 -16h31q14 0 24.5 -10.5t10.5 -24.5t-10.5 -24.5t-27.5 -10.5h-25zM370 235
q0 36 -10 68t-27 56t-39.5 37.5t-48.5 13.5t-48.5 -13.5t-39.5 -37.5t-27 -56t-10 -68t10 -68t27 -56t39.5 -37.5t48.5 -13.5t48.5 13.5t39.5 37.5t27 56t10 68z" />
    <glyph glyph-name="Cacute" unicode="&#x106;" horiz-adv-x="600" 
d="M549 161q-35 -77 -95 -124t-134 -47q-56 0 -105 28.5t-86 77t-58 114t-21 140.5t21 140.5t58 114t86 77t105 28.5q59 0 107.5 -29t90.5 -85q6 -9 10.5 -15.5t4.5 -15.5q0 -15 -10.5 -25t-25.5 -10q-21 0 -33 22q-28 41 -65 64.5t-79 23.5q-41 0 -77.5 -22.5t-63.5 -61.5
t-43 -91.5t-16 -112.5t16 -113t43 -92.5t63.5 -63t77.5 -23.5q51 0 94.5 36t70.5 94q10 20 32 20q14 0 24.5 -10.5t10.5 -24.5q0 -8 -3 -14zM375 900q12 10 25 10t25 -10q10 -10 10 -25t-10 -25l-100 -100q-10 -10 -25 -10t-25 10q-10 12 -10 25t10 25z" />
    <glyph glyph-name="cacute" unicode="&#x107;" horiz-adv-x="450" 
d="M408 98q-25 -46 -66 -74.5t-97 -33.5q-41 0 -76.5 19t-61.5 52.5t-41.5 78t-15.5 95.5t15.5 95.5t41.5 78t61.5 52.5t76.5 19q45 0 84 -23t66 -64q6 -11 6 -20q0 -14 -10.5 -24.5t-24.5 -10.5q-11 0 -19.5 6t-13.5 15q-17 24 -39.5 37.5t-48.5 13.5t-48.5 -13.5
t-39.5 -37.5t-27 -56t-10 -68q0 -34 9 -65.5t25.5 -56t39.5 -39t51 -14.5q35 0 62.5 23t41.5 53q10 19 31 19q14 0 24.5 -10.5t10.5 -24.5q0 -10 -4 -17zM300 699q12 10 25 10t25 -10q10 -10 10 -25t-10 -25l-100 -100q-10 -10 -25 -10t-25 10q-10 12 -10 25t10 25z" />
    <glyph glyph-name="Ccircumflex" unicode="&#x108;" horiz-adv-x="600" 
d="M549 161q-35 -77 -95 -124t-134 -47q-56 0 -105 28.5t-86 77t-58 114t-21 140.5t21 140.5t58 114t86 77t105 28.5q59 0 107.5 -29t90.5 -85q6 -9 10.5 -15.5t4.5 -15.5q0 -15 -10.5 -25t-25.5 -10q-21 0 -33 22q-28 41 -65 64.5t-79 23.5q-41 0 -77.5 -22.5t-63.5 -61.5
t-43 -91.5t-16 -112.5t16 -113t43 -92.5t63.5 -63t77.5 -23.5q51 0 94.5 36t70.5 94q10 20 32 20q14 0 24.5 -10.5t10.5 -24.5q0 -8 -3 -14zM245 749q-10 -10 -25 -10t-25 10q-10 12 -10 25q0 15 10 25l100 100q11 11 25 11q16 0 27 -14l98 -97q10 -12 10 -25t-10 -25
q-10 -10 -25 -10t-25 10l-75 75z" />
    <glyph glyph-name="ccircumflex" unicode="&#x109;" horiz-adv-x="450" 
d="M408 98q-25 -46 -66 -74.5t-97 -33.5q-41 0 -76.5 19t-61.5 52.5t-41.5 78t-15.5 95.5t15.5 95.5t41.5 78t61.5 52.5t76.5 19q45 0 84 -23t66 -64q6 -11 6 -20q0 -14 -10.5 -24.5t-24.5 -10.5q-11 0 -19.5 6t-13.5 15q-17 24 -39.5 37.5t-48.5 13.5t-48.5 -13.5
t-39.5 -37.5t-27 -56t-10 -68q0 -34 9 -65.5t25.5 -56t39.5 -39t51 -14.5q35 0 62.5 23t41.5 53q10 19 31 19q14 0 24.5 -10.5t10.5 -24.5q0 -10 -4 -17zM170 548q-10 -10 -25 -10t-25 10q-10 12 -10 25q0 15 10 25l100 100q11 11 25 11q16 0 27 -14l98 -97q10 -12 10 -25
t-10 -25q-10 -10 -25 -10t-25 10l-75 75z" />
    <glyph glyph-name="Cdotaccent" unicode="&#x10a;" horiz-adv-x="600" 
d="M549 161q-35 -77 -95 -124t-134 -47q-56 0 -105 28.5t-86 77t-58 114t-21 140.5t21 140.5t58 114t86 77t105 28.5q59 0 107.5 -29t90.5 -85q6 -9 10.5 -15.5t4.5 -15.5q0 -15 -10.5 -25t-25.5 -10q-21 0 -33 22q-28 41 -65 64.5t-79 23.5q-41 0 -77.5 -22.5t-63.5 -61.5
t-43 -91.5t-16 -112.5t16 -113t43 -92.5t63.5 -63t77.5 -23.5q51 0 94.5 36t70.5 94q10 20 32 20q14 0 24.5 -10.5t10.5 -24.5q0 -8 -3 -14zM275 835q0 19 13 32t32 13t32 -13t13 -32t-13 -32t-32 -13t-32 13t-13 32z" />
    <glyph glyph-name="cdotaccent" unicode="&#x10b;" horiz-adv-x="450" 
d="M408 98q-25 -46 -66 -74.5t-97 -33.5q-41 0 -76.5 19t-61.5 52.5t-41.5 78t-15.5 95.5t15.5 95.5t41.5 78t61.5 52.5t76.5 19q45 0 84 -23t66 -64q6 -11 6 -20q0 -14 -10.5 -24.5t-24.5 -10.5q-11 0 -19.5 6t-13.5 15q-17 24 -39.5 37.5t-48.5 13.5t-48.5 -13.5
t-39.5 -37.5t-27 -56t-10 -68q0 -34 9 -65.5t25.5 -56t39.5 -39t51 -14.5q35 0 62.5 23t41.5 53q10 19 31 19q14 0 24.5 -10.5t10.5 -24.5q0 -10 -4 -17zM200 634q0 19 13 32t32 13t32 -13t13 -32t-13 -32t-32 -13t-32 13t-13 32z" />
    <glyph glyph-name="Ccaron" unicode="&#x10c;" horiz-adv-x="600" 
d="M549 161q-35 -77 -95 -124t-134 -47q-56 0 -105 28.5t-86 77t-58 114t-21 140.5t21 140.5t58 114t86 77t105 28.5q59 0 107.5 -29t90.5 -85q6 -9 10.5 -15.5t4.5 -15.5q0 -15 -10.5 -25t-25.5 -10q-21 0 -33 22q-28 41 -65 64.5t-79 23.5q-41 0 -77.5 -22.5t-63.5 -61.5
t-43 -91.5t-16 -112.5t16 -113t43 -92.5t63.5 -63t77.5 -23.5q51 0 94.5 36t70.5 94q10 20 32 20q14 0 24.5 -10.5t10.5 -24.5q0 -8 -3 -14zM395 900q10 10 25 10t25 -10q10 -12 10 -25q0 -15 -10 -25l-100 -100q-5 -5 -11 -8t-14 -3q-17 0 -27 14l-98 97q-10 12 -10 25
t10 25q10 10 25 10t25 -10l75 -75z" />
    <glyph glyph-name="ccaron" unicode="&#x10d;" horiz-adv-x="450" 
d="M408 98q-25 -46 -66 -74.5t-97 -33.5q-41 0 -76.5 19t-61.5 52.5t-41.5 78t-15.5 95.5t15.5 95.5t41.5 78t61.5 52.5t76.5 19q45 0 84 -23t66 -64q6 -11 6 -20q0 -14 -10.5 -24.5t-24.5 -10.5q-11 0 -19.5 6t-13.5 15q-17 24 -39.5 37.5t-48.5 13.5t-48.5 -13.5
t-39.5 -37.5t-27 -56t-10 -68q0 -34 9 -65.5t25.5 -56t39.5 -39t51 -14.5q35 0 62.5 23t41.5 53q10 19 31 19q14 0 24.5 -10.5t10.5 -24.5q0 -10 -4 -17zM320 699q10 10 25 10t25 -10q10 -12 10 -25q0 -15 -10 -25l-100 -100q-5 -5 -11 -8t-14 -3q-17 0 -27 14l-98 97
q-10 12 -10 25t10 25q10 10 25 10t25 -10l75 -75z" />
    <glyph glyph-name="Dcaron" unicode="&#x10e;" horiz-adv-x="660" 
d="M125 0q-14 0 -24.5 10.5t-10.5 24.5v630q0 14 10.5 24.5t24.5 10.5h219q55 0 103.5 -28t84.5 -75.5t57 -111t21 -135.5t-21 -135.5t-57 -111t-84.5 -75.5t-103.5 -28h-219zM540 350q0 57 -15.5 108t-42.5 89.5t-63 60.5t-76 22h-183v-560h183q40 0 76 22t63 60t42.5 89
t15.5 109zM395 900q10 10 25 10t25 -10q10 -12 10 -25q0 -15 -10 -25l-100 -100q-5 -5 -11 -8t-14 -3q-17 0 -27 14l-98 97q-10 12 -10 25t10 25q10 10 25 10t25 -10l75 -75z" />
    <glyph glyph-name="dcaron" unicode="&#x10f;" horiz-adv-x="520" 
d="M440 25q0 -14 -10.5 -24.5t-24.5 -10.5t-24.5 10.5t-10.5 24.5v21q-26 -26 -57.5 -41t-67.5 -15q-41 0 -76.5 19t-61.5 52.5t-41.5 78t-15.5 95.5t15.5 96t41.5 78t61.5 52.5t76.5 19.5q36 0 67.5 -15.5t57.5 -41.5v251q0 14 10.5 24.5t24.5 10.5t24.5 -10.5t10.5 -24.5
v-650zM370 235q-1 37 -11 69.5t-27 56t-39.5 37t-47.5 13.5q-26 0 -48.5 -14t-39.5 -38t-27 -56t-10 -68t10 -68t27 -56t39.5 -37.5t48.5 -13.5t48.5 13.5t39.5 37.5t27 56t10 68zM509 517q-11 -9 -24 -9q-14 0 -24.5 10.5t-10.5 24.5q0 11 5 17.5t11 12.5q35 32 35 79
l-3 23q0 14 10.5 24.5t24.5 10.5t24 -10t12 -24q1 -6 1.5 -12t0.5 -12q0 -40 -16.5 -75t-45.5 -60z" />
    <glyph glyph-name="Dcroat" unicode="&#x110;" horiz-adv-x="660" 
d="M125 0q-14 0 -24.5 10.5t-10.5 24.5v280h-45q-14 0 -24.5 10.5t-10.5 24.5t10.5 24.5t24.5 10.5h45v280q0 14 10.5 24.5t24.5 10.5h219q55 0 103.5 -28t84.5 -75.5t57 -111t21 -135.5t-21 -135.5t-57 -111t-84.5 -75.5t-103.5 -28h-219zM235 385q14 0 24.5 -10.5
t10.5 -24.5t-10.5 -24.5t-24.5 -10.5h-75v-245h183q40 0 76 22t63 60t42.5 89t15.5 109q0 57 -15.5 108t-42.5 89.5t-63 60.5t-76 22h-183v-245h75z" />
    <glyph glyph-name="dcroat" unicode="&#x111;" horiz-adv-x="520" 
d="M370 640v35q0 14 10.5 24.5t24.5 10.5t24.5 -10.5t10.5 -24.5v-35h26q14 0 24.5 -10.5t10.5 -24.5t-10.5 -24.5t-24.5 -10.5h-26v-545q0 -14 -10.5 -24.5t-24.5 -10.5t-24.5 10.5t-10.5 24.5v21q-26 -26 -57.5 -41t-67.5 -15q-41 0 -76.5 19t-61.5 52.5t-41.5 78
t-15.5 95.5t15.5 96t41.5 78t61.5 52.5t76.5 19.5q36 0 67.5 -15.5t57.5 -41.5v146h-110q-14 0 -24.5 10.5t-10.5 24.5t10.5 24.5t24.5 10.5h110zM370 235q-1 37 -11 69.5t-27 56t-39.5 37t-47.5 13.5q-26 0 -48.5 -14t-39.5 -38t-27 -56t-10 -68t10 -68t27 -56t39.5 -37.5
t48.5 -13.5t48.5 13.5t39.5 37.5t27 56t10 68z" />
    <glyph glyph-name="Emacron" unicode="&#x112;" 
d="M126 0q-15 0 -25.5 10.5t-10.5 24.5v630q0 14 10.5 24.5t24.5 10.5h330q14 0 24.5 -10.5t10.5 -24.5t-10.5 -24.5t-24.5 -10.5h-295v-210h175q14 0 24.5 -10.5t10.5 -24.5t-10.5 -24.5t-24.5 -10.5h-175v-280h295q14 0 24.5 -10.5t10.5 -24.5t-10.5 -24.5t-24.5 -10.5
h-329zM425 840q14 0 24.5 -10.5t10.5 -24.5t-10.5 -24.5t-24.5 -10.5h-270q-14 0 -24.5 10.5t-10.5 24.5t10.5 24.5t24.5 10.5h270z" />
    <glyph glyph-name="emacron" unicode="&#x113;" horiz-adv-x="480" 
d="M408 98q-25 -46 -66 -74.5t-97 -33.5q-41 0 -76.5 19t-61.5 52.5t-41.5 78t-15.5 95.5t15.5 95.5t41.5 78t61.5 52.5t76.5 19q37 0 68.5 -16t55.5 -44.5t39.5 -68t20.5 -86.5q-1 -14 -11.5 -24.5t-25.5 -10.5h-272q1 -36 11 -67t27 -54t39 -36t48 -13q35 0 62.5 23
t41.5 53q10 19 31 19q14 0 24.5 -10.5t10.5 -24.5q0 -10 -4 -17zM245 411q-40 0 -71 -31t-45 -80h223q-14 49 -41 80t-66 31zM380 640q14 0 24.5 -10.5t10.5 -24.5t-10.5 -24.5t-24.5 -10.5h-270q-14 0 -24.5 10.5t-10.5 24.5t10.5 24.5t24.5 10.5h270z" />
    <glyph glyph-name="Ebreve" unicode="&#x114;" 
d="M126 0q-15 0 -25.5 10.5t-10.5 24.5v630q0 14 10.5 24.5t24.5 10.5h330q14 0 24.5 -10.5t10.5 -24.5t-10.5 -24.5t-24.5 -10.5h-295v-210h175q14 0 24.5 -10.5t10.5 -24.5t-10.5 -24.5t-24.5 -10.5h-175v-280h295q14 0 24.5 -10.5t10.5 -24.5t-10.5 -24.5t-24.5 -10.5
h-329zM428 910q14 0 24.5 -10.5t10.5 -24.5q0 -3 -1 -6.5t-4 -11.5q-10 -26 -26.5 -47t-38.5 -37t-48.5 -24.5t-54.5 -8.5q-30 0 -57.5 9.5t-50 26t-39 39.5t-25.5 50l-1 10q0 14 10.5 24.5t24.5 10.5q25 0 33 -23q2 -4 2 -7q11 -31 39 -50.5t64 -19.5q35 0 63 19.5t40 52.5
l2 4q4 11 13 17.5t20 6.5z" />
    <glyph glyph-name="ebreve" unicode="&#x115;" horiz-adv-x="480" 
d="M408 98q-25 -46 -66 -74.5t-97 -33.5q-41 0 -76.5 19t-61.5 52.5t-41.5 78t-15.5 95.5t15.5 95.5t41.5 78t61.5 52.5t76.5 19q37 0 68.5 -16t55.5 -44.5t39.5 -68t20.5 -86.5q-1 -14 -11.5 -24.5t-25.5 -10.5h-272q1 -36 11 -67t27 -54t39 -36t48 -13q35 0 62.5 23
t41.5 53q10 19 31 19q14 0 24.5 -10.5t10.5 -24.5q0 -10 -4 -17zM245 411q-40 0 -71 -31t-45 -80h223q-14 49 -41 80t-66 31zM383 710q14 0 24.5 -10.5t10.5 -24.5q0 -3 -1 -6.5t-4 -11.5q-10 -26 -26.5 -47t-38.5 -37t-48.5 -24.5t-54.5 -8.5q-30 0 -57.5 9.5t-50 26
t-39 39.5t-25.5 50l-1 10q0 14 10.5 24.5t24.5 10.5q25 0 33 -23q2 -4 2 -7q11 -31 39 -50.5t64 -19.5q35 0 63 19.5t40 52.5l2 4q4 11 13 17.5t20 6.5z" />
    <glyph glyph-name="Edotaccent" unicode="&#x116;" 
d="M126 0q-15 0 -25.5 10.5t-10.5 24.5v630q0 14 10.5 24.5t24.5 10.5h330q14 0 24.5 -10.5t10.5 -24.5t-10.5 -24.5t-24.5 -10.5h-295v-210h175q14 0 24.5 -10.5t10.5 -24.5t-10.5 -24.5t-24.5 -10.5h-175v-280h295q14 0 24.5 -10.5t10.5 -24.5t-10.5 -24.5t-24.5 -10.5
h-329zM245 835q0 19 13 32t32 13t32 -13t13 -32t-13 -32t-32 -13t-32 13t-13 32z" />
    <glyph glyph-name="edotaccent" unicode="&#x117;" horiz-adv-x="480" 
d="M408 98q-25 -46 -66 -74.5t-97 -33.5q-41 0 -76.5 19t-61.5 52.5t-41.5 78t-15.5 95.5t15.5 95.5t41.5 78t61.5 52.5t76.5 19q37 0 68.5 -16t55.5 -44.5t39.5 -68t20.5 -86.5q-1 -14 -11.5 -24.5t-25.5 -10.5h-272q1 -36 11 -67t27 -54t39 -36t48 -13q35 0 62.5 23
t41.5 53q10 19 31 19q14 0 24.5 -10.5t10.5 -24.5q0 -10 -4 -17zM245 411q-40 0 -71 -31t-45 -80h223q-14 49 -41 80t-66 31zM200 635q0 19 13 32t32 13t32 -13t13 -32t-13 -32t-32 -13t-32 13t-13 32z" />
    <glyph glyph-name="Eogonek" unicode="&#x118;" 
d="M126 0q-15 0 -25.5 10.5t-10.5 24.5v630q0 14 10.5 24.5t24.5 10.5h330q14 0 24.5 -10.5t10.5 -24.5t-10.5 -24.5t-24.5 -10.5h-295v-210h175q14 0 24.5 -10.5t10.5 -24.5t-10.5 -24.5t-24.5 -10.5h-175v-280h295q14 0 24.5 -10.5t10.5 -24.5q0 -9 -5 -19l-95 -95
q-10 -8 -16 -18t-6 -23q0 -20 13.5 -34t33.5 -16h31q14 0 24.5 -10.5t10.5 -24.5t-10.5 -24.5t-27.5 -10.5h-25q-25 0 -46.5 9.5t-38 26t-26 38t-9.5 46.5q0 26 9.5 47.5t26.5 38.5l34 34h-242z" />
    <glyph glyph-name="eogonek" unicode="&#x119;" horiz-adv-x="480" 
d="M271 -240q-25 0 -46.5 9.5t-38 26t-26 38t-9.5 46.5q0 26 9.5 47.5t26.5 38.5l28 27q-35 7 -65.5 28t-52.5 53.5t-34.5 73.5t-12.5 87q0 51 15.5 95.5t41.5 78t61.5 52.5t76.5 19q37 0 68.5 -16t55.5 -44.5t39.5 -68t20.5 -86.5q-1 -14 -11.5 -24.5t-25.5 -10.5h-272
q1 -36 11 -67t27 -54t39 -36t48 -13q35 0 62.5 23t41.5 53q10 19 31 19q14 0 24.5 -10.5t10.5 -24.5q0 -10 -4 -17l-3 -5q-10 -19 -23 -34.5t-28 -28.5l-114 -114q-10 -9 -16 -18.5t-6 -22.5q0 -20 13.5 -34t33.5 -16h31q14 0 24.5 -10.5t10.5 -24.5t-10.5 -24.5
t-27.5 -10.5h-25zM245 411q-40 0 -71 -31t-45 -80h223q-14 49 -41 80t-66 31z" />
    <glyph glyph-name="Ecaron" unicode="&#x11a;" 
d="M126 0q-15 0 -25.5 10.5t-10.5 24.5v630q0 14 10.5 24.5t24.5 10.5h330q14 0 24.5 -10.5t10.5 -24.5t-10.5 -24.5t-24.5 -10.5h-295v-210h175q14 0 24.5 -10.5t10.5 -24.5t-10.5 -24.5t-24.5 -10.5h-175v-280h295q14 0 24.5 -10.5t10.5 -24.5t-10.5 -24.5t-24.5 -10.5
h-329zM365 900q10 10 25 10t25 -10q10 -12 10 -25q0 -15 -10 -25l-100 -100q-5 -5 -11 -8t-14 -3q-17 0 -27 14l-98 97q-10 12 -10 25t10 25q10 10 25 10t25 -10l75 -75z" />
    <glyph glyph-name="ecaron" unicode="&#x11b;" horiz-adv-x="480" 
d="M408 98q-25 -46 -66 -74.5t-97 -33.5q-41 0 -76.5 19t-61.5 52.5t-41.5 78t-15.5 95.5t15.5 95.5t41.5 78t61.5 52.5t76.5 19q37 0 68.5 -16t55.5 -44.5t39.5 -68t20.5 -86.5q-1 -14 -11.5 -24.5t-25.5 -10.5h-272q1 -36 11 -67t27 -54t39 -36t48 -13q35 0 62.5 23
t41.5 53q10 19 31 19q14 0 24.5 -10.5t10.5 -24.5q0 -10 -4 -17zM245 411q-40 0 -71 -31t-45 -80h223q-14 49 -41 80t-66 31zM320 700q10 10 25 10t25 -10q10 -12 10 -25q0 -15 -10 -25l-100 -100q-5 -5 -11 -8t-14 -3q-17 0 -27 14l-98 97q-10 12 -10 25t10 25q10 10 25 10
t25 -10l75 -75z" />
    <glyph glyph-name="Gcircumflex" unicode="&#x11c;" horiz-adv-x="650" 
d="M525 350q14 0 24.5 -10.5t10.5 -24.5v-290q0 -14 -10.5 -24.5t-24.5 -10.5t-24.5 10.5t-10.5 24.5v45q-35 -38 -78.5 -59t-91.5 -21q-56 0 -105 28.5t-86 77t-58 114t-21 140.5t21 140.5t58 114t86 77t105 28.5q59 0 107.5 -29t90.5 -85q6 -9 10.5 -15.5t4.5 -15.5
q0 -15 -10.5 -25t-25.5 -10q-21 0 -33 22q-28 41 -65 64.5t-79 23.5q-41 0 -77.5 -22.5t-63.5 -61.5t-43 -91.5t-16 -112.5t16 -113t43 -92.5t63.5 -63t77.5 -23.5q53 0 98 38.5t72 101.5v80h-118q-14 0 -24.5 10.5t-10.5 24.5t10.5 24.5t24.5 10.5h153zM245 749
q-10 -10 -25 -10t-25 10q-10 12 -10 25q0 15 10 25l100 100q11 11 25 11q16 0 27 -14l98 -97q10 -12 10 -25t-10 -25q-10 -10 -25 -10t-25 10l-75 75z" />
    <glyph glyph-name="gcircumflex" unicode="&#x11d;" horiz-adv-x="520" 
d="M135 -117q18 -24 45.5 -38.5t59.5 -14.5q27 0 50.5 10t41.5 28t28 41.5t10 50.5v87q-26 -26 -57.5 -41.5t-67.5 -15.5q-41 0 -76.5 19.5t-61.5 52.5t-41.5 77.5t-15.5 95.5t15.5 95.5t41.5 77.5t61.5 52.5t76.5 19.5q36 0 67.5 -15t57.5 -42v22q0 14 10.5 24.5t24.5 10.5
t24.5 -10.5t10.5 -24.5v-485q0 -41 -16 -77.5t-43 -63.5t-63.5 -43t-77.5 -16q-48 0 -89.5 21t-68.5 56q-5 5 -7 11.5t-2 12.5q0 14 10.5 24.5t24.5 10.5q17 0 27 -13zM370 235q0 36 -10 68t-27 56t-39.5 37.5t-48.5 13.5t-48.5 -13.5t-39.5 -37.5t-27 -56t-10 -68t10 -68
t27 -56t39.5 -37.5t48.5 -13.5t48.5 13.5t39.5 37.5t27 56t10 68zM175 549q-10 -10 -25 -10t-25 10q-10 12 -10 25q0 15 10 25l100 100q11 11 25 11q16 0 27 -14l98 -97q10 -12 10 -25t-10 -25q-10 -10 -25 -10t-25 10l-75 75z" />
    <glyph glyph-name="Gbreve" unicode="&#x11e;" horiz-adv-x="640" 
d="M525 350q14 0 24.5 -10.5t10.5 -24.5v-290q0 -14 -10.5 -24.5t-24.5 -10.5t-24.5 10.5t-10.5 24.5v45q-35 -38 -78.5 -59t-91.5 -21q-56 0 -105 28.5t-86 77t-58 114t-21 140.5t21 140.5t58 114t86 77t105 28.5q59 0 107.5 -29t90.5 -85q6 -9 10.5 -15.5t4.5 -15.5
q0 -15 -10.5 -25t-25.5 -10q-21 0 -33 22q-28 41 -65 64.5t-79 23.5q-41 0 -77.5 -22.5t-63.5 -61.5t-43 -91.5t-16 -112.5t16 -113t43 -92.5t63.5 -63t77.5 -23.5q53 0 98 38.5t72 101.5v80h-118q-14 0 -24.5 10.5t-10.5 24.5t10.5 24.5t24.5 10.5h153zM458 910
q14 0 24.5 -10.5t10.5 -24.5q0 -3 -1 -6.5t-4 -11.5q-10 -26 -26.5 -47t-38.5 -37t-48.5 -24.5t-54.5 -8.5q-30 0 -57.5 9.5t-50 26t-39 39.5t-25.5 50l-1 10q0 14 10.5 24.5t24.5 10.5q25 0 33 -23q2 -4 2 -7q11 -31 39 -50.5t64 -19.5q35 0 63 19.5t40 52.5l2 4
q4 11 13 17.5t20 6.5z" />
    <glyph glyph-name="gbreve" unicode="&#x11f;" horiz-adv-x="520" 
d="M135 -117q18 -24 45.5 -38.5t59.5 -14.5q27 0 50.5 10t41.5 28t28 41.5t10 50.5v87q-26 -26 -57.5 -41.5t-67.5 -15.5q-41 0 -76.5 19.5t-61.5 52.5t-41.5 77.5t-15.5 95.5t15.5 95.5t41.5 77.5t61.5 52.5t76.5 19.5q36 0 67.5 -15t57.5 -42v22q0 14 10.5 24.5t24.5 10.5
t24.5 -10.5t10.5 -24.5v-485q0 -41 -16 -77.5t-43 -63.5t-63.5 -43t-77.5 -16q-48 0 -89.5 21t-68.5 56q-5 5 -7 11.5t-2 12.5q0 14 10.5 24.5t24.5 10.5q17 0 27 -13zM370 235q0 36 -10 68t-27 56t-39.5 37.5t-48.5 13.5t-48.5 -13.5t-39.5 -37.5t-27 -56t-10 -68t10 -68
t27 -56t39.5 -37.5t48.5 -13.5t48.5 13.5t39.5 37.5t27 56t10 68zM388 710q14 0 24.5 -10.5t10.5 -24.5q0 -3 -1 -6.5t-4 -11.5q-10 -26 -26.5 -47t-38.5 -37t-48.5 -24.5t-54.5 -8.5q-30 0 -57.5 9.5t-50 26t-39 39.5t-25.5 50l-1 10q0 14 10.5 24.5t24.5 10.5q25 0 33 -23
q2 -4 2 -7q11 -31 39 -50.5t64 -19.5q35 0 63 19.5t40 52.5l2 4q4 11 13 17.5t20 6.5z" />
    <glyph glyph-name="Gdotaccent" unicode="&#x120;" horiz-adv-x="640" 
d="M525 350q14 0 24.5 -10.5t10.5 -24.5v-290q0 -14 -10.5 -24.5t-24.5 -10.5t-24.5 10.5t-10.5 24.5v45q-35 -38 -78.5 -59t-91.5 -21q-56 0 -105 28.5t-86 77t-58 114t-21 140.5t21 140.5t58 114t86 77t105 28.5q59 0 107.5 -29t90.5 -85q6 -9 10.5 -15.5t4.5 -15.5
q0 -15 -10.5 -25t-25.5 -10q-21 0 -33 22q-28 41 -65 64.5t-79 23.5q-41 0 -77.5 -22.5t-63.5 -61.5t-43 -91.5t-16 -112.5t16 -113t43 -92.5t63.5 -63t77.5 -23.5q53 0 98 38.5t72 101.5v80h-118q-14 0 -24.5 10.5t-10.5 24.5t10.5 24.5t24.5 10.5h153zM275 835q0 19 13 32
t32 13t32 -13t13 -32t-13 -32t-32 -13t-32 13t-13 32z" />
    <glyph glyph-name="gdotaccent" unicode="&#x121;" horiz-adv-x="520" 
d="M135 -117q18 -24 45.5 -38.5t59.5 -14.5q27 0 50.5 10t41.5 28t28 41.5t10 50.5v87q-26 -26 -57.5 -41.5t-67.5 -15.5q-41 0 -76.5 19.5t-61.5 52.5t-41.5 77.5t-15.5 95.5t15.5 95.5t41.5 77.5t61.5 52.5t76.5 19.5q36 0 67.5 -15t57.5 -42v22q0 14 10.5 24.5t24.5 10.5
t24.5 -10.5t10.5 -24.5v-485q0 -41 -16 -77.5t-43 -63.5t-63.5 -43t-77.5 -16q-48 0 -89.5 21t-68.5 56q-5 5 -7 11.5t-2 12.5q0 14 10.5 24.5t24.5 10.5q17 0 27 -13zM370 235q0 36 -10 68t-27 56t-39.5 37.5t-48.5 13.5t-48.5 -13.5t-39.5 -37.5t-27 -56t-10 -68t10 -68
t27 -56t39.5 -37.5t48.5 -13.5t48.5 13.5t39.5 37.5t27 56t10 68zM205 635q0 19 13 32t32 13t32 -13t13 -32t-13 -32t-32 -13t-32 13t-13 32z" />
    <glyph glyph-name="Gcommaaccent" unicode="&#x122;" horiz-adv-x="640" 
d="M525 350q14 0 24.5 -10.5t10.5 -24.5v-290q0 -14 -10.5 -24.5t-24.5 -10.5t-24.5 10.5t-10.5 24.5v45q-35 -38 -78.5 -59t-91.5 -21q-56 0 -105 28.5t-86 77t-58 114t-21 140.5t21 140.5t58 114t86 77t105 28.5q59 0 107.5 -29t90.5 -85q6 -9 10.5 -15.5t4.5 -15.5
q0 -15 -10.5 -25t-25.5 -10q-21 0 -33 22q-28 41 -65 64.5t-79 23.5q-41 0 -77.5 -22.5t-63.5 -61.5t-43 -91.5t-16 -112.5t16 -113t43 -92.5t63.5 -63t77.5 -23.5q53 0 98 38.5t72 101.5v80h-118q-14 0 -24.5 10.5t-10.5 24.5t10.5 24.5t24.5 10.5h153zM315 -231
q-11 -9 -24 -9q-14 0 -24.5 10.5t-10.5 24.5q0 11 5 17.5t11 12.5q17 15 26 35.5t9 43.5l-3 23q0 14 10.5 24.5t24.5 10.5t24 -10t12 -24q1 -6 1.5 -12t0.5 -12q0 -40 -16.5 -75t-45.5 -60z" />
    <glyph glyph-name="gcommaaccent" unicode="&#x123;" horiz-adv-x="520" 
d="M135 -117q18 -24 45.5 -38.5t59.5 -14.5q27 0 50.5 10t41.5 28t28 41.5t10 50.5v87q-26 -26 -57.5 -41.5t-67.5 -15.5q-41 0 -76.5 19.5t-61.5 52.5t-41.5 77.5t-15.5 95.5t15.5 95.5t41.5 77.5t61.5 52.5t76.5 19.5q36 0 67.5 -15t57.5 -42v22q0 14 10.5 24.5t24.5 10.5
t24.5 -10.5t10.5 -24.5v-485q0 -41 -16 -77.5t-43 -63.5t-63.5 -43t-77.5 -16q-48 0 -89.5 21t-68.5 56q-5 5 -7 11.5t-2 12.5q0 14 10.5 24.5t24.5 10.5q17 0 27 -13zM370 235q0 36 -10 68t-27 56t-39.5 37.5t-48.5 13.5t-48.5 -13.5t-39.5 -37.5t-27 -56t-10 -68t10 -68
t27 -56t39.5 -37.5t48.5 -13.5t48.5 13.5t39.5 37.5t27 56t10 68zM264 701q10 9 24 9t24.5 -10.5t10.5 -24.5q0 -11 -5 -17.5t-11 -12.5q-17 -15 -26 -35.5t-9 -43.5l3 -23q0 -14 -10.5 -24.5t-24.5 -10.5t-24 10t-12 24q-1 6 -1.5 12t-0.5 12q0 40 16.5 75t45.5 60z" />
    <glyph glyph-name="Hcircumflex" unicode="&#x124;" horiz-adv-x="650" 
d="M90 675q0 14 10.5 24.5t24.5 10.5t24.5 -10.5t10.5 -24.5v-255h330v255q0 14 10.5 24.5t24.5 10.5t24.5 -10.5t10.5 -24.5v-650q0 -14 -10.5 -24.5t-24.5 -10.5t-24.5 10.5t-10.5 24.5v325h-330v-325q0 -14 -10.5 -24.5t-24.5 -10.5t-24.5 10.5t-10.5 24.5v650zM250 749
q-10 -10 -25 -10t-25 10q-10 12 -10 25q0 15 10 25l100 100q11 11 25 11q16 0 27 -14l98 -97q10 -12 10 -25t-10 -25q-10 -10 -25 -10t-25 10l-75 75z" />
    <glyph glyph-name="hcircumflex" unicode="&#x125;" horiz-adv-x="515" 
d="M80 675q0 14 10.5 24.5t24.5 10.5t24.5 -10.5t10.5 -24.5v-241q26 21 50 33.5t60 12.5q40 0 72.5 -15t55.5 -41.5t35 -62t12 -75.5v-261q0 -14 -10.5 -24.5t-24.5 -10.5t-24.5 10.5t-10.5 24.5v261q0 52 -26.5 88t-78.5 36q-26 0 -46 -9.5t-34.5 -26t-22 -38.5t-7.5 -47
v-264q0 -14 -10.5 -24.5t-24.5 -10.5t-24.5 10.5t-10.5 24.5v650zM41 749q-10 -10 -25 -10t-25 10q-10 12 -10 25q0 15 10 25l100 100q11 11 25 11q16 0 27 -14l98 -97q10 -12 10 -25t-10 -25q-10 -10 -25 -10t-25 10l-75 75z" />
    <glyph glyph-name="Hbar" unicode="&#x126;" horiz-adv-x="650" 
d="M607 640q14 0 24.5 -10.5t10.5 -24.5t-10.5 -24.5t-24.5 -10.5h-47v-545q0 -14 -10.5 -24.5t-24.5 -10.5t-24.5 10.5t-10.5 24.5v325h-330v-325q0 -14 -10.5 -24.5t-24.5 -10.5t-24.5 10.5t-10.5 24.5v545h-46q-14 0 -24.5 10.5t-10.5 24.5t10.5 24.5t24.5 10.5h46v35
q0 14 10.5 24.5t24.5 10.5t24.5 -10.5t10.5 -24.5v-35h330v35q0 14 10.5 24.5t24.5 10.5t24.5 -10.5t10.5 -24.5v-35h47zM490 420v150h-330v-150h330z" />
    <glyph glyph-name="hbar" unicode="&#x127;" horiz-adv-x="515" 
d="M260 640q14 0 24.5 -10.5t10.5 -24.5t-10.5 -24.5t-24.5 -10.5h-110v-136q26 21 50 33.5t60 12.5q40 0 72.5 -15t55.5 -41.5t35 -62t12 -75.5v-261q0 -14 -10.5 -24.5t-24.5 -10.5t-24.5 10.5t-10.5 24.5v261q0 52 -26.5 88t-78.5 36q-26 0 -46 -9.5t-34.5 -26t-22 -38.5
t-7.5 -47v-264q0 -14 -10.5 -24.5t-24.5 -10.5t-24.5 10.5t-10.5 24.5v545h-26q-14 0 -24.5 10.5t-10.5 24.5t10.5 24.5t24.5 10.5h26v35q0 14 10.5 24.5t24.5 10.5t24.5 -10.5t10.5 -24.5v-35h110z" />
    <glyph glyph-name="Itilde" unicode="&#x128;" horiz-adv-x="250" 
d="M90 675q0 14 10.5 24.5t24.5 10.5t24.5 -10.5t10.5 -24.5v-650q0 -14 -10.5 -24.5t-24.5 -10.5t-24.5 10.5t-10.5 24.5v650zM-4 810q13 24 36 37.5t49 13.5q23 0 43 -10l35 -18q6 -3 12 -3q13 0 22 14q9 19 31 19q6 0 16 -4q19 -10 19 -32q0 -8 -5 -18q-12 -23 -34 -36
t-48 -13q-23 0 -45 11l-35 18q-6 3 -12 3q-14 0 -22 -14q-10 -19 -31 -19q-9 0 -16 4q-19 9 -19 31q0 9 4 16z" />
    <glyph glyph-name="itilde" unicode="&#x129;" horiz-adv-x="230" 
d="M80 445q0 14 10.5 24.5t24.5 10.5t24.5 -10.5t10.5 -24.5v-420q0 -14 -10.5 -24.5t-24.5 -10.5t-24.5 10.5t-10.5 24.5v420zM-14 610q13 24 36 37.5t49 13.5q23 0 43 -10l35 -18q6 -3 12 -3q13 0 22 14q9 19 31 19q6 0 16 -4q19 -10 19 -32q0 -8 -5 -18q-12 -23 -34 -36
t-48 -13q-23 0 -45 11l-35 18q-6 3 -12 3q-14 0 -22 -14q-10 -19 -31 -19q-9 0 -16 4q-19 9 -19 31q0 9 4 16z" />
    <glyph glyph-name="uni012A" unicode="&#x12a;" horiz-adv-x="250" 
d="M90 675q0 14 10.5 24.5t24.5 10.5t24.5 -10.5t10.5 -24.5v-650q0 -14 -10.5 -24.5t-24.5 -10.5t-24.5 10.5t-10.5 24.5v650zM261 840q14 0 24.5 -10.5t10.5 -24.5t-10.5 -24.5t-24.5 -10.5h-270q-14 0 -24.5 10.5t-10.5 24.5t10.5 24.5t24.5 10.5h270z" />
    <glyph glyph-name="imacron" unicode="&#x12b;" horiz-adv-x="230" 
d="M80 445q0 14 10.5 24.5t24.5 10.5t24.5 -10.5t10.5 -24.5v-420q0 -14 -10.5 -24.5t-24.5 -10.5t-24.5 10.5t-10.5 24.5v420zM251 640q14 0 24.5 -10.5t10.5 -24.5t-10.5 -24.5t-24.5 -10.5h-270q-14 0 -24.5 10.5t-10.5 24.5t10.5 24.5t24.5 10.5h270z" />
    <glyph glyph-name="Ibreve" unicode="&#x12c;" horiz-adv-x="250" 
d="M90 675q0 14 10.5 24.5t24.5 10.5t24.5 -10.5t10.5 -24.5v-650q0 -14 -10.5 -24.5t-24.5 -10.5t-24.5 10.5t-10.5 24.5v650zM264 910q14 0 24.5 -10.5t10.5 -24.5q0 -3 -1 -6.5t-4 -11.5q-10 -26 -26.5 -47t-38.5 -37t-48.5 -24.5t-54.5 -8.5q-30 0 -57.5 9.5t-50 26
t-39 39.5t-25.5 50l-1 10q0 14 10.5 24.5t24.5 10.5q25 0 33 -23q2 -4 2 -7q11 -31 39 -50.5t64 -19.5q35 0 63 19.5t40 52.5l2 4q4 11 13 17.5t20 6.5z" />
    <glyph glyph-name="uni012D" unicode="&#x12d;" horiz-adv-x="230" 
d="M80 445q0 14 10.5 24.5t24.5 10.5t24.5 -10.5t10.5 -24.5v-420q0 -14 -10.5 -24.5t-24.5 -10.5t-24.5 10.5t-10.5 24.5v420zM254 710q14 0 24.5 -10.5t10.5 -24.5q0 -3 -1 -6.5t-4 -11.5q-10 -26 -26.5 -47t-38.5 -37t-48.5 -24.5t-54.5 -8.5q-30 0 -57.5 9.5t-50 26
t-39 39.5t-25.5 50l-1 10q0 14 10.5 24.5t24.5 10.5q25 0 33 -23q2 -4 2 -7q11 -31 39 -50.5t64 -19.5q35 0 63 19.5t40 52.5l2 4q4 11 13 17.5t20 6.5z" />
    <glyph glyph-name="Iogonek" unicode="&#x12e;" horiz-adv-x="250" 
d="M98 -240q-25 0 -46.5 9.5t-38 26t-26 38t-9.5 46.5q0 26 9.5 47.5t26.5 38.5l76 76v633q0 14 10.5 24.5t24.5 10.5t24.5 -10.5t10.5 -24.5v-650q0 -17 -14 -27l-76 -77q-8 -8 -15 -18t-7 -23q0 -20 13.5 -34t33.5 -16h31q14 0 24.5 -10.5t10.5 -24.5t-10.5 -24.5
t-27.5 -10.5h-25z" />
    <glyph glyph-name="iogonek" unicode="&#x12f;" horiz-adv-x="230" 
d="M88 -240q-25 0 -46.5 9.5t-38 26t-26 38t-9.5 46.5q0 26 9.5 47.5t26.5 38.5l76 76v403q0 14 10.5 24.5t24.5 10.5t24.5 -10.5t10.5 -24.5v-420q0 -17 -14 -27l-76 -77q-8 -8 -15 -18t-7 -23q0 -20 13.5 -34t33.5 -16h31q14 0 24.5 -10.5t10.5 -24.5t-10.5 -24.5
t-27.5 -10.5h-25zM70 635q0 19 13 32t32 13t32 -13t13 -32t-13 -32t-32 -13t-32 13t-13 32z" />
    <glyph glyph-name="Idotaccent" unicode="&#x130;" horiz-adv-x="250" 
d="M90 675q0 14 10.5 24.5t24.5 10.5t24.5 -10.5t10.5 -24.5v-650q0 -14 -10.5 -24.5t-24.5 -10.5t-24.5 10.5t-10.5 24.5v650zM80 835q0 19 13 32t32 13t32 -13t13 -32t-13 -32t-32 -13t-32 13t-13 32z" />
    <glyph glyph-name="dotlessi" unicode="&#x131;" horiz-adv-x="230" 
d="M80 445q0 14 10.5 24.5t24.5 10.5t24.5 -10.5t10.5 -24.5v-420q0 -14 -10.5 -24.5t-24.5 -10.5t-24.5 10.5t-10.5 24.5v420z" />
    <glyph glyph-name="IJ" unicode="&#x132;" horiz-adv-x="675" 
d="M90 675q0 14 10.5 24.5t24.5 10.5t24.5 -10.5t10.5 -24.5v-650q0 -14 -10.5 -24.5t-24.5 -10.5t-24.5 10.5t-10.5 24.5v650zM515 674q0 14 10.5 24.5t24.5 10.5t24.5 -10.5t10.5 -24.5v-519q0 -34 -13 -64t-35.5 -52.5t-52.5 -35.5t-64 -13q-47 0 -85.5 23.5t-59.5 61.5
q-5 7 -5 20q0 14 10.5 24.5t24.5 10.5q11 0 19 -6t13 -15q12 -22 34.5 -35.5t48.5 -13.5q19 0 36.5 7.5t30.5 20.5t20.5 30t7.5 37v519z" />
    <glyph glyph-name="ij" unicode="&#x133;" horiz-adv-x="460" 
d="M80 445q0 14 10.5 24.5t24.5 10.5t24.5 -10.5t10.5 -24.5v-420q0 -14 -10.5 -24.5t-24.5 -10.5t-24.5 10.5t-10.5 24.5v420zM70 635q0 19 13 32t32 13t32 -13t13 -32t-13 -32t-32 -13t-32 13t-13 32zM181 -232q-11 3 -18.5 12.5t-7.5 21.5q0 14 10.5 24.5t24.5 10.5
q9 0 19.5 -3.5t20.5 -3.5q16 0 30.5 6t25.5 16.5t17.5 24.5t6.5 30v538q0 14 10.5 24.5t24.5 10.5t24.5 -10.5t10.5 -24.5v-535q0 -31 -12 -58.5t-32 -47.5t-47.5 -32t-58.5 -12q-25 0 -49 8zM300 635q0 19 13 32t32 13t32 -13t13 -32t-13 -32t-32 -13t-32 13t-13 32z" />
    <glyph glyph-name="Jcircumflex" unicode="&#x134;" horiz-adv-x="425" 
d="M265 674q0 14 10.5 24.5t24.5 10.5t24.5 -10.5t10.5 -24.5v-519q0 -34 -13 -64t-35.5 -52.5t-52.5 -35.5t-64 -13q-47 0 -85.5 23.5t-59.5 61.5q-5 7 -5 20q0 14 10.5 24.5t24.5 10.5q11 0 19 -6t13 -15q12 -22 34.5 -35.5t48.5 -13.5q19 0 36.5 7.5t30.5 20.5t20.5 30
t7.5 37v519zM225 749q-10 -10 -25 -10t-25 10q-10 12 -10 25q0 15 10 25l100 100q11 11 25 11q16 0 27 -14l98 -97q10 -12 10 -25t-10 -25q-10 -10 -25 -10t-25 10l-75 75z" />
    <glyph glyph-name="jcircumflex" unicode="&#x135;" horiz-adv-x="230" 
d="M-49 -232q-11 3 -18.5 12.5t-7.5 21.5q0 14 10.5 24.5t24.5 10.5q9 0 19.5 -3.5t20.5 -3.5q16 0 30.5 6t25.5 16.5t17.5 24.5t6.5 30v538q0 14 10.5 24.5t24.5 10.5t24.5 -10.5t10.5 -24.5v-535q0 -31 -12 -58.5t-32 -47.5t-47.5 -32t-58.5 -12q-25 0 -49 8zM41 549
q-10 -10 -25 -10t-25 10q-10 12 -10 25q0 15 10 25l100 100q11 11 25 11q16 0 27 -14l98 -97q10 -12 10 -25t-10 -25q-10 -10 -25 -10t-25 10l-75 75z" />
    <glyph glyph-name="Kcommaaccent" unicode="&#x136;" horiz-adv-x="610" 
d="M90 675q0 14 10.5 24.5t24.5 10.5t24.5 -10.5t10.5 -24.5v-367l280 387q5 8 12.5 11.5t16.5 3.5q16 0 25 -9.5t9 -26.5q0 -11 -6 -20l-180 -247l252 -363q6 -10 6 -19q0 -8 -3.5 -16.5t-11.5 -13.5q-7 -5 -18 -5q-8 0 -17 3.5t-14 10.5l-238 342l-113 -156v-165
q0 -14 -10.5 -24.5t-24.5 -10.5t-24.5 10.5t-10.5 24.5v650zM295 -231q-11 -9 -24 -9q-14 0 -24.5 10.5t-10.5 24.5q0 11 5 17.5t11 12.5q17 15 26 35.5t9 43.5l-3 23q0 14 10.5 24.5t24.5 10.5t24 -10t12 -24q1 -6 1.5 -12t0.5 -12q0 -40 -16.5 -75t-45.5 -60z" />
    <glyph glyph-name="kcommaaccent" unicode="&#x137;" horiz-adv-x="465" 
d="M80 675q0 14 10.5 24.5t24.5 10.5t24.5 -10.5t10.5 -24.5v-421l201 215q11 11 25 11q16 0 26 -9t10 -25q0 -15 -9 -25l-121 -130l151 -248q5 -9 5 -18q0 -18 -9 -26.5t-25 -8.5q-9 0 -17 4.5t-13 12.5l-142 231l-82 -88v-125q0 -14 -10.5 -24.5t-24.5 -10.5t-24.5 10.5
t-10.5 24.5v650zM235 -231q-11 -9 -24 -9q-14 0 -24.5 10.5t-10.5 24.5q0 11 5 17.5t11 12.5q17 15 26 35.5t9 43.5l-3 23q0 14 10.5 24.5t24.5 10.5t24 -10t12 -24q1 -6 1.5 -12t0.5 -12q0 -40 -16.5 -75t-45.5 -60z" />
    <glyph glyph-name="kgreenlandic" unicode="&#x138;" horiz-adv-x="465" 
d="M80 445q0 14 10.5 24.5t24.5 10.5t24.5 -10.5t10.5 -24.5v-191l201 215q11 11 25 11q16 0 26 -9t10 -25q0 -15 -9 -25l-121 -130l151 -248q5 -9 5 -18q0 -18 -9 -26.5t-25 -8.5q-9 0 -17 4.5t-13 12.5l-142 231l-82 -88v-125q0 -14 -10.5 -24.5t-24.5 -10.5t-24.5 10.5
t-10.5 24.5v420z" />
    <glyph glyph-name="Lacute" unicode="&#x139;" horiz-adv-x="510" 
d="M90 675q0 14 10.5 24.5t24.5 10.5t24.5 -10.5t10.5 -24.5v-605h295q14 0 24.5 -10.5t10.5 -24.5t-10.5 -24.5t-24.5 -10.5h-330q-14 0 -24.5 10.5t-10.5 24.5v640zM180 900q12 10 25 10t25 -10q10 -10 10 -25t-10 -25l-100 -100q-10 -10 -25 -10t-25 10q-10 12 -10 25
t10 25z" />
    <glyph glyph-name="lacute" unicode="&#x13a;" horiz-adv-x="230" 
d="M80 675q0 14 10.5 24.5t24.5 10.5t24.5 -10.5t10.5 -24.5v-650q0 -14 -10.5 -24.5t-24.5 -10.5t-24.5 10.5t-10.5 24.5v650zM170 900q12 10 25 10t25 -10q10 -10 10 -25t-10 -25l-100 -100q-10 -10 -25 -10t-25 10q-10 12 -10 25t10 25z" />
    <glyph glyph-name="Lcommaaccent" unicode="&#x13b;" horiz-adv-x="510" 
d="M90 675q0 14 10.5 24.5t24.5 10.5t24.5 -10.5t10.5 -24.5v-605h295q14 0 24.5 -10.5t10.5 -24.5t-10.5 -24.5t-24.5 -10.5h-330q-14 0 -24.5 10.5t-10.5 24.5v640zM265 -231q-11 -9 -24 -9q-14 0 -24.5 10.5t-10.5 24.5q0 11 5 17.5t11 12.5q17 15 26 35.5t9 43.5l-3 23
q0 14 10.5 24.5t24.5 10.5t24 -10t12 -24q1 -6 1.5 -12t0.5 -12q0 -40 -16.5 -75t-45.5 -60z" />
    <glyph glyph-name="lcommaaccent" unicode="&#x13c;" horiz-adv-x="230" 
d="M80 675q0 14 10.5 24.5t24.5 10.5t24.5 -10.5t10.5 -24.5v-650q0 -14 -10.5 -24.5t-24.5 -10.5t-24.5 10.5t-10.5 24.5v650zM90 -231q-11 -9 -24 -9q-14 0 -24.5 10.5t-10.5 24.5q0 11 5 17.5t11 12.5q17 15 26 35.5t9 43.5l-3 23q0 14 10.5 24.5t24.5 10.5t24 -10
t12 -24q1 -6 1.5 -12t0.5 -12q0 -40 -16.5 -75t-45.5 -60z" />
    <glyph glyph-name="Lcaron" unicode="&#x13d;" horiz-adv-x="510" 
d="M90 675q0 14 10.5 24.5t24.5 10.5t24.5 -10.5t10.5 -24.5v-605h295q14 0 24.5 -10.5t10.5 -24.5t-10.5 -24.5t-24.5 -10.5h-330q-14 0 -24.5 10.5t-10.5 24.5v640zM238 517q-11 -9 -24 -9q-14 0 -24.5 10.5t-10.5 24.5q0 11 5 17.5t11 12.5q35 32 35 79l-3 23
q0 14 10.5 24.5t24.5 10.5t24 -10t12 -24q1 -6 1.5 -12t0.5 -12q0 -40 -16.5 -75t-45.5 -60z" />
    <glyph glyph-name="lcaron" unicode="&#x13e;" horiz-adv-x="230" 
d="M80 675q0 14 10.5 24.5t24.5 10.5t24.5 -10.5t10.5 -24.5v-650q0 -14 -10.5 -24.5t-24.5 -10.5t-24.5 10.5t-10.5 24.5v650zM219 518q-11 -9 -24 -9q-14 0 -24.5 10.5t-10.5 24.5q0 11 5 17.5t11 12.5q35 32 35 79l-3 23q0 14 10.5 24.5t24.5 10.5t24 -10t12 -24
q1 -6 1.5 -12t0.5 -12q0 -40 -16.5 -75t-45.5 -60z" />
    <glyph glyph-name="Lslash" unicode="&#x141;" horiz-adv-x="510" 
d="M242 475q10 5 18 5q20 0 30 -18q5 -8 5 -17q0 -20 -18 -31l-117 -68v-276h295q14 0 24.5 -10.5t10.5 -24.5t-10.5 -24.5t-24.5 -10.5h-330q-14 0 -24.5 10.5t-10.5 24.5v271l-47 -27q-10 -5 -18 -5q-20 0 -30 18q-5 8 -5 17q0 20 18 31l82 47v288q0 14 10.5 24.5
t24.5 10.5t24.5 -10.5t10.5 -24.5v-247z" />
    <glyph glyph-name="lslash" unicode="&#x142;" horiz-adv-x="230" 
d="M192 475q10 5 18 5q20 0 30 -18q5 -8 5 -17q0 -20 -18 -31l-77 -45v-344q0 -14 -10.5 -24.5t-24.5 -10.5t-24.5 10.5t-10.5 24.5v303l-37 -21q-10 -5 -18 -5q-20 0 -30 18q-5 8 -5 17q0 20 18 31l72 42v265q0 14 10.5 24.5t24.5 10.5t24.5 -10.5t10.5 -24.5v-225z" />
    <glyph glyph-name="Nacute" unicode="&#x143;" horiz-adv-x="650" 
d="M525 -10q-9 0 -18 4.5t-14 12.5l-333 546v-528q0 -14 -10.5 -24.5t-24.5 -10.5t-24.5 10.5t-10.5 24.5v650q0 14 10.5 24.5t24.5 10.5q11 0 19 -5.5t13 -11.5l333 -546v528q0 14 10.5 24.5t24.5 10.5t24.5 -10.5t10.5 -24.5v-650q0 -15 -10.5 -24.5t-24.5 -10.5zM385 900
q12 10 25 10t25 -10q10 -10 10 -25t-10 -25l-100 -100q-10 -10 -25 -10t-25 10q-10 12 -10 25t10 25z" />
    <glyph glyph-name="nacute" unicode="&#x144;" horiz-adv-x="515" 
d="M365 286q0 52 -26.5 88t-78.5 36q-26 0 -46.5 -10t-34.5 -27t-21.5 -40t-7.5 -49v-259q0 -14 -10.5 -24.5t-24.5 -10.5t-24.5 10.5t-10.5 24.5v419q0 14 10.5 24.5t24.5 10.5t24.5 -10.5t10.5 -24.5v-10q26 21 50 33.5t60 12.5q40 0 72.5 -15t55.5 -41.5t35 -62t12 -75.5
v-261q0 -14 -10.5 -24.5t-24.5 -10.5t-24.5 10.5t-10.5 24.5v261zM315 700q12 10 25 10t25 -10q10 -10 10 -25t-10 -25l-100 -100q-10 -10 -25 -10t-25 10q-10 12 -10 25t10 25z" />
    <glyph glyph-name="Ncommaaccent" unicode="&#x145;" horiz-adv-x="650" 
d="M525 -10q-9 0 -18 4.5t-14 12.5l-333 546v-528q0 -14 -10.5 -24.5t-24.5 -10.5t-24.5 10.5t-10.5 24.5v650q0 14 10.5 24.5t24.5 10.5q11 0 19 -5.5t13 -11.5l333 -546v528q0 14 10.5 24.5t24.5 10.5t24.5 -10.5t10.5 -24.5v-650q0 -15 -10.5 -24.5t-24.5 -10.5z
M323 -231q-11 -9 -24 -9q-14 0 -24.5 10.5t-10.5 24.5q0 11 5 17.5t11 12.5q17 15 26 35.5t9 43.5l-3 23q0 14 10.5 24.5t24.5 10.5t24 -10t12 -24q1 -6 1.5 -12t0.5 -12q0 -40 -16.5 -75t-45.5 -60z" />
    <glyph glyph-name="ncommaaccent" unicode="&#x146;" horiz-adv-x="515" 
d="M365 286q0 52 -26.5 88t-78.5 36q-26 0 -46.5 -10t-34.5 -27t-21.5 -40t-7.5 -49v-259q0 -14 -10.5 -24.5t-24.5 -10.5t-24.5 10.5t-10.5 24.5v419q0 14 10.5 24.5t24.5 10.5t24.5 -10.5t10.5 -24.5v-10q26 21 50 33.5t60 12.5q40 0 72.5 -15t55.5 -41.5t35 -62t12 -75.5
v-261q0 -14 -10.5 -24.5t-24.5 -10.5t-24.5 10.5t-10.5 24.5v261zM230 -231q-11 -9 -24 -9q-14 0 -24.5 10.5t-10.5 24.5q0 11 5 17.5t11 12.5q17 15 26 35.5t9 43.5l-3 23q0 14 10.5 24.5t24.5 10.5t24 -10t12 -24q1 -6 1.5 -12t0.5 -12q0 -40 -16.5 -75t-45.5 -60z" />
    <glyph glyph-name="Ncaron" unicode="&#x147;" horiz-adv-x="650" 
d="M525 -10q-9 0 -18 4.5t-14 12.5l-333 546v-528q0 -14 -10.5 -24.5t-24.5 -10.5t-24.5 10.5t-10.5 24.5v650q0 14 10.5 24.5t24.5 10.5q11 0 19 -5.5t13 -11.5l333 -546v528q0 14 10.5 24.5t24.5 10.5t24.5 -10.5t10.5 -24.5v-650q0 -15 -10.5 -24.5t-24.5 -10.5zM405 900
q10 10 25 10t25 -10q10 -12 10 -25q0 -15 -10 -25l-100 -100q-5 -5 -11 -8t-14 -3q-17 0 -27 14l-98 97q-10 12 -10 25t10 25q10 10 25 10t25 -10l75 -75z" />
    <glyph glyph-name="ncaron" unicode="&#x148;" horiz-adv-x="515" 
d="M365 286q0 52 -26.5 88t-78.5 36q-26 0 -46.5 -10t-34.5 -27t-21.5 -40t-7.5 -49v-259q0 -14 -10.5 -24.5t-24.5 -10.5t-24.5 10.5t-10.5 24.5v419q0 14 10.5 24.5t24.5 10.5t24.5 -10.5t10.5 -24.5v-10q26 21 50 33.5t60 12.5q40 0 72.5 -15t55.5 -41.5t35 -62t12 -75.5
v-261q0 -14 -10.5 -24.5t-24.5 -10.5t-24.5 10.5t-10.5 24.5v261zM335 700q10 10 25 10t25 -10q10 -12 10 -25q0 -15 -10 -25l-100 -100q-5 -5 -11 -8t-14 -3q-17 0 -27 14l-98 97q-10 12 -10 25t10 25q10 10 25 10t25 -10l75 -75z" />
    <glyph glyph-name="napostrophe" unicode="&#x149;" horiz-adv-x="515" 
d="M365 286q0 52 -26.5 88t-78.5 36q-26 0 -46.5 -10t-34.5 -27t-21.5 -40t-7.5 -49v-259q0 -14 -10.5 -24.5t-24.5 -10.5t-24.5 10.5t-10.5 24.5v419q0 14 10.5 24.5t24.5 10.5t24.5 -10.5t10.5 -24.5v-10q26 21 50 33.5t60 12.5q40 0 72.5 -15t55.5 -41.5t35 -62t12 -75.5
v-261q0 -14 -10.5 -24.5t-24.5 -10.5t-24.5 10.5t-10.5 24.5v261zM66 517q-11 -9 -24 -9q-14 0 -24.5 10.5t-10.5 24.5q0 11 5 17.5t11 12.5q35 32 35 79l-3 23q0 14 10.5 24.5t24.5 10.5t24 -10t12 -24q1 -6 1.5 -12t0.5 -12q0 -40 -16.5 -75t-45.5 -60z" />
    <glyph glyph-name="Eng" unicode="&#x14a;" horiz-adv-x="650" 
d="M490 12l-330 541v-528q0 -14 -10.5 -24.5t-24.5 -10.5t-24.5 10.5t-10.5 24.5v650q0 14 10.5 24.5t24.5 10.5q11 0 19 -5.5t13 -11.5l333 -546v528q0 14 10.5 24.5t24.5 10.5t24.5 -10.5t10.5 -24.5v-765q0 -31 -12 -58.5t-32 -47.5t-47.5 -32t-58.5 -12q-18 0 -38.5 2.5
t-38.5 16.5q-9 7 -16.5 16t-7.5 21q0 14 10 24t26 10q10 0 16 -3t12 -7t14 -7t23 -3q16 0 30.5 6t25.5 16.5t17.5 24.5t6.5 30v105z" />
    <glyph glyph-name="eng" unicode="&#x14b;" horiz-adv-x="515" 
d="M365 286q0 52 -26.5 88t-78.5 36q-26 0 -46.5 -10t-34.5 -27t-21.5 -40t-7.5 -49v-259q0 -14 -10.5 -24.5t-24.5 -10.5t-24.5 10.5t-10.5 24.5v420q0 14 10.5 24.5t24.5 10.5t24.5 -10.5t10.5 -24.5v-11q26 21 50 33.5t60 12.5q40 0 72.5 -15t55.5 -41.5t35 -62t12 -75.5
v-376q0 -31 -12 -58.5t-32 -47.5t-47.5 -32t-58.5 -12q-18 0 -38.5 2.5t-38.5 16.5q-9 7 -16.5 16t-7.5 21q0 14 10 24t26 10q10 0 16 -3t12 -7t14 -7t23 -3q16 0 30.5 6t25.5 16.5t17.5 24.5t6.5 30v379z" />
    <glyph glyph-name="Omacron" unicode="&#x14c;" horiz-adv-x="640" 
d="M50 350q0 75 21 140.5t58 114t86 77t105 28.5t105 -28.5t86 -77t58 -114t21 -140.5t-21 -140.5t-58 -114t-86 -77t-105 -28.5t-105 28.5t-86 77t-58 114t-21 140.5zM120 352q0 -60 16 -113t43 -92.5t63.5 -63t77.5 -23.5t77.5 23.5t63.5 63t43 92.5t16 113t-16 112.5
t-43 91.5t-63.5 61.5t-77.5 22.5t-77.5 -22.5t-63.5 -61.5t-43 -91.5t-16 -112.5zM455 840q14 0 24.5 -10.5t10.5 -24.5t-10.5 -24.5t-24.5 -10.5h-270q-14 0 -24.5 10.5t-10.5 24.5t10.5 24.5t24.5 10.5h270z" />
    <glyph glyph-name="omacron" unicode="&#x14d;" horiz-adv-x="490" 
d="M50 234q0 51 15.5 96t41.5 78t61.5 52.5t76.5 19.5q40 0 76 -19.5t62 -52.5t41.5 -78t15.5 -96t-15.5 -95.5t-41.5 -77.5t-62 -52t-76 -19q-41 0 -76.5 19t-61.5 52t-41.5 77.5t-15.5 95.5zM120 234q0 -36 10 -68t27 -55.5t39.5 -37t48.5 -13.5t48.5 13.5t39.5 37
t27 55.5t10 68t-10 68t-27 56t-39.5 38t-48.5 14t-48.5 -14t-39.5 -38t-27 -56t-10 -68zM380 640q14 0 24.5 -10.5t10.5 -24.5t-10.5 -24.5t-24.5 -10.5h-270q-14 0 -24.5 10.5t-10.5 24.5t10.5 24.5t24.5 10.5h270z" />
    <glyph glyph-name="Obreve" unicode="&#x14e;" horiz-adv-x="640" 
d="M50 350q0 75 21 140.5t58 114t86 77t105 28.5t105 -28.5t86 -77t58 -114t21 -140.5t-21 -140.5t-58 -114t-86 -77t-105 -28.5t-105 28.5t-86 77t-58 114t-21 140.5zM120 352q0 -60 16 -113t43 -92.5t63.5 -63t77.5 -23.5t77.5 23.5t63.5 63t43 92.5t16 113t-16 112.5
t-43 91.5t-63.5 61.5t-77.5 22.5t-77.5 -22.5t-63.5 -61.5t-43 -91.5t-16 -112.5zM458 910q14 0 24.5 -10.5t10.5 -24.5q0 -3 -1 -6.5t-4 -11.5q-10 -26 -26.5 -47t-38.5 -37t-48.5 -24.5t-54.5 -8.5q-30 0 -57.5 9.5t-50 26t-39 39.5t-25.5 50l-1 10q0 14 10.5 24.5
t24.5 10.5q25 0 33 -23q2 -4 2 -7q11 -31 39 -50.5t64 -19.5q35 0 63 19.5t40 52.5l2 4q4 11 13 17.5t20 6.5z" />
    <glyph glyph-name="obreve" unicode="&#x14f;" horiz-adv-x="490" 
d="M50 234q0 51 15.5 96t41.5 78t61.5 52.5t76.5 19.5q40 0 76 -19.5t62 -52.5t41.5 -78t15.5 -96t-15.5 -95.5t-41.5 -77.5t-62 -52t-76 -19q-41 0 -76.5 19t-61.5 52t-41.5 77.5t-15.5 95.5zM120 234q0 -36 10 -68t27 -55.5t39.5 -37t48.5 -13.5t48.5 13.5t39.5 37
t27 55.5t10 68t-10 68t-27 56t-39.5 38t-48.5 14t-48.5 -14t-39.5 -38t-27 -56t-10 -68zM383 710q14 0 24.5 -10.5t10.5 -24.5q0 -3 -1 -6.5t-4 -11.5q-10 -26 -26.5 -47t-38.5 -37t-48.5 -24.5t-54.5 -8.5q-30 0 -57.5 9.5t-50 26t-39 39.5t-25.5 50l-1 10q0 14 10.5 24.5
t24.5 10.5q25 0 33 -23q2 -4 2 -7q11 -31 39 -50.5t64 -19.5q35 0 63 19.5t40 52.5l2 4q4 11 13 17.5t20 6.5z" />
    <glyph glyph-name="Ohungarumlaut" unicode="&#x150;" horiz-adv-x="640" 
d="M50 350q0 75 21 140.5t58 114t86 77t105 28.5t105 -28.5t86 -77t58 -114t21 -140.5t-21 -140.5t-58 -114t-86 -77t-105 -28.5t-105 28.5t-86 77t-58 114t-21 140.5zM120 352q0 -60 16 -113t43 -92.5t63.5 -63t77.5 -23.5t77.5 23.5t63.5 63t43 92.5t16 113t-16 112.5
t-43 91.5t-63.5 61.5t-77.5 22.5t-77.5 -22.5t-63.5 -61.5t-43 -91.5t-16 -112.5zM295 900q12 10 25 10t25 -10q10 -10 10 -25t-10 -25l-100 -100q-10 -10 -25 -10t-25 10q-10 12 -10 25t10 25zM495 900q12 10 25 10t25 -10q10 -10 10 -25t-10 -25l-100 -100
q-10 -10 -25 -10t-25 10q-10 12 -10 25t10 25z" />
    <glyph glyph-name="ohungarumlaut" unicode="&#x151;" horiz-adv-x="490" 
d="M50 234q0 51 15.5 96t41.5 78t61.5 52.5t76.5 19.5q40 0 76 -19.5t62 -52.5t41.5 -78t15.5 -96t-15.5 -95.5t-41.5 -77.5t-62 -52t-76 -19q-41 0 -76.5 19t-61.5 52t-41.5 77.5t-15.5 95.5zM120 234q0 -36 10 -68t27 -55.5t39.5 -37t48.5 -13.5t48.5 13.5t39.5 37
t27 55.5t10 68t-10 68t-27 56t-39.5 38t-48.5 14t-48.5 -14t-39.5 -38t-27 -56t-10 -68zM220 700q12 10 25 10t25 -10q10 -10 10 -25t-10 -25l-100 -100q-10 -10 -25 -10t-25 10q-10 12 -10 25t10 25zM420 700q12 10 25 10t25 -10q10 -10 10 -25t-10 -25l-100 -100
q-10 -10 -25 -10t-25 10q-10 12 -10 25t10 25z" />
    <glyph glyph-name="OE" unicode="&#x152;" horiz-adv-x="910" 
d="M835 700q14 0 24.5 -10.5t10.5 -24.5t-10.5 -24.5t-24.5 -10.5h-295v-210h175q14 0 24.5 -10.5t10.5 -24.5t-10.5 -24.5t-24.5 -10.5h-175v-280h295q14 0 24.5 -10.5t10.5 -24.5t-10.5 -24.5t-24.5 -10.5h-519q-55 0 -103.5 28t-84.5 75.5t-57 111t-21 135.5t21 135.5
t57 111t84.5 75.5t103.5 28h519zM120 350q0 -57 15.5 -108t42.5 -89.5t63 -60.5t76 -22h153v560h-153q-40 0 -76 -22t-63 -60t-42.5 -89t-15.5 -109z" />
    <glyph glyph-name="oe" unicode="&#x153;" horiz-adv-x="800" 
d="M728 98q-25 -46 -66 -74.5t-97 -33.5q-51 0 -92.5 28t-67.5 76q-26 -48 -68 -76t-92 -28q-41 0 -76.5 19t-61.5 52t-41.5 77.5t-15.5 95.5t15.5 96t41.5 78t61.5 52.5t76.5 19.5q50 0 92 -28.5t68 -76.5q26 48 67.5 76.5t92.5 28.5q37 0 68.5 -16t55.5 -44.5t39.5 -68
t20.5 -86.5q-1 -14 -11.5 -24.5t-25.5 -10.5h-272q1 -36 11 -67t27 -54t39 -36t48 -13q35 0 62.5 23t41.5 53q10 19 31 19q14 0 24.5 -10.5t10.5 -24.5q0 -10 -4 -17zM120 234q0 -36 10 -68t27 -55.5t39.5 -37t48.5 -13.5q25 0 47.5 13t39 35.5t27 53t11.5 65.5v14
q-1 35 -11.5 65.5t-27 53.5t-39 36.5t-47.5 13.5q-26 0 -48.5 -14t-39.5 -38t-27 -56t-10 -68zM565 411q-40 0 -71 -31t-45 -80h223q-14 49 -41 80t-66 31z" />
    <glyph glyph-name="Racute" unicode="&#x154;" horiz-adv-x="600" 
d="M525 508q0 -68 -38 -115t-98 -67l165 -284q4 -7 4 -16t-4.5 -18t-12.5 -14q-7 -4 -16 -4t-18 4.5t-14 12.5l-179 308h-154v-290q0 -14 -10.5 -24.5t-24.5 -10.5t-24.5 10.5t-10.5 24.5v640q0 14 10.5 24.5t24.5 10.5h190q43 0 81.5 -13.5t67 -39t45 -61t16.5 -78.5z
M315 385q29 0 54.5 8.5t44.5 24t30 38.5t11 52t-11 51.5t-30 38.5t-44.5 24t-54.5 8h-155v-245h155zM325 920q12 10 25 10t25 -10q10 -10 10 -25t-10 -25l-100 -100q-10 -10 -25 -10t-25 10q-10 12 -10 25t10 25z" />
    <glyph glyph-name="racute" unicode="&#x155;" horiz-adv-x="360" 
d="M150 435q26 21 50 33.5t60 12.5q10 0 23.5 -1.5t24.5 -5.5t19 -12.5t8 -21.5q0 -14 -10.5 -24.5t-24.5 -10.5q-11 0 -20 3t-20 3q-26 0 -46.5 -10t-34.5 -27t-21.5 -40t-7.5 -49v-260q0 -14 -10.5 -24.5t-24.5 -10.5t-24.5 10.5t-10.5 24.5v420q0 14 10.5 24.5t24.5 10.5
t24.5 -10.5t10.5 -24.5v-10zM265 700q12 10 25 10t25 -10q10 -10 10 -25t-10 -25l-100 -100q-10 -10 -25 -10t-25 10q-10 12 -10 25t10 25z" />
    <glyph glyph-name="Rcommaaccent" unicode="&#x156;" horiz-adv-x="600" 
d="M525 508q0 -68 -38 -115t-98 -67l165 -284q4 -7 4 -16t-4.5 -18t-12.5 -14q-7 -4 -16 -4t-18 4.5t-14 12.5l-179 308h-154v-290q0 -14 -10.5 -24.5t-24.5 -10.5t-24.5 10.5t-10.5 24.5v640q0 14 10.5 24.5t24.5 10.5h190q43 0 81.5 -13.5t67 -39t45 -61t16.5 -78.5z
M315 385q29 0 54.5 8.5t44.5 24t30 38.5t11 52t-11 51.5t-30 38.5t-44.5 24t-54.5 8h-155v-245h155zM285 -231q-11 -9 -24 -9q-14 0 -24.5 10.5t-10.5 24.5q0 11 5 17.5t11 12.5q17 15 26 35.5t9 43.5l-3 23q0 14 10.5 24.5t24.5 10.5t24 -10t12 -24q1 -6 1.5 -12t0.5 -12
q0 -40 -16.5 -75t-45.5 -60z" />
    <glyph glyph-name="rcommaaccent" unicode="&#x157;" horiz-adv-x="360" 
d="M150 435q26 21 50 33.5t60 12.5q10 0 23.5 -1.5t24.5 -5.5t19 -12.5t8 -21.5q0 -14 -10.5 -24.5t-24.5 -10.5q-11 0 -20 3t-20 3q-26 0 -46.5 -10t-34.5 -27t-21.5 -40t-7.5 -49v-260q0 -14 -10.5 -24.5t-24.5 -10.5t-24.5 10.5t-10.5 24.5v420q0 14 10.5 24.5t24.5 10.5
t24.5 -10.5t10.5 -24.5v-10zM90 -231q-11 -9 -24 -9q-14 0 -24.5 10.5t-10.5 24.5q0 11 5 17.5t11 12.5q17 15 26 35.5t9 43.5l-3 23q0 14 10.5 24.5t24.5 10.5t24 -10t12 -24q1 -6 1.5 -12t0.5 -12q0 -40 -16.5 -75t-45.5 -60z" />
    <glyph glyph-name="Rcaron" unicode="&#x158;" horiz-adv-x="600" 
d="M525 508q0 -68 -38 -115t-98 -67l165 -284q4 -7 4 -16t-4.5 -18t-12.5 -14q-7 -4 -16 -4t-18 4.5t-14 12.5l-179 308h-154v-290q0 -14 -10.5 -24.5t-24.5 -10.5t-24.5 10.5t-10.5 24.5v640q0 14 10.5 24.5t24.5 10.5h190q43 0 81.5 -13.5t67 -39t45 -61t16.5 -78.5z
M315 385q29 0 54.5 8.5t44.5 24t30 38.5t11 52t-11 51.5t-30 38.5t-44.5 24t-54.5 8h-155v-245h155zM345 920q10 10 25 10t25 -10q10 -12 10 -25q0 -15 -10 -25l-100 -100q-5 -5 -11 -8t-14 -3q-17 0 -27 14l-98 97q-10 12 -10 25t10 25q10 10 25 10t25 -10l75 -75z" />
    <glyph glyph-name="rcaron" unicode="&#x159;" horiz-adv-x="360" 
d="M150 435q26 21 50 33.5t60 12.5q10 0 23.5 -1.5t24.5 -5.5t19 -12.5t8 -21.5q0 -14 -10.5 -24.5t-24.5 -10.5q-11 0 -20 3t-20 3q-26 0 -46.5 -10t-34.5 -27t-21.5 -40t-7.5 -49v-260q0 -14 -10.5 -24.5t-24.5 -10.5t-24.5 10.5t-10.5 24.5v420q0 14 10.5 24.5t24.5 10.5
t24.5 -10.5t10.5 -24.5v-10zM285 700q10 10 25 10t25 -10q10 -12 10 -25q0 -15 -10 -25l-100 -100q-5 -5 -11 -8t-14 -3q-17 0 -27 14l-98 97q-10 12 -10 25t10 25q10 10 25 10t25 -10l75 -75z" />
    <glyph glyph-name="Sacute" unicode="&#x15a;" horiz-adv-x="550" 
d="M438 624q6 -9 6 -19q0 -14 -10.5 -24.5t-24.5 -10.5q-12 0 -21 7t-17 18q-7 10 -19.5 18.5t-28 14.5t-32 9t-29.5 3q-23 0 -46.5 -7.5t-42.5 -21.5t-31 -34.5t-12 -46.5t12 -45.5t30.5 -33t42 -22t47.5 -12.5q45 -8 87 -25t74.5 -43t52 -63t19.5 -86t-20 -88t-53 -66
t-75 -41.5t-85 -14.5q-27 0 -55.5 6t-54.5 17.5t-48 28t-36 37.5q-6 9 -8 14t-2 12q0 14 10.5 24.5t24.5 10.5q12 0 18.5 -5.5t12.5 -13.5q11 -14 27 -25t35 -19t38.5 -12.5t37.5 -4.5q29 0 58 9t52.5 27t38 44t14.5 60t-14.5 58.5t-38 41.5t-52.5 27.5t-58 16.5
q-38 7 -74 20.5t-64.5 35t-46 53.5t-17.5 77q0 41 17.5 74.5t46 57t64.5 36t74 12.5q24 0 50 -6.5t50 -17.5t44 -27t32 -35zM317 900q12 10 25 10t25 -10q10 -10 10 -25t-10 -25l-100 -100q-10 -10 -25 -10t-25 10q-10 12 -10 25t10 25z" />
    <glyph glyph-name="sacute" unicode="&#x15b;" horiz-adv-x="422" 
d="M344 410q4 -7 4 -15q0 -14 -9.5 -24.5t-23.5 -10.5q-11 0 -18 6t-17 16q-23 21 -42.5 24.5t-39.5 3.5q-31 0 -53 -17.5t-22 -42.5t15 -42.5t60 -17.5h7q37 0 68 -12t53.5 -32.5t35.5 -47.5t13 -58t-13 -58.5t-35.5 -47.5t-54 -32t-67.5 -12q-30 0 -56.5 8t-48 21.5
t-37.5 32.5t-23 42q-2 5 -2 7.5v3.5q0 14 10.5 24.5t24.5 10.5q11 0 20 -6.5t13 -17.5q9 -24 36 -40t63 -16q44 0 72 23.5t28 56.5q0 32 -28.5 56t-71.5 24h-7q-75 0 -110 38t-35 92q0 27 11.5 50.5t31 41.5t46 28t56.5 10q20 0 41 -4.5t40.5 -13t35.5 -20t26 -26.5z
M250 700q12 10 25 10t25 -10q10 -10 10 -25t-10 -25l-100 -100q-10 -10 -25 -10t-25 10q-10 12 -10 25t10 25z" />
    <glyph glyph-name="Scircumflex" unicode="&#x15c;" horiz-adv-x="550" 
d="M438 624q6 -9 6 -19q0 -14 -10.5 -24.5t-24.5 -10.5q-12 0 -21 7t-17 18q-7 10 -19.5 18.5t-28 14.5t-32 9t-29.5 3q-23 0 -46.5 -7.5t-42.5 -21.5t-31 -34.5t-12 -46.5t12 -45.5t30.5 -33t42 -22t47.5 -12.5q45 -8 87 -25t74.5 -43t52 -63t19.5 -86t-20 -88t-53 -66
t-75 -41.5t-85 -14.5q-27 0 -55.5 6t-54.5 17.5t-48 28t-36 37.5q-6 9 -8 14t-2 12q0 14 10.5 24.5t24.5 10.5q12 0 18.5 -5.5t12.5 -13.5q11 -14 27 -25t35 -19t38.5 -12.5t37.5 -4.5q29 0 58 9t52.5 27t38 44t14.5 60t-14.5 58.5t-38 41.5t-52.5 27.5t-58 16.5
q-38 7 -74 20.5t-64.5 35t-46 53.5t-17.5 77q0 41 17.5 74.5t46 57t64.5 36t74 12.5q24 0 50 -6.5t50 -17.5t44 -27t32 -35zM187 749q-10 -10 -25 -10t-25 10q-10 12 -10 25q0 15 10 25l100 100q11 11 25 11q16 0 27 -14l98 -97q10 -12 10 -25t-10 -25q-10 -10 -25 -10
t-25 10l-75 75z" />
    <glyph glyph-name="scircumflex" unicode="&#x15d;" horiz-adv-x="422" 
d="M344 410q4 -7 4 -15q0 -14 -9.5 -24.5t-23.5 -10.5q-11 0 -18 6t-17 16q-23 21 -42.5 24.5t-39.5 3.5q-31 0 -53 -17.5t-22 -42.5t15 -42.5t60 -17.5h7q37 0 68 -12t53.5 -32.5t35.5 -47.5t13 -58t-13 -58.5t-35.5 -47.5t-54 -32t-67.5 -12q-30 0 -56.5 8t-48 21.5
t-37.5 32.5t-23 42q-2 5 -2 7.5v3.5q0 14 10.5 24.5t24.5 10.5q11 0 20 -6.5t13 -17.5q9 -24 36 -40t63 -16q44 0 72 23.5t28 56.5q0 32 -28.5 56t-71.5 24h-7q-75 0 -110 38t-35 92q0 27 11.5 50.5t31 41.5t46 28t56.5 10q20 0 41 -4.5t40.5 -13t35.5 -20t26 -26.5z
M120 549q-10 -10 -25 -10t-25 10q-10 12 -10 25q0 15 10 25l100 100q11 11 25 11q16 0 27 -14l98 -97q10 -12 10 -25t-10 -25q-10 -10 -25 -10t-25 10l-75 75z" />
    <glyph glyph-name="Scedilla" unicode="&#x15e;" horiz-adv-x="550" 
d="M438 624q6 -9 6 -19q0 -14 -10.5 -24.5t-24.5 -10.5q-12 0 -21 7t-17 18q-7 10 -19.5 18.5t-28 14.5t-32 9t-29.5 3q-23 0 -46.5 -7.5t-42.5 -21.5t-31 -34.5t-12 -46.5t12 -45.5t30.5 -33t42 -22t47.5 -12.5q45 -8 87 -25t74.5 -43t52 -63t19.5 -86t-20 -88t-53 -66
t-75 -41.5t-85 -14.5q-27 0 -55.5 6t-54.5 17.5t-48 28t-36 37.5q-6 9 -8 14t-2 12q0 14 10.5 24.5t24.5 10.5q12 0 18.5 -5.5t12.5 -13.5q11 -14 27 -25t35 -19t38.5 -12.5t37.5 -4.5q29 0 58 9t52.5 27t38 44t14.5 60t-14.5 58.5t-38 41.5t-52.5 27.5t-58 16.5
q-38 7 -74 20.5t-64.5 35t-46 53.5t-17.5 77q0 41 17.5 74.5t46 57t64.5 36t74 12.5q24 0 50 -6.5t50 -17.5t44 -27t32 -35zM273 -231q-11 -9 -24 -9q-14 0 -24.5 10.5t-10.5 24.5q0 11 5 17.5t11 12.5q17 15 26 35.5t9 43.5l-3 23q0 14 10.5 24.5t24.5 10.5t24 -10t12 -24
q1 -6 1.5 -12t0.5 -12q0 -40 -16.5 -75t-45.5 -60z" />
    <glyph glyph-name="scedilla" unicode="&#x15f;" horiz-adv-x="422" 
d="M344 410q4 -7 4 -15q0 -14 -9.5 -24.5t-23.5 -10.5q-11 0 -18 6t-17 16q-23 21 -42.5 24.5t-39.5 3.5q-31 0 -53 -17.5t-22 -42.5t15 -42.5t60 -17.5h7q37 0 68 -12t53.5 -32.5t35.5 -47.5t13 -58t-13 -58.5t-35.5 -47.5t-54 -32t-67.5 -12q-30 0 -56.5 8t-48 21.5
t-37.5 32.5t-23 42q-2 5 -2 7.5v3.5q0 14 10.5 24.5t24.5 10.5q11 0 20 -6.5t13 -17.5q9 -24 36 -40t63 -16q44 0 72 23.5t28 56.5q0 32 -28.5 56t-71.5 24h-7q-75 0 -110 38t-35 92q0 27 11.5 50.5t31 41.5t46 28t56.5 10q20 0 41 -4.5t40.5 -13t35.5 -20t26 -26.5z
M209 -231q-11 -9 -24 -9q-14 0 -24.5 10.5t-10.5 24.5q0 11 5 17.5t11 12.5q17 15 26 35.5t9 43.5l-3 23q0 14 10.5 24.5t24.5 10.5t24 -10t12 -24q1 -6 1.5 -12t0.5 -12q0 -40 -16.5 -75t-45.5 -60z" />
    <glyph glyph-name="Scaron" unicode="&#x160;" horiz-adv-x="550" 
d="M438 624q6 -9 6 -19q0 -14 -10.5 -24.5t-24.5 -10.5q-12 0 -21 7t-17 18q-7 10 -19.5 18.5t-28 14.5t-32 9t-29.5 3q-23 0 -46.5 -7.5t-42.5 -21.5t-31 -34.5t-12 -46.5t12 -45.5t30.5 -33t42 -22t47.5 -12.5q45 -8 87 -25t74.5 -43t52 -63t19.5 -86t-20 -88t-53 -66
t-75 -41.5t-85 -14.5q-27 0 -55.5 6t-54.5 17.5t-48 28t-36 37.5q-6 9 -8 14t-2 12q0 14 10.5 24.5t24.5 10.5q12 0 18.5 -5.5t12.5 -13.5q11 -14 27 -25t35 -19t38.5 -12.5t37.5 -4.5q29 0 58 9t52.5 27t38 44t14.5 60t-14.5 58.5t-38 41.5t-52.5 27.5t-58 16.5
q-38 7 -74 20.5t-64.5 35t-46 53.5t-17.5 77q0 41 17.5 74.5t46 57t64.5 36t74 12.5q24 0 50 -6.5t50 -17.5t44 -27t32 -35zM337 900q10 10 25 10t25 -10q10 -12 10 -25q0 -15 -10 -25l-100 -100q-5 -5 -11 -8t-14 -3q-17 0 -27 14l-98 97q-10 12 -10 25t10 25q10 10 25 10
t25 -10l75 -75z" />
    <glyph glyph-name="scaron" unicode="&#x161;" horiz-adv-x="422" 
d="M344 410q4 -7 4 -15q0 -14 -9.5 -24.5t-23.5 -10.5q-11 0 -18 6t-17 16q-23 21 -42.5 24.5t-39.5 3.5q-31 0 -53 -17.5t-22 -42.5t15 -42.5t60 -17.5h7q37 0 68 -12t53.5 -32.5t35.5 -47.5t13 -58t-13 -58.5t-35.5 -47.5t-54 -32t-67.5 -12q-30 0 -56.5 8t-48 21.5
t-37.5 32.5t-23 42q-2 5 -2 7.5v3.5q0 14 10.5 24.5t24.5 10.5q11 0 20 -6.5t13 -17.5q9 -24 36 -40t63 -16q44 0 72 23.5t28 56.5q0 32 -28.5 56t-71.5 24h-7q-75 0 -110 38t-35 92q0 27 11.5 50.5t31 41.5t46 28t56.5 10q20 0 41 -4.5t40.5 -13t35.5 -20t26 -26.5z
M269 700q10 10 25 10t25 -10q10 -12 10 -25q0 -15 -10 -25l-100 -100q-5 -5 -11 -8t-14 -3q-17 0 -27 14l-98 97q-10 12 -10 25t10 25q10 10 25 10t25 -10l75 -75z" />
    <glyph glyph-name="Tcommaaccent" unicode="&#x162;" horiz-adv-x="540" 
d="M506 700q14 0 24.5 -10.5t10.5 -24.5t-10.5 -24.5t-24.5 -10.5h-201v-605q0 -14 -10.5 -24.5t-24.5 -10.5t-24.5 10.5t-10.5 24.5v605h-201q-14 0 -24.5 10.5t-10.5 24.5t10.5 24.5t24.5 10.5h472zM245 -231q-11 -9 -24 -9q-14 0 -24.5 10.5t-10.5 24.5q0 11 5 17.5
t11 12.5q17 15 26 35.5t9 43.5l-3 23q0 14 10.5 24.5t24.5 10.5t24 -10t12 -24q1 -6 1.5 -12t0.5 -12q0 -40 -16.5 -75t-45.5 -60z" />
    <glyph glyph-name="tcommaaccent" unicode="&#x163;" horiz-adv-x="280" 
d="M159 105q0 -19 13 -32t32 -13h20q14 0 24.5 -10.5t10.5 -24.5t-9.5 -24.5t-26.5 -10.5h-19q-24 0 -45 9t-36.5 25t-24.5 37.5t-9 45.5v293h-44q-14 0 -24.5 10.5t-10.5 24.5t10.5 24.5t24.5 10.5h44v95q0 14 10.5 24.5t24.5 10.5t24.5 -10.5t10.5 -24.5v-95h65
q14 0 24.5 -10.5t10.5 -24.5t-10.5 -24.5t-24.5 -10.5h-65v-295zM155 -231q-11 -9 -24 -9q-14 0 -24.5 10.5t-10.5 24.5q0 11 5 17.5t11 12.5q17 15 26 35.5t9 43.5l-3 23q0 14 10.5 24.5t24.5 10.5t24 -10t12 -24q1 -6 1.5 -12t0.5 -12q0 -40 -16.5 -75t-45.5 -60z" />
    <glyph glyph-name="Tcaron" unicode="&#x164;" horiz-adv-x="540" 
d="M506 700q14 0 24.5 -10.5t10.5 -24.5t-10.5 -24.5t-24.5 -10.5h-201v-605q0 -14 -10.5 -24.5t-24.5 -10.5t-24.5 10.5t-10.5 24.5v605h-201q-14 0 -24.5 10.5t-10.5 24.5t10.5 24.5t24.5 10.5h472zM345 934q10 10 25 10t25 -10q10 -12 10 -25q0 -15 -10 -25l-100 -100
q-5 -5 -11 -8t-14 -3q-17 0 -27 14l-98 97q-10 12 -10 25t10 25q10 10 25 10t25 -10l75 -75z" />
    <glyph glyph-name="tcaron" unicode="&#x165;" horiz-adv-x="280" 
d="M256 517q-11 -9 -24 -9q-14 0 -24.5 10.5t-10.5 24.5q0 11 5 17.5t11 12.5q35 32 35 79l-3 23q0 14 10.5 24.5t24.5 10.5t24 -10t12 -24q1 -6 1.5 -12t0.5 -12q0 -40 -16.5 -75t-45.5 -60zM159 105q0 -19 13 -32t32 -13h20q14 0 24.5 -10.5t10.5 -24.5t-9.5 -24.5
t-26.5 -10.5h-19q-24 0 -45 9t-36.5 25t-24.5 37.5t-9 45.5v293h-44q-14 0 -24.5 10.5t-10.5 24.5t10.5 24.5t24.5 10.5h44v95q0 14 10.5 24.5t24.5 10.5t24.5 -10.5t10.5 -24.5v-95h65q14 0 24.5 -10.5t10.5 -24.5t-10.5 -24.5t-24.5 -10.5h-65v-295z" />
    <glyph glyph-name="Tbar" unicode="&#x166;" horiz-adv-x="540" 
d="M406 420q14 0 24.5 -10.5t10.5 -24.5t-10.5 -24.5t-24.5 -10.5h-101v-325q0 -14 -10.5 -24.5t-24.5 -10.5t-24.5 10.5t-10.5 24.5v325h-100q-14 0 -24.5 10.5t-10.5 24.5t10.5 24.5t24.5 10.5h100v210h-201q-14 0 -24.5 10.5t-10.5 24.5t10.5 24.5t24.5 10.5h472
q14 0 24.5 -10.5t10.5 -24.5t-10.5 -24.5t-24.5 -10.5h-201v-210h101z" />
    <glyph glyph-name="tbar" unicode="&#x167;" horiz-adv-x="280" 
d="M159 105q0 -19 13 -32t32 -13h20q14 0 24.5 -10.5t10.5 -24.5t-9.5 -24.5t-26.5 -10.5h-19q-24 0 -44.5 9t-36.5 25t-25 37.5t-9 45.5v158h-45q-14 0 -24.5 10.5t-10.5 24.5t10.5 24.5t24.5 10.5h45v65h-44q-14 0 -24.5 10.5t-10.5 24.5t10.5 24.5t24.5 10.5h44v95
q0 14 10.5 24.5t24.5 10.5t24.5 -10.5t10.5 -24.5v-95h65q14 0 24.5 -10.5t10.5 -24.5t-10.5 -24.5t-24.5 -10.5h-65v-65h66q14 0 24.5 -10.5t10.5 -24.5t-10.5 -24.5t-24.5 -10.5h-66v-160z" />
    <glyph glyph-name="Utilde" unicode="&#x168;" horiz-adv-x="650" 
d="M160 225q0 -34 13 -64t35.5 -52.5t52.5 -35.5t64 -13t64 13t52.5 35.5t35.5 52.5t13 64v450q0 14 10.5 24.5t24.5 10.5t24.5 -10.5t10.5 -24.5v-450q0 -49 -18.5 -91.5t-50.5 -74.5t-74.5 -50.5t-91.5 -18.5t-91.5 18.5t-74.5 50.5t-50.5 74.5t-18.5 91.5v450
q0 14 10.5 24.5t24.5 10.5t24.5 -10.5t10.5 -24.5v-450zM195 810q13 24 36 37.5t49 13.5q23 0 43 -10l35 -18q6 -3 12 -3q13 0 22 14q9 19 31 19q6 0 16 -4q19 -10 19 -32q0 -8 -5 -18q-12 -23 -34 -36t-48 -13q-23 0 -45 11l-35 18q-6 3 -12 3q-14 0 -22 -14
q-10 -19 -31 -19q-9 0 -16 4q-19 9 -19 31q0 9 4 16z" />
    <glyph glyph-name="utilde" unicode="&#x169;" horiz-adv-x="505" 
d="M140 184q0 -52 26.5 -88t78.5 -36q26 0 46.5 10t34.5 27t21.5 40t7.5 49v259q0 14 10.5 24.5t24.5 10.5t24.5 -10.5t10.5 -24.5v-419q0 -14 -10.5 -24.5t-24.5 -10.5t-24.5 10.5t-10.5 24.5v10q-26 -21 -50 -33.5t-60 -12.5q-41 0 -73 15t-55 41.5t-35 61.5t-12 76v261
q0 14 10.5 24.5t24.5 10.5t24.5 -10.5t10.5 -24.5v-261zM120 610q13 24 36 37.5t49 13.5q23 0 43 -10l35 -18q6 -3 12 -3q13 0 22 14q9 19 31 19q6 0 16 -4q19 -10 19 -32q0 -8 -5 -18q-12 -23 -34 -36t-48 -13q-23 0 -45 11l-35 18q-6 3 -12 3q-14 0 -22 -14
q-10 -19 -31 -19q-9 0 -16 4q-19 9 -19 31q0 9 4 16z" />
    <glyph glyph-name="Umacron" unicode="&#x16a;" horiz-adv-x="650" 
d="M160 225q0 -34 13 -64t35.5 -52.5t52.5 -35.5t64 -13t64 13t52.5 35.5t35.5 52.5t13 64v450q0 14 10.5 24.5t24.5 10.5t24.5 -10.5t10.5 -24.5v-450q0 -49 -18.5 -91.5t-50.5 -74.5t-74.5 -50.5t-91.5 -18.5t-91.5 18.5t-74.5 50.5t-50.5 74.5t-18.5 91.5v450
q0 14 10.5 24.5t24.5 10.5t24.5 -10.5t10.5 -24.5v-450zM460 840q14 0 24.5 -10.5t10.5 -24.5t-10.5 -24.5t-24.5 -10.5h-270q-14 0 -24.5 10.5t-10.5 24.5t10.5 24.5t24.5 10.5h270z" />
    <glyph glyph-name="umacron" unicode="&#x16b;" horiz-adv-x="505" 
d="M140 184q0 -52 26.5 -88t78.5 -36q26 0 46.5 10t34.5 27t21.5 40t7.5 49v259q0 14 10.5 24.5t24.5 10.5t24.5 -10.5t10.5 -24.5v-419q0 -14 -10.5 -24.5t-24.5 -10.5t-24.5 10.5t-10.5 24.5v10q-26 -21 -50 -33.5t-60 -12.5q-41 0 -73 15t-55 41.5t-35 61.5t-12 76v261
q0 14 10.5 24.5t24.5 10.5t24.5 -10.5t10.5 -24.5v-261zM385 640q14 0 24.5 -10.5t10.5 -24.5t-10.5 -24.5t-24.5 -10.5h-270q-14 0 -24.5 10.5t-10.5 24.5t10.5 24.5t24.5 10.5h270z" />
    <glyph glyph-name="Ubreve" unicode="&#x16c;" horiz-adv-x="650" 
d="M160 225q0 -34 13 -64t35.5 -52.5t52.5 -35.5t64 -13t64 13t52.5 35.5t35.5 52.5t13 64v450q0 14 10.5 24.5t24.5 10.5t24.5 -10.5t10.5 -24.5v-450q0 -49 -18.5 -91.5t-50.5 -74.5t-74.5 -50.5t-91.5 -18.5t-91.5 18.5t-74.5 50.5t-50.5 74.5t-18.5 91.5v450
q0 14 10.5 24.5t24.5 10.5t24.5 -10.5t10.5 -24.5v-450zM463 910q14 0 24.5 -10.5t10.5 -24.5q0 -3 -1 -6.5t-4 -11.5q-10 -26 -26.5 -47t-38.5 -37t-48.5 -24.5t-54.5 -8.5q-30 0 -57.5 9.5t-50 26t-39 39.5t-25.5 50l-1 10q0 14 10.5 24.5t24.5 10.5q25 0 33 -23
q2 -4 2 -7q11 -31 39 -50.5t64 -19.5q35 0 63 19.5t40 52.5l2 4q4 11 13 17.5t20 6.5z" />
    <glyph glyph-name="ubreve" unicode="&#x16d;" horiz-adv-x="505" 
d="M140 184q0 -52 26.5 -88t78.5 -36q26 0 46.5 10t34.5 27t21.5 40t7.5 49v259q0 14 10.5 24.5t24.5 10.5t24.5 -10.5t10.5 -24.5v-419q0 -14 -10.5 -24.5t-24.5 -10.5t-24.5 10.5t-10.5 24.5v10q-26 -21 -50 -33.5t-60 -12.5q-41 0 -73 15t-55 41.5t-35 61.5t-12 76v261
q0 14 10.5 24.5t24.5 10.5t24.5 -10.5t10.5 -24.5v-261zM388 710q14 0 24.5 -10.5t10.5 -24.5q0 -3 -1 -6.5t-4 -11.5q-10 -26 -26.5 -47t-38.5 -37t-48.5 -24.5t-54.5 -8.5q-30 0 -57.5 9.5t-50 26t-39 39.5t-25.5 50l-1 10q0 14 10.5 24.5t24.5 10.5q25 0 33 -23
q2 -4 2 -7q11 -31 39 -50.5t64 -19.5q35 0 63 19.5t40 52.5l2 4q4 11 13 17.5t20 6.5z" />
    <glyph glyph-name="Uring" unicode="&#x16e;" horiz-adv-x="650" 
d="M160 225q0 -34 13 -64t35.5 -52.5t52.5 -35.5t64 -13t64 13t52.5 35.5t35.5 52.5t13 64v450q0 14 10.5 24.5t24.5 10.5t24.5 -10.5t10.5 -24.5v-450q0 -49 -18.5 -91.5t-50.5 -74.5t-74.5 -50.5t-91.5 -18.5t-91.5 18.5t-74.5 50.5t-50.5 74.5t-18.5 91.5v450
q0 14 10.5 24.5t24.5 10.5t24.5 -10.5t10.5 -24.5v-450zM230 815q0 19 7.5 36.5t20.5 30.5t30 20.5t37 7.5q19 0 36.5 -7.5t30.5 -20.5t20.5 -30.5t7.5 -36.5q0 -20 -7.5 -37t-20.5 -30t-30.5 -20.5t-36.5 -7.5q-20 0 -37 7.5t-30 20.5t-20.5 30t-7.5 37zM280 815
q0 -19 13 -32t32 -13t32 13t13 32t-13 32t-32 13t-32 -13t-13 -32z" />
    <glyph glyph-name="uring" unicode="&#x16f;" horiz-adv-x="505" 
d="M140 184q0 -52 26.5 -88t78.5 -36q26 0 46.5 10t34.5 27t21.5 40t7.5 49v259q0 14 10.5 24.5t24.5 10.5t24.5 -10.5t10.5 -24.5v-419q0 -14 -10.5 -24.5t-24.5 -10.5t-24.5 10.5t-10.5 24.5v10q-26 -21 -50 -33.5t-60 -12.5q-41 0 -73 15t-55 41.5t-35 61.5t-12 76v261
q0 14 10.5 24.5t24.5 10.5t24.5 -10.5t10.5 -24.5v-261zM156 615q0 19 7.5 36.5t20.5 30.5t30 20.5t37 7.5q19 0 36.5 -7.5t30.5 -20.5t20.5 -30.5t7.5 -36.5q0 -20 -7.5 -37t-20.5 -30t-30.5 -20.5t-36.5 -7.5q-20 0 -37 7.5t-30 20.5t-20.5 30t-7.5 37zM206 615
q0 -19 13 -32t32 -13t32 13t13 32t-13 32t-32 13t-32 -13t-13 -32z" />
    <glyph glyph-name="Uhungarumlaut" unicode="&#x170;" horiz-adv-x="650" 
d="M160 225q0 -34 13 -64t35.5 -52.5t52.5 -35.5t64 -13t64 13t52.5 35.5t35.5 52.5t13 64v450q0 14 10.5 24.5t24.5 10.5t24.5 -10.5t10.5 -24.5v-450q0 -49 -18.5 -91.5t-50.5 -74.5t-74.5 -50.5t-91.5 -18.5t-91.5 18.5t-74.5 50.5t-50.5 74.5t-18.5 91.5v450
q0 14 10.5 24.5t24.5 10.5t24.5 -10.5t10.5 -24.5v-450zM300 900q12 10 25 10t25 -10q10 -10 10 -25t-10 -25l-100 -100q-10 -10 -25 -10t-25 10q-10 12 -10 25t10 25zM500 900q12 10 25 10t25 -10q10 -10 10 -25t-10 -25l-100 -100q-10 -10 -25 -10t-25 10q-10 12 -10 25
t10 25z" />
    <glyph glyph-name="uhungarumlaut" unicode="&#x171;" horiz-adv-x="505" 
d="M140 184q0 -52 26.5 -88t78.5 -36q26 0 46.5 10t34.5 27t21.5 40t7.5 49v259q0 14 10.5 24.5t24.5 10.5t24.5 -10.5t10.5 -24.5v-419q0 -14 -10.5 -24.5t-24.5 -10.5t-24.5 10.5t-10.5 24.5v10q-26 -21 -50 -33.5t-60 -12.5q-41 0 -73 15t-55 41.5t-35 61.5t-12 76v261
q0 14 10.5 24.5t24.5 10.5t24.5 -10.5t10.5 -24.5v-261zM225 700q12 10 25 10t25 -10q10 -10 10 -25t-10 -25l-100 -100q-10 -10 -25 -10t-25 10q-10 12 -10 25t10 25zM425 700q12 10 25 10t25 -10q10 -10 10 -25t-10 -25l-100 -100q-10 -10 -25 -10t-25 10q-10 12 -10 25
t10 25z" />
    <glyph glyph-name="Uogonek" unicode="&#x172;" horiz-adv-x="650" 
d="M381 -240q-25 0 -46.5 9.5t-38 26t-26 38t-9.5 46.5q0 26 9.5 47.5t26.5 38.5l24 24q-48 1 -90 19.5t-73.5 50.5t-49.5 74.5t-18 90.5v450q0 14 10.5 24.5t24.5 10.5t24.5 -10.5t10.5 -24.5v-450q0 -34 13 -64t35.5 -52.5t52.5 -35.5t64 -13t64 13t52.5 35.5t35.5 52.5
t13 64v450q0 14 10.5 24.5t24.5 10.5t24.5 -10.5t10.5 -24.5v-450q0 -45 -16 -85t-44 -72l-9.5 -9.5l-9.5 -9.5l-128 -128q-10 -9 -16 -18.5t-6 -22.5q0 -20 13.5 -34t33.5 -16h31q14 0 24.5 -10.5t10.5 -24.5t-10.5 -24.5t-27.5 -10.5h-25z" />
    <glyph glyph-name="uogonek" unicode="&#x173;" horiz-adv-x="505" 
d="M362 -241q-25 0 -46.5 9.5t-38 26t-26 38t-9.5 46.5q0 26 9.5 47.5t26.5 38.5l51 51q-18 -12 -38 -19t-46 -7q-41 0 -73 15t-55 41.5t-35 61.5t-12 76v261q0 14 10.5 24.5t24.5 10.5t24.5 -10.5t10.5 -24.5v-261q0 -52 26.5 -88t78.5 -36q26 0 46.5 10t34.5 27t21.5 40
t7.5 49v259q0 14 10.5 24.5t24.5 10.5t24.5 -10.5t10.5 -24.5v-419q0 -8 -3 -14.5t-8 -11.5l-80 -80q-10 -9 -16 -18.5t-6 -22.5q0 -20 13.5 -34t33.5 -16h31q14 0 24.5 -10.5t10.5 -24.5t-10.5 -24.5t-27.5 -10.5h-25z" />
    <glyph glyph-name="Wcircumflex" unicode="&#x174;" horiz-adv-x="910" 
d="M42 663q-2 4 -2 12q0 11 6 20t16 13q3 1 5.5 1.5t5.5 0.5q11 0 20.5 -6t13.5 -17l183 -560l130 413q2 5 11.5 16.5t25.5 11.5q14 0 22 -10t11 -18l130 -413l183 560q4 11 13.5 17t20.5 6q3 0 5.5 -0.5t5.5 -1.5q10 -4 16 -13t6 -20q0 -8 -2 -12l-215 -650
q-3 -11 -12.5 -17t-20.5 -6t-20 6.5t-13 16.5l-132 419l-132 -419q-3 -11 -12.5 -17t-20.5 -6t-20 6.5t-13 16.5zM381 749q-10 -10 -25 -10t-25 10q-10 12 -10 25q0 15 10 25l100 100q11 11 25 11q16 0 27 -14l98 -97q10 -12 10 -25t-10 -25q-10 -10 -25 -10t-25 10l-75 75z
" />
    <glyph glyph-name="wcircumflex" unicode="&#x175;" horiz-adv-x="651" 
d="M337 244l-84 -231q-3 -11 -12.5 -17t-20.5 -6t-20 6.5t-13 16.5l-152 420q-2 4 -2 12q0 11 6 20t16 13q3 1 5.5 1.5t5.5 0.5q11 0 20.5 -6t13.5 -17l120 -330l82 230q12 33 35 33q24 0 34 -30l83 -233l120 330q4 11 13.5 17t20.5 6q3 0 5.5 -0.5t5.5 -1.5q10 -4 16 -13
t6 -20q0 -8 -2 -12l-152 -420q-3 -11 -12.5 -17t-20.5 -6t-20 6.5t-13 16.5zM250 549q-10 -10 -25 -10t-25 10q-10 12 -10 25q0 15 10 25l100 100q11 11 25 11q16 0 27 -14l98 -97q10 -12 10 -25t-10 -25q-10 -10 -25 -10t-25 10l-75 75z" />
    <glyph glyph-name="Ycircumflex" unicode="&#x176;" horiz-adv-x="545" 
d="M308 324v-299q0 -14 -10.5 -24.5t-24.5 -10.5t-24.5 10.5t-10.5 24.5v298l-194 335q-4 7 -4 16t4.5 18t12.5 14q7 4 16 4t18 -4.5t14 -12.5l168 -290l167 290q5 8 14 12.5t18 4.5t16 -4q8 -5 12.5 -14t4.5 -18t-4 -16zM198 749q-10 -10 -25 -10t-25 10q-10 12 -10 25
q0 15 10 25l100 100q11 11 25 11q16 0 27 -14l98 -97q10 -12 10 -25t-10 -25q-10 -10 -25 -10t-25 10l-75 75z" />
    <glyph glyph-name="ycircumflex" unicode="&#x177;" horiz-adv-x="440" 
d="M36 -240q-17 0 -26.5 10.5t-9.5 24.5q0 13 8.5 22.5t20.5 11.5l8 1q39 5 67 32t42 63l37 99l-148 409q-2 4 -2 12q0 11 6 20t16 13q3 1 5.5 1.5t5.5 0.5q11 0 20.5 -6t13.5 -17l120 -330l120 330q4 11 13.5 17t20.5 6q3 0 5.5 -0.5t5.5 -1.5q10 -4 16 -13t6 -20
q0 -8 -2 -12l-186 -508q-7 -31 -23.5 -60.5t-39 -53t-50.5 -37.5t-58 -14h-12zM145 549q-10 -10 -25 -10t-25 10q-10 12 -10 25q0 15 10 25l100 100q11 11 25 11q16 0 27 -14l98 -97q10 -12 10 -25t-10 -25q-10 -10 -25 -10t-25 10l-75 75z" />
    <glyph glyph-name="Ydieresis" unicode="&#x178;" horiz-adv-x="545" 
d="M308 324v-299q0 -14 -10.5 -24.5t-24.5 -10.5t-24.5 10.5t-10.5 24.5v298l-194 335q-4 7 -4 16t4.5 18t12.5 14q7 4 16 4t18 -4.5t14 -12.5l168 -290l167 290q5 8 14 12.5t18 4.5t16 -4q8 -5 12.5 -14t4.5 -18t-4 -16zM128 815q0 19 13 32t32 13t32 -13t13 -32t-13 -32
t-32 -13t-32 13t-13 32zM328 815q0 19 13 32t32 13t32 -13t13 -32t-13 -32t-32 -13t-32 13t-13 32z" />
    <glyph glyph-name="Zacute" unicode="&#x179;" 
d="M438 700q14 -1 24 -11t10 -24q0 -11 -6 -20l-333 -575h324q14 0 24.5 -10.5t10.5 -24.5t-10.5 -24.5t-24.5 -10.5h-386q-9 0 -16 4q-13 8 -16 22q-1 2 -1 6v4q0 9 4 16l334 578h-283q-14 0 -24.5 10.5t-10.5 24.5t10.5 24.5t24.5 10.5h345zM325 900q12 10 25 10t25 -10
q10 -10 10 -25t-10 -25l-100 -100q-10 -10 -25 -10t-25 10q-10 12 -10 25t10 25z" />
    <glyph glyph-name="zacute" unicode="&#x17a;" horiz-adv-x="420" 
d="M346 470q14 -1 24 -11t10 -24q0 -11 -6 -20l-245 -345h226q14 0 24.5 -10.5t10.5 -24.5t-10.5 -24.5t-24.5 -10.5h-292q-9 0 -16 4q-13 8 -16 22q-1 2 -1 6v4q0 9 4 16l246 348h-206q-14 0 -24.5 10.5t-10.5 24.5t10.5 24.5t24.5 10.5h272zM275 700q12 10 25 10t25 -10
q10 -10 10 -25t-10 -25l-100 -100q-10 -10 -25 -10t-25 10q-10 12 -10 25t10 25z" />
    <glyph glyph-name="Zdotaccent" unicode="&#x17b;" 
d="M438 700q14 -1 24 -11t10 -24q0 -11 -6 -20l-333 -575h324q14 0 24.5 -10.5t10.5 -24.5t-10.5 -24.5t-24.5 -10.5h-386q-9 0 -16 4q-13 8 -16 22q-1 2 -1 6v4q0 9 4 16l334 578h-283q-14 0 -24.5 10.5t-10.5 24.5t10.5 24.5t24.5 10.5h345zM225 835q0 19 13 32t32 13
t32 -13t13 -32t-13 -32t-32 -13t-32 13t-13 32z" />
    <glyph glyph-name="zdotaccent" unicode="&#x17c;" horiz-adv-x="420" 
d="M346 470q14 -1 24 -11t10 -24q0 -11 -6 -20l-245 -345h226q14 0 24.5 -10.5t10.5 -24.5t-10.5 -24.5t-24.5 -10.5h-292q-9 0 -16 4q-13 8 -16 22q-1 2 -1 6v4q0 9 4 16l246 348h-206q-14 0 -24.5 10.5t-10.5 24.5t10.5 24.5t24.5 10.5h272zM175 635q0 19 13 32t32 13
t32 -13t13 -32t-13 -32t-32 -13t-32 13t-13 32z" />
    <glyph glyph-name="Zcaron" unicode="&#x17d;" 
d="M438 700q14 -1 24 -11t10 -24q0 -11 -6 -20l-333 -575h324q14 0 24.5 -10.5t10.5 -24.5t-10.5 -24.5t-24.5 -10.5h-386q-9 0 -16 4q-13 8 -16 22q-1 2 -1 6v4q0 9 4 16l334 578h-283q-14 0 -24.5 10.5t-10.5 24.5t10.5 24.5t24.5 10.5h345zM345 900q10 10 25 10t25 -10
q10 -12 10 -25q0 -15 -10 -25l-100 -100q-5 -5 -11 -8t-14 -3q-17 0 -27 14l-98 97q-10 12 -10 25t10 25q10 10 25 10t25 -10l75 -75z" />
    <glyph glyph-name="zcaron" unicode="&#x17e;" horiz-adv-x="420" 
d="M346 470q14 -1 24 -11t10 -24q0 -11 -6 -20l-245 -345h226q14 0 24.5 -10.5t10.5 -24.5t-10.5 -24.5t-24.5 -10.5h-292q-9 0 -16 4q-13 8 -16 22q-1 2 -1 6v4q0 9 4 16l246 348h-206q-14 0 -24.5 10.5t-10.5 24.5t10.5 24.5t24.5 10.5h272zM295 700q10 10 25 10t25 -10
q10 -12 10 -25q0 -15 -10 -25l-100 -100q-5 -5 -11 -8t-14 -3q-17 0 -27 14l-98 97q-10 12 -10 25t10 25q10 10 25 10t25 -10l75 -75z" />
    <glyph glyph-name="longs" unicode="&#x17f;" horiz-adv-x="230" 
d="M150 25q0 -14 -10.5 -24.5t-24.5 -10.5t-24.5 10.5t-10.5 24.5v535q0 31 12 58.5t32 47.5t47.5 32t58.5 12q18 0 38.5 -2.5t38.5 -16.5q9 -7 16.5 -16t7.5 -21q0 -14 -10 -24t-26 -10q-10 0 -16 3t-12 7t-14 7t-23 3q-16 0 -30.5 -6t-25.5 -16.5t-17.5 -24.5t-6.5 -30
v-538z" />
    <glyph glyph-name="uni018F" unicode="&#x18f;" horiz-adv-x="640" 
d="M320 -10q-53 0 -100 25t-83 69.5t-59 104.5t-28 129v7q0 14 10.5 24.5t24.5 10.5h435q-1 58 -17.5 109.5t-43.5 89t-63 59.5t-76 22q-51 0 -94.5 -36t-70.5 -94q-11 -20 -32 -20q-14 0 -24.5 10.5t-10.5 24.5q0 8 3 14q35 77 94.5 124t134.5 47q56 0 105 -28.5t86 -77
t58 -114t21 -140.5t-21 -140.5t-58 -114t-86 -77t-105 -28.5zM320 60q35 0 67 17.5t58 48.5t44 73t26 91h-391q7 -49 25.5 -91t44.5 -73t58 -48.5t68 -17.5z" />
    <glyph glyph-name="florin" unicode="&#x192;" horiz-adv-x="430" 
d="M234 399l-134 -497q-8 -30 -26.5 -56t-43 -45.5t-53 -30.5t-57.5 -11q-14 0 -24.5 2t-21.5 6q-11 3 -18.5 13.5t-7.5 21.5q0 15 11 24.5t26 9.5q5 0 10 -1t10 -3q7 -3 18 -3q17 0 34.5 6.5t32.5 18t26 27t16 33.5l129 485h-46q-5 0 -8 1q-11 3 -18.5 13.5t-7.5 21.5
q0 14 10 24t25 10h64l27 97q8 30 26.5 56t43 45.5t53 30.5t58.5 11q18 0 41.5 -4t40.5 -26q11 -14 11 -26q0 -14 -11 -24t-25 -10q-10 0 -19.5 5.5t-14.5 9.5q-3 2 -8.5 3.5t-17.5 1.5q-18 0 -35.5 -6.5t-32.5 -18t-26 -27t-16 -33.5l-23 -85h81q14 0 24.5 -11t10.5 -25
t-11 -24t-25 -10h-98z" />
    <glyph glyph-name="uni01B7" unicode="&#x1b7;" horiz-adv-x="555" 
d="M446 700q14 -1 24 -11t10 -24q0 -11 -6 -20l-165 -229q34 -5 66 -20q57 -28 91 -78t34 -113q0 -45 -18.5 -84t-50 -68t-74 -46t-90.5 -17q-37 0 -70.5 10t-61.5 28.5t-50 44t-35 56.5q-4 7 -4 16q0 14 10.5 24.5t24.5 10.5q13 0 22.5 -8.5t11.5 -20.5q19 -40 59.5 -65.5
t92.5 -25.5q34 0 63.5 11.5t51.5 31t35 46t13 56.5t-13 56.5t-35 46t-51.5 31t-63.5 11.5h-23q-14 0 -24.5 10.5t-10.5 24.5q0 13 10 25l158 220h-256q-14 0 -24.5 10.5t-10.5 24.5t10 24.5t24 10.5h326z" />
    <glyph glyph-name="uni01CD" unicode="&#x1cd;" horiz-adv-x="620" 
d="M435 230h-250l-79 -217q-4 -11 -13.5 -17t-20.5 -6q-3 0 -5.5 0.5t-5.5 1.5q-10 4 -16 13t-6 20q0 8 2 12l236 650q3 11 12.5 17t20.5 6t20 -6.5t13 -16.5l236 -650q2 -4 2 -12q0 -11 -6 -20t-16 -13q-3 -1 -5.5 -1.5t-5.5 -0.5q-11 0 -20.5 6t-13.5 17zM210 300h199
l-99 273zM385 900q10 10 25 10t25 -10q10 -12 10 -25q0 -15 -10 -25l-100 -100q-5 -5 -11 -8t-14 -3q-17 0 -27 14l-98 97q-10 12 -10 25t10 25q10 10 25 10t25 -10l75 -75z" />
    <glyph glyph-name="uni01CE" unicode="&#x1ce;" 
d="M378 61q-3 -7 -11 -17q-25 -25 -56 -39.5t-66 -14.5q-41 0 -76.5 19.5t-61.5 52.5t-41.5 77.5t-15.5 95.5t15.5 95.5t41.5 77.5t61.5 52.5t76.5 19.5q36 0 67.5 -15t57.5 -42v22q0 14 10.5 24.5t24.5 10.5t24.5 -10.5t10.5 -24.5v-338q0 -14 9.5 -29.5t17.5 -22.5
q6 -6 11 -12.5t5 -17.5q0 -14 -10.5 -24.5t-24.5 -10.5t-24 9q-14 12 -25.5 27t-19.5 32zM370 235q0 36 -10 68t-27 56t-39.5 37.5t-48.5 13.5t-48.5 -13.5t-39.5 -37.5t-27 -56t-10 -68t10 -68t27 -56t39.5 -37.5t48.5 -13.5t48.5 13.5t39.5 37.5t27 56t10 68zM335 700
q10 10 25 10t25 -10q10 -12 10 -25q0 -15 -10 -25l-100 -100q-5 -5 -11 -8t-14 -3q-17 0 -27 14l-98 97q-10 12 -10 25t10 25q10 10 25 10t25 -10l75 -75z" />
    <glyph glyph-name="uni01CF" unicode="&#x1cf;" horiz-adv-x="250" 
d="M90 675q0 14 10.5 24.5t24.5 10.5t24.5 -10.5t10.5 -24.5v-650q0 -14 -10.5 -24.5t-24.5 -10.5t-24.5 10.5t-10.5 24.5v650zM201 900q10 10 25 10t25 -10q10 -12 10 -25q0 -15 -10 -25l-100 -100q-5 -5 -11 -8t-14 -3q-17 0 -27 14l-98 97q-10 12 -10 25t10 25
q10 10 25 10t25 -10l75 -75z" />
    <glyph glyph-name="uni01D0" unicode="&#x1d0;" horiz-adv-x="230" 
d="M80 445q0 14 10.5 24.5t24.5 10.5t24.5 -10.5t10.5 -24.5v-420q0 -14 -10.5 -24.5t-24.5 -10.5t-24.5 10.5t-10.5 24.5v420zM191 700q10 10 25 10t25 -10q10 -12 10 -25q0 -15 -10 -25l-100 -100q-5 -5 -11 -8t-14 -3q-17 0 -27 14l-98 97q-10 12 -10 25t10 25
q10 10 25 10t25 -10l75 -75z" />
    <glyph glyph-name="uni01D1" unicode="&#x1d1;" horiz-adv-x="640" 
d="M50 350q0 75 21 140.5t58 114t86 77t105 28.5t105 -28.5t86 -77t58 -114t21 -140.5t-21 -140.5t-58 -114t-86 -77t-105 -28.5t-105 28.5t-86 77t-58 114t-21 140.5zM120 352q0 -60 16 -113t43 -92.5t63.5 -63t77.5 -23.5t77.5 23.5t63.5 63t43 92.5t16 113t-16 112.5
t-43 91.5t-63.5 61.5t-77.5 22.5t-77.5 -22.5t-63.5 -61.5t-43 -91.5t-16 -112.5zM395 900q10 10 25 10t25 -10q10 -12 10 -25q0 -15 -10 -25l-100 -100q-5 -5 -11 -8t-14 -3q-17 0 -27 14l-98 97q-10 12 -10 25t10 25q10 10 25 10t25 -10l75 -75z" />
    <glyph glyph-name="uni01D2" unicode="&#x1d2;" horiz-adv-x="490" 
d="M50 234q0 51 15.5 96t41.5 78t61.5 52.5t76.5 19.5q40 0 76 -19.5t62 -52.5t41.5 -78t15.5 -96t-15.5 -95.5t-41.5 -77.5t-62 -52t-76 -19q-41 0 -76.5 19t-61.5 52t-41.5 77.5t-15.5 95.5zM120 234q0 -36 10 -68t27 -55.5t39.5 -37t48.5 -13.5t48.5 13.5t39.5 37
t27 55.5t10 68t-10 68t-27 56t-39.5 38t-48.5 14t-48.5 -14t-39.5 -38t-27 -56t-10 -68zM320 700q10 10 25 10t25 -10q10 -12 10 -25q0 -15 -10 -25l-100 -100q-5 -5 -11 -8t-14 -3q-17 0 -27 14l-98 97q-10 12 -10 25t10 25q10 10 25 10t25 -10l75 -75z" />
    <glyph glyph-name="uni01D3" unicode="&#x1d3;" horiz-adv-x="650" 
d="M160 225q0 -34 13 -64t35.5 -52.5t52.5 -35.5t64 -13t64 13t52.5 35.5t35.5 52.5t13 64v450q0 14 10.5 24.5t24.5 10.5t24.5 -10.5t10.5 -24.5v-450q0 -49 -18.5 -91.5t-50.5 -74.5t-74.5 -50.5t-91.5 -18.5t-91.5 18.5t-74.5 50.5t-50.5 74.5t-18.5 91.5v450
q0 14 10.5 24.5t24.5 10.5t24.5 -10.5t10.5 -24.5v-450zM400 900q10 10 25 10t25 -10q10 -12 10 -25q0 -15 -10 -25l-100 -100q-5 -5 -11 -8t-14 -3q-17 0 -27 14l-98 97q-10 12 -10 25t10 25q10 10 25 10t25 -10l75 -75z" />
    <glyph glyph-name="uni01D4" unicode="&#x1d4;" horiz-adv-x="505" 
d="M140 184q0 -52 26.5 -88t78.5 -36q26 0 46.5 10t34.5 27t21.5 40t7.5 49v259q0 14 10.5 24.5t24.5 10.5t24.5 -10.5t10.5 -24.5v-419q0 -14 -10.5 -24.5t-24.5 -10.5t-24.5 10.5t-10.5 24.5v10q-26 -21 -50 -33.5t-60 -12.5q-41 0 -73 15t-55 41.5t-35 61.5t-12 76v261
q0 14 10.5 24.5t24.5 10.5t24.5 -10.5t10.5 -24.5v-261zM325 700q10 10 25 10t25 -10q10 -12 10 -25q0 -15 -10 -25l-100 -100q-5 -5 -11 -8t-14 -3q-17 0 -27 14l-98 97q-10 12 -10 25t10 25q10 10 25 10t25 -10l75 -75z" />
    <glyph glyph-name="uni01E2" unicode="&#x1e2;" horiz-adv-x="790" 
d="M385 0q-15 0 -25.5 10.5t-10.5 24.5v195h-150l-97 -217q-9 -23 -34 -23q-14 0 -23.5 10.5t-9.5 24.5q0 8 2 12l279 640q3 11 12.5 17t20.5 6h366q14 0 24.5 -10.5t10.5 -24.5t-10.5 -24.5t-24.5 -10.5h-295v-210h175q14 0 24.5 -10.5t10.5 -24.5t-10.5 -24.5t-24.5 -10.5
h-175v-280h295q14 0 24.5 -10.5t10.5 -24.5t-10.5 -24.5t-24.5 -10.5h-330zM231 300h118v263zM675 840q14 0 24.5 -10.5t10.5 -24.5t-10.5 -24.5t-24.5 -10.5h-270q-14 0 -24.5 10.5t-10.5 24.5t10.5 24.5t24.5 10.5h270z" />
    <glyph glyph-name="uni01E3" unicode="&#x1e3;" horiz-adv-x="750" 
d="M679 98q-25 -46 -65.5 -74.5t-97.5 -33.5q-40 0 -74.5 18t-60.5 50q-50 -59 -136 -68q-41 0 -76.5 19t-61.5 52.5t-41.5 78t-15.5 95.5t20.5 95.5t54.5 78t77 52.5t88 19h226q37 0 68.5 -16t55.5 -44.5t39.5 -68t20.5 -86.5q-1 -14 -11.5 -24.5t-25.5 -10.5h-272
q1 -36 11 -67t27 -54t39 -36t48 -13q35 0 62.5 23t41.5 53q10 19 31 19q14 0 24.5 -10.5t10.5 -24.5q0 -10 -4 -17zM321 235q0 52 15.5 96.5t42.5 78.5h-89q-30 0 -60.5 -13.5t-54.5 -37.5t-39.5 -56t-15.5 -68q0 -34 9 -65.5t25.5 -56t39.5 -39t51 -14.5q32 0 56.5 18.5
t40.5 44.5q-21 49 -21 112zM516 411q-2 0 -4 -0.5t-8 -0.5q-36 -5 -63.5 -35t-40.5 -75h223q-14 49 -41 80t-66 31zM525 640q14 0 24.5 -10.5t10.5 -24.5t-10.5 -24.5t-24.5 -10.5h-270q-14 0 -24.5 10.5t-10.5 24.5t10.5 24.5t24.5 10.5h270z" />
    <glyph glyph-name="uni01E4" unicode="&#x1e4;" horiz-adv-x="640" 
d="M585 235q14 0 24.5 -10.5t10.5 -24.5t-10.5 -24.5t-24.5 -10.5h-25v-140q0 -14 -10.5 -24.5t-24.5 -10.5t-24.5 10.5t-10.5 24.5v45q-35 -38 -78.5 -59t-91.5 -21q-56 0 -105 28.5t-86 77t-58 114t-21 140.5t21 140.5t58 114t86 77t105 28.5q59 0 107.5 -29t90.5 -85
q6 -9 10.5 -15.5t4.5 -15.5q0 -15 -10.5 -25t-25.5 -10q-21 0 -33 22q-28 41 -65 64.5t-79 23.5q-41 0 -77.5 -22.5t-63.5 -61.5t-43 -91.5t-16 -112.5t16 -113t43 -92.5t63.5 -63t77.5 -23.5q53 0 98 38q32 27 54 67h-100q-14 0 -24.5 10.5t-10.5 24.5t10.5 24.5t24.5 10.5
h118v45h-118q-14 0 -24.5 10.5t-10.5 24.5t10.5 24.5t24.5 10.5h153q14 0 24.5 -10.5t10.5 -24.5v-80h25z" />
    <glyph glyph-name="uni01E5" unicode="&#x1e5;" horiz-adv-x="520" 
d="M485 -45q14 0 24.5 -10.5t10.5 -24.5t-10.5 -24.5t-24.5 -10.5h-60q-1 -1 -1 -2q-16 -37 -43 -64t-63.5 -43t-77.5 -16q-48 0 -89.5 21t-68.5 56q-5 5 -7 11.5t-2 12.5q0 14 10.5 24.5t24.5 10.5q17 0 27 -13q18 -24 45.5 -38.5t59.5 -14.5q27 0 50.5 10t41.5 28
q8 8 14 17h-91q-14 0 -24.5 10.5t-10.5 24.5t10.5 24.5t24.5 10.5h115v92q-26 -26 -57.5 -41.5t-67.5 -15.5q-41 0 -76.5 19.5t-61.5 52.5t-41.5 77.5t-15.5 95.5t15.5 95.5t41.5 77.5t61.5 52.5t76.5 19.5q36 0 67.5 -15t57.5 -42v22q0 14 10.5 24.5t24.5 10.5t24.5 -10.5
t10.5 -24.5v-490h45zM370 235q0 36 -10 68t-27 56t-39.5 37.5t-48.5 13.5t-48.5 -13.5t-39.5 -37.5t-27 -56t-10 -68t10 -68t27 -56t39.5 -37.5t48.5 -13.5t48.5 13.5t39.5 37.5t27 56t10 68z" />
    <glyph glyph-name="Gcaron" unicode="&#x1e6;" horiz-adv-x="640" 
d="M525 350q14 0 24.5 -10.5t10.5 -24.5v-290q0 -14 -10.5 -24.5t-24.5 -10.5t-24.5 10.5t-10.5 24.5v45q-35 -38 -78.5 -59t-91.5 -21q-56 0 -105 28.5t-86 77t-58 114t-21 140.5t21 140.5t58 114t86 77t105 28.5q59 0 107.5 -29t90.5 -85q6 -9 10.5 -15.5t4.5 -15.5
q0 -15 -10.5 -25t-25.5 -10q-21 0 -33 22q-28 41 -65 64.5t-79 23.5q-41 0 -77.5 -22.5t-63.5 -61.5t-43 -91.5t-16 -112.5t16 -113t43 -92.5t63.5 -63t77.5 -23.5q53 0 98 38.5t72 101.5v80h-118q-14 0 -24.5 10.5t-10.5 24.5t10.5 24.5t24.5 10.5h153zM395 900
q10 10 25 10t25 -10q10 -12 10 -25q0 -15 -10 -25l-100 -100q-5 -5 -11 -8t-14 -3q-17 0 -27 14l-98 97q-10 12 -10 25t10 25q10 10 25 10t25 -10l75 -75z" />
    <glyph glyph-name="gcaron" unicode="&#x1e7;" horiz-adv-x="520" 
d="M135 -117q18 -24 45.5 -38.5t59.5 -14.5q27 0 50.5 10t41.5 28t28 41.5t10 50.5v87q-26 -26 -57.5 -41.5t-67.5 -15.5q-41 0 -76.5 19.5t-61.5 52.5t-41.5 77.5t-15.5 95.5t15.5 95.5t41.5 77.5t61.5 52.5t76.5 19.5q36 0 67.5 -15t57.5 -42v22q0 14 10.5 24.5t24.5 10.5
t24.5 -10.5t10.5 -24.5v-485q0 -41 -16 -77.5t-43 -63.5t-63.5 -43t-77.5 -16q-48 0 -89.5 21t-68.5 56q-5 5 -7 11.5t-2 12.5q0 14 10.5 24.5t24.5 10.5q17 0 27 -13zM370 235q0 36 -10 68t-27 56t-39.5 37.5t-48.5 13.5t-48.5 -13.5t-39.5 -37.5t-27 -56t-10 -68t10 -68
t27 -56t39.5 -37.5t48.5 -13.5t48.5 13.5t39.5 37.5t27 56t10 68zM325 700q10 10 25 10t25 -10q10 -12 10 -25q0 -15 -10 -25l-100 -100q-5 -5 -11 -8t-14 -3q-17 0 -27 14l-98 97q-10 12 -10 25t10 25q10 10 25 10t25 -10l75 -75z" />
    <glyph glyph-name="uni01E8" unicode="&#x1e8;" horiz-adv-x="610" 
d="M90 675q0 14 10.5 24.5t24.5 10.5t24.5 -10.5t10.5 -24.5v-367l280 387q5 8 12.5 11.5t16.5 3.5q16 0 25 -9.5t9 -26.5q0 -11 -6 -20l-180 -247l252 -363q6 -10 6 -19q0 -8 -3.5 -16.5t-11.5 -13.5q-7 -5 -18 -5q-8 0 -17 3.5t-14 10.5l-238 342l-113 -156v-165
q0 -14 -10.5 -24.5t-24.5 -10.5t-24.5 10.5t-10.5 24.5v650zM365 900q10 10 25 10t25 -10q10 -12 10 -25q0 -15 -10 -25l-100 -100q-5 -5 -11 -8t-14 -3q-17 0 -27 14l-98 97q-10 12 -10 25t10 25q10 10 25 10t25 -10l75 -75z" />
    <glyph glyph-name="uni01E9" unicode="&#x1e9;" horiz-adv-x="465" 
d="M80 675q0 14 10.5 24.5t24.5 10.5t24.5 -10.5t10.5 -24.5v-421l201 215q11 11 25 11q16 0 26 -9t10 -25q0 -15 -9 -25l-121 -130l151 -248q5 -9 5 -18q0 -18 -9 -26.5t-25 -8.5q-9 0 -17 4.5t-13 12.5l-142 231l-82 -88v-125q0 -14 -10.5 -24.5t-24.5 -10.5t-24.5 10.5
t-10.5 24.5v650zM191 900q10 10 25 10t25 -10q10 -12 10 -25q0 -15 -10 -25l-100 -100q-5 -5 -11 -8t-14 -3q-17 0 -27 14l-98 97q-10 12 -10 25t10 25q10 10 25 10t25 -10l75 -75z" />
    <glyph glyph-name="uni01EA" unicode="&#x1ea;" horiz-adv-x="640" 
d="M369 -240q-25 0 -46.5 9.5t-38 26t-26 38t-9.5 46.5q0 26 9.5 47.5t26.5 38.5l24 25q-54 3 -101 32t-82.5 77t-55.5 112.5t-20 137.5q0 75 21 140.5t58 114t86 77t105 28.5t105 -28.5t86 -77t58 -114t21 -140.5q0 -89 -29 -163.5t-78 -123.5l-142 -142q-10 -9 -16 -18.5
t-6 -22.5q0 -20 13.5 -34t33.5 -16h31q14 0 24.5 -10.5t10.5 -24.5t-10.5 -24.5t-27.5 -10.5h-25zM120 352q0 -60 16 -113t43 -92.5t63.5 -63t77.5 -23.5t77.5 23.5t63.5 63t43 92.5t16 113t-16 112.5t-43 91.5t-63.5 61.5t-77.5 22.5t-77.5 -22.5t-63.5 -61.5t-43 -91.5
t-16 -112.5z" />
    <glyph glyph-name="uni01EB" unicode="&#x1eb;" horiz-adv-x="490" 
d="M271 -240q-25 0 -46.5 9.5t-38 26t-26 38t-9.5 46.5q0 26 9.5 47.5t26.5 38.5l27 27q-35 7 -65 28t-52 53t-34.5 73t-12.5 87q0 51 15.5 96t41.5 78t61.5 52.5t76.5 19.5q40 0 76 -19.5t62 -52.5t41.5 -78t15.5 -96q0 -64 -23.5 -117t-61.5 -85l-112 -111
q-10 -9 -16 -18.5t-6 -22.5q0 -20 13.5 -34t33.5 -16h31q14 0 24.5 -10.5t10.5 -24.5t-10.5 -24.5t-27.5 -10.5h-25zM120 234q0 -36 10 -68t27 -55.5t39.5 -37t48.5 -13.5t48.5 13.5t39.5 37t27 55.5t10 68t-10 68t-27 56t-39.5 38t-48.5 14t-48.5 -14t-39.5 -38t-27 -56
t-10 -68z" />
    <glyph glyph-name="uni01EC" unicode="&#x1ec;" horiz-adv-x="640" 
d="M369 -240q-25 0 -46.5 9.5t-38 26t-26 38t-9.5 46.5q0 26 9.5 47.5t26.5 38.5l24 25q-54 3 -101 32t-82.5 77t-55.5 112.5t-20 137.5q0 75 21 140.5t58 114t86 77t105 28.5t105 -28.5t86 -77t58 -114t21 -140.5q0 -89 -29 -163.5t-78 -123.5l-142 -142q-10 -9 -16 -18.5
t-6 -22.5q0 -20 13.5 -34t33.5 -16h31q14 0 24.5 -10.5t10.5 -24.5t-10.5 -24.5t-27.5 -10.5h-25zM120 352q0 -60 16 -113t43 -92.5t63.5 -63t77.5 -23.5t77.5 23.5t63.5 63t43 92.5t16 113t-16 112.5t-43 91.5t-63.5 61.5t-77.5 22.5t-77.5 -22.5t-63.5 -61.5t-43 -91.5
t-16 -112.5zM455 840q14 0 24.5 -10.5t10.5 -24.5t-10.5 -24.5t-24.5 -10.5h-270q-14 0 -24.5 10.5t-10.5 24.5t10.5 24.5t24.5 10.5h270z" />
    <glyph glyph-name="uni01ED" unicode="&#x1ed;" horiz-adv-x="490" 
d="M271 -240q-25 0 -46.5 9.5t-38 26t-26 38t-9.5 46.5q0 26 9.5 47.5t26.5 38.5l27 27q-35 7 -65 28t-52 53t-34.5 73t-12.5 87q0 51 15.5 96t41.5 78t61.5 52.5t76.5 19.5q40 0 76 -19.5t62 -52.5t41.5 -78t15.5 -96q0 -64 -23.5 -117t-61.5 -85l-112 -111
q-10 -9 -16 -18.5t-6 -22.5q0 -20 13.5 -34t33.5 -16h31q14 0 24.5 -10.5t10.5 -24.5t-10.5 -24.5t-27.5 -10.5h-25zM120 234q0 -36 10 -68t27 -55.5t39.5 -37t48.5 -13.5t48.5 13.5t39.5 37t27 55.5t10 68t-10 68t-27 56t-39.5 38t-48.5 14t-48.5 -14t-39.5 -38t-27 -56
t-10 -68zM380 640q14 0 24.5 -10.5t10.5 -24.5t-10.5 -24.5t-24.5 -10.5h-270q-14 0 -24.5 10.5t-10.5 24.5t10.5 24.5t24.5 10.5h270z" />
    <glyph glyph-name="uni01EE" unicode="&#x1ee;" horiz-adv-x="555" 
d="M446 700q14 -1 24 -11t10 -24q0 -11 -6 -20l-165 -229q34 -5 66 -20q57 -28 91 -78t34 -113q0 -45 -18.5 -84t-50 -68t-74 -46t-90.5 -17q-37 0 -70.5 10t-61.5 28.5t-50 44t-35 56.5q-4 7 -4 16q0 14 10.5 24.5t24.5 10.5q13 0 22.5 -8.5t11.5 -20.5q19 -40 59.5 -65.5
t92.5 -25.5q34 0 63.5 11.5t51.5 31t35 46t13 56.5t-13 56.5t-35 46t-51.5 31t-63.5 11.5h-23q-14 0 -24.5 10.5t-10.5 24.5q0 13 10 25l158 220h-256q-14 0 -24.5 10.5t-10.5 24.5t10 24.5t24 10.5h326zM365 900q10 10 25 10t25 -10q10 -12 10 -25q0 -15 -10 -25l-100 -100
q-5 -5 -11 -8t-14 -3q-17 0 -27 14l-98 97q-10 12 -10 25t10 25q10 10 25 10t25 -10l75 -75z" />
    <glyph glyph-name="uni01EF" unicode="&#x1ef;" horiz-adv-x="441" 
d="M86 190q0 14 11 25l155 185h-166q-14 0 -24.5 10.5t-10.5 24.5t10.5 24.5t24.5 10.5h239q14 -1 24 -11t10 -24q0 -11 -6 -20l-163 -195h6q40 0 76 -16t62 -45.5t41.5 -71t15.5 -92.5t-15.5 -94t-41.5 -74.5t-62 -49t-76 -17.5q-45 0 -84 22.5t-66 64.5q-6 10 -6 20
q0 14 10.5 24.5t24.5 10.5q11 0 19.5 -6t13.5 -15q17 -24 39.5 -37.5t48.5 -13.5q25 0 48 12t40 34t27 52.5t10 66.5q0 32 -8 61t-27.5 51t-51 35t-77.5 13h-36q-14 0 -24.5 10.5t-10.5 24.5zM271 700q10 10 25 10t25 -10q10 -12 10 -25q0 -15 -10 -25l-100 -100
q-5 -5 -11 -8t-14 -3q-17 0 -27 14l-98 97q-10 12 -10 25t10 25q10 10 25 10t25 -10l75 -75z" />
    <glyph glyph-name="uni01F0" unicode="&#x1f0;" horiz-adv-x="230" 
d="M-49 -232q-11 3 -18.5 12.5t-7.5 21.5q0 14 10.5 24.5t24.5 10.5q9 0 19.5 -3.5t20.5 -3.5q16 0 30.5 6t25.5 16.5t17.5 24.5t6.5 30v538q0 14 10.5 24.5t24.5 10.5t24.5 -10.5t10.5 -24.5v-535q0 -31 -12 -58.5t-32 -47.5t-47.5 -32t-58.5 -12q-25 0 -49 8zM191 700
q10 10 25 10t25 -10q10 -12 10 -25q0 -15 -10 -25l-100 -100q-5 -5 -11 -8t-14 -3q-17 0 -27 14l-98 97q-10 12 -10 25t10 25q10 10 25 10t25 -10l75 -75z" />
    <glyph glyph-name="uni01F4" unicode="&#x1f4;" horiz-adv-x="640" 
d="M525 350q14 0 24.5 -10.5t10.5 -24.5v-290q0 -14 -10.5 -24.5t-24.5 -10.5t-24.5 10.5t-10.5 24.5v45q-35 -38 -78.5 -59t-91.5 -21q-56 0 -105 28.5t-86 77t-58 114t-21 140.5t21 140.5t58 114t86 77t105 28.5q59 0 107.5 -29t90.5 -85q6 -9 10.5 -15.5t4.5 -15.5
q0 -15 -10.5 -25t-25.5 -10q-21 0 -33 22q-28 41 -65 64.5t-79 23.5q-41 0 -77.5 -22.5t-63.5 -61.5t-43 -91.5t-16 -112.5t16 -113t43 -92.5t63.5 -63t77.5 -23.5q53 0 98 38.5t72 101.5v80h-118q-14 0 -24.5 10.5t-10.5 24.5t10.5 24.5t24.5 10.5h153zM375 900
q12 10 25 10t25 -10q10 -10 10 -25t-10 -25l-100 -100q-10 -10 -25 -10t-25 10q-10 12 -10 25t10 25z" />
    <glyph glyph-name="uni01F5" unicode="&#x1f5;" horiz-adv-x="520" 
d="M135 -117q18 -24 45.5 -38.5t59.5 -14.5q27 0 50.5 10t41.5 28t28 41.5t10 50.5v87q-26 -26 -57.5 -41.5t-67.5 -15.5q-41 0 -76.5 19.5t-61.5 52.5t-41.5 77.5t-15.5 95.5t15.5 95.5t41.5 77.5t61.5 52.5t76.5 19.5q36 0 67.5 -15t57.5 -42v22q0 14 10.5 24.5t24.5 10.5
t24.5 -10.5t10.5 -24.5v-485q0 -41 -16 -77.5t-43 -63.5t-63.5 -43t-77.5 -16q-48 0 -89.5 21t-68.5 56q-5 5 -7 11.5t-2 12.5q0 14 10.5 24.5t24.5 10.5q17 0 27 -13zM370 235q0 36 -10 68t-27 56t-39.5 37.5t-48.5 13.5t-48.5 -13.5t-39.5 -37.5t-27 -56t-10 -68t10 -68
t27 -56t39.5 -37.5t48.5 -13.5t48.5 13.5t39.5 37.5t27 56t10 68zM305 700q12 10 25 10t25 -10q10 -10 10 -25t-10 -25l-100 -100q-10 -10 -25 -10t-25 10q-10 12 -10 25t10 25z" />
    <glyph glyph-name="uni01F8" unicode="&#x1f8;" horiz-adv-x="650" 
d="M525 -10q-9 0 -18 4.5t-14 12.5l-333 546v-528q0 -14 -10.5 -24.5t-24.5 -10.5t-24.5 10.5t-10.5 24.5v650q0 14 10.5 24.5t24.5 10.5q11 0 19 -5.5t13 -11.5l333 -546v528q0 14 10.5 24.5t24.5 10.5t24.5 -10.5t10.5 -24.5v-650q0 -15 -10.5 -24.5t-24.5 -10.5zM375 800
q10 -12 10 -25t-10 -25q-10 -10 -25 -10t-25 10l-100 100q-10 10 -10 25t10 25q12 10 25 10t25 -10z" />
    <glyph glyph-name="uni01F9" unicode="&#x1f9;" horiz-adv-x="515" 
d="M365 286q0 52 -26.5 88t-78.5 36q-26 0 -46.5 -10t-34.5 -27t-21.5 -40t-7.5 -49v-259q0 -14 -10.5 -24.5t-24.5 -10.5t-24.5 10.5t-10.5 24.5v419q0 14 10.5 24.5t24.5 10.5t24.5 -10.5t10.5 -24.5v-10q26 21 50 33.5t60 12.5q40 0 72.5 -15t55.5 -41.5t35 -62t12 -75.5
v-261q0 -14 -10.5 -24.5t-24.5 -10.5t-24.5 10.5t-10.5 24.5v261zM305 600q10 -12 10 -25t-10 -25q-10 -10 -25 -10t-25 10l-100 100q-10 10 -10 25t10 25q12 10 25 10t25 -10z" />
    <glyph glyph-name="Aringacute" unicode="&#x1fa;" horiz-adv-x="620" 
d="M435 230h-250l-79 -217q-4 -11 -13.5 -17t-20.5 -6q-3 0 -5.5 0.5t-5.5 1.5q-10 4 -16 13t-6 20q0 8 2 12l236 650q3 11 12.5 17t20.5 6t20 -6.5t13 -16.5l236 -650q2 -4 2 -12q0 -11 -6 -20t-16 -13q-3 -1 -5.5 -1.5t-5.5 -0.5q-11 0 -20.5 6t-13.5 17zM210 300h199
l-99 273zM215 815q0 19 7.5 36.5t20.5 30.5t30 20.5t37 7.5q19 0 36.5 -7.5t30.5 -20.5t20.5 -30.5t7.5 -36.5q0 -20 -7.5 -37t-20.5 -30t-30.5 -20.5t-36.5 -7.5q-20 0 -37 7.5t-30 20.5t-20.5 30t-7.5 37zM265 815q0 -19 13 -32t32 -13t32 13t13 32t-13 32t-32 13t-32 -13
t-13 -32zM365 1090q12 10 25 10t25 -10q10 -10 10 -25t-10 -25l-100 -100q-10 -10 -25 -10t-25 10q-10 12 -10 25t10 25z" />
    <glyph glyph-name="aringacute" unicode="&#x1fb;" 
d="M378 61q-3 -7 -11 -17q-25 -25 -56 -39.5t-66 -14.5q-41 0 -76.5 19.5t-61.5 52.5t-41.5 77.5t-15.5 95.5t15.5 95.5t41.5 77.5t61.5 52.5t76.5 19.5q36 0 67.5 -15t57.5 -42v22q0 14 10.5 24.5t24.5 10.5t24.5 -10.5t10.5 -24.5v-338q0 -14 9.5 -29.5t17.5 -22.5
q6 -6 11 -12.5t5 -17.5q0 -14 -10.5 -24.5t-24.5 -10.5t-24 9q-14 12 -25.5 27t-19.5 32zM370 235q0 36 -10 68t-27 56t-39.5 37.5t-48.5 13.5t-48.5 -13.5t-39.5 -37.5t-27 -56t-10 -68t10 -68t27 -56t39.5 -37.5t48.5 -13.5t48.5 13.5t39.5 37.5t27 56t10 68zM165 615
q0 19 7.5 36.5t20.5 30.5t30 20.5t37 7.5q19 0 36.5 -7.5t30.5 -20.5t20.5 -30.5t7.5 -36.5q0 -20 -7.5 -37t-20.5 -30t-30.5 -20.5t-36.5 -7.5q-20 0 -37 7.5t-30 20.5t-20.5 30t-7.5 37zM215 615q0 -19 13 -32t32 -13t32 13t13 32t-13 32t-32 13t-32 -13t-13 -32zM315 900
q12 10 25 10t25 -10q10 -10 10 -25t-10 -25l-100 -100q-10 -10 -25 -10t-25 10q-10 12 -10 25t10 25z" />
    <glyph glyph-name="AEacute" unicode="&#x1fc;" horiz-adv-x="790" 
d="M385 0q-15 0 -25.5 10.5t-10.5 24.5v195h-150l-97 -217q-9 -23 -34 -23q-14 0 -23.5 10.5t-9.5 24.5q0 8 2 12l279 640q3 11 12.5 17t20.5 6h366q14 0 24.5 -10.5t10.5 -24.5t-10.5 -24.5t-24.5 -10.5h-295v-210h175q14 0 24.5 -10.5t10.5 -24.5t-10.5 -24.5t-24.5 -10.5
h-175v-280h295q14 0 24.5 -10.5t10.5 -24.5t-10.5 -24.5t-24.5 -10.5h-330zM231 300h118v263zM595 900q12 10 25 10t25 -10q10 -10 10 -25t-10 -25l-100 -100q-10 -10 -25 -10t-25 10q-10 12 -10 25t10 25z" />
    <glyph glyph-name="aeacute" unicode="&#x1fd;" horiz-adv-x="750" 
d="M679 98q-25 -46 -65.5 -74.5t-97.5 -33.5q-40 0 -74.5 18t-60.5 50q-50 -59 -136 -68q-41 0 -76.5 19t-61.5 52.5t-41.5 78t-15.5 95.5t20.5 95.5t54.5 78t77 52.5t88 19h226q37 0 68.5 -16t55.5 -44.5t39.5 -68t20.5 -86.5q-1 -14 -11.5 -24.5t-25.5 -10.5h-272
q1 -36 11 -67t27 -54t39 -36t48 -13q35 0 62.5 23t41.5 53q10 19 31 19q14 0 24.5 -10.5t10.5 -24.5q0 -10 -4 -17zM321 235q0 52 15.5 96.5t42.5 78.5h-89q-30 0 -60.5 -13.5t-54.5 -37.5t-39.5 -56t-15.5 -68q0 -34 9 -65.5t25.5 -56t39.5 -39t51 -14.5q32 0 56.5 18.5
t40.5 44.5q-21 49 -21 112zM516 411q-2 0 -4 -0.5t-8 -0.5q-36 -5 -63.5 -35t-40.5 -75h223q-14 49 -41 80t-66 31zM445 700q12 10 25 10t25 -10q10 -10 10 -25t-10 -25l-100 -100q-10 -10 -25 -10t-25 10q-10 12 -10 25t10 25z" />
    <glyph glyph-name="Oslashacute" unicode="&#x1fe;" horiz-adv-x="640" 
d="M50 25q0 8 4 13l58 81q-29 48 -45.5 106.5t-16.5 124.5q0 75 21 140.5t58 114t86 77t105 28.5q46 0 87.5 -19.5t76.5 -54.5l41 57q10 17 30 17q14 0 24.5 -10.5t10.5 -24.5q0 -12 -6 -19l-56 -78q29 -47 45.5 -104.5t16.5 -123.5q0 -75 -21 -140.5t-58 -114t-86 -77
t-105 -28.5q-47 0 -88 19.5t-76 54.5l-46 -64q-10 -10 -25 -10q-14 0 -24.5 10.5t-10.5 24.5zM120 352q0 -48 10 -91t27 -79l286 397q-26 29 -57 45t-66 16q-41 0 -77.5 -22.5t-63.5 -61.5t-43 -91.5t-16 -112.5zM520 352q0 46 -9.5 88t-26.5 77l-286 -396q26 -29 56.5 -45
t65.5 -16q41 0 77.5 23.5t63.5 63t43 92.5t16 113zM375 900q12 10 25 10t25 -10q10 -10 10 -25t-10 -25l-100 -100q-10 -10 -25 -10t-25 10q-10 12 -10 25t10 25z" />
    <glyph glyph-name="oslashacute" unicode="&#x1ff;" horiz-adv-x="490" 
d="M50 234q0 51 15.5 96t41.5 78t61.5 52.5t76.5 19.5q30 0 58 -11.5t51 -31.5l23 30q4 5 10 9t17 4q16 0 26 -9t10 -25q0 -12 -6 -22l-33 -43q19 -31 29 -68t10 -79q0 -51 -15.5 -95.5t-41.5 -77.5t-62 -52t-76 -19q-62 0 -110 42l-22 -29q-10 -13 -29 -13q-34 0 -34 34
q0 12 7 22l31 41q-18 31 -28 68t-10 79zM370 234q0 23 -4 44t-12 41l-177 -232q32 -27 68 -27q25 0 48 13.5t40 37t27 55.5t10 68zM120 234q0 -48 15 -85l177 233q-15 13 -32 20.5t-35 7.5q-26 0 -48.5 -14t-39.5 -38t-27 -56t-10 -68zM300 700q12 10 25 10t25 -10
q10 -10 10 -25t-10 -25l-100 -100q-10 -10 -25 -10t-25 10q-10 12 -10 25t10 25z" />
    <glyph glyph-name="Scommaaccent" unicode="&#x218;" horiz-adv-x="550" 
d="M438 624q6 -9 6 -19q0 -14 -10.5 -24.5t-24.5 -10.5q-12 0 -21 7t-17 18q-7 10 -19.5 18.5t-28 14.5t-32 9t-29.5 3q-23 0 -46.5 -7.5t-42.5 -21.5t-31 -34.5t-12 -46.5t12 -45.5t30.5 -33t42 -22t47.5 -12.5q45 -8 87 -25t74.5 -43t52 -63t19.5 -86t-20 -88t-53 -66
t-75 -41.5t-85 -14.5q-27 0 -55.5 6t-54.5 17.5t-48 28t-36 37.5q-6 9 -8 14t-2 12q0 14 10.5 24.5t24.5 10.5q12 0 18.5 -5.5t12.5 -13.5q11 -14 27 -25t35 -19t38.5 -12.5t37.5 -4.5q29 0 58 9t52.5 27t38 44t14.5 60t-14.5 58.5t-38 41.5t-52.5 27.5t-58 16.5
q-38 7 -74 20.5t-64.5 35t-46 53.5t-17.5 77q0 41 17.5 74.5t46 57t64.5 36t74 12.5q24 0 50 -6.5t50 -17.5t44 -27t32 -35zM273 -231q-11 -9 -24 -9q-14 0 -24.5 10.5t-10.5 24.5q0 11 5 17.5t11 12.5q17 15 26 35.5t9 43.5l-3 23q0 14 10.5 24.5t24.5 10.5t24 -10t12 -24
q1 -6 1.5 -12t0.5 -12q0 -40 -16.5 -75t-45.5 -60z" />
    <glyph glyph-name="scommaaccent" unicode="&#x219;" horiz-adv-x="430" 
d="M344 410q4 -7 4 -15q0 -14 -9.5 -24.5t-23.5 -10.5q-11 0 -18 6t-17 16q-23 21 -42.5 24.5t-39.5 3.5q-31 0 -53 -17.5t-22 -42.5t15 -42.5t60 -17.5h7q37 0 68 -12t53.5 -32.5t35.5 -47.5t13 -58t-13 -58.5t-35.5 -47.5t-54 -32t-67.5 -12q-30 0 -56.5 8t-48 21.5
t-37.5 32.5t-23 42q-2 5 -2 7.5v3.5q0 14 10.5 24.5t24.5 10.5q11 0 20 -6.5t13 -17.5q9 -24 36 -40t63 -16q44 0 72 23.5t28 56.5q0 32 -28.5 56t-71.5 24h-7q-75 0 -110 38t-35 92q0 27 11.5 50.5t31 41.5t46 28t56.5 10q20 0 41 -4.5t40.5 -13t35.5 -20t26 -26.5z
M213 -231q-11 -9 -24 -9q-14 0 -24.5 10.5t-10.5 24.5q0 11 5 17.5t11 12.5q17 15 26 35.5t9 43.5l-3 23q0 14 10.5 24.5t24.5 10.5t24 -10t12 -24q1 -6 1.5 -12t0.5 -12q0 -40 -16.5 -75t-45.5 -60z" />
    <glyph glyph-name="uni021A" unicode="&#x21a;" horiz-adv-x="540" 
d="M506 700q14 0 24.5 -10.5t10.5 -24.5t-10.5 -24.5t-24.5 -10.5h-201v-605q0 -14 -10.5 -24.5t-24.5 -10.5t-24.5 10.5t-10.5 24.5v605h-201q-14 0 -24.5 10.5t-10.5 24.5t10.5 24.5t24.5 10.5h472zM245 -231q-11 -9 -24 -9q-14 0 -24.5 10.5t-10.5 24.5q0 11 5 17.5
t11 12.5q17 15 26 35.5t9 43.5l-3 23q0 14 10.5 24.5t24.5 10.5t24 -10t12 -24q1 -6 1.5 -12t0.5 -12q0 -40 -16.5 -75t-45.5 -60z" />
    <glyph glyph-name="uni021B" unicode="&#x21b;" horiz-adv-x="280" 
d="M159 105q0 -19 13 -32t32 -13h20q14 0 24.5 -10.5t10.5 -24.5t-9.5 -24.5t-26.5 -10.5h-19q-24 0 -45 9t-36.5 25t-24.5 37.5t-9 45.5v293h-44q-14 0 -24.5 10.5t-10.5 24.5t10.5 24.5t24.5 10.5h44v95q0 14 10.5 24.5t24.5 10.5t24.5 -10.5t10.5 -24.5v-95h65
q14 0 24.5 -10.5t10.5 -24.5t-10.5 -24.5t-24.5 -10.5h-65v-295zM155 -231q-11 -9 -24 -9q-14 0 -24.5 10.5t-10.5 24.5q0 11 5 17.5t11 12.5q17 15 26 35.5t9 43.5l-3 23q0 14 10.5 24.5t24.5 10.5t24 -10t12 -24q1 -6 1.5 -12t0.5 -12q0 -40 -16.5 -75t-45.5 -60z" />
    <glyph glyph-name="uni021E" unicode="&#x21e;" horiz-adv-x="650" 
d="M90 675q0 14 10.5 24.5t24.5 10.5t24.5 -10.5t10.5 -24.5v-255h330v255q0 14 10.5 24.5t24.5 10.5t24.5 -10.5t10.5 -24.5v-650q0 -14 -10.5 -24.5t-24.5 -10.5t-24.5 10.5t-10.5 24.5v325h-330v-325q0 -14 -10.5 -24.5t-24.5 -10.5t-24.5 10.5t-10.5 24.5v650zM400 900
q10 10 25 10t25 -10q10 -12 10 -25q0 -15 -10 -25l-100 -100q-5 -5 -11 -8t-14 -3q-17 0 -27 14l-98 97q-10 12 -10 25t10 25q10 10 25 10t25 -10l75 -75z" />
    <glyph glyph-name="uni021F" unicode="&#x21f;" horiz-adv-x="515" 
d="M80 675q0 14 10.5 24.5t24.5 10.5t24.5 -10.5t10.5 -24.5v-241q26 21 50 33.5t60 12.5q40 0 72.5 -15t55.5 -41.5t35 -62t12 -75.5v-261q0 -14 -10.5 -24.5t-24.5 -10.5t-24.5 10.5t-10.5 24.5v261q0 52 -26.5 88t-78.5 36q-26 0 -46 -9.5t-34.5 -26t-22 -38.5t-7.5 -47
v-264q0 -14 -10.5 -24.5t-24.5 -10.5t-24.5 10.5t-10.5 24.5v650zM191 900q10 10 25 10t25 -10q10 -12 10 -25q0 -15 -10 -25l-100 -100q-5 -5 -11 -8t-14 -3q-17 0 -27 14l-98 97q-10 12 -10 25t10 25q10 10 25 10t25 -10l75 -75z" />
    <glyph glyph-name="uni0232" unicode="&#x232;" horiz-adv-x="545" 
d="M308 324v-299q0 -14 -10.5 -24.5t-24.5 -10.5t-24.5 10.5t-10.5 24.5v298l-194 335q-4 7 -4 16t4.5 18t12.5 14q7 4 16 4t18 -4.5t14 -12.5l168 -290l167 290q5 8 14 12.5t18 4.5t16 -4q8 -5 12.5 -14t4.5 -18t-4 -16zM408 840q14 0 24.5 -10.5t10.5 -24.5t-10.5 -24.5
t-24.5 -10.5h-270q-14 0 -24.5 10.5t-10.5 24.5t10.5 24.5t24.5 10.5h270z" />
    <glyph glyph-name="uni0233" unicode="&#x233;" horiz-adv-x="440" 
d="M36 -240q-17 0 -26.5 10.5t-9.5 24.5q0 13 8.5 22.5t20.5 11.5l8 1q39 5 67 32t42 63l37 99l-148 409q-2 4 -2 12q0 11 6 20t16 13q3 1 5.5 1.5t5.5 0.5q11 0 20.5 -6t13.5 -17l120 -330l120 330q4 11 13.5 17t20.5 6q3 0 5.5 -0.5t5.5 -1.5q10 -4 16 -13t6 -20
q0 -8 -2 -12l-186 -508q-7 -31 -23.5 -60.5t-39 -53t-50.5 -37.5t-58 -14h-12zM356 640q14 0 24.5 -10.5t10.5 -24.5t-10.5 -24.5t-24.5 -10.5h-270q-14 0 -24.5 10.5t-10.5 24.5t10.5 24.5t24.5 10.5h270z" />
    <glyph glyph-name="uni0237" unicode="&#x237;" horiz-adv-x="230" 
d="M-49 -232q-11 3 -18.5 12.5t-7.5 21.5q0 14 10.5 24.5t24.5 10.5q9 0 19.5 -3.5t20.5 -3.5q16 0 30.5 6t25.5 16.5t17.5 24.5t6.5 30v538q0 14 10.5 24.5t24.5 10.5t24.5 -10.5t10.5 -24.5v-535q0 -31 -12 -58.5t-32 -47.5t-47.5 -32t-58.5 -12q-25 0 -49 8z" />
    <glyph glyph-name="uni0259" unicode="&#x259;" horiz-adv-x="480" 
d="M71 372q25 46 66 74.5t97 33.5q41 0 76.5 -19t61.5 -52.5t41.5 -78t15.5 -95.5t-15.5 -95.5t-41.5 -78t-61.5 -52.5t-76.5 -19q-37 0 -68.5 16t-55.5 44.5t-39.5 68t-20.5 86.5q1 14 11.5 24.5t25.5 10.5h272q-1 36 -11 67t-27 54t-39 36t-48 13q-35 0 -62.5 -23
t-41.5 -53q-10 -19 -31 -19q-14 0 -24.5 10.5t-10.5 24.5q0 10 4 17zM234 59q40 0 71 31t45 80h-223q14 -49 41 -80t66 -31z" />
    <glyph glyph-name="uni0292" unicode="&#x292;" horiz-adv-x="441" 
d="M86 190q0 14 11 25l155 185h-166q-14 0 -24.5 10.5t-10.5 24.5t10.5 24.5t24.5 10.5h239q14 -1 24 -11t10 -24q0 -11 -6 -20l-163 -195h6q40 0 76 -16t62 -45.5t41.5 -71t15.5 -92.5t-15.5 -94t-41.5 -74.5t-62 -49t-76 -17.5q-45 0 -84 22.5t-66 64.5q-6 10 -6 20
q0 14 10.5 24.5t24.5 10.5q11 0 19.5 -6t13.5 -15q17 -24 39.5 -37.5t48.5 -13.5q25 0 48 12t40 34t27 52.5t10 66.5q0 32 -8 61t-27.5 51t-51 35t-77.5 13h-36q-14 0 -24.5 10.5t-10.5 24.5z" />
    <glyph glyph-name="circumflex" unicode="&#x2c6;" horiz-adv-x="320" 
d="M85 549q-10 -10 -25 -10t-25 10q-10 12 -10 25q0 15 10 25l100 100q11 11 25 11q16 0 27 -14l98 -97q10 -12 10 -25t-10 -25q-10 -10 -25 -10t-25 10l-75 75z" />
    <glyph glyph-name="caron" unicode="&#x2c7;" horiz-adv-x="320" 
d="M235 700q10 10 25 10t25 -10q10 -12 10 -25q0 -15 -10 -25l-100 -100q-5 -5 -11 -8t-14 -3q-17 0 -27 14l-98 97q-10 12 -10 25t10 25q10 10 25 10t25 -10l75 -75z" />
    <glyph glyph-name="breve" unicode="&#x2d8;" horiz-adv-x="400" 
d="M338 710q14 0 24.5 -10.5t10.5 -24.5q0 -3 -1 -6.5t-4 -11.5q-10 -26 -26.5 -47t-38.5 -37t-48.5 -24.5t-54.5 -8.5q-30 0 -57.5 9.5t-50 26t-39 39.5t-25.5 50l-1 10q0 14 10.5 24.5t24.5 10.5q25 0 33 -23q2 -4 2 -7q11 -31 39 -50.5t64 -19.5q35 0 63 19.5t40 52.5
l2 4q4 11 13 17.5t20 6.5z" />
    <glyph glyph-name="dotaccent" unicode="&#x2d9;" horiz-adv-x="230" 
d="M70 635q0 19 13 32t32 13t32 -13t13 -32t-13 -32t-32 -13t-32 13t-13 32z" />
    <glyph glyph-name="ring" unicode="&#x2da;" horiz-adv-x="520" 
d="M165 615q0 19 7.5 36.5t20.5 30.5t30 20.5t37 7.5q19 0 36.5 -7.5t30.5 -20.5t20.5 -30.5t7.5 -36.5q0 -20 -7.5 -37t-20.5 -30t-30.5 -20.5t-36.5 -7.5q-20 0 -37 7.5t-30 20.5t-20.5 30t-7.5 37zM215 615q0 -19 13 -32t32 -13t32 13t13 32t-13 32t-32 13t-32 -13
t-13 -32z" />
    <glyph glyph-name="ogonek" unicode="&#x2db;" horiz-adv-x="300" 
d="M178 -240q-25 0 -46.5 9.5t-38 26t-26 38t-9.5 46.5q0 26 9.5 47.5t26.5 38.5l85 83q11 11 25 11t24.5 -10.5t10.5 -24.5q0 -7 -2.5 -13t-6.5 -11l-80 -80q-10 -9 -16 -18.5t-6 -22.5q0 -20 13.5 -34t33.5 -16h31q14 0 24.5 -10.5t10.5 -24.5t-10.5 -24.5t-27.5 -10.5
h-25z" />
    <glyph glyph-name="tilde" unicode="&#x2dc;" horiz-adv-x="300" 
d="M20 610q13 24 36 37.5t49 13.5q23 0 43 -10l35 -18q6 -3 12 -3q13 0 22 14q9 19 31 19q6 0 16 -4q19 -10 19 -32q0 -8 -5 -18q-12 -23 -34 -36t-48 -13q-23 0 -45 11l-35 18q-6 3 -12 3q-14 0 -22 -14q-10 -19 -31 -19q-9 0 -16 4q-19 9 -19 31q0 9 4 16z" />
    <glyph glyph-name="hungarumlaut" unicode="&#x2dd;" horiz-adv-x="400" 
d="M135 700q12 10 25 10t25 -10q10 -10 10 -25t-10 -25l-100 -100q-10 -10 -25 -10t-25 10q-10 12 -10 25t10 25zM335 700q12 10 25 10t25 -10q10 -10 10 -25t-10 -25l-100 -100q-10 -10 -25 -10t-25 10q-10 12 -10 25t10 25z" />
    <glyph glyph-name="gravecomb" unicode="&#x300;" horiz-adv-x="1" 
d="M-205 600q10 -12 10 -25t-10 -25q-10 -10 -25 -10t-25 10l-100 100q-10 10 -10 25t10 25q12 10 25 10t25 -10z" />
    <glyph glyph-name="acutecomb" unicode="&#x301;" horiz-adv-x="1" 
d="M-195 700q12 10 25 10t25 -10q10 -10 10 -25t-10 -25l-100 -100q-10 -10 -25 -10t-25 10q-10 12 -10 25t10 25z" />
    <glyph glyph-name="uni0302" unicode="&#x302;" horiz-adv-x="1" 
d="M-325 549q-10 -10 -25 -10t-25 10q-10 12 -10 25q0 15 10 25l100 100q11 11 25 11q16 0 27 -14l98 -97q10 -12 10 -25t-10 -25q-10 -10 -25 -10t-25 10l-75 75z" />
    <glyph glyph-name="tildecomb" unicode="&#x303;" horiz-adv-x="1" 
d="M-380 610q13 24 36 37.5t49 13.5q23 0 43 -10l35 -18q6 -3 12 -3q13 0 22 14q9 19 31 19q6 0 16 -4q19 -10 19 -32q0 -8 -5 -18q-12 -23 -34 -36t-48 -13q-23 0 -45 11l-35 18q-6 3 -12 3q-14 0 -22 -14q-10 -19 -31 -19q-9 0 -16 4q-19 9 -19 31q0 9 4 16z" />
    <glyph glyph-name="uni0304" unicode="&#x304;" horiz-adv-x="1" 
d="M-115 640q14 0 24.5 -10.5t10.5 -24.5t-10.5 -24.5t-24.5 -10.5h-270q-14 0 -24.5 10.5t-10.5 24.5t10.5 24.5t24.5 10.5h270z" />
    <glyph glyph-name="uni0306" unicode="&#x306;" horiz-adv-x="1" 
d="M-112 710q14 0 24.5 -10.5t10.5 -24.5q0 -3 -1 -6.5t-4 -11.5q-10 -26 -26.5 -47t-38.5 -37t-48.5 -24.5t-54.5 -8.5q-30 0 -57.5 9.5t-50 26t-39 39.5t-25.5 50l-1 10q0 14 10.5 24.5t24.5 10.5q25 0 33 -23q2 -4 2 -7q11 -31 39 -50.5t64 -19.5q35 0 63 19.5t40 52.5
l2 4q4 11 13 17.5t20 6.5z" />
    <glyph glyph-name="uni0307" unicode="&#x307;" horiz-adv-x="1" 
d="M-295 635q0 19 13 32t32 13t32 -13t13 -32t-13 -32t-32 -13t-32 13t-13 32z" />
    <glyph glyph-name="uni0308" unicode="&#x308;" horiz-adv-x="1" 
d="M-395 615q0 19 13 32t32 13t32 -13t13 -32t-13 -32t-32 -13t-32 13t-13 32zM-195 615q0 19 13 32t32 13t32 -13t13 -32t-13 -32t-32 -13t-32 13t-13 32z" />
    <glyph glyph-name="uni030A" unicode="&#x30a;" horiz-adv-x="1" 
d="M-345 615q0 19 7.5 36.5t20.5 30.5t30 20.5t37 7.5q19 0 36.5 -7.5t30.5 -20.5t20.5 -30.5t7.5 -36.5q0 -20 -7.5 -37t-20.5 -30t-30.5 -20.5t-36.5 -7.5q-20 0 -37 7.5t-30 20.5t-20.5 30t-7.5 37zM-295 615q0 -19 13 -32t32 -13t32 13t13 32t-13 32t-32 13t-32 -13
t-13 -32z" />
    <glyph glyph-name="uni030B" unicode="&#x30b;" horiz-adv-x="1" 
d="M-295 700q12 10 25 10t25 -10q10 -10 10 -25t-10 -25l-100 -100q-10 -10 -25 -10t-25 10q-10 12 -10 25t10 25zM-95 700q12 10 25 10t25 -10q10 -10 10 -25t-10 -25l-100 -100q-10 -10 -25 -10t-25 10q-10 12 -10 25t10 25z" />
    <glyph glyph-name="uni030C" unicode="&#x30c;" horiz-adv-x="1" 
d="M-175 700q10 10 25 10t25 -10q10 -12 10 -25q0 -15 -10 -25l-100 -100q-5 -5 -11 -8t-14 -3q-17 0 -27 14l-98 97q-10 12 -10 25t10 25q10 10 25 10t25 -10l75 -75z" />
    <glyph glyph-name="uni0326" unicode="&#x326;" horiz-adv-x="1" 
d="M-275 -231q-11 -9 -24 -9q-14 0 -24.5 10.5t-10.5 24.5q0 11 5 17.5t11 12.5q17 15 26 35.5t9 43.5l-3 23q0 14 10.5 24.5t24.5 10.5t24 -10t12 -24q1 -6 1.5 -12t0.5 -12q0 -40 -16.5 -75t-45.5 -60z" />
    <glyph glyph-name="uni0327" unicode="&#x327;" horiz-adv-x="1" 
d="M-275 -231q-11 -9 -24 -9q-14 0 -24.5 10.5t-10.5 24.5q0 11 5 17.5t11 12.5q17 15 26 35.5t9 43.5l-3 23q0 14 10.5 24.5t24.5 10.5t24 -10t12 -24q1 -6 1.5 -12t0.5 -12q0 -40 -16.5 -75t-45.5 -60z" />
    <glyph glyph-name="uni0328" unicode="&#x328;" horiz-adv-x="1" 
d="M-141 -240q-25 0 -46.5 9.5t-38 26t-26 38t-9.5 46.5q0 26 9.5 47.5t26.5 38.5l85 83q11 11 25 11t24.5 -10.5t10.5 -24.5q0 -7 -2.5 -13t-6.5 -11l-80 -80q-10 -9 -16 -18.5t-6 -22.5q0 -20 13.5 -34t33.5 -16h31q14 0 24.5 -10.5t10.5 -24.5t-10.5 -24.5t-27.5 -10.5
h-25z" />
    <glyph glyph-name="uni03A9" unicode="&#x3a9;" horiz-adv-x="640" 
d="M380 163q0 17 15 29q27 12 50 36t39.5 54t26 63.5t9.5 64.5q0 41 -16 82t-43 74t-63.5 53.5t-77.5 20.5t-77.5 -20.5t-63.5 -53.5t-43 -74t-16 -82q0 -31 8.5 -63.5t24.5 -61.5t38 -53t49 -37q20 -10 20 -32v-128q0 -14 -10.5 -24.5t-24.5 -10.5h-140q-14 0 -24.5 10.5
t-10.5 24.5t10.5 24.5t24.5 10.5h105v70q-32 17 -57.5 47t-44 66.5t-28.5 77t-10 79.5q0 56 21 110t58 96t86 68t105 26t105 -26t86 -68t58 -96t21 -110q0 -39 -10 -79.5t-28.5 -77t-44.5 -66.5t-57 -47v-70h105q14 0 24.5 -10.5t10.5 -24.5t-10.5 -24.5t-24.5 -10.5h-140
q-14 0 -24.5 10.5t-10.5 27.5v125z" />
    <glyph glyph-name="pi" unicode="&#x3c0;" horiz-adv-x="600" 
d="M160 400h-10q-19 0 -32 -13t-13 -32q0 -14 -10.5 -24.5t-24.5 -10.5t-24.5 9t-10.5 26q0 24 9 45t25 36.5t37.5 24.5t45.5 9h388q14 0 24.5 -10.5t10.5 -24.5t-10.5 -24.5t-24.5 -10.5h-65v-295q0 -19 13 -32t33 -13q14 0 24.5 -10.5t10.5 -24.5t-9.5 -24.5t-26.5 -10.5
q-24 0 -45 9t-36.5 25t-24.5 37.5t-9 45.5v293h-175v-375q0 -14 -10.5 -24.5t-24.5 -10.5t-24.5 10.5t-10.5 24.5v375z" />
    <glyph glyph-name="uni1E9E" unicode="&#x1e9e;" horiz-adv-x="625" 
d="M502 630q3 -5 5.5 -11t2.5 -12q0 -11 -6 -20l-125 -171q34 -5 66 -20q57 -28 91 -78t34 -113q0 -45 -12 -84t-36.5 -68t-60.5 -46t-84 -17q-37 0 -65.5 10t-50.5 28.5t-39 44t-30 56.5q-4 7 -4 16q0 14 10.5 24.5t24.5 10.5q13 0 22.5 -8.5t11.5 -20.5q9 -20 19.5 -36.5
t24 -28.5t32 -19t44.5 -7q34 0 57.5 11.5t38 31t21 46t6.5 56.5t-13 56.5t-35 46t-51.5 31t-63.5 11.5h-23q-14 0 -24.5 10.5t-10.5 24.5q0 13 10 25l141 192q-44 38 -105 38q-34 0 -64 -13t-52.5 -35.5t-35.5 -52.5t-13 -64v-450q0 -14 -10.5 -24.5t-24.5 -10.5t-24.5 10.5
t-10.5 24.5v450q0 49 18.5 91.5t50.5 74.5t74.5 50.5t91.5 18.5q54 0 99.5 -21.5t77.5 -58.5z" />
    <glyph glyph-name="endash" unicode="&#x2013;" horiz-adv-x="580" 
d="M500 270q14 0 24.5 -10.5t10.5 -24.5t-10.5 -24.5t-24.5 -10.5h-420q-14 0 -24.5 10.5t-10.5 24.5t10.5 24.5t24.5 10.5h420z" />
    <glyph glyph-name="emdash" unicode="&#x2014;" horiz-adv-x="1160" 
d="M1065 270q14 0 24.5 -10.5t10.5 -24.5t-10.5 -24.5t-24.5 -10.5h-970q-14 0 -24.5 10.5t-10.5 24.5t10.5 24.5t24.5 10.5h970z" />
    <glyph glyph-name="quoteleft" unicode="&#x2018;" horiz-adv-x="220" 
d="M111 701q10 9 24 9t24.5 -10.5t10.5 -24.5q0 -11 -5 -17.5t-11 -12.5q-17 -15 -26 -35.5t-9 -43.5l3 -23q0 -14 -10.5 -24.5t-24.5 -10.5t-24 10t-12 24q-1 6 -1.5 12t-0.5 12q0 40 16.5 75t45.5 60z" />
    <glyph glyph-name="quoteright" unicode="&#x2019;" horiz-adv-x="220" 
d="M109 517q-11 -9 -24 -9q-14 0 -24.5 10.5t-10.5 24.5q0 11 5 17.5t11 12.5q35 32 35 79l-3 23q0 14 10.5 24.5t24.5 10.5t24 -10t12 -24q1 -6 1.5 -12t0.5 -12q0 -40 -16.5 -75t-45.5 -60z" />
    <glyph glyph-name="quotesinglbase" unicode="&#x201a;" horiz-adv-x="270" 
d="M135 -124q-11 -9 -24 -9q-14 0 -24.5 10.5t-10.5 24.5q0 11 5 17.5t11 12.5q35 32 35 79l-3 23q0 14 10.5 24.5t24.5 10.5t24 -10t12 -24q1 -6 1.5 -12t0.5 -12q0 -40 -16.5 -75t-45.5 -60z" />
    <glyph glyph-name="quotereversed" unicode="&#x201b;" horiz-adv-x="270" 
d="M135 517q-29 25 -45.5 60t-16.5 75q0 6 0.5 12t1.5 12q2 14 12 24t24 10t24.5 -10.5t10.5 -24.5l-3 -23q0 -47 35 -79q6 -6 11 -12.5t5 -17.5q0 -14 -10.5 -24.5t-24.5 -10.5t-24 9z" />
    <glyph glyph-name="quotedblleft" unicode="&#x201c;" horiz-adv-x="390" 
d="M111 701q10 9 24 9t24.5 -10.5t10.5 -24.5q0 -11 -5 -17.5t-11 -12.5q-17 -15 -26 -35.5t-9 -43.5l3 -23q0 -14 -10.5 -24.5t-24.5 -10.5t-24 10t-12 24q-1 6 -1.5 12t-0.5 12q0 40 16.5 75t45.5 60zM282 701q10 9 24 9t24.5 -10.5t10.5 -24.5q0 -11 -5 -17.5t-11 -12.5
q-17 -15 -26 -35.5t-9 -43.5l3 -23q0 -14 -10.5 -24.5t-24.5 -10.5t-24 10t-12 24q-1 6 -1.5 12t-0.5 12q0 40 16.5 75t45.5 60z" />
    <glyph glyph-name="quotedblright" unicode="&#x201d;" horiz-adv-x="390" 
d="M279 517q-11 -9 -24 -9q-14 0 -24.5 10.5t-10.5 24.5q0 11 5 17.5t11 12.5q35 32 35 79l-3 23q0 14 10.5 24.5t24.5 10.5t24 -10t12 -24q1 -6 1.5 -12t0.5 -12q0 -40 -16.5 -75t-45.5 -60zM108 517q-11 -9 -24 -9q-14 0 -24.5 10.5t-10.5 24.5q0 11 5 17.5t11 12.5
q35 32 35 79l-3 23q0 14 10.5 24.5t24.5 10.5t24 -10t12 -24q1 -6 1.5 -12t0.5 -12q0 -40 -16.5 -75t-45.5 -60z" />
    <glyph glyph-name="quotedblbase" unicode="&#x201e;" horiz-adv-x="390" 
d="M279 -123q-11 -9 -24 -9q-14 0 -24.5 10.5t-10.5 24.5q0 11 5 17.5t11 12.5q35 32 35 79l-3 23q0 14 10.5 24.5t24.5 10.5t24 -10t12 -24q1 -6 1.5 -12t0.5 -12q0 -40 -16.5 -75t-45.5 -60zM108 -123q-11 -9 -24 -9q-14 0 -24.5 10.5t-10.5 24.5q0 11 5 17.5t11 12.5
q35 32 35 79l-3 23q0 14 10.5 24.5t24.5 10.5t24 -10t12 -24q1 -6 1.5 -12t0.5 -12q0 -40 -16.5 -75t-45.5 -60z" />
    <glyph glyph-name="uni201F" unicode="&#x201f;" horiz-adv-x="440" 
d="M134 517q-29 25 -45.5 60t-16.5 75q0 6 0.5 12t1.5 12q2 14 12 24t24 10t24.5 -10.5t10.5 -24.5l-3 -23q0 -47 35 -79q6 -6 11 -12.5t5 -17.5q0 -14 -10.5 -24.5t-24.5 -10.5t-24 9zM305 517q-29 25 -45.5 60t-16.5 75q0 6 0.5 12t1.5 12q2 14 12 24t24 10t24.5 -10.5
t10.5 -24.5l-3 -23q0 -47 35 -79q6 -6 11 -12.5t5 -17.5q0 -14 -10.5 -24.5t-24.5 -10.5t-24 9z" />
    <glyph glyph-name="dagger" unicode="&#x2020;" horiz-adv-x="580" 
d="M500 500q14 0 24.5 -10.5t10.5 -24.5t-10.5 -24.5t-24.5 -10.5h-175v-635q0 -14 -10.5 -24.5t-24.5 -10.5t-24.5 10.5t-10.5 24.5v635h-175q-14 0 -24.5 10.5t-10.5 24.5t10.5 24.5t24.5 10.5h175v175q0 14 10.5 24.5t24.5 10.5t24.5 -10.5t10.5 -24.5v-175h175z" />
    <glyph glyph-name="daggerdbl" unicode="&#x2021;" horiz-adv-x="580" 
d="M500 40q14 0 24.5 -10.5t10.5 -24.5t-10.5 -24.5t-24.5 -10.5h-175v-175q0 -14 -10.5 -24.5t-24.5 -10.5t-24.5 10.5t-10.5 24.5v175h-175q-14 0 -24.5 10.5t-10.5 24.5t10.5 24.5t24.5 10.5h175v390h-175q-14 0 -24.5 10.5t-10.5 24.5t10.5 24.5t24.5 10.5h175v175
q0 14 10.5 24.5t24.5 10.5t24.5 -10.5t10.5 -24.5v-175h175q14 0 24.5 -10.5t10.5 -24.5t-10.5 -24.5t-24.5 -10.5h-175v-390h175z" />
    <glyph glyph-name="bullet" unicode="&#x2022;" horiz-adv-x="580" 
d="M75 235q0 45 17 84t46 68t68 46t84 17t84 -17t68 -46t46 -68t17 -84t-17 -84t-46 -68t-68 -46t-84 -17t-84 17t-68 46t-46 68t-17 84z" />
    <glyph glyph-name="ellipsis" unicode="&#x2026;" horiz-adv-x="810" 
d="M90 45q0 19 13 32t32 13t32 -13t13 -32t-13 -32t-32 -13t-32 13t-13 32zM360 45q0 19 13 32t32 13t32 -13t13 -32t-13 -32t-32 -13t-32 13t-13 32zM630 45q0 19 13 32t32 13t32 -13t13 -32t-13 -32t-32 -13t-32 13t-13 32z" />
    <glyph glyph-name="uni2027" unicode="&#x2027;" horiz-adv-x="270" 
d="M90 260q0 19 13 32t32 13t32 -13t13 -32t-13 -32t-32 -13t-32 13t-13 32z" />
    </font>
</defs>
</svg>
