<svg width="56" height="54" viewBox="0 0 56 54" fill="none" xmlns="http://www.w3.org/2000/svg">
<g clip-path="url(#clip0)">
<path d="M30.1157 44.2548L41.3207 52.8519C41.8544 53.2937 42.5181 53.5486 43.2103 53.5777C43.9025 53.6068 44.5853 53.4085 45.1542 53.0131C45.7231 52.6177 46.147 52.047 46.3611 51.388C46.5752 50.7291 46.5677 50.0182 46.3397 49.3639L41.9839 35.4653C41.7373 34.7567 41.7383 33.9856 41.9867 33.2777C42.235 32.5698 42.7161 31.9671 43.3512 31.5679L54.5152 23.9001C55.0966 23.5344 55.5436 22.9898 55.7891 22.3483C56.0346 21.7068 56.0652 21.003 55.8765 20.3426C55.6877 19.6821 55.2897 19.1008 54.7423 18.6859C54.1949 18.271 53.5277 18.045 52.8408 18.0418L38.5696 17.5669C37.858 17.5647 37.166 17.3339 36.5955 16.9086C36.025 16.4833 35.6062 15.886 35.4009 15.2047L31.041 2.25991C30.842 1.61054 30.4399 1.04216 29.8939 0.638348C29.3478 0.234534 28.6866 0.0166016 28.0074 0.0166016C27.3282 0.0166016 26.667 0.234534 26.1209 0.638348C25.5749 1.04216 25.1728 1.61054 24.9738 2.25991L20.6016 15.2047C20.3971 15.8857 19.9791 16.4829 19.4093 16.9082C18.8395 17.3335 18.1481 17.5644 17.437 17.5669L3.16172 18.0418C2.47486 18.045 1.8076 18.271 1.2602 18.6859C0.712799 19.1008 0.314819 19.6821 0.126062 20.3426C-0.0626955 21.003 -0.0320361 21.7068 0.213433 22.3483C0.458903 22.9898 0.905925 23.5344 1.48733 23.9001L12.6513 31.5679C13.2868 31.9666 13.768 32.5696 14.0157 33.2778C14.2634 33.986 14.263 34.7573 14.0146 35.4653L9.66278 49.3517C9.43485 50.0059 9.42734 50.7168 9.64141 51.3758C9.85549 52.0347 10.2794 52.6055 10.8483 53.0008C11.4173 53.3962 12.1 53.5945 12.7922 53.5654C13.4844 53.5363 14.1481 53.2814 14.6819 52.8396L25.8868 44.2425C26.4815 43.7502 27.2293 43.4809 28.0013 43.4809C28.7733 43.4809 29.5211 43.7502 30.1157 44.2425" fill="black"/>
</g>
<defs>
<clipPath id="clip0">
<rect width="56" height="53.5846" fill="white"/>
</clipPath>
</defs>
</svg>
