<?xml version="1.0" encoding="utf-8"?>
<!-- Generator: Adobe Illustrator 28.2.0, SVG Export Plug-In . SVG Version: 6.00 Build 0)  -->
<svg version="1.1" id="Capa_1" xmlns="http://www.w3.org/2000/svg" xmlns:xlink="http://www.w3.org/1999/xlink" x="0px" y="0px"
	 viewBox="0 0 26.4 26.4" style="enable-background:new 0 0 26.4 26.4;" xml:space="preserve">
<style type="text/css">
	.st0{fill:#FCFDFA;}
</style>
<g>
	<path class="st0" d="M26.4,4.1c0,7.4,0,14.9,0,22.3c-8.8,0-17.6,0-26.4,0C0,18,0,9.7,0,1.3c0.4,0,0.9,0,1.3,0c0-0.5,0-0.9,0-1.3
		C2.2,0,3.1,0,4,0c0,2.7,0,5.4,0,8.1c0.5,0,0.9,0,1.4,0c0,0.5,0,0.9,0,1.4c0.5,0,0.9,0,1.3,0c0,0.5,0,0.9,0,1.3c4.1,0,8.1,0,12.2,0
		c0-0.4,0-0.9,0-1.3c0.5,0,0.9,0,1.3,0c0-0.5,0-0.9,0-1.4c0.5,0,0.9,0,1.4,0c0-2.7,0-5.4,0-8.1c0.4,0,0.9,0,1.3,0c0,0.4,0,0.9,0,1.4
		c0.5,0,0.9,0,1.3,0c0,0.5,0,0.9,0,1.3c0.4,0,0.9,0,1.3,0c0,0.5,0,0.9,0,1.4C25.9,4.1,26.2,4.1,26.4,4.1z M23,24.3
		c0-4.1,0-8.1,0-12.1c-5.9,0-11.7,0-17.6,0c0,0.4,0,0.9,0,1.3c-0.5,0-0.9,0-1.3,0c0,3.6,0,7.2,0,10.8C10.4,24.3,16.7,24.3,23,24.3z
		 M25.6,9.5c0-0.9,0-1.8,0-2.7c-0.9,0-1.8,0-2.6,0c0,0.9,0,1.8,0,2.7C23.9,9.5,24.8,9.5,25.6,9.5z"/>
	<path class="st0" d="M6.7,0c4.1,0,8.1,0,12.2,0c0,2.7,0,5.4,0,8.1c-4.1,0-8.1,0-12.2,0C6.7,5.4,6.7,2.7,6.7,0z"/>
	<path class="st0" d="M6.8,23c0-0.4,0-0.9,0-1.3c5,0,9.9,0,14.9,0c0,0.4,0,0.9,0,1.3C16.7,23,11.7,23,6.8,23z"/>
	<path class="st0" d="M6.8,16.2c0-0.9,0-1.8,0-2.7c2.2,0,4.5,0,6.7,0c0,0.9,0,1.8,0,2.7C11.2,16.2,9,16.2,6.8,16.2z"/>
	<path class="st0" d="M17.6,17.6c0,0.4,0,0.9,0,1.3c-3.6,0-7.2,0-10.8,0c0-0.4,0-0.9,0-1.3C10.3,17.6,13.9,17.6,17.6,17.6z"/>
</g>
</svg>
